<svg id="bade1033-d8a0-4676-b064-49c3c7cd271d" data-name="图层 1" xmlns="http://www.w3.org/2000/svg" xmlns:xlink="http://www.w3.org/1999/xlink" viewBox="0 0 1920 1380"><defs><linearGradient id="ba387b76-a40b-4f64-8553-53835e57abd7" x1="1344.54" y1="542.45" x2="1542.4" y2="-80.38" gradientUnits="userSpaceOnUse"><stop offset="0" stop-color="#02f8ff"/><stop offset="0.03" stop-color="#02dae3"/><stop offset="0.07" stop-color="#01b1bc"/><stop offset="0.12" stop-color="#018b99"/><stop offset="0.18" stop-color="#016b7a"/><stop offset="0.24" stop-color="#014f61"/><stop offset="0.3" stop-color="#00394c"/><stop offset="0.38" stop-color="#00293c"/><stop offset="0.48" stop-color="#001d31"/><stop offset="0.62" stop-color="#00162b"/><stop offset="1" stop-color="#001429"/></linearGradient><linearGradient id="ba46c17a-b67e-43c5-a810-4fc9f1bbd94f" x1="236.57" y1="474.72" x2="194.42" y2="290.33" gradientUnits="userSpaceOnUse"><stop offset="0" stop-color="#02f8ff"/><stop offset="0.05" stop-color="#02d5df"/><stop offset="0.13" stop-color="#01aab7"/><stop offset="0.21" stop-color="#018394"/><stop offset="0.3" stop-color="#016376"/><stop offset="0.4" stop-color="#00495e"/><stop offset="0.5" stop-color="#00344b"/><stop offset="0.62" stop-color="#00263e"/><stop offset="0.76" stop-color="#001e36"/><stop offset="1" stop-color="#001b34"/></linearGradient><linearGradient id="b1566ce4-781b-4f60-b672-db4d11564f8d" x1="626.55" y1="342.02" x2="584.41" y2="132.17" gradientUnits="userSpaceOnUse"><stop offset="0" stop-color="#02f8ff"/><stop offset="0.01" stop-color="#02f0f7"/><stop offset="0.07" stop-color="#02c3cf"/><stop offset="0.13" stop-color="#019baa"/><stop offset="0.19" stop-color="#01788a"/><stop offset="0.27" stop-color="#015b6f"/><stop offset="0.35" stop-color="#004459"/><stop offset="0.44" stop-color="#003148"/><stop offset="0.55" stop-color="#00253d"/><stop offset="0.69" stop-color="#001d36"/><stop offset="1" stop-color="#001b34"/></linearGradient></defs><path d="M1561.88,319.3a1.3,1.3,0,0,0,0-.19S1561.86,319.19,1561.88,319.3Z" style="fill:none"/><path d="M1579.09,317a1.13,1.13,0,0,1,0-.12S1579.1,317,1579.09,317Z" style="fill:none"/><path d="M1579.09,317a1.13,1.13,0,0,1,0-.12S1579.1,317,1579.09,317Z" style="fill:none"/><path d="M1561.88,319.3a1.3,1.3,0,0,0,0-.19S1561.86,319.19,1561.88,319.3Z" style="fill:none"/><path d="M1871.14,54.32c4,.91,20.07,4.26,22.91.8,3.24-3.95-.71-10.64-.71-10.64s11.86,0,10.34-5.88-14.7-5-14.7-5,10.24-6.08,7-13.78-14.19-5.17-14.19-5.17-.71,13.12-25.5,12.82c0,0,14.5,0,13.94,6.08s-13.94,10.34-13.94,10.34,14.81-1.06,13.94,10.19l.82.19Z" style="fill:#607f20"/><rect x="0.03" width="1920" height="100" style="fill:#001429"/><path d="M1113.17,110.55s3.67-10-1.9-14.8-14.93,0-14.93,0,9-9.91-.41-18.46c-8.26-7.55-32.56-13.61-38.19-14.94l-1.19-.27s31.23,18.19,27.43,28.78-20.37,9.24-20.37,9.24,2.72,17.38-10.32,20.91-24-18.2-24-18.2,2,25.87-11,26.68-20.16-25.86-20.16-25.86,5.7,29.33-9,33.4-35-30.69-35-30.69-.81,35.58-15.75,39.92-18.73-17.92-18.73-17.92-10.87,26.88-27.43,25-13.85-37.61-13.85-37.61S864.83,141.65,851,137.3,843.92,96,843.92,96s-13.85,13.58-25.53,10-2.92-19.35-2.92-19.35c-33.4,14.26-31.77-2.85-31.77-2.85s-12.83,33.81-30.35,33.2-7.13-38.7-7.13-38.7-9,29.13-20.16,27.29-2.85-28.1-2.85-28.1-15.68,28.1-35.24,26.27-12.22-27.29-12.22-27.29-31.16,22.4-37.27,11.4c-4.84-8.72,8.62-19,14.4-22.84-5.12,3-17.4,8.52-30.28,3.09C605.69,61.06,621,50.67,621,50.67c-47.87-3.05-33.41-24.24-33.41-24.24s-21.38,2.25-20.36,16.71c.73,10.44,17.51,10.47,26.78,9.68,3.51-.54,6-.72,6-.72s-2.45.42-6,.72c-8.34,1.29-22.42,4.64-22.71,12.52-.41,11.2,30.35,12,30.35,12s-44.17.43-41.86,12.43c2.65,13.74,56.11,2.44,56.11,2.44s-47.25,16-43.89,28.72,27.7,4,27.7,4S573.41,135.3,576,144.46s29.13,3.87,29.13,3.87-22.27,18-11.24,31.47,45.66-16.29,45.66-16.29-10.79,34,2.85,36.66,23.42-25.26,23.42-25.26-2.24,38.9,16.91,41.14,27.7-33.81,27.7-33.81,17.11,22.61,40.53,17.93c22-4.39,18.32-25.08,17.78-27.64,0-.16-.06-.27-.06-.27s0,.1.06.27c.39,1.72,3.19,12.31,12.36,11.75,9.36-.57,11.37-13.32,11.59-14.91,0-.1,0-.16,0-.16s0,.06,0,.16c-.17,1.38-1.26,11.6,3.48,13.69,5.1,2.24,14.46-4.69,14.46-4.69s-6.31,5.91,0,15.89c0,0-20.16.2-25.05,7.33s8.56,11.61,8.56,11.61-21.59,9-12.22,20,35.44-10,35.44-10-2.86,23.63,9.36,26.68,15.48-17.92,15.48-17.92-3,21.18,20.37,18.23,3.67-42.47,3.67-42.47,21.59.21,20-24.84c0,0,1.83,8.75,14.87,6.92,0,0-15.08,5.91-11.82,13.65s18.33,3,18.33,3-15.48,9.57-10.79,15.89,22.61-4.48,22.61-4.48-16.23,9.57-9.17,16.63,23.63-9.78,23.63-9.78-.28,19.56,13.57,16.84,4.08-35.3,4.08-35.3,3.8,11.95,15.48,10.32c0,0,7.6,8.42,20,2.71,11-5.05,11.15-22.87,11-26.88,0-.52,0-.82,0-.82s0,.3,0,.82c.28,6,2.84,42.85,22,20.37,0,0,.2,35.84,18.94,35.84s16.7-38.9,16.7-38.9S1066,233.16,1080,227.05s2.65-29.73,2.65-29.73,12.42,11,25.66,5.09,6.11-21.18,6.11-21.18,13.31,8.48,21.93.06c0,0,2.58-8.41-5.84-19.28,0,0,14.13,1.9,16-2.71s-14.67-13.72-14.67-13.72,20,6.25,22.68,1.63-10.87-13.58-10.87-13.58,16,7.74,18.74,1.5S1155.27,104.85,1113.17,110.55Z" style="fill:#001429"/><path d="M1037.88,48.43s17.93-5.7,18.67-13.85-18.67-8.15-18.67-8.15c33.2.41,34.15-17.17,34.15-17.17a17.2,17.2,0,0,0-7.87-15.51c-9.07-6.22-18.54-1.74-18.54-1.74s8.45-10.38.31-17.92-25.36-3.77-25.36-3.77S1000.51-25,996-14.2c0,0,2.14-27-30.86-22.5,0,0,2-17.52-13.24-15.48s-20.77,30.34-20.77,30.34S923-40.78,890-36.7c0,0,18.33-10,12-21S875.76-55,875.76-55s-3.67-12.68-14.66-8.2-6.93,28.31-6.93,28.31-22.61-13.24-32-5.09,16.09,28.72,16.09,28.72-19.34-.62-26.88,15.07c0,0-3.26-13-21.18-7.95,0,0-9.17-10.59-25.26-3.66,0,0-13.24-19.76-43.92-3.87,0,0,7.6-14.12-1.63-21.32s-41.42,2-40.19,29.06c0,0-24.85-20.64-33.81-7.88S665,18.76,665,18.76s-31.16-7.4-30.55,8.49c0,0-27.09-19.55-46.85-.82,0,0-14.46,21.19,33.41,24.24,0,0-15.28,10.39,1.63,17.52,12.88,5.43,25.16-.14,30.28-3.09,1.51-1,2.51-1.6,2.51-1.6a27.51,27.51,0,0,1-2.51,1.6c-5.78,3.87-19.24,14.12-14.4,22.84,6.11,11,37.27-11.4,37.27-11.4S668.42,102,688,103.83s35.24-26.27,35.24-26.27-8.35,26.27,2.85,28.1,20.16-27.29,20.16-27.29-10.38,38.09,7.13,38.7,30.35-33.2,30.35-33.2-1.63,17.11,31.77,2.85c0,0-8.76,15.82,2.92,19.35s25.53-10,25.53-10S837.13,133,851,137.3s27.43-21.59,27.43-21.59-2.72,35.71,13.85,37.61,27.43-25,27.43-25,3.8,22.27,18.73,17.92,15.75-39.92,15.75-39.92,20.37,34.76,35,30.69,9-33.4,9-33.4,7.13,26.68,20.16,25.86,11-26.68,11-26.68,10.93,21.73,24,18.2,10.32-20.91,10.32-20.91,16.57,1.35,20.37-9.24-27.43-28.78-27.43-28.78C1057.71,47,1037.88,48.43,1037.88,48.43Z" style="fill:#001429"/><path d="M1028.42-15.49c-5.17,9,13.78,13.64,13.78,13.64s-14.53-1.72-14.29,3.58,14.71,7.34,14.71,7.34S1019.89,6.36,1018,12s8.44,8.1,8.44,8.1-21.18-1.34-16.61,8.05,40.37,1.25,40.37,1.25-12.09,12.48.13,17.21S1074.65,32,1074.65,32s5.13,14.56,17.09,11,8.5-25.59,8.5-25.59,5.22,8.46,11.07,6,2.46-17.68,2.46-17.68,5.36,6.08,14.59.88c0,0-5.62,8.92,5.13,9.83S1150,6.79,1150,6.79s-.77,5.43,8.29,4.19c0,0-.74,15.2,16,16.25s23.37-23,23.37-23-.3,7.1,6.31,7.24,5.83-17.76,5.83-17.76,3,13.54,10.89,14,13.16-10.92,13.16-10.92S1230.68,13.4,1243.1,16,1264.83.28,1264.83.28s-1.07,7.74,7.41,11.13a9.85,9.85,0,0,0,12.45-3.61c.1-.15.15-.24.15-.24s0,.09-.15.24c-1.33,2.16-10.94,18.71,7,21,0,0-18.32,15.2-5.53,22.88S1313,37.5,1313,37.5s4.61,9,17.7,4.91,13.74-21.56,13.74-21.56,16.85,4.26,23.66-5.91c0,0,7.54-15.91-24.58-17.11,0,0,8.47-13.06-28.43-10.76,0,0,17.46-14.26,8.37-23.31s-24,5.57-24,5.57,4.86-16.23-7.3-18.86-17.06,13.8-14.81,28.08c0,0-4.12-9.78-22.92-9.2,0,0,4.33-8.56.08-11.89s-12,3.63-12,3.63,2.21-7.65-4.85-9.72-12.3,10.78-12.3,10.78-4.57-4.74-12.86-2.81c0,0,9.25-13.21,2-16.65S1198-47.13,1198-47.13s3-9-2.75-10.82-13.68,8.58-13.68,8.58,3.56-13.3-2.46-15.32-13.89,16.86-13.89,16.86-2.26-19.38-15.12-17.09S1151.72-40,1151.72-40s-17.68-14.9-23-3.3c0,0-4-12.41-19.62-14.88s-4.62,12.78-4.62,12.78-10.32-4.34-12.07,2.07l-.26,2.06s-11.19-5.33-20.37-1-7.08,14.74,7,16.59h0c-.72-.1-6.17-.65-6.83,6,0,0-13.58-6.39-17.15,2C1054.83-17.77,1033.59-24.5,1028.42-15.49Z" style="fill:#001429"/><path d="M1368.05,14.94c-6.81,10.17-23.66,5.91-23.66,5.91s-.66,17.5-13.74,21.56S1313,37.5,1313,37.5s-14,21.84-26.77,14.15,5.53-22.88,5.53-22.88c-18-2.26-8.35-18.81-7-21a9.85,9.85,0,0,1-12.45,3.61C1263.76,8,1264.83.28,1264.83.28s-9.3,18.34-21.73,15.73-9.24-19.25-9.24-19.25-5.26,11.4-13.16,10.92-10.89-14-10.89-14,.78,17.91-5.83,17.76-6.31-7.24-6.31-7.24S1191,28.27,1174.3,27.23s-16-16.25-16-16.25c-9.06,1.24-8.29-4.19-8.29-4.19s-5.79,10.58-16.55,9.67-5.13-9.83-5.13-9.83c-9.23,5.2-14.59-.88-14.59-.88s3.39,15.21-2.46,17.68-11.07-6-11.07-6,3.47,22-8.5,25.59-17.09-11-17.09-11-12.15,19.27-24.36,14.55-.13-17.21-.13-17.21-35.8,8.15-40.37-1.25,16.61-8,16.61-8S1016,17.59,1018,12s24.66-2.9,24.66-2.9S1028.15,7,1027.91,1.73s14.29-3.58,14.29-3.58-19-4.63-13.78-13.64,26.41-2.28,26.41-2.28a52,52,0,0,0-31-2.92c-16.88,3.83-6.55,21.36-6.55,21.36S997.36,3.9,985.71,13.59,961,39.72,984.58,40.37c0,0-10.35,5.31-16.94,11.75-.38.45-8.57,10.45,30.42,6.24a26.63,26.63,0,0,0-4,3.7c2-.73,3.41-1.29,3.78-1.45l.11,0-.11,0c-.38.16-1.85.77-4,1.7-3.39,4.13-4.66,9.88,16,8.83,0,0-7.63,4.27-12.52,9.81l2.3-.77.79-.29c1.29-.45.83-.27-.79.29l-2.45.93c-3.34,3.85-5.33,8.3-2.56,12.36,6.83,10,41.86-4.26,41.86-4.26s-12.67,13.72-8,20.91,16.88-10,16.88-10-4,18.26,11.42,20.39S1075.84,94,1075.84,94s21.83,9.55,35-.25S1122,64.33,1122,64.33s10.53,6.29,18.09.92,4.8-17.55,4.8-17.55,13.75,0,22-9.44c0,0-9.37,12.83-3.22,16.34s12.83-7.67,12.83-7.67-6.45,19.61,3.77,21.34S1194.45,50,1194.45,50s1.84,12.31,12.79,11.87c9.54-.39,6.89-19.27,6.06-24.08-.15-.69-.21-1.12-.21-1.12s.09.41.21,1.12c.62,2.78,2.92,9.91,10.4,11.14,9.32,1.53,15.46-9.06,15.46-9.06s-4.72,10.63,6.06,13.94c0,0-4.5.17-3.63,4.73,0,0-13.58-10-17.29-.28s2.68,24.41,21.57,24.95c0,0-9.2,12.39-1,18.55s21.11-4.1,21.11-4.1.67,23.37,19.15,21.84S1296,95.67,1296,95.67s13.28,4.06,19.2-4.06,1.88-19,1.88-19,15.68,8.35,29.55,7.13,19.81-11.79,7.88-19.39c0,0,21,7.27,24.87-2.73S1367.76,38,1367.76,38s19.25,3.13,23-4S1368.05,14.94,1368.05,14.94Z" style="fill:#001429"/><path d="M1936.81,179.46s3.47-7.2-.32-11.14-11.1-1.1-11.1-1.1,7.39-6.7,1.06-13.75c-5.58-6.21-23.19-12.5-27.28-13.9l-.86-.29s21.87,15.81,18.26,23.4-15.81,5.36-15.81,5.36.74,13.11-9.21,14.78-16.46-15.28-16.46-15.28-.39,19.36-10.14,19-13.08-20.7-13.08-20.7,2.08,22.21-9.11,24.16S1819,164.63,1819,164.63s-3.22,26.37-14.64,28.5-12.6-14.7-12.6-14.7-10,19.18-22.22,16.55-7.52-29-7.52-29-12,18.27-22,14-2.21-31.19-2.21-31.19-11.29,9.07-19.7,5.59-.75-14.59-.75-14.59c-25.87,8.13-23.4-4.46-23.4-4.46s-12,24.17-25,22.43-2.44-29.27-2.44-29.27-8.81,21-17,18.79,0-21.09,0-21.09-13.72,19.73-28.12,16.92-7.07-21.17-7.07-21.17-24.8,14.35-28.53,5.73c-3-6.84,7.8-13.46,12.38-15.92-4,1.83-13.56,5.06-22.73.07-12-6.54.08-13.13.08-13.13-35.34-5.79-23-20.47-23-20.47s-16.06.09-16.37,10.91c-.22,7.82,12.25,9.08,19.19,9.17,2.65-.14,4.52-.1,4.52-.1s-1.86.14-4.52.1c-6.29.35-17,1.79-17.79,7.63-1.13,8.29,21.66,11.16,21.66,11.16s-32.85-2.94-32,6.15c.95,10.41,41.51,5.94,41.51,5.94s-36.28,8.41-34.72,18.11,20.28,5,20.28,5-20.28,5.78-19.07,12.78,21.36,5,21.36,5-17.87,11.75-10.66,22.55S1581,184,1581,184s-10.53,24.47-.58,27.44,19.26-17,19.26-17-4.53,28.74,9.53,31.81,23.07-23.08,23.07-23.08,11,18.06,28.79,16.3c16.64-1.65,15.46-17.28,15.25-19.23,0-.11,0-.2,0-.2l0,.2c.16,1.32,1.46,9.39,8.32,9.65s9.43-9.06,9.71-10.23l0-.12a1.13,1.13,0,0,0,0,.12c-.23,1-1.8,8.53,1.58,10.43,3.61,2,11.09-2.42,11.09-2.42s-5.13,3.93-1.17,11.8c0,0-15-1.33-19.16,3.61s5.5,9.25,5.5,9.25-16.69,5.07-10.54,13.93,27.06-4.8,27.06-4.8-3.86,17.34,5,20.51,12.82-12.18,12.82-12.18-3.83,15.51,13.79,15,5.85-31.28,5.85-31.28,16,1.74,16.66-17c0,0,.71,6.64,10.53,6.24,0,0-11.63,3.28-9.78,9.27s13.4,3.62,13.4,3.62-12.21,6-9.19,11,17.12-1.67,17.12-1.67-12.76,5.92-8,11.69,18.27-5.53,18.27-5.53-1.64,14.51,8.85,13.51,5.63-25.93,5.63-25.93,1.94,9.16,10.74,8.81c0,0,5,6.81,14.68,3.49,8.55-2.95,10-16.18,10.17-19.16,0-.4,0-.61,0-.61s0,.22,0,.61c-.23,4.5-1,32,14.82,16.74,0,0-2.48,26.65,11.44,28s15.27-27.67,15.27-27.67,6,18.16,16.88,14.66,4.16-21.9,4.16-21.9,8.42,9.08,18.69,5.67,6.1-15.29,6.1-15.29,9.26,7.29,16.29,1.67c0,0,2.53-6.07-2.92-14.76,0,0,10.35,2.45,12.1-.84s-9.88-11.27-9.88-11.27,14.37,6.11,16.72,2.88-7.07-10.89-7.07-10.89,11.34,6.93,13.82,2.49S1968.51,178.32,1936.81,179.46Z" style="fill:#001429"/><path d="M1885.44,127.76s13.74-2.92,14.9-8.91-13.28-7.43-13.28-7.43c24.64,2.75,26.64-10.25,26.64-10.25a12.83,12.83,0,0,0-4.71-12.1,14.69,14.69,0,0,0-13.64-2.65s7-7.1,1.54-13.3-18.56-4.66-18.56-4.66-15.25,2-19.37,9.69c0,0,3.57-19.89-21.27-19,0,0,2.8-12.87-8.7-12.48s-17.67,21-17.67,21-4.66-14.67-29.47-14.07c0,0,14.35-6.07,10.47-14.7s-19.72.07-19.72.07-1.79-9.69-10.29-7.17-7.23,20.52-7.23,20.52-15.82-11.5-23.38-6.13,9.84,22.52,9.84,22.52-14.33-1.88-21.09,9.22c0,0-1.46-9.93-15.15-7.46,0,0-6-8.55-18.49-4.59,0,0-8.39-15.65-32.35-6.1,0,0,6.68-9.94.35-16s-30.92-1.54-32,18.63c0,0-16.94-17.16-24.54-8.34s12.28,24.14,12.28,24.14-22.6-7.79-23.32,4.06c0,0-18.69-16.53-34.74-4.06,0,0-12.31,14.68,23,20.47,0,0-12.11,6.59-.08,13.13,9.17,5,18.71,1.76,22.73-.07,1.2-.64,2-1,2-1a18.86,18.86,0,0,1-2,1c-4.58,2.46-15.34,9.08-12.38,15.92,3.73,8.62,28.53-5.73,28.53-5.73s-7.32,18.37,7.07,21.17,28.12-16.92,28.12-16.92-8.14,18.9,0,21.09,17-18.79,17-18.79S1656,156.08,1669,157.82s25-22.43,25-22.43-2.47,12.59,23.4,4.46c0,0-7.67,11.1.75,14.59s19.7-5.59,19.7-5.59-7.76,26.94,2.21,31.19,22-14,22-14-4.65,26.34,7.52,29,22.22-16.55,22.22-16.55,1.18,16.83,12.6,14.7,14.64-28.5,14.64-28.5S1831.56,192,1842.76,190s9.11-24.16,9.11-24.16,3.34,20.35,13.08,20.7,10.14-19,10.14-19,6.52,16.94,16.46,15.28,9.21-14.78,9.21-14.78,12.21,2.23,15.81-5.36-18.26-23.4-18.26-23.4C1900.28,128.16,1885.44,127.76,1885.44,127.76Z" style="fill:#001429"/><path d="M1948.86,233.73c-7,5.62-16.29-1.67-16.29-1.67s4.17,11.88-6.1,15.29-18.69-5.67-18.69-5.67,6.74,18.39-4.16,21.9-16.88-14.66-16.88-14.66-1.35,29.05-15.27,27.67-11.44-28-11.44-28c-15.85,15.3-15-12.24-14.82-16.74-.21,3-1.62,16.21-10.17,19.16-9.65,3.32-14.68-3.49-14.68-3.49-8.8.35-10.74-8.81-10.74-8.81s4.86,24.93-5.63,25.93-8.85-13.51-8.85-13.51-13.54,11.29-18.27,5.53,8-11.69,8-11.69-14.11,6.7-17.12,1.67,9.19-11,9.19-11-11.55,2.37-13.4-3.62,9.78-9.27,9.78-9.27c-9.82.4-10.53-6.24-10.53-6.24-.64,18.73-16.66,17-16.66,17s11.77,30.81-5.85,31.28-13.79-15-13.79-15-4,15.35-12.82,12.18-5-20.51-5-20.51-20.91,13.67-27.06,4.8,10.54-13.93,10.54-13.93-9.65-4.31-5.5-9.25,19.16-3.61,19.16-3.61c-4-7.87,1.17-11.8,1.17-11.8s-7.48,4.46-11.09,2.42c-3.38-1.9-1.81-9.42-1.58-10.43-.28,1.17-2.72,10.49-9.71,10.23s-8.16-8.33-8.32-9.65c.21,1.95,1.39,17.58-15.25,19.23-17.74,1.76-28.79-16.3-28.79-16.3s-9,26.16-23.07,23.08-9.53-31.81-9.53-31.81-9.32,20-19.26,17S1581,184,1581,184s-27.92,19.54-35.12,8.74,10.66-22.55,10.66-22.55-20.14,2-21.36-5,19.07-12.78,19.07-12.78-18.72,4.72-20.28-5,34.72-18.11,34.72-18.11-40.56,4.47-41.51-5.94c-.84-9.09,32-6.15,32-6.15s-22.79-2.87-21.66-11.16c.79-5.84,11.5-7.28,17.79-7.63-6.94-.09-19.41-1.35-19.19-9.17.31-10.82,16.37-10.91,16.37-10.91,16-12.47,34.74,4.06,34.74,4.06.72-11.85,23.32-4.06,23.32-4.06S1590.68,63,1598.27,54.14s24.54,8.34,24.54,8.34c1.08-20.17,25.67-24.66,32-18.63s-.35,16-.35,16c24-9.55,32.35,6.1,32.35,6.1,12.46-4,18.49,4.59,18.49,4.59C1719,68,1720.45,78,1720.45,78c6.76-11.1,21.09-9.22,21.09-9.22s-17.4-17.16-9.84-22.52,23.38,6.13,23.38,6.13-1.27-18,7.23-20.52S1772.6,39,1772.6,39s15.84-8.71,19.72-.07-10.47,14.7-10.47,14.7c24.81-.6,29.47,14.07,29.47,14.07s6.17-20.63,17.67-21,8.7,12.48,8.7,12.48c24.84-.9,21.27,19,21.27,19,4.12-7.69,19.37-9.69,19.37-9.69s.72-9.33-12.55-19.3c0,0,19.27,1.8,24.28-3.51s-5.48-9.4-5.48-9.4,11.71-3.12,12-8.39-5.28-7.35-5.28-7.35-3.33-9.6-15.62-13S1852,8.77,1852,8.77s8.28-10.57,1.92-19.68-18-6.13-18-6.13,16.74-4.68,16.36-17-22.87-12.89-22.87-12.89,8.64-10.91,2.08-16.37-16.09,6.58-16.09,6.58,2.47-11.83-5.71-14-15.39,8-15.39,8-1.65-10.4-7.77-8.71-5.11,19.13-5.11,19.13a15.35,15.35,0,0,0-8.28,3.46c-4,3.27-3.93,9.54-3.93,9.54a19.37,19.37,0,0,0-10-3.28s13-3.1,11.48-13.84S1749-60.31,1749-60.31s6.89-30.49-29-24.48c0,0-1.22-6.18-10.3-9.22,0,0,17.09,2.36,22.43-1.19s-.14-8.87-.14-8.87,14.44,1.32,17.82-8.12-5.35-13.88-5.35-13.88,3.12-16.55-36.8-14.69c0,0,12.28-6.73,12.65-13.57s-9-9.6-9-9.6,12.77-.88,13.87-7.34-8.48-8.48-8.48-8.48,16.52-1.73,19.26-12.46-7.32-14-7.32-14,13.59-10.72,3.18-19.7-25.12-2.49-25.12-2.49-.08-14.67-14.3-16.08-17.45,14.16-17.45,14.16-3.18-7.27-21.58-6.64c0,0,9.93-14.61-9.41-19.12,0,0-2.74-16.32-21.73-18.2s-25.05,13.8-25.05,13.8a11.13,11.13,0,0,0-6.79-2.15s8.1-15-8.67-16.35c0,0,10.5-11.39-.12-17.33s-25.55,9.08-25.55,9.08-1-13.54-17.61-10.5c0,0,13.76-7.7,9.15-15.19s-21.63,5.5-21.63,5.5-.52-17.93-13.82-16.35-13.64,23.56-13.64,23.56-9.62-14.45-23.5-10.12-5.65,22.16-5.65,22.16-11-1.81-13.12,8c0,0-2.06-5.91-8.32-6.53a9.14,9.14,0,0,0-8.63,3.67l-.22.34.22-.34c1.11-1.73,5.84-9.78,1.08-13.79-5.36-4.5-19.58,5.29-19.58,5.29s-6.7-17.24-14.94-13.47,2.74,23.27,2.74,23.27-8.37-7.76-19.67-8.88-30.36,5.15-7.34,14.45c0,0-10.31-2.34-16.62-3s-13.61,1.61-14,5.8,11.45,6.74,11.45,6.74-18.5-1.38-21.74,8.69c0,0-12.71.83-13.43,8.09s16.17,11.54,16.17,11.54-21.86,2.62-22.56,9.78,13.69,10.84,13.69,10.84-11.34,4.47-12,9.61,6.48,7.57,6.48,7.57-8.14-2.13-11.68-.34c0,0-.46-10.77-11-11.81s-13.06,7.64-13.06,7.64-8.4-2.61-13.18,4.56,3.16,13.35,3.16,13.35-6.43-.94-9.09,2.26,2.82,7.51,2.82,7.51-4.47-1.16-7,1.95c0,0,.32-9.44-12.36-10,0,0,13.6-9.38,9.77-14s-15,3.14-15,3.14,3.35-14.15-5.88-15.06-12,23.57-12,23.57-13.42-18.32-23-10.5,3.78,27.68,3.78,27.68-10.16-4.88-16.06-.88-6.13,11-6.13,11-7.53-5.22-18.81-.43c0,0,18.86-13.24,13.34-20s-20.61,1.32-20.61,1.32,5.29-12.72-3.89-13.63-12,15.93-12,15.93-6.7-9.53-15.93-5.86-9.43,17.1-9.43,17.1-6.63-4-9.08,4.19c0,0-17.92-9.31-24.52,5.93s16.83,29.58,16.83,29.58-14.45,3.15-17.71,20.63c0,0-23.43-5.35-25.07,11.2s32.26,18.88,32.26,18.88-.48,2.7,4,5.59c0,0-20-8.19-24.78,3.33s14.3,25.33,14.3,25.33c0-9.32,12.33-4.13,12.33-4.13s-11-15.25,4.62-12.78,19.62,14.88,19.62,14.88c5.32-11.6,23,3.3,23,3.3s-14.47-22.63-1.61-24.92,15.12,17.09,15.12,17.09,7.88-18.89,13.89-16.86,2.46,15.32,2.46,15.32,7.9-10.38,13.68-8.58S1198-47.13,1198-47.13s9.14-13.62,16.44-10.18-2,16.65-2,16.65c8.29-1.93,12.86,2.81,12.86,2.81s5.25-12.86,12.3-10.78,4.85,9.72,4.85,9.72,7.71-7,12-3.63-.08,11.89-.08,11.89c18.8-.58,22.92,9.2,22.92,9.2-2.25-14.28,2.64-30.71,14.81-28.08s7.3,18.86,7.3,18.86,14.89-14.62,24-5.57S1315-12.93,1315-12.93c36.9-2.3,28.43,10.76,28.43,10.76,32.12,1.2,24.58,17.11,24.58,17.11s26.48,11.94,22.72,19.06-23,4-23,4,15.55,9.64,11.65,19.65-24.87,2.73-24.87,2.73c11.93,7.6,6,18.17-7.88,19.39s-29.55-7.13-29.55-7.13,4,10.87-1.88,19-19.2,4.06-19.2,4.06,7.57,22.3-10.92,23.83S1266,97.66,1266,97.66s-12.93,10.25-21.11,4.1,1-18.55,1-18.55C1227,82.67,1220.59,68,1224.3,58.26s17.29.28,17.29.28c-.87-4.56,3.63-4.73,3.63-4.73-10.78-3.31-6.06-13.94-6.06-13.94s-6.14,10.59-15.46,9.06c-7.48-1.23-9.78-8.36-10.4-11.14.83,4.81,3.48,23.69-6.06,24.08-11,.44-12.79-11.87-12.79-11.87s-3.91,20-14.13,18.27-3.77-21.34-3.77-21.34-6.69,11.18-12.83,7.67,3.22-16.34,3.22-16.34c-8.27,9.42-22,9.44-22,9.44s2.76,12.19-4.8,17.55-18.09-.92-18.09-.92,2,19.66-11.17,29.45-35,.25-35,.25-3.75,28.66-19.13,26.53-11.42-20.39-11.42-20.39-12.24,17.13-16.88,10,8-20.91,8-20.91-35,14.26-41.86,4.26c-2.77-4.06-.78-8.51,2.56-12.36C986,85.49,958.22,98,962.64,107.65c4.75,10.43,30.18-3,32.27-4.11l.16-.09-.16.09c-1.35.75-11.4,6.71-8.77,17.52,0,0-18.5-1.38-19.39,8.39s15.85,5,15.85,5-7,5.73-2.19,9.72,18.78-8.31,18.78-8.31a13.61,13.61,0,0,0,13.82,4s-14.88,4.45-12.53,10,19-1.33,19-1.33-18.43,23.26-10.58,30.46,20.41-10.61,20.41-10.61-3.9,35.26,10.84,36.52,15.42-28.12,15.42-28.12,14.89,16.3,22.73,15.85,4.12-23.12,4.12-23.12,3.59,14.72,10.68,15.58,11.17-15.55,11.17-15.55-2.18,9.71,1.89,13.32,9.56-2.41,9.56-2.41-4.3,9.51,3.84,10.62,19.25-10.78,19.25-10.78-9.44,18.17-2.48,21.91,22.38-16.12,22.38-16.12-4.06,24.81,5.85,25.79,13-15.67,13-15.67,20.4,12.34,27.81,6.12,3.09-26.59,3.09-26.59,7.08,15.75,17,13.91,9.87-38.75,9.87-38.75,4.4,11.13,12.45,10.1c5.33-.69,7.46-5,8.3-7.89a7.21,7.21,0,0,1,.53-2.55,14.8,14.8,0,0,1-.53,2.55c-.07,2.22.79,5.47,5.44,8,0,0-25.58,6.79-24,14.43s23.74,5.05,23.74,5.05-15.72,4.92-14.57,10.28,20.41,1.25,20.41,1.25-18.46,10.5-17.5,18.24,33.3,5.28,33.3,5.28-18.4,9.94-15.05,17.76,44.7-5.5,44.7-5.5-37.7,30.49-26.64,37.55,24-10.77,24-10.77.74,17.19,11,17.44,19.58-25,19.58-25,9.42,22.18,25.87,21.21,16.27-27,16.27-27,4.47,11.9,12.7,12.1,12.54-20.15,12.54-20.15.47,9.22,4.37,9.91c3.57.63,8.55-1.4,9.37-1.75l.13-.06-.13.06c-1.16.5-9.84,4.45-8.85,8.83,1.07,4.69,15.94,7.23,15.94,7.23s-15.6-1.39-17.14,3.35,9.41,8.42,9.41,8.42-31.63,1.45-29.72,11.57,33.48,4.39,33.48,4.39-14.15,5.62-10.91,11.45,17.32-3.64,17.32-3.64-5.54,23.6,5.84,25.95,13.41-22.82,13.41-22.82,8.68,12.63,16,11.52,8.31-23.78,8.31-23.78,10.69,6.25,16,2-5.68-22.87-5.68-22.87,6.07,3.5,10.27,4.22,11.47-.08,11.47-.08-6.06,2.61-5.73,5.39,18.86,2.48,18.86,2.48-13.34,8.15-11.38,11.55,17.71-1.45,17.71-1.45-7.48,20-.49,22S1538,274.42,1538,274.42s2.53,7.59,6.54,7.22,5.34-16.81,5.34-16.81,6.59,12.88,10.64,12.13,4.17-12.8,4.17-12.8,2.43,6.35,4.9,6.82,5.23-6.51,5.23-6.51-.73,6.6,5,8.8,21.78-.8,21.78-.8-19.8,11.69-15.86,17.17,16.66-.59,16.66-.59-14.5,10.13-9.17,16,27.38-7,27.38-7,6.24,26.16,20.68,27S1654,300.89,1654,300.89s11.07,12,19.6,8.16-.25-26.31-.25-26.31,5.74,14,11.74,17.26,15.8,2,15.8,2-4.24,11.91-1.58,15.94,11.15,2.63,11.15,2.63,2.51,7.48,9.25,8.35,13-7.26,13-7.26-2,7,.6,8.36,13.1-2.21,13.1-2.21-14,8.19-11.91,14.86,25-.58,25-.58-16.7,18.14-9.24,22.24,29.37-16.5,29.37-16.5-5.54,21.23,2.17,23.62,15.59-19.34,15.59-19.34-4.92,24.27,2.77,26.86,19.7-19.9,19.7-19.9-.51,14.32,8.72,15.23,16.2-30.79,16.2-30.79,4,10.63,9.1,9.41,7.14-19.67,7.14-19.67,4.44,16.94,12.26,15.07,2.3-23.2,2.3-23.2,9,5.78,12.18,1.51-5.44-13-5.44-13,8.79,1.74,10.57-2.82-8.63-12.17-8.63-12.17,4.51.81,6.29-1.26.66-5.69.66-5.69,5.18,10.52,11.5,7.63,5.37-20.32,5.37-20.32,11.5,11.22,17.77,6.5-.82-19.49-.82-19.49,10.59,10.37,15.53,6.73-6.35-19.12-6.35-19.12,13.9,9.78,21.76,2.41S1948.86,233.73,1948.86,233.73Z" style="fill:url(#ba387b76-a40b-4f64-8553-53835e57abd7)"/><path d="M452.37,128s3.67-10-1.9-14.8-14.94,0-14.94,0,9-9.91-.4-18.47c-8.27-7.54-32.57-13.6-38.2-14.93l-1.18-.28s31.23,18.2,27.43,28.79-20.37,9.23-20.37,9.23,2.72,17.38-10.32,20.91-24-18.19-24-18.19,2,25.87-11,26.68-20.17-25.87-20.17-25.87,5.71,29.33-9,33.41-35-30.69-35-30.69-.81,35.57-15.75,39.92-18.74-17.92-18.74-17.92-10.86,26.88-27.42,25-13.85-37.61-13.85-37.61S204,159.13,190.18,154.79s-7.06-41.28-7.06-41.28-13.85,13.58-25.53,10-2.92-19.35-2.92-19.35c-33.4,14.26-31.77-2.85-31.77-2.85s-12.83,33.81-30.35,33.2-7.13-38.7-7.13-38.7-9,29.12-20.16,27.29S62.41,95,62.41,95s-15.69,28.11-35.24,26.28S15,94,15,94s-31.16,22.41-37.27,11.41c-4.85-8.72,8.61-19,14.4-22.85-5.12,3-17.4,8.53-30.29,3.09-16.9-7.12-1.63-17.51-1.63-17.51-47.86-3.06-33.4-24.24-33.4-24.24s-21.38,2.24-20.37,16.7c.74,10.45,17.52,10.48,26.78,9.69,3.52-.54,6-.73,6-.73s-2.46.43-6,.73c-8.33,1.29-22.42,4.63-22.7,12.51-.41,11.2,30.34,12,30.34,12s-44.16.42-41.85,12.42c2.65,13.75,56.11,2.45,56.11,2.45s-47.25,16-43.89,28.72,27.7,4,27.7,4S-87.39,152.78-84.85,162s29.13,3.87,29.13,3.87S-78,183.84-67,197.29-21.3,181-21.3,181s-10.8,34,2.85,36.66S5,192.4,5,192.4s-2.24,38.9,16.91,41.14,27.7-33.81,27.7-33.81,17.1,22.61,40.53,17.92c22-4.39,18.31-25.07,17.77-27.64l0-.26s0,.09,0,.26c.4,1.73,3.2,12.32,12.37,11.76,9.36-.58,11.37-13.32,11.59-14.91,0-.1,0-.16,0-.16s0,.05,0,.16c-.17,1.38-1.26,11.6,3.48,13.69,5.09,2.24,14.46-4.69,14.46-4.69s-6.31,5.91,0,15.89c0,0-20.16.2-25,7.33s8.55,11.61,8.55,11.61-21.58,9-12.22,20,35.44-10,35.44-10-2.85,23.62,9.37,26.68,15.48-17.92,15.48-17.92-3,21.18,20.37,18.22,3.66-42.46,3.66-42.46,21.59.2,20-24.85c0,0,1.84,8.76,14.87,6.93,0,0-15.07,5.9-11.81,13.64S246.73,224,246.73,224s-15.48,9.57-10.79,15.88,22.6-4.48,22.6-4.48S242.32,245,249.38,252,273,242.23,273,242.23s-.27,19.55,13.58,16.84,4.08-35.31,4.08-35.31,3.8,12,15.47,10.32c0,0,7.61,8.42,20,2.72,11-5.05,11.15-22.87,11-26.88,0-.53,0-.82,0-.82s0,.3,0,.82c.29,6,2.85,42.85,22,20.36,0,0,.2,35.85,18.94,35.85s16.7-38.9,16.7-38.9,10.39,23.42,24.44,17.31,2.65-29.74,2.65-29.74,12.42,11,25.66,5.09,6.11-21.18,6.11-21.18,13.31,8.49,21.93.07c0,0,2.58-8.42-5.84-19.28,0,0,14.12,1.9,16-2.72s-14.66-13.71-14.66-13.71,20,6.25,22.67,1.63-10.86-13.58-10.86-13.58,16,7.74,18.74,1.49S494.46,122.34,452.37,128Z" style="fill:#001429"/><path d="M377.08,65.92s17.92-5.7,18.67-13.85-18.67-8.15-18.67-8.15c33.2.41,34.15-17.17,34.15-17.17a17.21,17.21,0,0,0-7.88-15.52C394.29,5,384.82,9.5,384.82,9.5s8.45-10.39.31-17.92-25.36-3.77-25.36-3.77S339.71-7.51,335.23,3.29c0,0,2.13-27-30.86-22.51,0,0,2-17.51-13.24-15.48S270.36-4.35,270.36-4.35s-8.15-18.94-41.15-14.87c0,0,18.34-10,12-21S215-37.49,215-37.49s-3.67-12.69-14.67-8.2-6.92,28.31-6.92,28.31-22.61-13.24-32-5.1S177.48,6.24,177.48,6.24s-19.35-.61-26.88,15.07c0,0-3.26-13-21.18-7.94,0,0-9.17-10.59-25.26-3.67,0,0-13.24-19.75-43.93-3.87,0,0,7.61-14.12-1.63-21.31s-41.41,2-40.19,29.05c0,0-24.84-20.63-33.81-7.87S4.16,36.25,4.16,36.25-27,28.85-26.39,44.74c0,0-27.09-19.56-46.85-.82,0,0-14.46,21.18,33.4,24.24,0,0-15.27,10.39,1.63,17.51,12.89,5.44,25.17-.13,30.29-3.09,1.51-1,2.5-1.59,2.5-1.59a27.81,27.81,0,0,1-2.5,1.59c-5.79,3.88-19.25,14.13-14.4,22.85C-16.21,116.43,15,94,15,94s-7.33,25.46,12.22,27.3S62.41,95,62.41,95s-8.35,26.28,2.85,28.11S85.42,95.86,85.42,95.86,75,133.94,92.55,134.56s30.35-33.2,30.35-33.2-1.63,17.11,31.77,2.85c0,0-8.76,15.82,2.92,19.35s25.53-10,25.53-10-6.79,36.93,7.06,41.28,27.43-21.59,27.43-21.59-2.72,35.71,13.85,37.61,27.42-25,27.42-25,3.8,22.26,18.74,17.92,15.75-39.92,15.75-39.92,20.37,34.76,35,30.69,9-33.41,9-33.41,7.13,26.68,20.17,25.87,11-26.68,11-26.68,10.93,21.72,24,18.19,10.32-20.91,10.32-20.91,16.57,1.36,20.37-9.23-27.43-28.79-27.43-28.79C396.9,64.49,377.08,65.92,377.08,65.92Z" style="fill:#001429"/><path d="M-11.19,300.21c7.88,2.17,28.92-3.94,28.92-3.94s-24.84,18.2-18.87,25,22.13-3,22.13-3S3,333.68,10.88,340.81s35.57-12.9,35.57-12.9,11.78,34,31.13,33.23,13.85-33.91,13.85-33.91,16.33,14.53,27.19,8.28-3.8-35-3.8-35,9.5,17.92,17.92,21.45,21.32.55,21.32.55-4.07,16.43,0,21.45,15.21,2,15.21,2,4.34,9.64,13.44,9.91,16.43-11.41,16.43-11.41-1.7,9.64,1.9,11.07,17.18-4.68,17.18-4.68-17.52,12.76-13.92,21.38,33.27-4.07,33.27-4.07S217.71,394.54,228.2,399s37-25.86,37-25.86-4.58,29,6,31.19,18.23-27.83,18.23-27.83-3.36,33,7.23,35.44,23.63-29.13,23.63-29.13S321.48,402,333.9,402s17.52-43.18,17.52-43.18,6.72,13.64,13.37,11.34S371.72,343,371.72,343s8.14,22,18.33,18.47,0-31.23,0-31.23,12.76,6.51,16.43.4-9-16.56-9-16.56,11.94,1.15,13.71-5.16-13.1-15.07-13.1-15.07,6.11.47,8.21-2.51.14-7.68.14-7.68,8.28,13.34,16.33,8.66,4.48-27.8,4.48-27.8,16.8,13.44,24.54,6.31S448.16,245,448.16,245s15.48,12.42,21.59,6.92-11-24.64-11-24.64,19.83,11.2,29.33.34-12.49-28.79-12.49-28.79c-8.62,8.42-21.93-.07-21.93-.07s7.13,15.28-6.11,21.18-25.66-5.09-25.66-5.09,11.4,23.63-2.65,29.74-24.44-17.31-24.44-17.31,2,38.9-16.7,38.9-18.94-35.85-18.94-35.85c-19.12,22.49-21.68-14.34-22-20.36.12,4,0,21.83-11,26.88-12.42,5.7-20-2.72-20-2.72-11.67,1.63-15.47-10.32-15.47-10.32s9.77,32.59-4.08,35.31S273,242.23,273,242.23s-16.56,16.84-23.62,9.78,9.16-16.64,9.16-16.64-17.92,10.8-22.6,4.48S246.73,224,246.73,224s-15.07,4.68-18.33-3.06,11.81-13.64,11.81-13.64c-13,1.83-14.87-6.93-14.87-6.93,1.63,25-20,24.85-20,24.85s19.76,39.51-3.66,42.46-20.37-18.22-20.37-18.22-3.26,21-15.48,17.92-9.37-26.68-9.37-26.68-26.07,21-35.44,10,12.22-20,12.22-20-13.44-4.48-8.55-11.61,25-7.33,25-7.33c-6.31-10,0-15.89,0-15.89s-9.37,6.93-14.46,4.69c-4.74-2.09-3.65-12.31-3.48-13.69-.22,1.59-2.23,14.33-11.59,14.91-9.17.56-12-10-12.37-11.76.54,2.57,4.19,23.25-17.77,27.64-23.43,4.69-40.53-17.92-40.53-17.92S41,235.78,21.88,233.54,5,192.4,5,192.4s-9.77,27.9-23.42,25.25S-21.3,181-21.3,181-55.93,210.73-67,197.29s11.24-31.47,11.24-31.47S-82.3,171.11-84.85,162s23.73-19.55,23.73-19.55-24.34,8.76-27.7-4,43.89-28.72,43.89-28.72S-98.39,121-101,107.26c-2.31-12,41.85-12.42,41.85-12.42s-12-.32-20.92-3.29c0,0-42.15,2.14-40.38,18.43s38,12.49,38,12.49S-145.2,134.83-141.4,151c3.42,14.53,39.87,6.44,47.18,4.66l1.29-.32-1.29.32c-6.91,1.77-39.61,10.77-37.54,21.95,2.31,12.49,42.36,6.52,42.36,6.52s-49.42,16.43-45.76,29.87,39.72,9.16,39.72,9.16-27.5,13-24,25.46,30.55,9,30.55,9-10.39,6.79-7.13,13,17.24,3.26,17.24,3.26-11.54,19.75-1.35,24,29.33-20.37,29.33-20.37,6.11,14.26,16.29,10.8c8.42-2.86,20.31-13.93,24.18-17.68a16.29,16.29,0,0,1,1.28-1.26l-1.28,1.26A33.29,33.29,0,0,0-19,289.14S-19.06,298-11.19,300.21Z" style="fill:url(#ba46c17a-b67e-43c5-a810-4fc9f1bbd94f)"/><path d="M407.47,52.66c-4.87,10.84,17.21,14,17.21,14s-16.72-.32-15.85,5.68S426.39,79,426.39,79s-26.16-.52-27.73,6.09,10.52,8.26,10.52,8.26-24.25.87-18,11,46.07-3.13,46.07-3.13-12.34,15.56,2.09,19.56,26.07-19.3,26.07-19.3,7.48,16,20.69,10.6,6.78-30.07,6.78-30.07,6.9,9,13.27,5.56.82-20.4.82-20.4,6.78,6.32,16.69-.64c0,0-5.39,10.78,7,10.61s17.73-12.87,17.73-12.87-.26,6.26,9.91,3.83c0,0,.87,17.38,20,16.69s24-28.86,24-28.86.46,8.11,8,7.53,4.63-20.86,4.63-20.86,4.93,15.07,14,14.72,13.73-13.91,13.73-13.91-1.74,19.3,12.69,20.86,23-20.34,23-20.34-.34,8.93,9.68,11.82c8.94,2.59,13-4,13.77-5.51l.14-.28s0,.11-.14.28c-1.28,2.61-10.35,22.53,10.34,23.07,0,0-19.12,19.36-3.71,26.66s28.86-19.12,28.86-19.12,6.26,9.68,20.69,3.59S771.06,58.4,771.06,58.4s19.65,3,26.26-9.39c0,0,6.78-18.95-29.91-16.69,0,0,8.17-15.82-33.55-9,0,0,18.25-18.19,6.89-27.47s-26.65,9-26.65,9,3.71-19-10.44-20.63S685.82,1.84,690,17.84c0,0-5.8-10.67-27.12-7.89,0,0,4-10.22-1.25-13.53S648.41,1.9,648.41,1.9,650.06-7,641.8-8.62,629,5,629,5,623.29.16,614.07,3.29c0,0,9-16.07.35-19.16S596.86-2.45,596.86-2.45s2.43-10.6-4.35-12-14.6,11.3-14.6,11.3,2.55-15.53-4.52-17.16S559.48.45,559.48.45s-4.75-21.79-19.12-17.73S545,10.88,545,10.88,523.2-4.07,518.45,9.72c0,0-5.91-13.67-24-14.72s-3.83,15.07-3.83,15.07-12.22-3.78-13.5,3.71l-.06,2.37s-13.33-4.81-23.29,1.11-6.39,17.57,9.87,18.07h0c-.83,0-7.09,0-7.09,7.6,0,0-16.17-5.74-19.3,4.17C437.26,47.1,412.34,41.83,407.47,52.66Z" style="fill:#001429"/><path d="M723.08,240.08C743.25,237,738.9,217.4,738.9,217.4s5.22,3.56,9.39.78,0-16.17,0-16.17,19.82,19.12,29.73,10.08-8.17-33.21-8.17-33.21,11.3,5.39,16.86-1.56-8.87-31.64-8.87-31.64,15,24.81,26.78,18.67-7.83-36.06-7.83-36.06,26.43,16,33.56,8.69-16.69-29-16.69-29,14,1.22,15.41-10.14-29.49-22.54-29.49-22.54,18.77,9.21,15.47,21-28,5.91-28,5.91c14.43,7.31,8.86,20-6.78,23s-34.43-4.78-34.43-4.78,5.83,11.91,0,21.82S724.47,149,724.47,149s11.13,24.51-9.74,28.34-24.25-22.69-24.25-22.69-13.56,13.13-23.56,7-.92-21.21-.92-21.21c-21.56,1.51-30.49-14.49-27.36-26s19.71-1.62,19.71-1.62c-1.51-5.1,3.59-5.8,3.59-5.8-12.63-2.55-8.46-15.18-8.46-15.18s-5.8,12.75-16.58,12c-8.64-.56-12.06-8.41-13.08-11.5,1.49,5.38,6.63,26.56-4.19,28.08-12.4,1.74-15.87-12.06-15.87-12.06s-2.21,23.18-14,22.37S583,107,583,107s-6.35,13.48-13.74,10.18,1.83-19,1.83-19c-8.35,11.64-24,13.21-24,13.21s4.52,13.56-3.48,20.51-20.69,1-20.69,1,4.52,22.14-9.39,34.77-39.81,4.23-39.81,4.23-1,33-18.78,32.34-15.3-21.91-15.3-21.91-12,20.86-18.08,13.21,6.78-24.68,6.78-24.68-38.25,20.16-47.14,9.56c-3.62-4.31-1.85-9.59,1.52-14.35-12.16,6.23-42.39,23.54-36.26,34.08,6.58,11.33,34-6.8,36.25-8.32l.17-.11-.17.11c-1.46,1-12.22,8.92-8,20.93,0,0-21.21.52-21.13,11.73s18.61,3.91,18.61,3.91-7.3,7.31-1.39,11.3,20.42-11.56,20.42-11.56a15.54,15.54,0,0,0,16.17,3S391,237.91,394.32,244s21.47-3.65,21.47-3.65-18.34,28.54-8.61,35.85,22-14.38,22-14.38-.46,40.57,16.46,40.34S460,268.42,460,268.42s18.78,16.86,27.65,15.47,2.08-26.77,2.08-26.77,5.74,16.34,13.91,16.52,11-18.95,11-18.95-1.4,11.3,3.65,14.95,10.6-3.83,10.6-3.83-3.82,11.3,5.56,11.65S555.13,263,555.13,263s-8.69,21.73-.34,25.21,23.64-20.86,23.64-20.86-1.82,28.68,9.56,28.68,13-19.29,13-19.29,24.6,11.73,32.34,3.82.52-30.6.52-30.6,9.82,17.13,21,13.91,6.87-45.2,6.87-45.2S668,230.87,677,228.78c6-1.38,7.92-6.55,8.55-9.91a8.08,8.08,0,0,1,.31-3,17,17,0,0,1-.31,3c.17,2.54,1.51,6.14,7.09,8.52C692.65,227.39,702.91,243.21,723.08,240.08Z" style="fill:url(#b1566ce4-781b-4f60-b672-db4d11564f8d)"/><path d="M797.32,49c-6.61,12.35-26.26,9.39-26.26,9.39s1.22,20-13.21,26.08-20.69-3.59-20.69-3.59S723.72,107.31,708.3,100,712,73.35,712,73.35c-20.69-.54-11.62-20.46-10.34-23.07-.78,1.47-4.83,8.1-13.77,5.51-10-2.89-9.68-11.82-9.68-11.82s-8.51,21.91-23,20.34-12.69-20.86-12.69-20.86S637.89,57,628.85,57.36s-14-14.72-14-14.72,2.9,20.28-4.63,20.86-8-7.53-8-7.53-4.87,28.16-24,28.86-20-16.69-20-16.69c-10.17,2.43-9.91-3.83-9.91-3.83S543,77,530.62,77.18s-7-10.61-7-10.61c-9.91,7-16.69.64-16.69.64s5.56,16.92-.82,20.4-13.27-5.56-13.27-5.56,6.44,24.68-6.78,30.07-20.69-10.6-20.69-10.6-11.64,23.3-26.07,19.3-2.09-19.56-2.09-19.56-39.81,13.3-46.07,3.13,18-11,18-11-12.08-1.65-10.52-8.26S426.39,79,426.39,79s-16.69-.69-17.56-6.69,15.85-5.68,15.85-5.68-22.08-3.13-17.21-14,29.79-5.56,29.79-5.56a59.49,59.49,0,0,0-35.64.18c-18.78,6.25-5,25-5,25s-22.26,5.91-34.43,18.26-25.21,32.51,1.74,30.59c0,0-11.18,7.21-17.95,15.27-.39.56-8.57,12.86,35.31,3.68a29.87,29.87,0,0,0-4.15,4.67c2.22-1.07,3.74-1.87,4.15-2.08l.11-.06-.11.06c-.42.22-2,1.08-4.35,2.38-3.39,5.08-4.19,11.76,19.16,8.25,0,0-8.2,5.71-13.14,12.57,1-.44,1.86-.83,2.53-1.14l.87-.41c1.41-.67.91-.4-.87.41l-2.68,1.34c-3.37,4.76-5.14,10-1.52,14.35,8.89,10.6,47.14-9.56,47.14-9.56s-12.86,17-6.78,24.68,18.08-13.21,18.08-13.21-2.43,21.21,15.3,21.91,18.78-32.34,18.78-32.34,25.9,8.4,39.81-4.23S523,132.93,523,132.93s12.69,6,20.69-1,3.48-20.51,3.48-20.51,15.64-1.57,24-13.21c0,0-9.22,15.64-1.83,19S583,107,583,107s-5.13,23,6.69,23.85,14-22.37,14-22.37,3.47,13.8,15.87,12.06c10.82-1.52,5.68-22.7,4.19-28.08-.25-.77-.36-1.25-.36-1.25s.14.46.36,1.25c1,3.09,4.44,10.94,13.08,11.5,10.78.7,16.58-12,16.58-12s-4.17,12.63,8.46,15.18c0,0-5.1.7-3.59,5.8,0,0-16.58-9.85-19.71,1.62s5.8,27.47,27.36,26c0,0-9.07,15.13.92,21.21s23.56-7,23.56-7,3.39,26.51,24.25,22.69S724.47,149,724.47,149s15.56,3.13,21.38-6.78,0-21.82,0-21.82,18.78,7.74,34.43,4.78,21.21-15.64,6.78-23c0,0,24.69,5.91,28-5.91s-15.47-21-15.47-21,22.25,1.39,25.73-7.13S797.32,49,797.32,49Z" style="fill:#001429"/><path d="M571.1,197.5s-27.81,12-25,20,27.64,2.78,27.64,2.78-21.06,17-13.92,24.51,31.26-15.12,31.26-15.12-.3,17.56,10.13,17.56,10.08-26.6,10.08-26.6,21.39,11.3,29.38,5-2.43-19.3-2.43-19.3,34.42-10.26-10.26-22.6c0,0-21.26,29-29.58,11.82,0,0-4.32,10.43-13.36,11.3s-7.82-6.61-7.82-6.61S571.62,203.24,571.1,197.5Z" style="fill:#1a5366"/><path d="M70.15,215.5s5,295.75,112.11,295.75S306.13,234.08,306.13,234.08" style="fill:none;stroke:#001429;stroke-miterlimit:10;stroke-width:4px"/><path d="M265.36,248.71s38.73,193,115.41,193,105-264.92,105-264.92" style="fill:none;stroke:#001429;stroke-miterlimit:10;stroke-width:4px"/></svg>