<svg id="af5f803d-32f7-443b-91f8-69a5d67e73d3" data-name="图层 1" xmlns="http://www.w3.org/2000/svg" xmlns:xlink="http://www.w3.org/1999/xlink" viewBox="0 0 1920 1380"><defs><linearGradient id="ac31f3c1-f74e-4c8e-af69-8839a4073b54" x1="960" y1="926.5" x2="960" y2="1135.49" gradientUnits="userSpaceOnUse"><stop offset="0" stop-color="#03ffda"/><stop offset="0.07" stop-color="#03fbd7"/><stop offset="0.13" stop-color="#03eed0"/><stop offset="0.2" stop-color="#02dac3"/><stop offset="0.28" stop-color="#02bdb1"/><stop offset="0.35" stop-color="#019799"/><stop offset="0.42" stop-color="#016a7d"/><stop offset="0.46" stop-color="#004b6a"/><stop offset="0.67" stop-color="#00304a"/><stop offset="0.87" stop-color="#001c32"/><stop offset="1" stop-color="#001429"/></linearGradient></defs><path d="M1920,1085.82c0-18.36-12.57-39.4-12.57-39.4,4.76,15.65-1.21,31.11-1.21,31.11.17-6.6-6.17-16.39-6.17-16.39.15,12.07-7.27,21.3-7.27,21.3.55-9.37-5.83-24.21-5.83-24.21,1.3,8.16-1.17,27-16.3,26.5s-11.36-29.83-11.36-29.83c-9,5.75-13.93,22.52-13.93,22.52-5.93-9.82-18.35-13.21-18.35-13.21s7.67,6.69,7.29,16.6-15.54,11.48-15,1.43-6.16-18.46-6.16-18.46c1.29,15-16.4,27.19-18.58,15.78s6.6-23.46,6.6-23.46c-19.66,10.77-24.46,33.63-24.82,35.48,5.13-23.35-13.42-50.55-13.42-50.55,6.9,24.14-10.27,49.87-10.27,49.87,4.49-17.11-12.72-35.89-12.72-35.89,2.55,21.65-14.7,33.64-14.7,33.64-7-7.64-1.91-32.66-1.91-32.66-16.48,9.38-19.61,27.88-19.61,27.88-14.13-22.43,2-45.26,2-45.26-37.1,24.63-31.06,56.85-31.06,56.85-9.92-30-40.88-42.85-46.31-44.91,0,0,16.14,21,16.12,36.28,0,0-8.32-12.14-21.25-17.84,0,0,8,16,2,21.58s-15.13-13.73-8.7-28.14c0,0-12.12,13.41-10.48,29.39,0,0-1.35-19.25-17.16-30.77,0,0,4.22,16.36,2.54,23,0,0-2.25-18.23-19.63-34.65,0,0,13.52,31.32,7.52,40.78s-19.35-6.32-16.87-17.89c0,0-6.73,9.66-7.41,19.55s-13.2,6.52-13.06-3,5.33-22.61,14.69-29.23c0,0-15.51,5.71-23.08,18.82-2-12.73-7.58-18-7.58-18,1,10.77-4.36,15.48-4.36,15.48,2.09-23-20-33.06-20-33.06s4.92,5.56,7.55,19-13.19,15.06-13.82,5.47,3.88-22.2,3.88-22.2c-17.24,14.52-17.76,26.86-17.76,26.86.22-12.86-8.32-24.6-8.32-24.6,2.61,15.08-4.11,22.75-4.11,22.75a36.7,36.7,0,0,0-15.31-25.55c3.22-4.28,5.91-7.28,5.91-7.28a64,64,0,0,0-9.54,4.87,44.19,44.19,0,0,0-10.51-4.61,31.37,31.37,0,0,1,8,6.24,66.6,66.6,0,0,0-22.93,27.13c.76-12.9-6.75-19.22-6.75-19.22,1.79,14.93-15.56,25.71-20.15,11s10.82-36.64,10.82-36.64c-21.94,11.09-31,35.37-31,35.37,2.46-17.42-7.59-35.82-7.59-35.82a44.68,44.68,0,0,1-13.25,33.39c.14-16.07-16.5-28-16.5-28s3.25,3.6,4,15.23-12.16,25.45-22.5,11.88,10.42-54.88,10.42-54.88c-20.16,16-30.45,33.5-35.65,46.19-2.85-8.88-9.45-19.87-23.83-31.42,0,0,11.63,28.24,1.65,42.06s-23.27.35-22.79-11.3,3.63-15.34,3.63-15.34-16.33,12.36-15.79,28.42a44.68,44.68,0,0,1-14.08-33s-9.58,18.65-6.68,36c0,0-9.64-24-31.86-34.58,0,0,15.68,17.39,11.46,32.25s-21.55,8.63-20.14-6.35c0,0-6.2,4.2-6.79,16.59,0,0-6.4-13.87-23.55-24.23a43.3,43.3,0,0,1,8.32-6,43.79,43.79,0,0,0-10.28,4.81,73.18,73.18,0,0,0-9.77-4.57s3.09,2.76,6.64,6.71a36.83,36.83,0,0,0-15.21,26.35s-6.91-7.5-4.69-22.64c0,0-8.23,12-7.69,24.8,0,0-.83-12.32-18.43-26.41,0,0,4.83,12.49,4.44,22.1s-16.24,8.42-13.95-5.12,7.06-19.21,7.06-19.21-21.81,10.59-19.14,33.55c0,0-5.49-4.57-4.75-15.36,0,0-7.8,6.9-7.22,17.24,0,0-8.84-10.88-7.13-23.37,0,0-6.64,12.2-4.23,21.79,0,0-1.12-3.71-6.21-8.12,0,0,1.77,8.85.51,12.71,0,0-1.08-12.77-15.21-20.16,0,0,8.27,11.34,6,21.64l-.07,0c-.39-8.19-7.55-11.89-7.55-11.89s1.58,2.13,1.93,8.33-7.77,9.12-8.57,1.75,5.6-16.21,5.6-16.21c-13.49,8.5-13.55,21.32-13.55,21.32-1.56-3.75-.5-12.72-.5-12.72-4.73,4.81-5.55,8.6-5.55,8.6,1.64-9.76-6-21.39-6-21.39,2.71,12.32-5.23,23.87-5.23,23.87-.25-10.36-8.58-16.61-8.58-16.61,1.6,10.7-3.5,15.7-3.5,15.7-4.29-21.63-21.77-31.92-21.77-31.92s5.21,5.28,8.58,18.59-12.34,15.76-13.5,6.22,2.66-22.38,2.66-22.38c-16.41,15.44-16.26,27.8-16.26,27.8-.48-12.86-9.65-24.11-9.65-24.11,3.42,14.91-2.86,22.94-2.86,22.94a36.71,36.71,0,0,0-16.69-24.67c3-4.45,5.5-7.59,5.5-7.59a63.78,63.78,0,0,0-9.26,5.39,43.85,43.85,0,0,0-10.75-4,31.29,31.29,0,0,1,8.34,5.79,66.49,66.49,0,0,0-21.4,28.34c0-12.92-7.8-18.82-7.8-18.82,2.61,14.81-14.12,26.53-19.51,12.06s8.79-37.18,8.79-37.18c-21.31,12.27-29,37-29,37,1.5-17.53-9.54-35.35-9.54-35.35a44.68,44.68,0,0,1-11.39,34.06c-.74-16-18-27.06-18-27.06s3.44,3.42,4.85,15-10.75,26.07-21.81,13.09,7.39-55.36,7.39-55.36c-18.26,16.23-27.58,33.26-32.33,46-8.43-18.7-29.08-27.85-29.08-27.85,9.14,6.74,14,19.83,14,29.25s-12.51,12.52-13,2.7-7-19.52-7-19.52c2.22,11.52-11.32,26.89-17.07,17.39s8.27-40.26,8.27-40.26c-17.55,15.92-20.15,34-20.15,34-1.52-6.6,3-22.72,3-22.72-15.89,11.09-17.62,30.14-17.62,30.14,2-15.8-9.79-29.34-9.79-29.34,6.08,14.41-3.27,33.41-9.18,27.71s2.37-21.34,2.37-21.34c-12.93,5.38-21.42,17.25-21.42,17.25.29-15.1,16.7-35.62,16.71-35.63-5.42,1.93-36.36,14.1-46.79,43.57,0,0,6.64-31.81-29.63-57,0,0,15.54,22.94,1.09,44.88,0,0-2.73-18.39-18.87-28,0,0,4.58,24.89-2.55,32.33,0,0-16.85-12.24-13.89-33.63,0,0-17.43,18.25-13.32,35.3,0,0-16.5-25.84-9.17-49.61,0,0-18.93,26.57-14.32,49.8-.32-1.82-4.6-24.58-23.87-35.64,0,0,8.45,12.11,6.06,23.37s-19.67-1.14-18.09-16c0,0-6.78,8.19-6.48,18.16s-14.68,8.12-14.86-1.71,7.56-16.31,7.56-16.31-12.38,3.12-18.45,12.72c0,0-4.54-16.71-13.35-22.59,0,0,3.16,29.15-11.85,29.33S402,1046,403.47,1038c0,0-6.62,14.58-6.26,23.87,0,0-7.17-9.29-6.77-21.25,0,0-4.68,7-4.7,20.82-1.73-15.36-11.57-30.72-11.57-30.72,4.36,15.62-1.9,30.8-1.9,30.8.31-6.54-5.75-16.38-5.75-16.38-.12,12-7.69,20.93-7.69,20.93.76-9.27-5.21-24.11-5.21-24.11,1.1,8.11-1.78,26.71-16.76,25.88S326.29,1038,326.29,1038c-9.06,5.48-14.32,22-14.32,22-5.65-9.87-17.88-13.51-17.88-13.51s7.45,6.81,6.84,16.62-15.65,11-14.91,1.07-5.69-18.43-5.69-18.43c.94,14.92-16.87,26.57-18.77,15.21s7.07-23.09,7.07-23.09c-19.73,10.23-25,32.79-25.39,34.58,5.61-23-12.15-50.38-12.15-50.38,6.29,24.07-11.31,49.16-11.31,49.16,4.84-16.85-11.78-35.84-11.78-35.84,2,21.5-15.33,33-15.33,33-6.8-7.74-1.15-32.41-1.15-32.41-16.54,8.92-20.07,27.17-20.07,27.17-13.48-22.54,3-44.79,3-44.79-37.32,23.55-32.07,55.62-32.07,55.62-9.15-29.9-39.52-43.4-44.86-45.56,0,0,15.51,21.22,15.15,36.32,0,0-8-12.23-20.65-18.16,0,0,7.61,16,1.45,21.42s-14.68-14-8-28.08c0,0-12.32,13-11,28.88,0,0-.9-19.1-16.3-30.87,0,0,3.8,16.3,2,22.82,0,0-1.81-18.11-18.66-34.78,0,0,12.68,31.34,6.52,40.58s-19-6.7-16.3-18.12c0,0-6.89,9.43-7.79,19.21s-13.23,6.16-12.87-3.26,5.8-22.29,15.22-28.63c0,0-20.7,7.07-26.29,24.64V1380H1920Zm-468.83-37.65c3.49,4.78,6,10.25,6.15,15,.35,9.35-10,15.74-13.78,6C1441.5,1064,1446.29,1055.19,1451.16,1048.17Zm-306.53,3.57c5,6,10,13.64,8.12,19-3.52,9.83-14,3.7-13.93-5.65C1138.87,1060.27,1141.24,1055.68,1144.63,1051.74Zm-231.22,14.38c3.75,4.58,6.53,9.91,7,14.69.86,9.3-9.14,16.26-13.43,6.74C904.64,1082.44,908.94,1073.4,913.41,1066.12ZM386,1067c0,.13,0,.24,0,.37h0C386,1067.21,386,1067.08,386,1067Z" style="fill:url(#ac31f3c1-f74e-4c8e-af69-8839a4073b54)"/></svg>