<svg id="a4ca7d05-2f5b-4a5d-9cbd-2f1375ef2cf8" data-name="图层 1" xmlns="http://www.w3.org/2000/svg" xmlns:xlink="http://www.w3.org/1999/xlink" viewBox="0 0 1920 1380"><defs><linearGradient id="a247adab-67e2-45a3-b7ce-56a15418d149" x1="591.32" y1="1013.41" x2="488.59" y2="460.24" gradientUnits="userSpaceOnUse"><stop offset="0" stop-color="#3b9eca"/><stop offset="0" stop-color="#3b9dc9"/><stop offset="0.06" stop-color="#307eab"/><stop offset="0.13" stop-color="#266390"/><stop offset="0.21" stop-color="#1e4d7b"/><stop offset="0.3" stop-color="#183c6a"/><stop offset="0.41" stop-color="#14315f"/><stop offset="0.56" stop-color="#122a58"/><stop offset="1" stop-color="#112856"/></linearGradient></defs><polygon points="1789.36 683.04 1670.65 549.58 1692.71 536.41 1796.9 631.24 1789.36 683.04" style="fill:#051e3a"/><path d="M1805.87,906c7-178.27,0-1067.69,0-1067.7h-28.09S1776,807.08,1776,887.27s-74.34,228.88-213.66,257l82.67,5.41h0S1798.85,1084.31,1805.87,906Z" style="fill:#051d3c"/><path d="M1875.24,953.42c0-82.54.88-1115.09.88-1115.09h-46.83s-.78,1024.81-.78,1067.7-13.17,164.69-137.71,246.63h0l89.69,5.87C1821.84,1122.18,1875.24,1036,1875.24,953.42Z" style="fill:#051d3c"/><path d="M1828.51,906c0-42.89.78-1067.69.78-1067.7h-23.42s7,889.43,0,1067.7S1645,1149.66,1645,1149.66h0l45.77,3h0C1815.34,1070.72,1828.51,948.93,1828.51,906Z" style="fill:#081028"/><path d="M1920-161.67h-43.88s-.88,1032.55-.88,1115.09-53.4,168.76-94.75,205.11l139.51,9.13Z" style="fill:#001429"/><path d="M1782.63,458.09s1.52-5.06-1.36-7.25-7.38.42-7.38.42,4.14-5.14-.73-9.1c-4.29-3.49-16.46-5.79-19.28-6.28l-.59-.1s15.94,8.09,14.36,13.42-9.79,5.14-9.79,5.14,1.84,8.51-4.5,10.62-12.35-8.29-12.35-8.29,1.75,12.71-4.66,13.48-10.7-12.19-10.7-12.19,3.66,14.31-3.47,16.74S1704,460.56,1704,460.56s.61,17.58-6.63,20.15-9.77-8.31-9.77-8.31S1683,486,1674.79,485.52s-7.92-18.17-7.92-18.17-6,13.19-12.92,11.44-4.67-20.18-4.67-20.18-6.45,7.1-12.31,5.69-2-9.47-2-9.47c-16.08,8-15.76-.5-15.76-.5s-5.37,17.06-14,17.26-4.62-18.9-4.62-18.9-3.59,14.63-9.18,14.05-2.21-13.8-2.21-13.8-6.94,14.33-16.64,14-6.81-13.12-6.81-13.12-14.75,11.95-18.08,6.69c-2.64-4.16,3.71-9.61,6.46-11.69-2.45,1.61-8.35,4.71-14.87,2.39-8.55-3-1.3-8.6-1.3-8.6-23.72-.14-17.19-11-17.19-11s-10.49,1.72-9.57,8.83c.66,5.13,8.94,4.67,13.49,4,1.72-.37,2.95-.53,2.95-.53s-1.2.27-2.95.53c-4.07.87-10.93,2.92-10.85,6.82.12,5.54,15.33,5.07,15.33,5.07s-21.79,1.47-20.31,7.33c1.7,6.71,27.77-.4,27.77-.4s-22.87,9.24-20.85,15.43,13.79,1.17,13.79,1.17-12.67,5.88-11.15,10.33,14.49,1.08,14.49,1.08-10.48,9.54-4.65,15.86,22.07-9.35,22.07-9.35-4.36,17.1,2.46,18,10.84-13.14,10.84-13.14,0,19.27,9.52,19.83S1585.82,505,1585.82,505s9.09,10.68,20.52,7.69c10.72-2.79,8.33-12.9,8-14.15l0-.13a1.11,1.11,0,0,1,0,.13c.24.84,1.93,6,6.44,5.45s5.23-6.9,5.29-7.69v-.08a.45.45,0,0,1,0,.08c0,.68-.29,5.76,2.11,6.66,2.58,1,7-2.73,7-2.73s-3,3.1.45,7.84c0,0-9.94.68-12.15,4.34s4.55,5.49,4.55,5.49-10.4,5-5.46,10.2,17.21-5.94,17.21-5.94-.73,11.74,5.39,12.9,7.13-9.29,7.13-9.29-.91,10.55,10.57,8.42.6-21.07.6-21.07,10.66-.52,9.14-12.84c0,0,1.16,4.27,7.54,3,0,0-7.27,3.34-5.44,7.07s9.14,1,9.14,1-7.37,5.16-4.88,8.15,11-2.86,11-2.86-7.73,5.19-4,8.47,11.39-5.5,11.39-5.5.42,9.66,7.18,7.93,1-17.55,1-17.55,2.21,5.79,7.93,4.65c0,0,4,3.94,10,.77,5.29-2.81,4.84-11.61,4.68-13.59,0-.25,0-.4,0-.4s0,.15,0,.4c.31,3,2.63,21.08,11.42,9.43,0,0,1.12,17.69,10.38,17.16S1757,508.7,1757,508.7s5.8,11.27,12.56,7.85.46-14.75.46-14.75,6.45,5.07,12.81,1.78,2.41-10.64,2.41-10.64,6.82,3.81,10.83-.59c0,0,1-4.23-3.43-9.35,0,0,7,.53,7.83-1.8s-7.63-6.35-7.63-6.35,10,2.51,11.24.16-5.75-6.4-5.75-6.4,8.13,3.37,9.29.21S1803.25,454.07,1782.63,458.09Z" style="fill:#53e5de"/><path d="M1743.68,429.57s8.69-3.32,8.82-7.37-9.45-3.49-9.45-3.49c16.41-.74,16.37-9.45,16.37-9.45a8.52,8.52,0,0,0-4.33-7.44,9.77,9.77,0,0,0-9.2-.32s3.88-5.37-.36-8.86-12.63-1.13-12.63-1.13-9.77,2.88-11.67,8.34c0,0,.28-13.38-15.88-10.23,0,0,.51-8.7-7-7.26s-9.38,15.57-9.38,15.57-4.57-9.12-20.74-6.16c0,0,8.76-5.45,5.33-10.7s-12.89,2.08-12.89,2.08-2.17-6.15-7.48-3.63-2.61,14.18-2.61,14.18-11.53-5.89-15.93-1.6,8.77,13.72,8.77,13.72-9.57.25-12.85,8.2c0,0-2-6.34-10.68-3.31,0,0-4.83-5-12.57-1.09,0,0-7.1-9.38-21.8-.66,0,0,3.35-7.18-1.41-10.47s-20.39,2.19-19,15.49c0,0-12.86-9.48-16.92-2.92s10.53,14.52,10.53,14.52-15.6-2.76-14.85,5.06c0,0-13.93-8.87-23.15.94,0,0-6.53,10.87,17.19,11,0,0-7.25,5.57,1.3,8.6,6.52,2.32,12.42-.78,14.87-2.39.71-.54,1.19-.86,1.19-.86a14.13,14.13,0,0,1-1.19.86c-2.75,2.08-9.1,7.53-6.46,11.69,3.33,5.26,18.08-6.69,18.08-6.69s-2.9,12.78,6.81,13.12,16.64-14,16.64-14-3.37,13.21,2.21,13.8,9.18-14.05,9.18-14.05-4,19.1,4.62,18.9,14-17.26,14-17.26-.32,8.5,15.76.5c0,0-3.87,8.06,2,9.47s12.31-5.69,12.31-5.69S1647,477,1654,478.79s12.92-11.44,12.92-11.44-.32,17.7,7.92,18.17,12.82-13.12,12.82-13.12,2.52,10.89,9.77,8.31,6.63-20.15,6.63-20.15,11,16.57,18.17,14.14,3.47-16.74,3.47-16.74,4.28,13,10.7,12.19,4.66-13.48,4.66-13.48,6,10.41,12.35,8.29,4.5-10.62,4.5-10.62,8.22.2,9.79-5.14-14.36-13.42-14.36-13.42C1753.43,428.3,1743.68,429.57,1743.68,429.57Z" style="fill:#001b34"/><path d="M1558.69,556.34c4,.84,14.17-2.78,14.17-2.78s-11.75,9.7-8.61,12.88,10.85-2.11,10.85-2.11-8.45,8.12-4.35,11.42,17.19-7.39,17.19-7.39,6.79,16.48,16.32,15.52,5.87-17.14,5.87-17.14,8.47,6.71,13.66,3.32-2.88-17.19-2.88-17.19,5.2,8.58,9.46,10.08,10.54-.34,10.54-.34-1.54,8.22.61,10.59,7.57.57,7.57.57,2.42,4.63,6.92,4.51,7.78-6.1,7.78-6.1-.56,4.81,1.26,5.41,8.34-2.81,8.34-2.81-8.28,6.81-6.26,11,16.31-3,16.31-3-9,13.59-3.74,15.5,17.51-13.83,17.51-13.83-1.43,14.46,3.86,15.23,8.2-14.26,8.2-14.26-.72,16.39,4.58,17.29,10.83-15.05,10.83-15.05,1.15,9.41,7.29,9.06,7.41-21.82,7.41-21.82,3.71,6.54,6.93,5.21,2.64-13.6,2.64-13.6,4.65,10.63,9.58,8.59-.89-15.41-.89-15.41,6.48,2.85,8.12-.27-4.9-7.93-4.9-7.93,5.93.23,6.62-2.93-6.9-7.07-6.9-7.07,3,.06,4-1.48-.15-3.79-.15-3.79,4.47,6.35,8.3,3.81,1.42-13.85,1.42-13.85,8.68,6.15,12.3,2.41-2.55-12.66-2.55-12.66,8,5.69,10.86,2.8-6.14-11.85-6.14-11.85,10.11,5,14.49-.67-7-13.86-7-13.86c-4,4.4-10.83.59-10.83.59s4,7.34-2.41,10.64-12.81-1.78-12.81-1.78,6.3,11.33-.46,14.75S1757,508.7,1757,508.7s2.12,19.15-7.13,19.69-10.38-17.16-10.38-17.16c-8.79,11.65-11.11-6.46-11.42-9.43.17,2,.61,10.78-4.68,13.59-6,3.17-10-.77-10-.77-5.72,1.14-7.93-4.65-7.93-4.65s5.75,15.81-1,17.55-7.18-7.93-7.18-7.93-7.7,8.79-11.39,5.5,4-8.47,4-8.47-8.54,5.84-11,2.86,4.88-8.15,4.88-8.15-7.31,2.74-9.14-1,5.44-7.07,5.44-7.07c-6.38,1.27-7.54-3-7.54-3,1.52,12.32-9.14,12.84-9.14,12.84s10.88,18.94-.6,21.07-10.57-8.42-10.57-8.42-1,10.45-7.13,9.29-5.39-12.9-5.39-12.9-12.27,11.1-17.21,5.94,5.46-10.2,5.46-10.2-6.76-1.83-4.55-5.49,12.15-4.34,12.15-4.34c-3.4-4.74-.45-7.84-.45-7.84s-4.43,3.69-7,2.73c-2.4-.9-2.15-6-2.11-6.66-.06.79-.69,7.14-5.29,7.69s-6.2-4.61-6.44-5.45c.34,1.25,2.73,11.36-8,14.15-11.43,3-20.52-7.69-20.52-7.69s-3.19,18-12.71,17.49-9.52-19.83-9.52-19.83-4,14.05-10.84,13.14-2.46-18-2.46-18-16.24,15.67-22.07,9.35,4.65-15.86,4.65-15.86-13,3.37-14.49-1.08,11.15-10.33,11.15-10.33-11.76,5-13.79-1.17,20.85-15.43,20.85-15.43-26.07,7.11-27.77.4c-1.48-5.86,20.31-7.33,20.31-7.33a43,43,0,0,1-10.43-1s-20.74,2.26-19.41,10.25,19.13,5.08,19.13,5.08-30.62,7.9-28.28,15.77c2.11,7.07,19.87,2,23.43.95l.63-.19-.63.19c-3.36,1.07-19.25,6.45-17.91,11.91,1.5,6.1,21.1,2,21.1,2s-23.93,9.52-21.73,16,19.87,3.39,19.87,3.39-13.21,7.22-11.14,13.26,15.34,3.55,15.34,3.55-4.94,3.65-3.15,6.64,8.61,1.11,8.61,1.11-5.14,10.09,0,11.91,13.9-10.9,13.9-10.9,3.42,6.87,8.35,4.87c4.08-1.66,9.63-7.46,11.43-9.42.36-.43.6-.66.6-.66l-.6.66a16.5,16.5,0,0,0-3.71,9.37S1554.74,555.49,1558.69,556.34Z" style="fill:#1a5366"/><path d="M527.14,987.21c-4.39-5.27-11.41-3.81-11.71,7.61S499,1058,494.07,1041.94,448.5,84,448.5,84H387.37s26.5,814.49,26.5,895.27-70.24,111.8-70.24,111.8l194.66,15.5,1.9-6.56A37.89,37.89,0,0,1,598,1079.32l52.87,36.25,47.47,3.77h0C607.61,1069.72,531.53,992.48,527.14,987.21Z" style="fill:#081028"/><path d="M500.7,905.75C495.43,793.28,468.21,84,468.21,84H448.5s40.59,941.8,45.57,957.9,21.07-35.71,21.36-47.12,7.32-12.88,11.71-7.61,80.47,82.51,171.21,132.13h0l15.45,1.23S505.58,1009.75,500.7,905.75Z" style="fill:url(#a247adab-67e2-45a3-b7ce-56a15418d149)"/></svg>