<svg id="f5dcc773-e112-40fb-a438-76bc9a03013d" data-name="01-NavigationBar" xmlns="http://www.w3.org/2000/svg" viewBox="0 0 1920 1080"><text transform="translate(348.04 66.3)" style="font-size:24px;fill:#fff;font-family:MuseoModerno-Regular, MuseoModerno">Diagram</text><text transform="translate(669.39 66.3)" style="font-size:24px;fill:#04e3ff;font-family:MuseoModerno-Bold, MuseoModerno;font-weight:700">Experiment</text><text transform="translate(486.09 66.52)" style="font-size:24px;fill:#fff;font-family:MuseoModerno-Regular, MuseoModerno">Contribution</text><path d="M67.14,62.06a4.63,4.63,0,0,1-.49,2.15,3.71,3.71,0,0,1-1.39,1.52,3.91,3.91,0,0,1-2.14.57A4,4,0,0,1,61,65.73a3.73,3.73,0,0,1-1.4-1.52,4.76,4.76,0,0,1-.49-2.15V48.93H54V61.79a9.2,9.2,0,0,0,1.15,4.72,7.89,7.89,0,0,0,3.22,3,10.95,10.95,0,0,0,9.4,0,7.92,7.92,0,0,0,3.21-3,9,9,0,0,0,1.18-4.72V48.93H67.14Z" style="fill:#fff"/><path d="M87.66,55.21a8.55,8.55,0,0,0-4.16-1,8.66,8.66,0,0,0-4.16,1,6.65,6.65,0,0,0-3.64,6.06v9h4.72V61.39a2.92,2.92,0,0,1,.4-1.51,3,3,0,0,1,2.65-1.51,2.9,2.9,0,0,1,1.54.42,3,3,0,0,1,1.08,1.09,3,3,0,0,1,.4,1.51v8.87h4.72v-9a7,7,0,0,0-.92-3.54A6.59,6.59,0,0,0,87.66,55.21Z" style="fill:#fff"/><path d="M106.05,56.33H106a4.87,4.87,0,0,0-1.15-1.11,5.46,5.46,0,0,0-1.52-.72,6.43,6.43,0,0,0-1.78-.24,7.47,7.47,0,0,0-3.89,1A7.06,7.06,0,0,0,95,58a8.55,8.55,0,0,0-1,4.14,9.58,9.58,0,0,0,.58,3.39,7.94,7.94,0,0,0,1.65,2.69A6.9,6.9,0,0,0,98.87,70a9.6,9.6,0,0,0,3.52.61,9,9,0,0,0,4.43-1,7.22,7.22,0,0,0,2.91-3,9.29,9.29,0,0,0,1-4.48V48h-4.72Zm-.52,8.21A3.5,3.5,0,0,1,104.29,66a3.39,3.39,0,0,1-1.9.53,3.33,3.33,0,0,1-3.14-2,5,5,0,0,1-.42-2.08,4.88,4.88,0,0,1,.42-2.07,3.36,3.36,0,0,1,3.14-2,3.31,3.31,0,0,1,1.9.53,3.45,3.45,0,0,1,1.24,1.45,4.88,4.88,0,0,1,.43,2.07A5,5,0,0,1,105.53,64.54Z" style="fill:#fff"/><path d="M125.44,55.3a7.67,7.67,0,0,0-4.13-1,8,8,0,0,0-3.94,1,7.42,7.42,0,0,0-2.85,2.82,8.58,8.58,0,0,0-1.07,4.39,7.4,7.4,0,0,0,1.11,4.06,7.51,7.51,0,0,0,3.13,2.75,10.41,10.41,0,0,0,4.66,1H127v-3.9h-4.79a5.75,5.75,0,0,1-1.76-.26,3,3,0,0,1-1.31-.81,2.75,2.75,0,0,1-.7-1.34h10.23a7.65,7.65,0,0,0,.11-.84c0-.35.05-.66.05-.93a9.24,9.24,0,0,0-.86-4.06A6.59,6.59,0,0,0,125.44,55.3ZM118.3,61a6.14,6.14,0,0,1,.28-1.08,3,3,0,0,1,.57-.94,2.67,2.67,0,0,1,.91-.66,3.1,3.1,0,0,1,1.25-.24,3,3,0,0,1,1,.15,2.63,2.63,0,0,1,.78.41,3.41,3.41,0,0,1,.59.61,2.32,2.32,0,0,1,.38.81,7.11,7.11,0,0,1,.19.94Z" style="fill:#fff"/><path d="M132.65,55.88a4.5,4.5,0,0,0-1.22,3.35v11h4.72V59.53a1,1,0,0,1,.3-.74,1,1,0,0,1,.74-.29h3.38V54.66H136A4.54,4.54,0,0,0,132.65,55.88Z" style="fill:#fff"/><path d="M156.62,50.82h-4.75v3.81h-2.56V58.5h2.56v7.19a4.25,4.25,0,0,0,4.6,4.57h4.45v-4h-3.41a.88.88,0,0,1-.63-.26.86.86,0,0,1-.26-.63V58.5h4.3V54.63h-4.3Z" style="fill:#fff"/><path d="M176.35,55.18a6.72,6.72,0,0,0-3.61-.92,7.25,7.25,0,0,0-2.19.34,6.07,6.07,0,0,0-2,1.06V48h-4.73V70.26h4.73v-8.9a2.77,2.77,0,0,1,.41-1.52,2.93,2.93,0,0,1,1.11-1.07,3.11,3.11,0,0,1,1.52-.4,2.84,2.84,0,0,1,1.51.42,3.1,3.1,0,0,1,1.1,1.09,3,3,0,0,1,.41,1.57v8.81h4.72v-9a8.48,8.48,0,0,0-.74-3.6A5.72,5.72,0,0,0,176.35,55.18Z" style="fill:#fff"/><path d="M194.12,55.3a7.69,7.69,0,0,0-4.13-1,8,8,0,0,0-4,1,7.42,7.42,0,0,0-2.85,2.82,8.57,8.57,0,0,0-1.06,4.39,7.4,7.4,0,0,0,1.11,4.06,7.54,7.54,0,0,0,3.12,2.75,10.44,10.44,0,0,0,4.66,1h4.63v-3.9h-4.78a5.77,5.77,0,0,1-1.77-.26,3.09,3.09,0,0,1-1.31-.81,2.83,2.83,0,0,1-.7-1.34h10.24a7.65,7.65,0,0,0,.11-.84c0-.35,0-.66,0-.93a9.24,9.24,0,0,0-.85-4.06A6.66,6.66,0,0,0,194.12,55.3ZM187,61a6.18,6.18,0,0,1,.29-1.08,3,3,0,0,1,.56-.94,2.71,2.71,0,0,1,.92-.66,3.06,3.06,0,0,1,1.25-.24,3.12,3.12,0,0,1,1,.15,2.7,2.7,0,0,1,.77.41,3.15,3.15,0,0,1,.6.61,2.51,2.51,0,0,1,.38.81,7.1,7.1,0,0,1,.18.94Z" style="fill:#fff"/><path d="M233.77,55.88a4.54,4.54,0,0,0-1.22,3.35v11h4.72V59.53a1,1,0,0,1,1-1h3.38V54.66h-4.54A4.54,4.54,0,0,0,233.77,55.88Z" style="fill:#fff"/><path d="M255.05,55.3a7.65,7.65,0,0,0-4.13-1,8,8,0,0,0-3.94,1,7.42,7.42,0,0,0-2.85,2.82,8.58,8.58,0,0,0-1.07,4.39,7.32,7.32,0,0,0,1.12,4.06,7.54,7.54,0,0,0,3.12,2.75,10.41,10.41,0,0,0,4.66,1h4.63v-3.9h-4.78A5.77,5.77,0,0,1,250,66.1a3,3,0,0,1-1.31-.81A2.75,2.75,0,0,1,248,64h10.24a8.11,8.11,0,0,0,.1-.84c0-.35.05-.66.05-.93a9.39,9.39,0,0,0-.85-4.06A6.62,6.62,0,0,0,255.05,55.3ZM247.91,61a5.41,5.41,0,0,1,.29-1.08,3,3,0,0,1,.56-.94,2.67,2.67,0,0,1,.91-.66,3.13,3.13,0,0,1,1.25-.24,3,3,0,0,1,1,.15,2.63,2.63,0,0,1,.78.41,3.85,3.85,0,0,1,.6.61,2.51,2.51,0,0,1,.38.81,7.1,7.1,0,0,1,.18.94Z" style="fill:#fff"/><path d="M272.42,55.3a7.67,7.67,0,0,0-4.13-1,8,8,0,0,0-4,1,7.46,7.46,0,0,0-2.84,2.82,8.48,8.48,0,0,0-1.07,4.39,7.4,7.4,0,0,0,1.11,4.06,7.54,7.54,0,0,0,3.12,2.75,10.49,10.49,0,0,0,4.67,1H274v-3.9h-4.79a5.71,5.71,0,0,1-1.76-.26,3,3,0,0,1-1.31-.81,2.75,2.75,0,0,1-.7-1.34h10.23a7.65,7.65,0,0,0,.11-.84c0-.35.05-.66.05-.93a9.24,9.24,0,0,0-.86-4.06A6.59,6.59,0,0,0,272.42,55.3ZM265.27,61a6.18,6.18,0,0,1,.29-1.08,3,3,0,0,1,.57-.94,2.67,2.67,0,0,1,.91-.66,3.1,3.1,0,0,1,1.25-.24,3,3,0,0,1,1,.15,2.9,2.9,0,0,1,.78.41,3.41,3.41,0,0,1,.59.61,2.51,2.51,0,0,1,.38.81,7.11,7.11,0,0,1,.19.94Z" style="fill:#fff"/><path d="M293.12,57.73a6.72,6.72,0,0,0-2.63-2.52,9.58,9.58,0,0,0-8.32,0,6.65,6.65,0,0,0-3.64,6.06v9h4.72V61.39a2.92,2.92,0,0,1,.4-1.51,3,3,0,0,1,2.65-1.51,2.9,2.9,0,0,1,1.54.42,3.13,3.13,0,0,1,1.08,1.09,3,3,0,0,1,.39,1.51v8.87H294v-9A7,7,0,0,0,293.12,57.73Z" style="fill:#fff"/><path d="M221.14,48.14h-2.68a12.34,12.34,0,0,0-4.65.84,10.17,10.17,0,0,0-3.56,2.34A10.65,10.65,0,0,0,208,54.84a12.09,12.09,0,0,0,0,8.65,10.87,10.87,0,0,0,2.3,3.54,10.57,10.57,0,0,0,3.57,2.37,12.87,12.87,0,0,0,9.25,0A10.33,10.33,0,0,0,226.64,67a11,11,0,0,0,2.3-3.54,11.18,11.18,0,0,0,.82-4.31h-5.12a7.64,7.64,0,0,1-.45,2.65A6.6,6.6,0,0,1,222.91,64a5.81,5.81,0,0,1-2,1.42,6.45,6.45,0,0,1-5,0A5.87,5.87,0,0,1,214,64a6.12,6.12,0,0,1-1.28-2.15,8,8,0,0,1,0-5.3A6.21,6.21,0,0,1,214,54.38,5.71,5.71,0,0,1,216,53a6,6,0,0,1,2.5-.51h7a4.3,4.3,0,0,0,4.29-4v-.29Z" style="fill:#fff"/><line x1="670.27" y1="74.23" x2="802.27" y2="74.23" style="fill:none;stroke:#04e3ff;stroke-linecap:round;stroke-miterlimit:10;stroke-width:2px"/></svg>