<svg id="fb7fd94f-6f4c-484d-87db-18aff91fcdfc" data-name="图层 1" xmlns="http://www.w3.org/2000/svg" xmlns:xlink="http://www.w3.org/1999/xlink" viewBox="0 0 1920 1380"><defs><linearGradient id="b264334d-0f9c-4e69-a247-267d5b45755f" x1="1131.62" y1="862.61" x2="1081.51" y2="910.86" gradientTransform="translate(241.73 -225) rotate(17.51)" gradientUnits="userSpaceOnUse"><stop offset="0" stop-color="#02f8ff"/><stop offset="0.3" stop-color="#07e4db"/><stop offset="0.97" stop-color="#13b081"/><stop offset="1" stop-color="#13ae7d"/></linearGradient><linearGradient id="b892d57e-d277-427a-b392-59ef7996e83d" x1="1086.51" y1="852.86" x2="1104.7" y2="891.88" xlink:href="#b264334d-0f9c-4e69-a247-267d5b45755f"/><linearGradient id="a3fdb5ef-1c20-497f-9476-7088aa0a5f92" x1="830.84" y1="981.21" x2="861.41" y2="981.21" gradientTransform="translate(-187.22 339.99) rotate(-21.17)" xlink:href="#b264334d-0f9c-4e69-a247-267d5b45755f"/><linearGradient id="bbb696aa-62c9-4c4e-8857-57312e85d29c" x1="945.21" y1="962.23" x2="972.77" y2="951.56" gradientUnits="userSpaceOnUse"><stop offset="0" stop-color="#02f8ff"/><stop offset="0.03" stop-color="#03f3f7"/><stop offset="0.16" stop-color="#08ded2"/><stop offset="0.31" stop-color="#0ccdb3"/><stop offset="0.46" stop-color="#0fbf9b"/><stop offset="0.61" stop-color="#11b68a"/><stop offset="0.79" stop-color="#13b080"/><stop offset="1" stop-color="#13ae7d"/></linearGradient><linearGradient id="f0dfff73-151f-4b12-bc92-9b02d5d5817e" x1="530.93" y1="764.16" x2="557.39" y2="764.16" gradientTransform="matrix(-0.63, -0.78, -0.78, 0.63, 1952.99, 932.67)" xlink:href="#b264334d-0f9c-4e69-a247-267d5b45755f"/><linearGradient id="b59164d2-4d04-4fd7-a86f-bd656316716c" x1="1019.34" y1="1004.18" x2="1003.13" y2="984.12" gradientUnits="userSpaceOnUse"><stop offset="0" stop-color="#02f8ff"/><stop offset="0.01" stop-color="#02f7fd"/><stop offset="0.35" stop-color="#09d8c6"/><stop offset="0.63" stop-color="#0fc19e"/><stop offset="0.86" stop-color="#12b386"/><stop offset="1" stop-color="#13ae7d"/></linearGradient><linearGradient id="a8356faf-b76d-420c-bf9b-9383af315afa" x1="664.58" y1="984.49" x2="679.53" y2="984.49" gradientTransform="matrix(-1, 0, 0, 1, 1656.84, 0)" gradientUnits="userSpaceOnUse"><stop offset="0" stop-color="#00a29a"/><stop offset="0.55" stop-color="#02f8ff"/><stop offset="0.72" stop-color="#08d8db"/><stop offset="1" stop-color="#139e99"/></linearGradient><linearGradient id="ed105e69-1e84-4800-8c3c-efd2f321ff74" x1="984.28" y1="972.65" x2="1049.14" y2="982.41" gradientUnits="userSpaceOnUse"><stop offset="0" stop-color="#13ae7d"/><stop offset="1" stop-color="#02f8ff"/></linearGradient><linearGradient id="f1a529df-b4ce-45b9-add3-73b6c0b9949a" x1="708.87" y1="776.77" x2="716.3" y2="761.92" gradientTransform="translate(451.67 50.64) rotate(11.54)" gradientUnits="userSpaceOnUse"><stop offset="0" stop-color="#8ee1cd"/><stop offset="0.26" stop-color="#8ddece"/><stop offset="0.41" stop-color="#8bd6cf"/><stop offset="0.54" stop-color="#87c8d2"/><stop offset="0.65" stop-color="#82b3d7"/><stop offset="0.75" stop-color="#7a99dc"/><stop offset="0.85" stop-color="#7179e3"/><stop offset="0.93" stop-color="#6753eb"/><stop offset="1" stop-color="#5e32f2"/></linearGradient><linearGradient id="f8e18ca1-3f68-4ffd-8463-5739bfa3d329" x1="725.19" y1="716.67" x2="719.67" y2="762.12" gradientTransform="translate(451.67 50.64) rotate(11.54)" gradientUnits="userSpaceOnUse"><stop offset="0" stop-color="#d9ffff"/><stop offset="0.24" stop-color="#d7fcff"/><stop offset="0.39" stop-color="#d2f4fe"/><stop offset="0.51" stop-color="#cae6fd"/><stop offset="0.62" stop-color="#bed1fc"/><stop offset="0.71" stop-color="#aeb7fa"/><stop offset="0.8" stop-color="#9a97f8"/><stop offset="0.89" stop-color="#8370f6"/><stop offset="0.97" stop-color="#6945f3"/><stop offset="1" stop-color="#5e32f2"/></linearGradient><linearGradient id="f30a86e7-5de6-4474-bfd6-4c690bf2a8a8" x1="748.82" y1="727.58" x2="715.02" y2="767.52" xlink:href="#f8e18ca1-3f68-4ffd-8463-5739bfa3d329"/><linearGradient id="b6ddcc61-f989-4847-b34a-4bbc116ff20f" x1="702.2" y1="734.02" x2="720.94" y2="761.18" xlink:href="#f8e18ca1-3f68-4ffd-8463-5739bfa3d329"/><linearGradient id="e163807b-f30d-4a6d-a160-8c08400878ad" x1="1023.48" y1="939.86" x2="1018.48" y2="950.53" gradientTransform="matrix(1, 0, 0, 1, 0, 0)" xlink:href="#f8e18ca1-3f68-4ffd-8463-5739bfa3d329"/><linearGradient id="a3a076bc-7a91-46b4-b3f7-fb95b4c7940d" x1="767.82" y1="753.61" x2="713.12" y2="760.54" xlink:href="#f8e18ca1-3f68-4ffd-8463-5739bfa3d329"/><linearGradient id="ef415482-3dfc-4608-a0ea-3a973ed1027d" x1="714.92" y1="766.82" x2="725" y2="750.57" xlink:href="#f8e18ca1-3f68-4ffd-8463-5739bfa3d329"/></defs><path d="M925.93,1139.72c-8.46-.89-16.95-1.66-25.27-.7-5.06.58-10,1.8-15.14,2.08-11.07.62-22.28-3.19-33.16-1a59.26,59.26,0,0,0-8.2,2.24" style="fill:none;stroke:#0194a1;stroke-linecap:round;stroke-miterlimit:10;stroke-dasharray:1,2"/><path d="M847.57,1197.68c.91-6.57,5.41-12.25,10.88-16.14s11.91-6.28,18.25-8.59,12.79-4.66,18.3-8.51c4.93-3.44,8.94-8,13.24-12.15s12.13-10.81,17.87-12.69" style="fill:none;stroke:#0194a1;stroke-linecap:round;stroke-miterlimit:10;stroke-dasharray:1,2"/><path d="M972.55,1148.57c-2.28,4.62-2.69,11.87-3,17-.2,3.87.18,7.82-.66,11.61" style="fill:none;stroke:#0194a1;stroke-linecap:round;stroke-miterlimit:10;stroke-dasharray:1,2"/><path d="M975.68,1143.44a28.17,28.17,0,0,1-3.42,5.51,43.25,43.25,0,0,1-13.77,11,118.84,118.84,0,0,1-13.46,5.83c-3,1.13-6,2.25-8.91,3.46" style="fill:none;stroke:#0194a1;stroke-linecap:round;stroke-miterlimit:10;stroke-dasharray:1,2"/><path d="M1018.24,1152a55.18,55.18,0,0,0,9,2.18,62.91,62.91,0,0,1,12.11,2.92c5.59,2.2,10.11,6,14.26,10.32" style="fill:none;stroke:#0194a1;stroke-linecap:round;stroke-miterlimit:10;stroke-dasharray:1,2"/><path d="M1012.06,1149.05c6.13,6.4,12.37,13,16.1,21" style="fill:none;stroke:#0194a1;stroke-linecap:round;stroke-miterlimit:10;stroke-dasharray:1,2"/><path d="M990.86,1156.84c.71,7.17-1,14.5.35,21.56l.06.33a33.88,33.88,0,0,0,6,12.79" style="fill:none;stroke:#0194a1;stroke-linecap:round;stroke-miterlimit:10;stroke-dasharray:1,2"/><path d="M1061,1136.18a64.65,64.65,0,0,1,15.39,6.38c9.86,5.75,17.71,14.31,26.25,21.88s18.49,14.45,29.85,15.6" style="fill:none;stroke:#0194a1;stroke-linecap:round;stroke-miterlimit:10;stroke-dasharray:1,2"/><path d="M1060.87,1136.15c7.33-1.19,14.71-3.64,27.88-2.5,6.43.55,13.17,2.93,19.51,5.79" style="fill:none;stroke:#0194a1;stroke-linecap:round;stroke-miterlimit:10;stroke-dasharray:1,2"/><path d="M998,973.72v0c9.32-2.86,31.87-16.51,41.81-21.87S1055,936.76,1055,936.76s-11.2,5.24-16.45,7.92C1018.14,955.12,1005.29,966.14,998,973.72Z" style="fill:url(#b264334d-0f9c-4e69-a247-267d5b45755f)"/><path d="M1011.83,939.73c-12.57,13.92-13.79,33.1-13.84,34,7.3-7.58,20.15-18.6,40.55-29,5.25-2.68,16.45-7.92,16.45-7.92C1046.19,928.12,1024.7,925.47,1011.83,939.73Z" style="fill:url(#b892d57e-d277-427a-b392-59ef7996e83d)"/><path d="M978.68,970.65c-1-2.47-4-9.65-15.78-15.85s-25.37-13-31.1-25.81c0,0,15.22-4.64,25.58,2.47s16,16.54,21.92,38.15Z" style="fill:url(#a3fdb5ef-1c20-497f-9476-7088aa0a5f92)"/><path d="M933.46,929.68A44.38,44.38,0,0,1,943,932a49.58,49.58,0,0,1,8.87,4.12,50.42,50.42,0,0,1,7.88,5.82c2.45,2.15,4.85,4.37,7.1,6.75a59,59,0,0,1,6.17,7.65,57.11,57.11,0,0,1,4.71,8.66c1.34,3,2.41,6.1,3.51,9.16l1.59,4.63.76,2.35.35,1.19.16.61.08.32,0,.18,0,.11v.08s0,0,0,.21a.8.8,0,1,1-1.58-.24c0,.17,0,.11,0,.13h0v0l0-.12,0-.28-.14-.57-.32-1.15-.7-2.33-1.49-4.63c-1-3.09-2-6.18-3.28-9.15a53.24,53.24,0,0,0-10.37-16.23c-2.17-2.4-4.51-4.66-6.91-6.85a48.41,48.41,0,0,0-16.42-10.21A45.07,45.07,0,0,0,933.46,929.68Z" style="fill:url(#bbb696aa-62c9-4c4e-8857-57312e85d29c)"/><path d="M990.56,995.94c1.78-1.44,7.14-5.53,18.68-5.08s24.67,1.15,34.48-6c0,0-9.42-10.06-20.27-9.19s-19.18,5.49-32.91,19.18Z" style="fill:url(#f0dfff73-151f-4b12-bc92-9b02d5d5817e)"/><path d="M1042.18,984.7a38.42,38.42,0,0,0-8.14-2.19,42,42,0,0,0-16.72.6c-2.75.61-5.47,1.3-8.13,2.17a50.42,50.42,0,0,0-7.74,3.2,48,48,0,0,0-7,4.53c-2.21,1.69-4.29,3.57-6.39,5.45l-3.12,2.84-1.52,1.45-.73.73-.35.36-.16.18-.06.08,0,0s0,0,0,0,0,0,.07-.12a.81.81,0,0,1-1,.46.8.8,0,0,1-.45-1,1,1,0,0,1,.09-.18l0-.06.07-.08.1-.12.2-.21.39-.4.78-.74,1.58-1.43,3.2-2.78c2.15-1.83,4.3-3.69,6.6-5.36a49.38,49.38,0,0,1,7.29-4.46,50.8,50.8,0,0,1,8-3.07,83.92,83.92,0,0,1,8.25-2,42.63,42.63,0,0,1,8.43-1,43.43,43.43,0,0,1,8.44.74A38.75,38.75,0,0,1,1042.18,984.7Z" style="fill:url(#b59164d2-4d04-4fd7-a86f-bd656316716c)"/><path d="M991,951.69c-2.5,8.74-5.43,20.42-8.64,37.62a265.65,265.65,0,0,0-3.7,28" style="fill:none;stroke-linecap:round;stroke-linejoin:round;stroke-width:2.6px;stroke:url(#a8356faf-b76d-420c-bf9b-9383af315afa)"/><path d="M977.59,1017.12c1-4.82,2.11-9.56,3.47-14.27.68-2.35,1.42-4.69,2.26-7a51.43,51.43,0,0,1,2.95-6.79,72.62,72.62,0,0,1,8-12.32,79.6,79.6,0,0,1,10.47-10.3A171.78,171.78,0,0,1,1029,950.1c8.46-4.82,17.17-9.2,26-13.34-8.73,4.29-17.36,8.81-25.72,13.77a170.61,170.61,0,0,0-23.85,16.67,79.16,79.16,0,0,0-10.14,10.33,71.2,71.2,0,0,0-7.69,12.22,50.9,50.9,0,0,0-2.74,6.64c-.78,2.28-1.48,4.6-2.1,6.93-1.27,4.67-2.32,9.42-3.19,14.16h0a1,1,0,1,1-2-.36Z" style="fill:url(#ed105e69-1e84-4800-8c3c-efd2f321ff74)"/><path d="M1004.1,944.25c-6.3,1-12.71,8.86-12.71,8.86l-1-.2c1.83-2.25,6.19-14.28,6.19-14.28Z" style="fill:url(#f1a529df-b4ce-45b9-add3-73b6c0b9949a)"/><path d="M1003.22,937.34s1.37-14.74,2.08-24.68,9.6-15.36,13.94-14,6.06,11.65,1.65,19.85-15.47,19.32-15.47,19.32Z" style="fill:url(#f8e18ca1-3f68-4ffd-8463-5739bfa3d329)"/><path d="M1004.59,935.88s9.93-15.75,16.77-19.72,17-5.3,18.13-2,1.68,5.38,1.06,7.34-5.94,9.75-12.56,11.58-16.54,5.16-18.5,6S1004.59,935.88,1004.59,935.88Z" style="fill:url(#f30a86e7-5de6-4474-bfd6-4c690bf2a8a8)"/><path d="M1004.59,935.88s3.61-14.14-1.16-22.14-12.69-3.91-12.81-2.61-2,2.65-2.61,7.32,5.4,8.27,4.37,11.25S1004.59,935.88,1004.59,935.88Z" style="fill:url(#b6ddcc61-f989-4847-b34a-4bbc116ff20f)"/><path d="M1006.9,938.47s7.45,9.48,13.26,10.81,14.11,1.25,17.58-3.17S1006.9,938.47,1006.9,938.47Z" style="fill:url(#e163807b-f30d-4a6d-a160-8c08400878ad)"/><path d="M1006.9,938.47s11.55-5.87,23.26-5.41,15.59,4.25,15.09,6.66-2,3.56-4.22,4.56-3.74,2.23-5.25,3-2.67,2.16-8.43,1S1006.9,938.47,1006.9,938.47Z" style="fill:url(#a3a076bc-7a91-46b4-b3f7-fb95b4c7940d)"/><path d="M1023.89,927c-1.36-.54-7.25.52-11.62,3.45a31.81,31.81,0,0,0-4.57,3.67,32.35,32.35,0,0,0-3.74,4.47v0a0,0,0,0,0,0,0s0,0,0,0a34.09,34.09,0,0,1,3.92-4.3,38.23,38.23,0,0,1,6-4.38c4.69-2.52,7.13-2.3,7.62-2.19C1022.91,928.08,1025.36,927.57,1023.89,927Z" style="fill:#ff6969"/><path d="M1018.55,926.53c-1.31-.21-5.22,1.72-6.75,2.76a30.42,30.42,0,0,0-3.3,2.54,31.81,31.81,0,0,0-2.89,3.14,23.89,23.89,0,0,0-2.45,3.47s0,0,0,0a0,0,0,0,0,0,0,24.42,24.42,0,0,1,2.61-3.3,43.18,43.18,0,0,1,3.59-3.57c1.53-1.24,5.11-3.83,7-3.82C1017.81,927.79,1020.11,926.79,1018.55,926.53Z" style="fill:#ff6969"/><path d="M1023.48,932.34c-1.25-1-6.19-1.79-12.08.71a21.54,21.54,0,0,0-4.27,2.46,17.88,17.88,0,0,0-3.52,3.43,0,0,0,0,0,0,0,0,0,0,0,0,0,0,18,18,0,0,1,3.64-3.21,22.53,22.53,0,0,1,4.29-2.26,22,22,0,0,1,7.81-1.64,3.65,3.65,0,0,1,1.59.56C1022.19,933.17,1024.73,933.31,1023.48,932.34Z" style="fill:#ff6969"/><path d="M1020,935.63c-.91-.79-4.63-1.88-9.57-.34a20.13,20.13,0,0,0-3.8,1.6,18.62,18.62,0,0,0-3.37,2.34,0,0,0,0,0,0,0h0a18.91,18.91,0,0,1,3.47-2.11,27.3,27.3,0,0,1,5.86-1.83c3-.52,4.52,0,4.89.25C1018.7,936.39,1021.22,936.66,1020,935.63Z" style="fill:#ff6969"/><path d="M1017.58,933.32c-1.45-.63-4.68.35-4.68.35l-.81.25a14.85,14.85,0,0,0-2.6,1.26,20.35,20.35,0,0,0-2.38,1.62,12.18,12.18,0,0,0-2,2,.06.06,0,0,0,0,0h0a12.54,12.54,0,0,1,2.16-1.83,19.1,19.1,0,0,1,2.43-1.43c.85-.42,3.38-2,5.48-1.59C1016.58,934.28,1019,933.94,1017.58,933.32Z" style="fill:#ff6969"/><path d="M1010.75,925.49s.66-3.32-.11-4.7-1,1.15-.46,2.44a3.21,3.21,0,0,1,.27,1.71c-.22.81-.45,1.62-.72,2.41-.49,1.39-1,2.79-1.52,4.16s-1.21,2.71-1.9,4-1.41,2.62-2.21,3.87c0,0,0,0,0,0h0a50.49,50.49,0,0,0,4.51-7.73A51.55,51.55,0,0,0,1010.75,925.49Z" style="fill:#ff6969"/><path d="M1007.39,923.93c-.84-1.34-.8,1.14-.32,2.46.79,2.17-.46,5.73-.82,6.73a21.4,21.4,0,0,1-1.5,2.89,11.4,11.4,0,0,1-1.87,2.59h0a0,0,0,0,0,0,0,0,0,0,0,0,0,0,11.56,11.56,0,0,0,2.09-2.48,19.68,19.68,0,0,0,1.48-2.89,21.17,21.17,0,0,0,1-3.09C1008.08,928.11,1008.05,925,1007.39,923.93Z" style="fill:#ff6969"/><path d="M1017.13,937.09c-.8-.64-3.72-.91-3.79-.91h-.82s-.64,0-1,.06a11.55,11.55,0,0,0-2.52.66,12.87,12.87,0,0,0-4.45,2.61s0,0,0,0h0a11,11,0,0,1,2.19-1.3,15.32,15.32,0,0,1,2.37-.88c.82-.22,3.11-.66,3.44-.73a3,3,0,0,1,2,.49C1015.82,937.89,1018.36,938.09,1017.13,937.09Z" style="fill:#ff6969"/><path d="M992.38,929.7s-.15,4.6,1.4,6.86,3.93,4,4.16,5.31,2.15,2.25,2.53,2.9a7.9,7.9,0,0,0,6.39,2.89c3.55-.14,5,.89,5.69,1.35s2.49.84,2.69.55a9.35,9.35,0,0,0-2.4-8c-3.06-3-5.43-3.31-7-4.64s-3.81-3.51-5.24-5S992.38,929.7,992.38,929.7Z" style="fill:url(#ef415482-3dfc-4608-a0ea-3a973ed1027d)"/></svg>