<svg id="f43d7101-5281-4401-a00d-a0a23942cd35" data-name="图层 1" xmlns="http://www.w3.org/2000/svg" xmlns:xlink="http://www.w3.org/1999/xlink" viewBox="0 0 1920 1380"><defs><linearGradient id="a90d9f58-0b1e-4c6b-90ea-c7ce32492c50" x1="-3335.15" y1="-999.51" x2="-3314.83" y2="-999.51" gradientTransform="matrix(-0.66, -0.75, -0.75, 0.66, -1930.91, -792.75)" gradientUnits="userSpaceOnUse"><stop offset="0" stop-color="#02f8ff"/><stop offset="0.3" stop-color="#07e4db"/><stop offset="0.97" stop-color="#13b081"/><stop offset="1" stop-color="#13ae7d"/></linearGradient><linearGradient id="ae9f0cf1-85c6-4151-8bf1-ebfcd1fc4c5b" x1="1011.15" y1="1066.07" x2="997.89" y2="1050.87" gradientUnits="userSpaceOnUse"><stop offset="0" stop-color="#02f8ff"/><stop offset="0.03" stop-color="#03f3f7"/><stop offset="0.16" stop-color="#08ded2"/><stop offset="0.31" stop-color="#0ccdb3"/><stop offset="0.46" stop-color="#0fbf9b"/><stop offset="0.61" stop-color="#11b68a"/><stop offset="0.79" stop-color="#13b080"/><stop offset="1" stop-color="#13ae7d"/></linearGradient><linearGradient id="b1faea67-4404-4f76-970b-54e52b5bfe3a" x1="-3454.88" y1="1053.81" x2="-3443.27" y2="1053.81" gradientTransform="matrix(-1, 0, 0, 1, -2466.68, 0)" gradientUnits="userSpaceOnUse"><stop offset="0" stop-color="#00a29a"/><stop offset="0.55" stop-color="#02f8ff"/><stop offset="0.72" stop-color="#08d8db"/><stop offset="1" stop-color="#139e99"/></linearGradient><linearGradient id="f347242b-5487-4ae3-aec9-567d821dcd79" x1="617.61" y1="21.45" x2="598.31" y2="-19.54" gradientTransform="matrix(0.92, 0.39, -0.39, 0.92, 415.4, 791.44)" gradientUnits="userSpaceOnUse"><stop offset="0" stop-color="#8ee1cd"/><stop offset="0.26" stop-color="#8ddece"/><stop offset="0.41" stop-color="#8bd6cf"/><stop offset="0.54" stop-color="#87c8d2"/><stop offset="0.65" stop-color="#82b3d7"/><stop offset="0.75" stop-color="#7a99dc"/><stop offset="0.85" stop-color="#7179e3"/><stop offset="0.93" stop-color="#6753eb"/><stop offset="1" stop-color="#5e32f2"/></linearGradient><radialGradient id="bb7ae558-3d1e-4b7c-b992-af8df19dd99a" cx="982.41" cy="1014.97" r="13.17" gradientUnits="userSpaceOnUse"><stop offset="0" stop-color="#d9ffff"/><stop offset="0.23" stop-color="#d8fcff"/><stop offset="0.36" stop-color="#d4f4fe"/><stop offset="0.47" stop-color="#cee6fd"/><stop offset="0.57" stop-color="#c5d1fc"/><stop offset="0.67" stop-color="#bab7fa"/><stop offset="0.75" stop-color="#ac97f8"/><stop offset="0.83" stop-color="#9b70f6"/><stop offset="0.91" stop-color="#8844f3"/><stop offset="0.98" stop-color="#7312f0"/><stop offset="1" stop-color="#6b00ef"/></radialGradient><linearGradient id="a71aa949-32d0-40fc-9d88-2ee90ba8fa33" x1="980.83" y1="1016.91" x2="988.33" y2="1025.16" gradientUnits="userSpaceOnUse"><stop offset="0" stop-color="#d9ffff"/><stop offset="0.24" stop-color="#d7fcff"/><stop offset="0.39" stop-color="#d2f4fe"/><stop offset="0.51" stop-color="#cae6fd"/><stop offset="0.62" stop-color="#bed1fc"/><stop offset="0.71" stop-color="#aeb7fa"/><stop offset="0.8" stop-color="#9a97f8"/><stop offset="0.89" stop-color="#8370f6"/><stop offset="0.97" stop-color="#6945f3"/><stop offset="1" stop-color="#5e32f2"/></linearGradient><radialGradient id="ad96974e-9477-4fc6-9545-721a049f95a7" cx="973.49" cy="992.46" r="19.08" gradientUnits="userSpaceOnUse"><stop offset="0" stop-color="#d9ffff"/><stop offset="0.17" stop-color="#d8fcff"/><stop offset="0.28" stop-color="#d4f4ff"/><stop offset="0.36" stop-color="#cde6ff"/><stop offset="0.44" stop-color="#c3d1ff"/><stop offset="0.5" stop-color="#b7b7ff"/><stop offset="0.57" stop-color="#a797ff"/><stop offset="0.63" stop-color="#9571ff"/><stop offset="0.68" stop-color="#8046ff"/><stop offset="0.69" stop-color="#7f43ff"/><stop offset="0.76" stop-color="#7c39fd"/><stop offset="0.88" stop-color="#7420f7"/><stop offset="1" stop-color="#6b00ef"/></radialGradient><linearGradient id="ab49431e-a7a9-4c33-b6ea-42a98a736bb0" x1="580.08" y1="-36.04" x2="595.64" y2="-43.84" gradientTransform="matrix(0.92, 0.39, -0.39, 0.92, 415.4, 791.44)" xlink:href="#a71aa949-32d0-40fc-9d88-2ee90ba8fa33"/><linearGradient id="b87ea98e-4e4d-45e0-864c-326e668e5b60" x1="979.2" y1="992.08" x2="1002.54" y2="993.66" xlink:href="#a71aa949-32d0-40fc-9d88-2ee90ba8fa33"/><linearGradient id="f09b8759-4964-4fed-a3c5-310a04301172" x1="986.73" y1="987.67" x2="994.73" y2="1002.43" xlink:href="#a71aa949-32d0-40fc-9d88-2ee90ba8fa33"/><radialGradient id="bf16aa2d-0811-4335-b122-cfc138dab5a2" cx="994.09" cy="1008.55" r="14.99" xlink:href="#bb7ae558-3d1e-4b7c-b992-af8df19dd99a"/><radialGradient id="f3cf89c0-a942-4d01-a875-c4f6eb9b95e4" cx="973.99" cy="1001.97" r="20.46" xlink:href="#ad96974e-9477-4fc6-9545-721a049f95a7"/><linearGradient id="b99bb62f-64e6-457c-a052-442272eaa0c7" x1="581.04" y1="-21.01" x2="597.38" y2="-21.01" gradientTransform="matrix(0.92, 0.39, -0.39, 0.92, 415.4, 791.44)" xlink:href="#a71aa949-32d0-40fc-9d88-2ee90ba8fa33"/><linearGradient id="a4c84347-5ab9-4361-820f-03f17017ab2a" x1="558.78" y1="-5.13" x2="623.18" y2="-5.13" gradientTransform="matrix(0.92, 0.39, -0.39, 0.92, 415.4, 791.44)" xlink:href="#a90d9f58-0b1e-4c6b-90ea-c7ce32492c50"/><linearGradient id="ebeb8b7f-6980-4bbb-9fc0-6a10d4c33e3d" x1="506.55" y1="-4.89" x2="621.66" y2="-4.89" gradientTransform="matrix(0.92, 0.39, -0.39, 0.92, 415.4, 791.44)" xlink:href="#a90d9f58-0b1e-4c6b-90ea-c7ce32492c50"/><linearGradient id="bef7b3a1-c7c7-4872-acd8-06193ad7691d" x1="1003.86" y1="438.64" x2="975.42" y2="466.02" gradientTransform="translate(131.76 389.59) rotate(11.66)" xlink:href="#a90d9f58-0b1e-4c6b-90ea-c7ce32492c50"/><linearGradient id="badcdd35-995e-4efa-b570-beefe99ead57" x1="978.26" y1="433.1" x2="988.58" y2="455.25" gradientTransform="translate(131.76 389.59) rotate(11.66)" xlink:href="#a90d9f58-0b1e-4c6b-90ea-c7ce32492c50"/><linearGradient id="af2e1d3f-640e-467d-af07-1536edbb8172" x1="985.3" y1="1042.85" x2="1017.63" y2="1049.53" gradientUnits="userSpaceOnUse"><stop offset="0" stop-color="#13ae7d"/><stop offset="1" stop-color="#02f8ff"/></linearGradient></defs><g style="opacity:0.5"><path d="M985.24,1118.31c-1.9,9.43-10.1,16.6-19.13,19.93-12.76,4.7-26.44,2.92-40.18,1.48" style="fill:none;stroke:#02f8ff;stroke-linecap:round;stroke-miterlimit:10;stroke-dasharray:1,2"/><path d="M985.24,1118.31c-.82,4-7.82,21.43-9.56,25.13a28.17,28.17,0,0,1-3.42,5.51" style="fill:none;stroke:#02f8ff;stroke-linecap:round;stroke-miterlimit:10;stroke-dasharray:1,2"/><path d="M985.24,1118.31a58.72,58.72,0,0,0,1.25,20.88c1.47,5.89,3.77,11.61,4.37,17.65" style="fill:none;stroke:#02f8ff;stroke-linecap:round;stroke-miterlimit:10;stroke-dasharray:1,2"/><path d="M985.24,1118.31c3.59,6.78,10.17,13.94,14.94,19.94s10.83,11.2,18.06,13.77a54.82,54.82,0,0,0,9,2.18" style="fill:none;stroke:#02f8ff;stroke-linecap:round;stroke-miterlimit:10;stroke-dasharray:1,2"/><path d="M985.24,1118.31c3.26,6,6.7,10.29,13,12.18,9.21,2.76,19.08,2,28.7,2,11.41,0,23.13.69,34,3.72" style="fill:none;stroke:#02f8ff;stroke-linecap:round;stroke-miterlimit:10;stroke-dasharray:1,2"/></g><path d="M988.79,1060.38c1.32-1.15,5.31-4.44,14.18-4.44s18.95.16,26.27-5.57c0,0-7.52-7.44-15.81-6.45s-14.55,4.77-24.69,15.66Z" style="fill:url(#a90d9f58-0b1e-4c6b-90ea-c7ce32492c50)"/><path d="M1028.05,1050.26a29.71,29.71,0,0,0-6.31-1.42,33.12,33.12,0,0,0-6.45-.15,32.7,32.7,0,0,0-6.34,1.14c-2.08.56-4.15,1.17-6.16,1.92a39.27,39.27,0,0,0-5.81,2.69,37.27,37.27,0,0,0-5.22,3.69c-1.64,1.36-3.17,2.87-4.72,4.38l-2.3,2.27-1.12,1.15-.53.59-.25.28-.11.14-.05,0v0s0,0,.06-.13a.8.8,0,0,1-1,.5.81.81,0,0,1-.5-1,1,1,0,0,1,.09-.18l0-.05,0-.07.09-.1.15-.18.29-.31.58-.6,1.18-1.14,2.38-2.22c1.6-1.46,3.2-2.94,4.94-4.29a37.7,37.7,0,0,1,5.48-3.63,38.58,38.58,0,0,1,6-2.57c2.06-.7,4.17-1.26,6.28-1.75a32.38,32.38,0,0,1,13-.61A29.52,29.52,0,0,1,1028.05,1050.26Z" style="fill:url(#ae9f0cf1-85c6-4151-8bf1-ebfcd1fc4c5b)"/><path d="M982.31,989.31a265.65,265.65,0,0,0-3.7,28c-3.44,44.7,6.63,71.41,6.63,71.41,3.76,12.62,0,29.6,0,29.6" style="fill:none;stroke-linecap:round;stroke-linejoin:round;stroke-width:2.6px;stroke:url(#b1faea67-4404-4f76-970b-54e52b5bfe3a)"/><path d="M969.54,1009s2.23,22.49,6.36,35.49l2.78,8.52s-2.58-15-2.56-21.54a174.6,174.6,0,0,1,1.6-17.81Z" style="fill:url(#f347242b-5487-4ae3-aec9-567d821dcd79)"/><path d="M980.15,1021.83c3.26.38,4.23-1.05,4.23-1.05s4,2.39,6.5-1.54h0c1-5-2.65-12.89-9.12-17,0,0-10.17,4-7.36,14.38a14.2,14.2,0,0,0,.76,2.09A7.43,7.43,0,0,0,980.15,1021.83Z" style="fill:url(#bb7ae558-3d1e-4b7c-b992-af8df19dd99a)"/><path d="M990.62,1020.21a9.15,9.15,0,0,0,.26-1h0c-2.47,3.93-6.5,1.54-6.5,1.54s-1,1.43-4.23,1.05a7.43,7.43,0,0,1-5-3.15C978.88,1026.7,989,1024.74,990.62,1020.21Z" style="fill:url(#a71aa949-32d0-40fc-9d88-2ee90ba8fa33)"/><path d="M982.75,987.83a14.62,14.62,0,0,0-3.62-6.25,5.67,5.67,0,0,0-5.8-.61c-3.23,1.53-3.46,4.11-3.46,4.11s-5.11,1.39-4.17,6.27c1.57,3.62,6.19,7.58,16.49,11.17A21.08,21.08,0,0,0,982.75,987.83Z" style="fill:url(#ad96974e-9477-4fc6-9545-721a049f95a7)"/><path d="M969.87,985.08s.23-2.58,3.46-4.11a5.67,5.67,0,0,1,5.8.61c-3.11-3-7.15-3.22-10.16-.73-2.47,2-5.23,6-3.27,10.5C964.76,986.47,969.87,985.08,969.87,985.08Z" style="fill:url(#ab49431e-a7a9-4c33-b6ea-42a98a736bb0)"/><path d="M996.63,986.41a6.87,6.87,0,0,0-2.88-3.59c-3.82-2.21-9.79-1.1-13,7.48s.66,11.87.71,12a6.11,6.11,0,0,0,3.25,1.1,19.75,19.75,0,0,0,9.66-8.07A18.87,18.87,0,0,0,996.63,986.41Z" style="fill:url(#b87ea98e-4e4d-45e0-864c-326e668e5b60)"/><path d="M992.91,999.3c4.39-4.72,5-9.56,3.72-12.89a18.87,18.87,0,0,1-2.28,9,19.75,19.75,0,0,1-9.66,8.07C986.74,1003.57,989.63,1002.82,992.91,999.3Z" style="fill:url(#f09b8759-4964-4fed-a3c5-310a04301172)"/><path d="M981.72,1002.78s3.17-3.53,12.85-2.76,12.39,5.74,10.7,8.71-1,3.43-2.06,5.85c-1,2.26-6.18,5-13-.87S981.72,1002.78,981.72,1002.78Z" style="fill:url(#bf16aa2d-0811-4335-b122-cfc138dab5a2)"/><path d="M968.6,995.43c-2.87-1.27-4.68-1.77-5.91-1.75.39,0,.91.11.89.6,0,.81-.56.65-.38,1.52s1.78,2.39,1.58,4-.13,1,.55,2,2.1,2.06,2.56,4.37.24,5.25,2.2,6.91a1.45,1.45,0,0,0,.38.22,3.94,3.94,0,0,0,3.81-.36c3-2.23,6-7.09,7.24-9.25a1.22,1.22,0,0,0-.46-1.68C978.67,1000.61,972.7,997.25,968.6,995.43Z" style="fill:url(#f3cf89c0-a942-4d01-a875-c4f6eb9b95e4)"/><path d="M967.89,1006.15c-.46-2.31-1.88-3.38-2.56-4.37s-.76-.45-.55-2-1.4-3.08-1.58-4,.34-.71.38-1.52c0-.49-.5-.6-.89-.6h-.12a2.58,2.58,0,0,0-2,1c-1.12,1.32-1.73,4.81.68,9.44,1.69,3.27,5.55,7.74,9,9.09C968.12,1011.58,968.34,1008.46,967.89,1006.15Z" style="fill:url(#b99bb62f-64e6-457c-a052-442272eaa0c7)"/><path d="M993.54,994c-1.25-.16-4.9,1.85-6.31,2.9a28.69,28.69,0,0,0-3,2.55,31.11,31.11,0,0,0-2.63,3.11h0a1.39,1.39,0,0,1,.1.33l.13-.15a40.44,40.44,0,0,1,3.26-3.54c1.41-1.24,4.71-3.85,6.5-3.92C992.89,995.18,995,994.13,993.54,994Z" style="fill:#ff6969"/><path d="M997.92,998.14c-1.23-.87-6-1.45-11.47,1.17a20.51,20.51,0,0,0-4,2.52l-.89.77a.78.78,0,0,1,.07.25c.33-.27.66-.54,1-.79A22,22,0,0,1,994,997.85a3.56,3.56,0,0,1,1.54.47C996.73,999,999.15,999,997.92,998.14Z" style="fill:#ff6969"/><path d="M995.53,1000.32c-.89-.72-4.48-1.65-9.13,0a19.32,19.32,0,0,0-3.58,1.64c-.4.24-.8.5-1.19.77a.78.78,0,0,1,0,.22c.43-.26.86-.51,1.29-.74a25.81,25.81,0,0,1,5.53-1.92c2.81-.59,4.31-.15,4.67.09C994.29,1001.08,996.7,1001.26,995.53,1000.32Z" style="fill:#ff6969"/><path d="M985.77,996.06c.09-.26.23-.77.23-.77s.9-3.1.28-4.48-.91,1-.64,2.28c.42,2-1.06,4.43-1.44,5.25a19.18,19.18,0,0,1-1.33,2.33,12.2,12.2,0,0,1-1.37,1.74.41.41,0,0,0,0,.09,12.19,12.19,0,0,0,1.55-1.66,18.48,18.48,0,0,0,1.51-2.29A13.73,13.73,0,0,0,985.77,996.06Z" style="fill:#ff6969"/><path d="M982.39,1000.91a19.17,19.17,0,0,0,.86-3c.44-2,.28-5-.39-6-.86-1.24-.71,1.12-.2,2.36.84,2-.2,5.47-.51,6.44a11.63,11.63,0,0,1-.68,1.6,1.26,1.26,0,0,1,.16.33C981.91,1002.12,982.16,1001.52,982.39,1000.91Z" style="fill:#ff6969"/><path d="M978.92,1057.43s-6.62-40-35.62-78.17" style="fill:none;stroke-linecap:round;stroke-linejoin:round;stroke:url(#a4c84347-5ab9-4361-820f-03f17017ab2a)"/><path d="M978.58,1055.63S973,1027.45,957,1002.34s-35.14-32.18-47.33-31.24-16.75,5.83-22.5,5.5c0,0,7.6,16.32,22.27,21.74s23.22-.42,33.32,2.71S966.43,1014.85,978.58,1055.63Z" style="fill:url(#ebeb8b7f-6980-4bbb-9fc0-6a10d4c33e3d)"/><path d="M992.53,1045.84v0c5.1-2.15,17-11.16,22.34-14.76a23.72,23.72,0,0,0,7.7-9.42s-6,3.6-8.83,5.42C1002.82,1034.17,996.21,1041.14,992.53,1045.84Z" style="fill:url(#bef7b3a1-c7c7-4872-acd8-06193ad7691d)"/><path d="M998.37,1025.85c-6.29,8.59-5.87,19.48-5.84,20,3.68-4.7,10.29-11.67,21.21-18.74,2.81-1.82,8.83-5.42,8.83-5.42C1017.09,1017.31,1004.81,1017.05,998.37,1025.85Z" style="fill:url(#badcdd35-995e-4efa-b570-beefe99ead57)"/><path d="M1022.57,1021.68c-9.55,5.35-18.55,11.84-25.88,19.94a64.52,64.52,0,0,0-5.05,6.4c-.78,1.11-1.48,2.27-2.15,3.45a39.82,39.82,0,0,0-1.74,3.66c-2.2,5-4.34,10.06-6.48,15.1a.8.8,0,1,1-1.48-.62v0c2.27-5,4.53-10,6.86-15a39.18,39.18,0,0,1,1.88-3.71c.71-1.19,1.46-2.36,2.28-3.47a65.83,65.83,0,0,1,5.28-6.37C1003.71,1033.07,1012.89,1026.8,1022.57,1021.68Z" style="fill:url(#af2e1d3f-640e-467d-af07-1536edbb8172)"/></svg>