<svg id="a746c698-4002-4a6b-bb26-5774bafce831" data-name="图层 1" xmlns="http://www.w3.org/2000/svg" xmlns:xlink="http://www.w3.org/1999/xlink" viewBox="0 0 1920 1380"><defs><linearGradient id="b26cb977-e923-404b-85fd-32c45e4fddf1" x1="4741.47" y1="888.24" x2="4753.66" y2="888.24" gradientTransform="matrix(-1, 0, 0, 1, 5742.89, 0)" gradientUnits="userSpaceOnUse"><stop offset="0" stop-color="#00a29a"/><stop offset="0.55" stop-color="#02f8ff"/><stop offset="0.72" stop-color="#08d8db"/><stop offset="1" stop-color="#139e99"/></linearGradient><linearGradient id="a22e4724-5a47-4c60-8dce-4fc752923e55" x1="4476.42" y1="887.01" x2="4528.17" y2="887.01" gradientTransform="matrix(-1, 0, 0, 1, 5534.5, 0)" gradientUnits="userSpaceOnUse"><stop offset="0" stop-color="#02f8ff"/><stop offset="0.3" stop-color="#07e4db"/><stop offset="0.97" stop-color="#13b081"/><stop offset="1" stop-color="#13ae7d"/></linearGradient><linearGradient id="beb55c14-cdb4-4853-afbd-3b2a73f1efcd" x1="4477.13" y1="893.39" x2="4535.19" y2="893.39" xlink:href="#a22e4724-5a47-4c60-8dce-4fc752923e55"/><linearGradient id="ebbcbdbf-c6b8-407a-9568-a2e1ada69375" x1="888.6" y1="1444.75" x2="873.81" y2="1427.47" gradientTransform="matrix(0.92, 0.39, -0.39, 0.92, 743.82, -817.38)" gradientUnits="userSpaceOnUse"><stop offset="0" stop-color="#8ee1cd"/><stop offset="0.26" stop-color="#8ddece"/><stop offset="0.41" stop-color="#8bd6cf"/><stop offset="0.54" stop-color="#87c8d2"/><stop offset="0.65" stop-color="#82b3d7"/><stop offset="0.75" stop-color="#7a99dc"/><stop offset="0.85" stop-color="#7179e3"/><stop offset="0.93" stop-color="#6753eb"/><stop offset="1" stop-color="#5e32f2"/></linearGradient><linearGradient id="f0bde936-eab2-4f4e-97fe-b9f212bf3421" x1="829.16" y1="1401.03" x2="869.64" y2="1428.85" gradientTransform="matrix(0.92, 0.39, -0.39, 0.92, 743.82, -817.38)" gradientUnits="userSpaceOnUse"><stop offset="0" stop-color="#d9ffff"/><stop offset="0.24" stop-color="#d7fcff"/><stop offset="0.39" stop-color="#d2f4fe"/><stop offset="0.51" stop-color="#cae6fd"/><stop offset="0.62" stop-color="#bed1fc"/><stop offset="0.71" stop-color="#aeb7fa"/><stop offset="0.8" stop-color="#9a97f8"/><stop offset="0.89" stop-color="#8370f6"/><stop offset="0.97" stop-color="#6945f3"/><stop offset="1" stop-color="#5e32f2"/></linearGradient><linearGradient id="ef087b24-bfd2-4bd4-af6b-c726353dc646" x1="836.65" y1="1434.69" x2="872.94" y2="1417.08" xlink:href="#f0bde936-eab2-4f4e-97fe-b9f212bf3421"/><linearGradient id="ae8b526d-11e6-4e23-85eb-5604de2d9451" x1="848.32" y1="1382.79" x2="870.72" y2="1422.76" xlink:href="#f0bde936-eab2-4f4e-97fe-b9f212bf3421"/><linearGradient id="f11843dc-cff3-4671-a806-30e948428113" x1="883.94" y1="1380.02" x2="872.83" y2="1424.21" xlink:href="#f0bde936-eab2-4f4e-97fe-b9f212bf3421"/><linearGradient id="a5b854a2-b511-4c01-a71f-b71d26d315b8" x1="884.73" y1="1434.1" x2="865.25" y2="1412.6" xlink:href="#f0bde936-eab2-4f4e-97fe-b9f212bf3421"/><linearGradient id="eee32a10-a8bb-40d7-8993-d4d94ee7c33b" x1="1005.08" y1="354.71" x2="978.12" y2="380.67" gradientTransform="translate(-63.42 771.93) rotate(-15.12)" xlink:href="#a22e4724-5a47-4c60-8dce-4fc752923e55"/><linearGradient id="bcf418b3-dd50-4106-8224-5e472f525420" x1="980.81" y1="349.46" x2="990.6" y2="370.46" gradientTransform="translate(-63.42 771.93) rotate(-15.12)" xlink:href="#a22e4724-5a47-4c60-8dce-4fc752923e55"/><linearGradient id="b72c0ec0-51f3-4fcc-8a73-04787860e7a0" x1="973.58" y1="887.31" x2="1003.88" y2="879.12" gradientUnits="userSpaceOnUse"><stop offset="0" stop-color="#13ae7d"/><stop offset="1" stop-color="#02f8ff"/></linearGradient><linearGradient id="f8b8351d-f8c7-4434-b5c5-7182a7b2fbee" x1="1015.52" y1="593.94" x2="988.55" y2="619.9" gradientTransform="translate(-52.17 365.61) rotate(-6.44)" xlink:href="#a22e4724-5a47-4c60-8dce-4fc752923e55"/><linearGradient id="b9e571d7-284d-4ae2-a56d-74113ef9cafd" x1="991.24" y1="588.69" x2="1001.03" y2="609.69" gradientTransform="translate(-52.17 365.61) rotate(-6.44)" xlink:href="#a22e4724-5a47-4c60-8dce-4fc752923e55"/><linearGradient id="a3cacdb8-4f9a-4554-aaef-741e94e8ffef" x1="996" y1="862.86" x2="1022.69" y2="859.85" xlink:href="#b72c0ec0-51f3-4fcc-8a73-04787860e7a0"/><linearGradient id="bfa5fdc1-f94c-4acb-939f-3a5ef1c4ca20" x1="1086.24" y1="-211.5" x2="1116.81" y2="-211.5" gradientTransform="translate(126.23 1633.03) rotate(-32.68)" xlink:href="#a22e4724-5a47-4c60-8dce-4fc752923e55"/><linearGradient id="e2612b87-2e22-47e7-9729-796a52805abd" x1="948.09" y1="901.86" x2="973.36" y2="885.65" gradientUnits="userSpaceOnUse"><stop offset="0" stop-color="#02f8ff"/><stop offset="0.01" stop-color="#02f7fd"/><stop offset="0.35" stop-color="#09d8c6"/><stop offset="0.63" stop-color="#0fc19e"/><stop offset="0.86" stop-color="#12b386"/><stop offset="1" stop-color="#13ae7d"/></linearGradient><linearGradient id="b57aab85-531e-417d-95c7-d701cd0dea9e" x1="912.24" y1="883.14" x2="963.98" y2="883.14" gradientTransform="matrix(1, 0, 0, 1, 0, 0)" xlink:href="#a22e4724-5a47-4c60-8dce-4fc752923e55"/><linearGradient id="a11954c5-26f3-4dfb-9574-3d137a083d9a" x1="912.95" y1="902.95" x2="987.74" y2="902.95" gradientTransform="matrix(1, 0, 0, 1, 0, 0)" xlink:href="#a22e4724-5a47-4c60-8dce-4fc752923e55"/></defs><path d="M844.16,1142.32a39.83,39.83,0,0,0-9.69,4.92c-10.59,7.51-24.77,14.17-37.85,15.7" style="fill:none;stroke:#0194a1;stroke-linecap:round;stroke-miterlimit:10;stroke-dasharray:1,2"/><path d="M843.93,1142.4c-8.08,0-13.12-.64-19.78-.54s-13.11.21-19.55,1.34c-13.86,2.43-26.43,9.45-38.69,16.35" style="fill:none;stroke:#0194a1;stroke-linecap:round;stroke-miterlimit:10;stroke-dasharray:1,2"/><path d="M945,1165.75c-3,1.13-6,2.25-8.92,3.46-15.64,6.45-30.9,16.8-37.21,32.5-2.95,7.35-3.84,15.59-8.16,22.23-5.23,8-14.71,12.35-24.13,14.13" style="fill:none;stroke:#0194a1;stroke-linecap:round;stroke-miterlimit:10;stroke-dasharray:1,2"/><path d="M945,1165.78c-1.88,8.69-8.68,15.81-15.5,21.51a29.69,29.69,0,0,0-8.36,11.89c-1.6,4.35-1.57,9.09-1.21,13.71" style="fill:none;stroke:#0194a1;stroke-linecap:round;stroke-miterlimit:10;stroke-dasharray:1,2"/><path d="M968.93,1177.2c-.93,4.14-3.25,7.82-5.53,11.4a49.38,49.38,0,0,1-6.72,9c-3.75,3.67-8.66,6.14-11.77,10.36-6,8.09-3.51,19.87-8.29,28.71-1.75,3.23-4.37,5.88-6.86,8.59s-4.9,5.62-6.09,9.09-.94,7.67,1.52,10.4" style="fill:none;stroke:#0194a1;stroke-linecap:round;stroke-miterlimit:10;stroke-dasharray:1,2"/><path d="M967.68,1180.94a39.6,39.6,0,0,0-1.11,18.63c1.63,9.19,6.13,17.93,6,27.27-.17,10-5.6,19-8.53,28.55-1.44,4.66-2.44,9.89-.17,15.09" style="fill:none;stroke:#0194a1;stroke-linecap:round;stroke-miterlimit:10;stroke-dasharray:1,2"/><path d="M997.26,1191.52c2.93,4.13,6.47,8,9.75,11.8,6.4,7.48,12.42,16.75,10.8,26.46-1,6.11-5,11.58-5.1,17.77a15,15,0,0,0,10.11,14.12" style="fill:none;stroke:#0194a1;stroke-linecap:round;stroke-miterlimit:10;stroke-dasharray:1,2"/><path d="M997.26,1191.52c-1.3,17.34-6.78,35.13-4,52.3.46,2.92,1.22,5.8,1.42,8.75s-.68,7.16-2.18,11.1" style="fill:none;stroke:#0194a1;stroke-linecap:round;stroke-miterlimit:10;stroke-dasharray:1,2"/><path d="M1053.61,1167.44c5.83,6.1,10.93,13.33,17.24,18.94,4.1,3.64,8.77,6.65,12.47,10.69,9.56,10.44,11.07,25.86,18,38.2a23.62,23.62,0,0,0,6.45,7.78" style="fill:none;stroke:#0194a1;stroke-linecap:round;stroke-miterlimit:10;stroke-dasharray:1,2"/><path d="M1053.61,1167.44c6,.51,12.66-.43,18.52.93a37.08,37.08,0,0,1,6.83,2.52,196.79,196.79,0,0,1,27.52,15.23c6,4,12,8.4,18.92,10.53,7.47,2.3,15.48,1.77,23.29,1.23" style="fill:none;stroke:#0194a1;stroke-linecap:round;stroke-miterlimit:10;stroke-dasharray:1,2"/><path d="M1026,1165.94a42.56,42.56,0,0,1,2.19,4.11c2,4.35,3.25,9,5.4,13.31,4.82,9.61,14.13,17,16.35,27.55.63,3,.63,6.1,1.32,9.09a20.55,20.55,0,0,0,4.21,8.52c2.4,2.89,5.6,5.12,7.57,8.32,1.43,2.33,4.16,5.32,3.79,9.83" style="fill:none;stroke:#0194a1;stroke-linecap:round;stroke-miterlimit:10;stroke-dasharray:1,2"/><path d="M1026,1166.05c1.1,6.91,2.38,14.14,2.78,21.14.51,8.9-2.76,18-.59,26.61.51,2,1.3,3.93,1.69,6,.67,3.52.1,7.14-.48,10.67" style="fill:none;stroke:#0194a1;stroke-linecap:round;stroke-miterlimit:10;stroke-dasharray:1,2"/><path d="M1108.26,1139.44c8.68,3.92,16.59,8.76,21.89,11.13a117.47,117.47,0,0,0,47,10.25" style="fill:none;stroke:#0194a1;stroke-linecap:round;stroke-miterlimit:10;stroke-dasharray:1,2"/><path d="M1108.26,1139.44c10.38.92,24.24-1.77,34.66-1.89,13-.15,25,8.28,38,8.66" style="fill:none;stroke:#0194a1;stroke-linecap:round;stroke-miterlimit:10;stroke-dasharray:1,2"/><path d="M990.81,824.8c-1.84,23.24,5.77,21.1,8.7,67.2,2.15,33.84-1.62,35.54-8.56,59.69" style="fill:none;stroke-linecap:round;stroke-linejoin:round;stroke-width:2.6px;stroke:url(#b26cb977-e923-404b-85fd-32c45e4fddf1)"/><path d="M1058.08,875.71s-7.62,15.27-15.44,18.77-8.16,4-12.41,4.8-19.8,5.24-23.9,4.37c0,0,.36-21.5,15.74-28.9C1044.22,864.09,1058.08,875.71,1058.08,875.71Z" style="fill:url(#a22e4724-5a47-4c60-8dce-4fc752923e55)"/><path d="M1000.11,911.08s9.13-13.65,28.81-25.11,27.65-10.22,27.65-10.22" style="fill:none;stroke-linecap:round;stroke-linejoin:round;stroke-width:1.6px;stroke:url(#beb55c14-cdb4-4853-afbd-3b2a73f1efcd)"/><path d="M983,842.64s6.77,3.76,8,6.17S994,856.3,994,856.3l1.15-.31S994,847,995,840.3,983,842.64,983,842.64Z" style="fill:url(#ebbcbdbf-c6b8-407a-9568-a2e1ada69375)"/><path d="M986.56,834.2s1.23-8.53-4.77-21.59-16.27-18.38-21.69-16.25S953.26,802.18,954,808s6.57,17.21,9.69,20.65S986.56,834.2,986.56,834.2Z" style="fill:url(#f0bde936-eab2-4f4e-97fe-b9f212bf3421)"/><path d="M983.33,833.39a71.16,71.16,0,0,0-7.77-6.35c-5.11-3.71-6.41-5.79-12.31-6.63s-9,2.8-12.59,11.45a7.18,7.18,0,0,1,3.75,1.6c2.23,1.6,4.27,3.49,7.81,5.07S977.66,839.47,983.33,833.39Z" style="fill:url(#ef087b24-bfd2-4bd4-af6b-c726353dc646)"/><path d="M985.75,835.24s-2-8.85-4.93-13-9.72-11-9.59-18.66,4.17-11.67,5.4-14.21,1.91-5.51,5.57-4,15.71,2.26,14.84,23.43S985.75,835.24,985.75,835.24Z" style="fill:url(#ae8b526d-11e6-4e23-85eb-5604de2d9451)"/><path d="M989.56,836.37a42.56,42.56,0,0,1,2.34-20.63c4.11-10.33,7.6-15.1,13-17.08s9-2.5,11.51-.7,4.42,8.94-1.06,19.92S989.56,836.37,989.56,836.37Z" style="fill:url(#f11843dc-cff3-4671-a806-30e948428113)"/><path d="M977.2,811.79c1.6.37,6.4,5.14,8.58,10.67a36,36,0,0,1,1.9,6.33,38.22,38.22,0,0,1,.61,6.56v0s0,0,0,0a0,0,0,0,1,0,0,38.32,38.32,0,0,0-.88-6.51,43,43,0,0,0-2.77-7.92c-2.74-5.35-5.15-6.7-5.68-6.92C977.42,813.42,975.46,811.38,977.2,811.79Z" style="fill:#ff6969"/><path d="M982.46,814.78c1.35.64,3.75,5,4.5,6.89a32.88,32.88,0,0,1,1.44,4.48,36.52,36.52,0,0,1,.68,4.77,28.5,28.5,0,0,1,0,4.8,0,0,0,0,1,0,0s0,0,0,0a28,28,0,0,0-.31-4.75,46.2,46.2,0,0,0-1-5.61c-.63-2.14-2.29-6.83-4-8C982.34,816.42,980.84,814,982.46,814.78Z" style="fill:#ff6969"/><path d="M974.15,817c1.78-.1,6.9,2.31,10.77,8.4a23.89,23.89,0,0,1,2.39,5,20.28,20.28,0,0,1,1.08,5.44,0,0,0,0,1,0,0s0,0,0,0a20.25,20.25,0,0,0-1.33-5.32,26.09,26.09,0,0,0-8.74-11.39,4.18,4.18,0,0,0-1.84-.49C974.82,818.61,972.37,817.12,974.15,817Z" style="fill:#ff6969"/><path d="M975.25,822.29c1.35-.15,5.51,1.23,9.11,5.82a23.54,23.54,0,0,1,2.52,3.92,21.84,21.84,0,0,1,1.63,4.34s0,0,0,0,0,0,0,0a21,21,0,0,0-1.87-4.19,30,30,0,0,0-4.28-5.45c-2.41-2.39-4.19-2.91-4.7-2.91C976,823.84,973.48,822.48,975.25,822.29Z" style="fill:#ff6969"/><path d="M979,821.7c1.75.36,4.12,3.34,4.12,3.34l.59.75a17.29,17.29,0,0,1,1.61,2.84,23.18,23.18,0,0,1,1.18,3,14.34,14.34,0,0,1,.58,3.19s0,0,0,0a0,0,0,0,1,0,0,13.64,13.64,0,0,0-.84-3.08,21.65,21.65,0,0,0-1.34-2.89c-.52-.93-1.85-4-4.07-5C979.32,823.24,977.25,821.35,979,821.7Z" style="fill:#ff6969"/><path d="M990.37,818.81s1.52-3.5,3.12-4.29.21,1.71-1.14,2.56A3.74,3.74,0,0,0,991,818.5c-.31.89-.61,1.79-.87,2.7-.44,1.6-.91,3.2-1.26,4.84s-.61,3.29-.81,5-.37,3.34-.43,5c0,0,0,0,0,0a0,0,0,0,1,0,0,56.66,56.66,0,0,1,.77-10.07A58.29,58.29,0,0,1,990.37,818.81Z" style="fill:#ff6969"/><path d="M994.5,819.52c1.64-.7,0,1.57-1.29,2.49-2.12,1.51-3.24,5.62-3.54,6.78a22.33,22.33,0,0,0-.46,3.66,12.42,12.42,0,0,0,.07,3.6h0s0,0,0,0l0,0a13.16,13.16,0,0,1-.35-3.65,23.54,23.54,0,0,1,.47-3.64,24.13,24.13,0,0,1,1-3.53C991.18,823,993.22,820.06,994.5,819.52Z" style="fill:#ff6969"/><path d="M977,825.51c1.16-.09,4,1.54,4.11,1.58l.77.51s.58.44.85.68a12.36,12.36,0,0,1,1.92,2.23,14.8,14.8,0,0,1,2.47,5.27s0,0,0,0,0,0,0,0a11.87,11.87,0,0,0-1.2-2.61,18.22,18.22,0,0,0-1.63-2.35c-.63-.72-2.48-2.6-2.74-2.87a3.3,3.3,0,0,0-2.19-.84C977.71,827.09,975.22,825.64,977,825.51Z" style="fill:#ff6969"/><path d="M974.67,833.59c-2.24,1.82,1.6,7,5.13,8.46s11.6.21,13.33-1.29,2.56-.72,6.93-4.32a17.83,17.83,0,0,0,5.59-8.43s-1.27.44-4.63-.77-7,.83-9.25,2.61-4.47.6-7.19,2.28C980,835,976.17,832.38,974.67,833.59Z" style="fill:url(#a5b854a2-b511-4c01-a71f-b71d26d315b8)"/><path d="M981,886.71v0c3.4-4,9.66-16.73,12.61-22a22.36,22.36,0,0,0,2.49-11.27s-3.56,5.63-5.16,8.37C984.73,872.44,982.11,881.16,981,886.71Z" style="fill:url(#eee32a10-a8bb-40d7-8993-d4d94ee7c33b)"/><path d="M977.41,867.29c-1.65,10,3.36,19,3.59,19.42,1.11-5.55,3.73-14.27,10-24.92,1.6-2.74,5.16-8.37,5.16-8.37C989.61,852.06,979.11,857.09,977.41,867.29Z" style="fill:url(#bcf418b3-dd50-4106-8224-5e472f525420)"/><path d="M996.11,853.42c-5.79,8.62-10.63,18-13.37,28a61.51,61.51,0,0,0-1.53,7.57c-.18,1.28-.28,2.55-.34,3.84a35.46,35.46,0,0,0,.09,3.84c.28,5.18.63,10.37,1,15.55a.81.81,0,0,1-.75.86.8.8,0,0,1-.85-.75v0c-.22-5.2-.43-10.39-.58-15.59,0-1.31-.11-2.6,0-3.95s.23-2.63.45-3.92a62.34,62.34,0,0,1,1.76-7.65C985,871.12,990.11,861.89,996.11,853.42Z" style="fill:url(#b72c0ec0-51f3-4fcc-8a73-04787860e7a0)"/><path d="M1000.19,873.19v0c4-3.45,12.07-15.08,15.78-19.89a22.4,22.4,0,0,0,4.17-10.76s-4.37,5-6.36,7.49C1006,859.64,1002.12,867.86,1000.19,873.19Z" style="fill:url(#f8b8351d-f8c7-4434-b5c5-7182a7b2fbee)"/><path d="M999.57,853.44c-3.14,9.6.45,19.3.62,19.75,1.93-5.33,5.84-13.55,13.6-23.14,2-2.47,6.36-7.49,6.36-7.49C1013.93,840.23,1002.79,843.62,999.57,853.44Z" style="fill:url(#b9e571d7-284d-4ae2-a56d-74113ef9cafd)"/><path d="M1020.15,842.56c-1.2,1.35-2.41,2.69-3.59,4.06s-2.32,2.77-3.38,4.22a98.32,98.32,0,0,0-6.08,8.94,79.4,79.4,0,0,0-4.86,9.61,51.2,51.2,0,0,0-3.16,10.28.6.6,0,1,1-1.18-.22v0l0-.09a51.86,51.86,0,0,1,1.47-5.23c.61-1.72,1.26-3.42,2-5.07a80.39,80.39,0,0,1,5.18-9.58,98.33,98.33,0,0,1,6.36-8.8c1.1-1.43,2.34-2.76,3.5-4.14S1018.92,843.88,1020.15,842.56Z" style="fill:url(#a3cacdb8-4f9a-4554-aaef-741e94e8ffef)"/><path d="M965.55,876.51c-1.43-2.22-5.81-8.66-18.63-12.38s-27.46-7.72-35.62-19.08c0,0,14-7.59,25.56-2.68s19,13,29.09,33Z" style="fill:url(#bfa5fdc1-f94c-4acb-939f-3a5ef1c4ca20)"/><path d="M913.06,845.39a48.71,48.71,0,0,1,17.85,2.23c5.81,1.76,11,5,16.11,8.15a56.08,56.08,0,0,1,13.65,11.87,84.11,84.11,0,0,1,9.5,15.43,216.05,216.05,0,0,1,13.16,33.73A304.11,304.11,0,0,1,991.8,952a1,1,0,1,1-2,.35h0v0a305.44,305.44,0,0,0-7.94-35.11,215.24,215.24,0,0,0-12.61-33.71,83,83,0,0,0-9.19-15.4,55.4,55.4,0,0,0-13.34-11.92c-5-3.26-10.17-6.51-15.92-8.33A48.47,48.47,0,0,0,913.06,845.39Z" style="fill:url(#e2612b87-2e22-47e7-9729-796a52805abd)"/><path d="M912.24,871.84s7.61,15.27,15.43,18.77,8.16,4,12.42,4.8,19.8,5.25,23.89,4.37c0,0-.35-21.5-15.73-28.9C926.09,860.22,912.24,871.84,912.24,871.84Z" style="fill:url(#b57aab85-531e-417d-95c7-d701cd0dea9e)"/><path d="M986.28,933.71q-6.84-10.38-13.33-21l-3.23-5.28a57.13,57.13,0,0,0-3.78-4.82,95.68,95.68,0,0,0-8.7-8.74,108.82,108.82,0,0,0-9.74-7.61A119.41,119.41,0,0,0,937,879.86a92.25,92.25,0,0,0-11.2-5.28,54.5,54.5,0,0,0-5.88-1.91c-1-.24-2-.47-3-.61a13.83,13.83,0,0,0-3.08-.18,13.32,13.32,0,0,1,3.09.13c1,.13,2,.34,3,.57a53.34,53.34,0,0,1,5.93,1.81,92.07,92.07,0,0,1,11.32,5.12,118.6,118.6,0,0,1,10.7,6.31,107.5,107.5,0,0,1,9.92,7.5,93.81,93.81,0,0,1,8.93,8.68,60.93,60.93,0,0,1,3.95,4.88l3.32,5.25q6.67,10.44,13.65,20.68h0a.8.8,0,1,1-1.32.9Z" style="fill:url(#a11954c5-26f3-4dfb-9574-3d137a083d9a)"/></svg>