<svg id="abf649f9-f8b4-4dff-8eeb-b82d61139741" data-name="图层 1" xmlns="http://www.w3.org/2000/svg" viewBox="0 0 1920 1380"><path d="M1163.53,1139.59c-2.87-1.27-5.8-2.57-8.9-3.68a45.51,45.51,0,0,0-9.94-2.31c-1.81-.2-3.4-.27-5-.38s-3.22-.2-4.82-.27a46.59,46.59,0,0,0-9.4.62c-3.07.5-6.1,1.17-9.13,2-1.18.32-2.36.65-3.55,1-1.74-1-3.5-1.94-5.32-2.84a46,46,0,0,0-15.71-4.7,51.34,51.34,0,0,0-8.22,0,52.66,52.66,0,0,0-8,1.17,54.53,54.53,0,0,0-7.6,2.36c-.79.32-1.56.65-2.33,1-.57-.21-1.14-.42-1.71-.61a106.32,106.32,0,0,0-10.54-2.92c-3.55-.78-7.12-1.39-10.69-1.86a116.26,116.26,0,0,0-21.31-.58c-6.93.39-13.5.94-19.87.17-.8-.08-1.59-.22-2.37-.34s-1.44-.29-2.14-.49a15.17,15.17,0,0,1-4.05-1.88c-2.63-1.65-4.92-4.23-7.22-6.9l-.44.24h0l-.49-.1c-.7,1.41-1.44,2.81-2.2,4.22-3.58,5.48-9.12,9.16-14.92,11.33l-1.36.47-1.37.41-2.85.67c-.92.26-1.91.34-2.87.51l-1.44.22c-.48.08-1,.08-1.46.13a71.56,71.56,0,0,1-11.9.06c-4-.22-8.14-.68-12.33-1.1s-8.45-.82-12.82-1a113.56,113.56,0,0,0-13.29.11c-1.12,0-2.25.18-3.37.32s-2.25.25-3.37.43c-2.22.36-4.36.79-6.42,1.2s-4.06.76-6,1a45.77,45.77,0,0,1-5.88.29c-4,0-8.18-.5-12.5-.84-2.15-.16-4.36-.28-6.59-.28a44.52,44.52,0,0,0-6.79.41c-1.13.13-2.28.4-3.4.62s-2.15.53-3.22.84a56.7,56.7,0,0,0-5.83,2,62.75,62.75,0,0,0-7.42-1.92,93.6,93.6,0,0,0-10.46-1.46,49.1,49.1,0,0,0-10.6.34c-3.58.54-7.2,1.29-10.79,2.18a75.28,75.28,0,0,0-10.39,3.44,103.79,103.79,0,0,0-9.63,4.76,195.52,195.52,0,0,0-17.61,11.54l.49.87c6.43-2.72,12.77-5.58,19.21-7.86a95.58,95.58,0,0,1,9.68-3,67.43,67.43,0,0,1,9.7-1.87,59.11,59.11,0,0,1,9.88-.16,72.94,72.94,0,0,0,10.21-.23c2.65-.22,5.3-.57,8-1-.67.5-1.32,1-2,1.47a96.88,96.88,0,0,1-10.63,6.63,78.53,78.53,0,0,1-23.6,8.52l.11,1a69.49,69.49,0,0,0,12.7-2.29,94.51,94.51,0,0,0,12.15-4.45,104,104,0,0,0,11.5-6c.93-.56,1.84-1.17,2.75-1.74s1.7-1,2.59-1.5a40.49,40.49,0,0,1,5.53-2.36,54.15,54.15,0,0,1,5.84-1.63q1.49-.32,3-.57c1-.13,1.92-.29,2.91-.33a38,38,0,0,1,5.94,0c2,.13,4,.38,6.12.67,4.14.53,8.41,1.25,12.9,1.54a52.32,52.32,0,0,0,6.86,0c2.29-.16,4.49-.44,6.62-.74s4.19-.58,6.19-.77c1-.12,2-.11,3-.16s2-.1,3-.06c1.81,0,3.63.09,5.47.23a47.26,47.26,0,0,0-5.16,3.68,96.8,96.8,0,0,0-9.59,9.47,37.06,37.06,0,0,1-9.44,7.76,108.08,108.08,0,0,1-11.8,5.55,120,120,0,0,0-12.44,6,38.86,38.86,0,0,0-10.9,9,26.75,26.75,0,0,0-3.68,6,20.4,20.4,0,0,0-1.64,6.79l1,.14a19,19,0,0,1,2.53-6,23.87,23.87,0,0,1,4.11-4.9,35.82,35.82,0,0,1,10.83-6.68A118.64,118.64,0,0,1,878,1176a117.29,117.29,0,0,0,13.12-4.65,59,59,0,0,0,6.54-3.39,56.64,56.64,0,0,0,6-4.25,94.24,94.24,0,0,0,9.66-9.39,52.2,52.2,0,0,1,9-8,29.74,29.74,0,0,1,2.58-1.51,144.77,144.77,0,0,0,19.15,1.44c8.88,0,18.35-1.52,26.56-6.08a37,37,0,0,0,3.64-2.41l-.08.15c-.86,1.6-1.73,3.32-2.57,4.61a27.14,27.14,0,0,1-2.92,3.77,37.16,37.16,0,0,1-7.57,6.18c-5.61,3.58-12.15,6.17-19,9.09-3.4,1.49-6.9,3-10.39,4.72s-6.88,3.59-10.18,5.66a69.71,69.71,0,0,0-17.72,15.35,49.36,49.36,0,0,0-6.23,10.12,51.24,51.24,0,0,0-2.1,5.55c-.58,1.86-1.05,3.71-1.5,5.53a81.33,81.33,0,0,1-2.94,10.47,24.58,24.58,0,0,1-5.57,8.74,32.57,32.57,0,0,1-8.72,6.18,48.5,48.5,0,0,1-10.32,3.73l.19,1a50,50,0,0,0,11-2.79,34.83,34.83,0,0,0,9.95-5.85,28.19,28.19,0,0,0,7.18-9.37,85.87,85.87,0,0,0,4-10.72c.58-1.76,1.16-3.48,1.81-5.12a47.75,47.75,0,0,1,2.2-4.75,43,43,0,0,1,6.1-8.41,62.5,62.5,0,0,1,16.69-12.75,85.09,85.09,0,0,1,9.7-4.46l.12,0-.68.64a37.23,37.23,0,0,0-4.22,4.68c-.66.87-1.34,1.74-2,2.6-.36.42-.72.85-1.1,1.26l-1.27,1.34a32.56,32.56,0,0,0-4.61,6.33,31.6,31.6,0,0,0-2.83,7.16c-1.21,5.16-.49,10.08.63,14.62l1-.08c.42-4.63,1.07-9.23,3.07-12.82a25.73,25.73,0,0,1,3.61-5.12,25.08,25.08,0,0,1,4.47-4.13l2.89-1.93c1-.67,2.06-1.37,3.06-2.12a20.44,20.44,0,0,0,5.16-5.55,23.56,23.56,0,0,0,3-7.27,18.52,18.52,0,0,0,.41-3.25c3.41-1.16,6.9-2.39,10.36-4,1.78-.83,3.57-1.7,5.32-2.71a60.07,60.07,0,0,0,5.12-3.36h0c-.29,1.29-.55,2.59-.79,3.87-.12.66-.24,1.41-.35,2.15s-.17,1.45-.25,2.14c-.17,1.4-.28,2.71-.47,3.93a18.27,18.27,0,0,1-1.94,6.27c-1,2-2.35,4.07-3.8,6.36s-2.75,4.57-4.12,6.5a24.13,24.13,0,0,1-2.13,2.7,34.67,34.67,0,0,1-2.66,2.56,84.29,84.29,0,0,0-6.51,5.91,21.29,21.29,0,0,0-3,4,24.46,24.46,0,0,0-2,4.46,44.74,44.74,0,0,0-1.71,8.77c-.56,5.6-.76,10.86-2.83,15.23a31.25,31.25,0,0,1-4.29,6.37,65.26,65.26,0,0,0-5.14,6.72,17.62,17.62,0,0,0-3,8.3,10.6,10.6,0,0,0,2.81,8.17l.75-.67a9.07,9.07,0,0,1-1.46-7.26,15.16,15.16,0,0,1,3.4-6.73,73.68,73.68,0,0,1,5.6-5.78,35.27,35.27,0,0,0,5.67-6.72,30.58,30.58,0,0,0,3.3-8.4c.71-2.82,1.17-5.6,1.72-8.22a37.08,37.08,0,0,1,2-7.26,17.11,17.11,0,0,1,1.61-2.93,13.64,13.64,0,0,1,2.15-2.44,54.67,54.67,0,0,1,6.23-4.53,43.31,43.31,0,0,0,3.66-2.73,29.06,29.06,0,0,0,2.22-2.07c0,.31.05.61.07.92l.19,1.66a53.15,53.15,0,0,0,3.34,12,45.83,45.83,0,0,1,3.19,10.61c1,6.86-1.37,14.28-3.84,21.93a81,81,0,0,0-3,11.95,24.91,24.91,0,0,0-.13,6.34,17.35,17.35,0,0,0,1.93,6l.91-.4a18.07,18.07,0,0,1,.35-11.24,83.24,83.24,0,0,1,4.62-10.78,120.42,120.42,0,0,0,5-11.29,44,44,0,0,0,1.67-6.32,32.18,32.18,0,0,0,.52-6.73,70.46,70.46,0,0,0-1.67-12.85c-.86-4-2-7.7-3-11.18l-.37-1.28c-.09-.39-.21-.75-.28-1.16-.19-.8-.34-1.65-.46-2.53-.26-1.77-.41-3.63-.54-5.55,0-.52-.07-1-.09-1.58a36.15,36.15,0,0,0,2.32-4.88,24.56,24.56,0,0,0,1.56-9.75c-.06-1.53-.18-3-.33-4.32l-.2-2c-.07-.64-.12-1.26-.17-2-.21-2.73-.42-5.4-.53-8.07l0-1.35a35.81,35.81,0,0,0,3.07-3.73,31.79,31.79,0,0,0,3.13-5.58,57.11,57.11,0,0,0,2-5.58c.61-1.95,1.16-3.9,1.69-5.86,0,1.29.13,2.6.28,3.9.9,7,3,13.23,3.16,18.79a42.24,42.24,0,0,1,0,4.35l-.23,4.74a52,52,0,0,0,.38,10.67,32.54,32.54,0,0,0,3.86,10.73,54.63,54.63,0,0,0,5,7.23c-.77,1.65-1.46,3.31-2.11,5a81.77,81.77,0,0,0-2.78,8.72,42.05,42.05,0,0,0-1.28,9.14c-.08,3.12,0,6.29,0,9.43a92,92,0,0,0,.53,9.52,66.75,66.75,0,0,0,1.9,9.37c.44,1.49.89,2.91,1.25,4.31.18.7.34,1.4.47,2.09a15.82,15.82,0,0,1,.21,2,26.81,26.81,0,0,1-.24,4.35,40,40,0,0,1-.81,4.43l.93.35a31.83,31.83,0,0,0,3.24-8.88,15.67,15.67,0,0,0,.28-2.52c0-.82,0-1.64,0-2.44-.08-1.61-.25-3.16-.38-4.65a62,62,0,0,1-.17-8.72c.1-2.9.42-5.8.81-8.7s1.12-5.78,1.86-8.68a49.64,49.64,0,0,0,1.35-8.91,64.21,64.21,0,0,0-.11-9.29l0-.32,3.06,3.3a84.55,84.55,0,0,1,6.15,7.18,39,39,0,0,1,4.7,7.77,25.81,25.81,0,0,1,1.41,4.16,20.07,20.07,0,0,1,.49,4.28,26.53,26.53,0,0,1-1.87,8.86c-1,3.07-2.25,6.38-2.43,10a15.71,15.71,0,0,0,3.07,10.06,15.51,15.51,0,0,0,8.35,5.81l.31-1c-5.92-2.32-9.58-8.85-8.66-14.63.43-3,1.77-5.79,3.12-8.79.68-1.51,1.37-3.07,1.94-4.75.28-.83.53-1.7.74-2.6s.34-1.81.42-2.73a24.76,24.76,0,0,0-.16-5.51,31,31,0,0,0-1.29-5.27,44.39,44.39,0,0,0-4.67-9.47,92.24,92.24,0,0,0-6.09-8.2c-2.07-2.57-4.13-5.06-6-7.58-.92-1.27-1.76-2.54-2.56-3.82a33.78,33.78,0,0,1-2-3.92,22.61,22.61,0,0,1-1.94-7.94,74.72,74.72,0,0,1,.19-9c.06-1.63.16-3.32.14-5.09a47.22,47.22,0,0,0-.34-5.47,49.14,49.14,0,0,0-2.78-10.35c-1.17-3.16-2.43-6.12-3.43-9a76.76,76.76,0,0,1-3.39-14.6,24,24,0,0,0,1.36,2.67c.7,1.35,1.45,2.67,2.21,4,2,3.32,4.16,6.53,6.26,9.65l1.59,2.36c.57.84,1.18,1.66,1.81,2.46a47.09,47.09,0,0,0,4.11,4.63,39.74,39.74,0,0,0,10.38,7.45c.55.26,1.11.5,1.67.74,1.09,1.83,2.17,3.63,3.17,5.41A67,67,0,0,1,1024,1173c-.07.55-.14,1.11-.2,1.66-.28,2.75-.39,5.43-.4,8.05,0,1.31,0,2.59.13,3.87l.16,1.81c.09.57.13,1.17.19,1.77a50,50,0,0,1,.28,7.75c-.09,2.72-.19,5.57,0,8.5a39.68,39.68,0,0,0,.59,4.42,29.41,29.41,0,0,0,1.25,4.36c.55,1.37,1.14,2.58,1.61,3.74a16.19,16.19,0,0,1,1,3.54,43,43,0,0,1,.32,7.93l1,.16a36.61,36.61,0,0,0,1.83-8.22,17.66,17.66,0,0,0-.21-4.47c-.23-1.45-.55-2.8-.74-4a25.22,25.22,0,0,1,0-7.31c.27-2.48.78-5,1.32-7.69.42-2.16,1-4.38,1.39-6.75,2,2.46,4,4.7,5.83,7,2.91,3.57,5.48,7.12,6.89,11a24.57,24.57,0,0,1,.86,3c.23,1.06.41,2.21.61,3.41a28.42,28.42,0,0,0,2.12,7.53,22.8,22.8,0,0,0,4.51,6.46c1.83,1.82,3.74,3.25,5.39,4.78a17.46,17.46,0,0,1,2.2,2.45c.76,1,1.5,1.91,2.16,2.84a10.43,10.43,0,0,1,2.21,6.19l1,.08a12,12,0,0,0-1.39-7.36c-.57-1.11-1.23-2.15-1.74-3.13A20.42,20.42,0,0,0,1062,1233c-1.57-2-3.31-3.62-4.63-5.36a18.11,18.11,0,0,1-2.92-5.61,22.68,22.68,0,0,1-1-6.33c-.06-1.16-.11-2.38-.23-3.67a31,31,0,0,0-.66-4c-1.36-5.27-4.12-9.79-6.81-13.84a89.66,89.66,0,0,1-7.08-11.73c-.44-1-.86-1.86-1.23-2.85l-1.16-3.05c-.8-2.12-1.66-4.4-2.79-6.73a41.21,41.21,0,0,0-7.37-10.59,100.53,100.53,0,0,1,10.27,2,29.16,29.16,0,0,1,8.72,4.34,55.6,55.6,0,0,1,7.92,7.11c5.06,5.35,9.92,11.49,16.18,16.64,3.12,2.51,6.28,4.59,9.07,6.87a33.69,33.69,0,0,1,7.07,7.8c4,6,6.49,13.16,9.42,20.22a83.65,83.65,0,0,0,5,10.41,25.71,25.71,0,0,0,7.65,8.75l.59-.81a24.33,24.33,0,0,1-6.37-8.94,82.49,82.49,0,0,1-4-10.47c-2.3-7.16-4.13-14.69-8-21.76a39.19,39.19,0,0,0-7.49-9.57c-2.92-2.75-6-5.08-8.57-7.53-4.41-4.08-8.17-9-12.23-14.08,1.88.34,3.7.62,5.38,1,1,.19,1.88.44,2.75.69a22.15,22.15,0,0,1,2.45.91c1.59.7,3.24,1.61,5.07,2.62,3.65,2,7.36,3.78,11.17,5.46s7.61,3.39,11.27,5.4,7.19,4.16,11,6.38a61.46,61.46,0,0,0,12.16,5.57,40,40,0,0,0,13.3,1.54,106.17,106.17,0,0,0,12.84-1.48l-.07-1c-4.27-.09-8.52-.16-12.65-.65a36.84,36.84,0,0,1-11.66-3.09,56.17,56.17,0,0,1-10.28-6.46c-3.33-2.47-6.8-5.14-10.37-7.61s-7.14-5-10.83-7.33a62.65,62.65,0,0,0-11.7-5.84,40.92,40.92,0,0,0-6.79-2,24.34,24.34,0,0,0-7.4-.17,59.83,59.83,0,0,0-9,2,70.28,70.28,0,0,0-7.35-7.53,39,39,0,0,0-11-6.76,67.14,67.14,0,0,0-11.77-2.93c-1.83-.31-3.56-.67-5.2-1a28.47,28.47,0,0,1-4.64-1.43,35.49,35.49,0,0,1-8.62-5,50,50,0,0,1-4-3.37c-.65-.6-1.27-1.22-1.89-1.86l-1-1c6.37,1.67,12.85,2,18.91,2.14,6.88.17,13.65.22,20.36.45a85.73,85.73,0,0,1,19.71,2.57,59.48,59.48,0,0,1,9.27,3.24,56,56,0,0,1,8.6,4.74c5.56,3.64,10.73,8.18,16,12.73a121.35,121.35,0,0,0,16.93,12.69,55.22,55.22,0,0,0,9.65,4.55,39.31,39.31,0,0,0,10.42,2.06l.1-1c-6.8-1.1-13-4.25-18.48-8.21a116.64,116.64,0,0,1-15.21-13.76c-4.88-4.92-9.8-10-15.55-14.48a64.26,64.26,0,0,0-9.46-6c.79,0,1.58.05,2.35.09,2.43.13,4.81.33,7.18.62,1.19.15,2.37.28,3.56.48.58.1,1.21.16,1.74.28l1.63.33c.54.08,1.09.25,1.63.38s1.09.25,1.64.41c1.1.34,2.2.58,3.31,1l1.68.51,1.68.55c1.13.34,2.26.74,3.4,1.14a119.26,119.26,0,0,1,13.68,5.6l6.9,3.29c2.33,1.11,4.87,2.17,7.28,3a123.44,123.44,0,0,0,15,4.3,120.74,120.74,0,0,0,15.32,2.19,110.78,110.78,0,0,0,15.35.06v-1a130,130,0,0,1-14.93-2.16,123.82,123.82,0,0,1-14.43-3.92,115.8,115.8,0,0,1-13.73-5.6c-2.26-1.07-4.32-2.15-6.47-3.41l-2.95-1.75,1.51.06a48.16,48.16,0,0,0,9.33-.71c1.53-.27,3-.54,4.55-.76a35.75,35.75,0,0,1,4.35-.47,38.32,38.32,0,0,1,8.55.73c2.94.5,5.94,1.24,9,2,6.09,1.44,12.57,3,19,2.39l0-1C1174.79,1144.72,1169.24,1142.18,1163.53,1139.59Z" style="fill:#02f8ff;opacity:0.12"/></svg>