<svg id="ab987964-841e-46bf-a274-5f5f8e82de3f" data-name="Mark" xmlns="http://www.w3.org/2000/svg" xmlns:xlink="http://www.w3.org/1999/xlink" viewBox="0 0 1920 1080"><defs><linearGradient id="f06575e8-1746-4d06-9170-47b07d17e7de" x1="99.06" y1="655.1" x2="97.87" y2="724.2" gradientUnits="userSpaceOnUse"><stop offset="0" stop-color="#03ffda"/><stop offset="0.07" stop-color="#03fbd7"/><stop offset="0.13" stop-color="#03eed0"/><stop offset="0.2" stop-color="#02dac3"/><stop offset="0.28" stop-color="#02bdb1"/><stop offset="0.35" stop-color="#019799"/><stop offset="0.42" stop-color="#016a7d"/><stop offset="0.46" stop-color="#004b6a"/><stop offset="0.67" stop-color="#00304a"/><stop offset="0.87" stop-color="#001c32"/><stop offset="1" stop-color="#001429"/></linearGradient><linearGradient id="ab8cd5b9-af91-4740-9695-b8b04028b31b" x1="98.65" y1="655.09" x2="96.02" y2="806.99" xlink:href="#f06575e8-1746-4d06-9170-47b07d17e7de"/><linearGradient id="f74b1f74-164b-49ed-a1e6-cc3736e8533e" x1="1629.74" y1="681.64" x2="1628.42" y2="758.01" xlink:href="#f06575e8-1746-4d06-9170-47b07d17e7de"/><linearGradient id="f9af6ec3-9f86-4394-b281-c9cf1a3763b0" x1="1629.32" y1="681.63" x2="1626.69" y2="833.54" xlink:href="#f06575e8-1746-4d06-9170-47b07d17e7de"/><linearGradient id="b4cc21d2-a1b9-4812-9556-2d8034dbbf50" x1="960" y1="626.5" x2="960" y2="835.49" xlink:href="#f06575e8-1746-4d06-9170-47b07d17e7de"/><linearGradient id="ba5147d5-3cb7-49f1-81df-58b2d009862e" x1="661.35" y1="664.85" x2="659.9" y2="748.82" xlink:href="#f06575e8-1746-4d06-9170-47b07d17e7de"/><linearGradient id="e095654d-a7ff-4eb8-b2b7-8eaf013acaba" x1="661.76" y1="664.86" x2="659.13" y2="816.76" xlink:href="#f06575e8-1746-4d06-9170-47b07d17e7de"/></defs><path d="M97.54,742.37h0Z" style="fill:url(#f06575e8-1746-4d06-9170-47b07d17e7de)"/><path d="M97.54,742.37l-.79-.31Z" style="fill:url(#ab8cd5b9-af91-4740-9695-b8b04028b31b)"/><path d="M1628.29,764.5h0Z" style="fill:url(#f74b1f74-164b-49ed-a1e6-cc3736e8533e)"/><path d="M1628.29,764.5l-.8-.29Z" style="fill:url(#f9af6ec3-9f86-4394-b281-c9cf1a3763b0)"/><path d="M1920,785.82c0-18.36-12.58-39.4-12.58-39.4,4.76,15.65-1.2,31.11-1.2,31.11.16-6.6-6.18-16.39-6.18-16.39.16,12.07-7.27,21.3-7.27,21.3.55-9.37-5.82-24.21-5.82-24.21,1.3,8.16-1.17,27-16.31,26.5s-11.36-29.83-11.36-29.83c-9,5.75-13.92,22.52-13.92,22.52-5.94-9.82-18.36-13.21-18.36-13.21s7.67,6.69,7.29,16.6-15.53,11.48-15,1.43-6.16-18.46-6.16-18.46c1.29,15-16.41,27.19-18.58,15.78s6.59-23.46,6.59-23.46c-19.66,10.77-24.45,33.63-24.81,35.48,5.12-23.35-13.43-50.55-13.43-50.55,6.91,24.14-10.27,49.87-10.27,49.87,4.5-17.11-12.72-35.89-12.72-35.89,2.55,21.65-14.69,33.64-14.69,33.64-7-7.64-1.91-32.66-1.91-32.66-16.49,9.38-19.62,27.88-19.62,27.88-14.13-22.43,2-45.26,2-45.26-37.1,24.63-31,56.85-31,56.85-9.93-30-40.89-42.85-46.32-44.91,0,0,16.14,21,16.13,36.28,0,0-8.33-12.14-21.26-17.84,0,0,8,16,2,21.58s-15.13-13.73-8.69-28.14c0,0-12.13,13.41-10.48,29.39,0,0-1.36-19.25-17.17-30.77,0,0,4.22,16.36,2.54,23,0,0-2.24-18.23-19.63-34.65,0,0,13.52,31.32,7.52,40.78s-19.34-6.32-16.87-17.89c0,0-6.72,9.66-7.41,19.55s-13.2,6.52-13-3,5.33-22.61,14.69-29.23c0,0-15.52,5.71-23.09,18.82-2-12.73-7.57-17.95-7.57-17.95,1,10.77-4.36,15.48-4.36,15.48,2.09-23-20-33.06-20-33.06s4.92,5.56,7.55,19S1496,777,1495.32,767.39s3.88-22.2,3.88-22.2c-17.23,14.52-17.75,26.86-17.75,26.86.22-12.86-8.32-24.6-8.32-24.6,2.6,15.08-4.11,22.75-4.11,22.75a36.74,36.74,0,0,0-15.31-25.55c3.21-4.28,5.91-7.28,5.91-7.28a64.66,64.66,0,0,0-9.55,4.87,44.23,44.23,0,0,0-10.5-4.61,31.33,31.33,0,0,1,8,6.24A66.52,66.52,0,0,0,1424.65,771c.75-12.9-6.76-19.22-6.76-19.22,1.79,14.93-15.56,25.71-20.14,11s10.81-36.64,10.81-36.64c-21.94,11.09-31,35.37-31,35.37,2.46-17.42-7.59-35.82-7.59-35.82A44.69,44.69,0,0,1,1356.76,759c.14-16.07-16.51-28-16.51-28s3.25,3.6,4,15.23-12.16,25.45-22.49,11.88,10.41-54.88,10.41-54.88c-20.16,16-30.45,33.5-35.64,46.19-2.86-8.88-9.45-19.87-23.84-31.42,0,0,11.64,28.24,1.65,42.06s-23.26.35-22.78-11.3,3.63-15.34,3.63-15.34-16.34,12.36-15.79,28.42a44.68,44.68,0,0,1-14.08-33s-9.59,18.65-6.69,36c0,0-9.64-24.05-31.85-34.58,0,0,15.67,17.39,11.46,32.25s-21.56,8.63-20.14-6.35c0,0-6.21,4.2-6.79,16.59,0,0-6.4-13.87-23.55-24.23a42.69,42.69,0,0,1,8.32-6,43.79,43.79,0,0,0-10.28,4.81,73.32,73.32,0,0,0-9.78-4.57s3.09,2.76,6.64,6.71a36.83,36.83,0,0,0-15.21,26.35s-6.9-7.5-4.68-22.64c0,0-8.24,11.95-7.7,24.8,0,0-.83-12.32-18.42-26.41,0,0,4.83,12.49,4.44,22.1s-16.25,8.42-14-5.12,7.07-19.21,7.07-19.21-21.81,10.59-19.15,33.55c0,0-5.49-4.57-4.74-15.36,0,0-7.8,6.9-7.22,17.24,0,0-8.84-10.88-7.13-23.37,0,0-6.65,12.2-4.23,21.79,0,0-1.12-3.71-6.22-8.12,0,0,1.78,8.85.52,12.71,0,0-1.08-12.77-15.21-20.16,0,0,8.27,11.34,5.94,21.64l-.07,0c-.39-8.19-7.54-11.89-7.54-11.89s1.57,2.13,1.92,8.33-7.77,9.12-8.56,1.75,5.59-16.21,5.59-16.21c-13.49,8.5-13.54,21.32-13.54,21.32-1.57-3.75-.51-12.72-.51-12.72-4.72,4.81-5.54,8.6-5.54,8.6,1.64-9.76-6-21.39-6-21.39,2.71,12.32-5.23,23.87-5.23,23.87-.25-10.36-8.57-16.61-8.57-16.61,1.6,10.7-3.51,15.7-3.51,15.7-4.29-21.63-21.77-31.92-21.77-31.92s5.22,5.28,8.58,18.59-12.33,15.76-13.5,6.22,2.66-22.38,2.66-22.38C944.81,776,945,788.31,945,788.31c-.49-12.86-9.66-24.11-9.66-24.11,3.43,14.91-2.86,22.94-2.86,22.94a36.71,36.71,0,0,0-16.69-24.67c3-4.45,5.51-7.59,5.51-7.59a63.9,63.9,0,0,0-9.27,5.39,43.71,43.71,0,0,0-10.74-4A31.29,31.29,0,0,1,909.6,762a66.49,66.49,0,0,0-21.4,28.34c0-12.92-7.81-18.82-7.81-18.82,2.61,14.81-14.12,26.53-19.51,12.06s8.79-37.18,8.79-37.18c-21.3,12.27-29,37-29,37,1.5-17.53-9.55-35.35-9.55-35.35a44.68,44.68,0,0,1-11.39,34.06c-.74-16-18-27.06-18-27.06s3.45,3.42,4.85,15-10.74,26.07-21.8,13.09,7.38-55.36,7.38-55.36c-18.26,16.23-27.58,33.26-32.32,46C751.4,755.14,730.76,746,730.76,746c9.14,6.74,14,19.83,14,29.25s-12.51,12.52-13,2.7-7-19.52-7-19.52c2.22,11.52-11.32,26.89-17.08,17.39S716,735.55,716,735.55c-17.56,15.92-20.15,34-20.15,34-1.53-6.6,3-22.72,3-22.72-15.9,11.09-17.63,30.14-17.63,30.14,2-15.8-9.79-29.34-9.79-29.34,6.09,14.41-3.26,33.41-9.18,27.71S664.59,754,664.59,754c-12.93,5.38-21.42,17.25-21.42,17.25.29-15.1,16.7-35.62,16.7-35.63-5.42,1.93-36.35,14.1-46.79,43.57,0,0,6.64-31.81-29.62-56.95,0,0,15.54,22.94,1.09,44.88,0,0-2.73-18.39-18.88-28,0,0,4.58,24.89-2.55,32.33,0,0-16.84-12.24-13.88-33.63,0,0-17.43,18.25-13.33,35.3,0,0-16.49-25.84-9.17-49.61,0,0-18.93,26.57-14.32,49.8-.31-1.82-4.6-24.58-23.87-35.64,0,0,8.45,12.11,6.06,23.37s-19.67-1.14-18.09-16c0,0-6.78,8.19-6.47,18.16s-14.68,8.12-14.86-1.71,7.56-16.31,7.56-16.31-12.38,3.12-18.45,12.72c0,0-4.55-16.71-13.35-22.59,0,0,3.15,29.15-11.86,29.33S402,746,403.47,738c0,0-6.61,14.58-6.26,23.87,0,0-7.17-9.29-6.77-21.25,0,0-4.67,7-4.7,20.82-1.72-15.36-11.56-30.72-11.56-30.72,4.36,15.62-1.91,30.8-1.91,30.8.32-6.54-5.74-16.38-5.74-16.38-.12,12-7.69,20.93-7.69,20.93.76-9.27-5.22-24.11-5.22-24.11,1.11,8.11-1.77,26.71-16.76,25.88S326.29,738,326.29,738c-9.05,5.48-14.31,22-14.31,22-5.65-9.87-17.88-13.51-17.88-13.51s7.44,6.81,6.84,16.62-15.66,11-14.92,1.07-5.68-18.43-5.68-18.43c.93,14.92-16.87,26.57-18.77,15.21s7.07-23.09,7.07-23.09c-19.74,10.23-25,32.79-25.4,34.58,5.62-23-12.14-50.38-12.14-50.38,6.29,24.07-11.32,49.16-11.32,49.16,4.85-16.85-11.78-35.84-11.78-35.84,2,21.5-15.33,33-15.33,33-6.8-7.74-1.14-32.41-1.14-32.41-16.55,8.92-20.07,27.17-20.07,27.17-13.49-22.54,3-44.79,3-44.79C137.17,741.9,142.43,774,142.43,774c-9.15-29.9-39.53-43.4-44.86-45.56,0,0,15.51,21.22,15.14,36.32,0,0-8-12.23-20.65-18.16,0,0,7.61,16,1.45,21.42s-14.67-14-8-28.08c0,0-12.32,13-11.05,28.88,0,0-.91-19.1-16.31-30.87,0,0,3.81,16.3,2,22.82,0,0-1.82-18.11-18.66-34.78,0,0,12.68,31.34,6.52,40.58s-19-6.7-16.31-18.12c0,0-6.88,9.43-7.79,19.21s-13.22,6.16-12.86-3.26,5.8-22.29,15.22-28.63c0,0-20.7,7.07-26.3,24.64V1080H1920Zm-468.84-37.65c3.49,4.78,6,10.25,6.16,15,.35,9.35-10,15.74-13.79,6C1441.51,764,1446.29,755.19,1451.16,748.17Zm-306.53,3.57c5,6,10,13.64,8.12,19-3.52,9.83-14,3.7-13.93-5.65C1138.88,760.27,1141.24,755.68,1144.63,751.74ZM913.42,766.12c3.74,4.58,6.52,9.91,7,14.69.86,9.3-9.14,16.26-13.44,6.74C904.64,782.44,908.94,773.4,913.42,766.12ZM386,767c0,.13,0,.24,0,.37h0C386,767.21,386,767.08,386,767Z" style="fill:url(#b4cc21d2-a1b9-4812-9556-2d8034dbbf50)"/><path d="M659.87,749.54Z" style="fill:url(#ba5147d5-3cb7-49f1-81df-58b2d009862e)"/><path d="M659.9,749.53l.8-.28S660.41,749.34,659.9,749.53Z" style="fill:url(#e095654d-a7ff-4eb8-b2b7-8eaf013acaba)"/></svg>