<svg id="fd7c06c8-c82a-4191-9f4a-d5fb7268aea2" data-name="Mark" xmlns="http://www.w3.org/2000/svg" viewBox="0 0 1920 1080"><path d="M369.23,263.59c-6.57,10.74-16.13,24.94-26.11,30.66C352.77,285.73,356.57,267,369.23,263.59Z" style="fill:#001429"/><path d="M358.67,260.12c-5.17-10.38-3.91-24.61-6.25-34.68C356.89,235.54,362.87,249.9,358.67,260.12Z" style="fill:#001429"/><path d="M318.93,253.3c-6.3-3.35-8.6-10.47-13.37-15.45C310.09,239.32,321.73,246.87,318.93,253.3Z" style="fill:#001429"/><path d="M338,256.84c3.25,9.12-26.21,29.85-12.88,16C329.78,268,331.82,259.37,338,256.84Z" style="fill:#001429"/><path d="M357.18,261.13c2.15,9.43-10.37,18.67-17.85,18.13C348.27,276.24,350.57,265.87,357.18,261.13Z" style="fill:#001429"/><path d="M365,261.8c-5.53-12.87,3.12-26.58,1.47-40.12C370.07,232.7,368.88,250.53,365,261.8Z" style="fill:#001429"/><path d="M433.8,280.57c-3.59-13.86,7-27.07,7.56-40.86C442.84,253,439.41,269.08,433.8,280.57Z" style="fill:#001429"/><path d="M374,264.3c-4.37,11-12.09,26.83-22.28,31.47C361.87,287.89,362.11,269.46,374,264.3Z" style="fill:#001429"/><path d="M452.29,286.58c-7-8.91-5-21.69-4.35-32C449.15,264.73,454.76,277,452.29,286.58Z" style="fill:#001429"/><path d="M506.67,307.48c-2.32-12.35,2-26.83,1-38.22C510.8,280.88,513.44,297.58,506.67,307.48Z" style="fill:#001429"/><path d="M500.48,305c-1.85-12.89,5.74-25.09,5.61-37.72C508.35,278.53,507.47,296,500.48,305Z" style="fill:#001429"/><path d="M330.32,255.27c1,9.73-9.44,19.7-16.57,23C320.93,271.91,322.94,260.41,330.32,255.27Z" style="fill:#001429"/><path d="M387.19,267.79c-4.76,11.35-14,23.53-24.44,29.62C372.25,289.4,375.6,272.55,387.19,267.79Z" style="fill:#001429"/><path d="M415.88,276.18c-1.76,6.4-5.84,11.42-9.39,16.82-3.33,5.28-6.18,13-11.89,15.78C402.72,299.28,403.4,281.11,415.88,276.18Z" style="fill:#001429"/><path d="M441.25,283.71c-2.53,11.07-9.35,23.75-18.33,30.38C430.55,305.53,431.07,289.44,441.25,283.71Z" style="fill:#001429"/><path d="M423,277.38c-3.23,11.31-14.16,19.87-23.75,25.39C407.27,295.14,413.34,282.33,423,277.38Z" style="fill:#001429"/><path d="M471.28,293.75c-9.88-7.78-7.73-22.5-13.9-32.5C464.86,269.49,470.48,283.2,471.28,293.75Z" style="fill:#001429"/><path d="M420,276.16c-5.52-10.15,1.24-21.78.24-32.43C423.12,253.47,423.84,267.1,420,276.16Z" style="fill:#001429"/><path d="M400.17,272.06c-11.53,6.32-20.33,21.78-32.8,23.94C379.63,291.2,386.31,268.17,400.17,272.06Z" style="fill:#001429"/><path d="M394.72,270.12c-10-9.35,2.62-21.46,2.93-31.81C399.53,248.39,394.33,260.08,394.72,270.12Z" style="fill:#001429"/><path d="M403.88,271.05c-1.66-12.93,7.9-12.45,9.19-32C415.84,249,411.64,263.6,403.88,271.05Z" style="fill:#001429"/><path d="M533.63,319.42c-.57,11.69-5.75,24.33-14.75,30.41,2.32-5.33,7.21-9.78,7.91-15.68C526.79,329.06,528.82,321.06,533.63,319.42Z" style="fill:#001429"/><path d="M430.31,280c-1.67,11.63-7.46,26.16-17.73,32.16C422,304,420.39,286.73,430.31,280Z" style="fill:#001429"/><path d="M370,262.39c.37-13.17,11-23.53,12.29-36.32C383.27,237.9,378.36,254.59,370,262.39Z" style="fill:#001429"/><path d="M404.69,272c2.75,7.19-.47,17.21-5.83,22.05C402.71,287.41,398.36,276.86,404.69,272Z" style="fill:#001429"/><path d="M413.34,274.43c-5.35-10.22,1.61-21.72.79-32.36C416.88,251.84,417.37,265.46,413.34,274.43Z" style="fill:#001429"/><path d="M439.89,282.85c-6.1-10.19.76-22.31-.95-33.19C442.53,259.49,443.24,273.36,439.89,282.85Z" style="fill:#001429"/><path d="M435.36,281.68c.93,8.55-3.71,17.67-8.07,24.44C429.83,298.45,427.84,286.2,435.36,281.68Z" style="fill:#001429"/><path d="M445.74,285.38c-7.52,10.09-18.34,23.36-28.8,28.14C427.33,305.93,432.82,287.58,445.74,285.38Z" style="fill:#001429"/><path d="M460.61,290.24c-6.42,7.43-11.95,19.06-19.8,23.18C447.85,306.5,448.89,289.63,460.61,290.24Z" style="fill:#001429"/><path d="M465,292.15c-2.89,8.2-7.17,19.66-13.36,24.35C456.6,309.24,455,294.08,465,292.15Z" style="fill:#001429"/><path d="M495.14,302.48c-6.71-9.1-4.39-21.82-3.42-32.08C492.63,280.55,497.89,293,495.14,302.48Z" style="fill:#001429"/><path d="M486.36,298.93c-4.59-11.78,2.16-25.39,7.37-35.67C490.23,274.55,491.12,288.68,486.36,298.93Z" style="fill:#001429"/><path d="M550.36,326.34c-8.57,6.94-21,15.47-31.21,15.8C530.31,339.09,538.7,324.19,550.36,326.34Z" style="fill:#001429"/><path d="M481.31,296.83c-4-8.8-12.7-19-10.95-28.14C471.33,278.77,487.26,287.12,481.31,296.83Z" style="fill:#001429"/><path d="M484.27,299.7c2,7.69-3.87,14.39-6,21.4C477.11,317.74,479.17,300.55,484.27,299.7Z" style="fill:#001429"/><path d="M516.2,311.59c-9-10.94-3.58-26.2-7.93-38.57C514,282.17,516.72,300.25,516.2,311.59Z" style="fill:#001429"/><path d="M427.91,279.46c-6.33,7.54-17.58,9.67-26.51,11.6C409.62,287.31,418.76,278,427.91,279.46Z" style="fill:#001429"/><path d="M409.79,274c-4.3,9.33-17.29,24.36-26.06,27.07C393.91,294.18,398,277.62,409.79,274Z" style="fill:#001429"/><path d="M469.79,294c-1.66,9.47-11.08,18.11-19.74,20.8C458.28,310,461,297.2,469.79,294Z" style="fill:#001429"/><path d="M454.31,287.92c1.74,7.1-3.9,12.48-5.17,19.18C447.68,302.57,448.09,290,454.31,287.92Z" style="fill:#001429"/><path d="M475.79,295.3c.92,10.73-11.77,20.63-20.07,22.63C464.79,312.64,468.31,301.14,475.79,295.3Z" style="fill:#001429"/><path d="M449.92,286.41c-1.64,12.67-14.28,25.25-24.55,29.68C436,308.58,440.33,293.64,449.92,286.41Z" style="fill:#001429"/><path d="M379.29,265.83c-5.44,11.15-16.49,25.56-27,29.67C363.2,288.13,367,270.38,379.29,265.83Z" style="fill:#001429"/><path d="M394,269.76c-6.27,6.37-15.61,17.63-24.18,16.69C379.47,284.11,383.24,267.56,394,269.76Z" style="fill:#001429"/><path d="M556.92,331.14c-9.12,8.27-22.68,15.38-34.69,16.48C534.24,344.39,544.41,330.55,556.92,331.14Z" style="fill:#001429"/><path d="M565.74,333.69c-6.3,6.34-15.7,17.56-24.27,16.58C551.18,348,555,331.45,565.74,333.69Z" style="fill:#001429"/><path d="M479.34,297.71c-5,11.23-14.63,23.17-25.19,29C463.86,318.94,467.64,302.18,479.34,297.71Z" style="fill:#001429"/><path d="M499.91,305.85c-11.69,6-20.89,21.25-33.4,23.08C478.88,324.46,486.15,301.6,499.91,305.85Z" style="fill:#001429"/><path d="M490.9,301.87c-6.43,6.21-16.06,17.22-24.61,16.07C476,315.85,480.24,299.4,490.9,301.87Z" style="fill:#001429"/><path d="M362.73,261.91c-2,13-11.82,24-21.53,32.16C348.65,285.62,353.4,269,362.73,261.91Z" style="fill:#001429"/><path d="M578.86,339c-10.42,7.06-25,16-36.45,17.11C554.72,352.32,565.94,336.8,578.86,339Z" style="fill:#001429"/><path d="M512.75,311c-9,8.75-21.85,20.11-32.94,23.15C491.28,328.3,499.65,311.07,512.75,311Z" style="fill:#001429"/><path d="M517.73,312.83c-6.87,9.69-18.12,23.19-29.13,25.28C500.33,332.87,504.94,315,517.73,312.83Z" style="fill:#001429"/><path d="M530.86,317.9c-7.94,9.54-22.1,20.91-33.28,22.4C509.93,335.74,517.85,319.4,530.86,317.9Z" style="fill:#001429"/><path d="M504.38,307.81c-5.16,12.06-17.43,20.24-28.89,25.75C484.82,327.25,493.58,312.33,504.38,307.81Z" style="fill:#001429"/><path d="M352.34,259.34C350.71,272,338.07,284.59,327.79,289,338.45,281.51,342.76,266.57,352.34,259.34Z" style="fill:#001429"/><path d="M324,254.37c-5.05,8.72-16.57,14.56-26,15.69C307.39,266.79,314.21,254.93,324,254.37Z" style="fill:#001429"/><path d="M319.3,253.74c-4.95,6.23-15.36,6.08-22.13,4.31C304.51,257.71,312.39,250.87,319.3,253.74Z" style="fill:#001429"/><path d="M329.46,253.81c-6.45-5.28-6.21-14.07-11.1-20.48C323.49,236,332.53,247.06,329.46,253.81Z" style="fill:#001429"/><path d="M340.31,256.31c-5.26-8.24-2.58-18.35-6.9-27C338.7,234.21,344.79,249.09,340.31,256.31Z" style="fill:#001429"/><path d="M444.24,284.43c-4.76-11.19-3.67-24.09-7.85-35.31C442.23,258.58,449.09,274.06,444.24,284.43Z" style="fill:#001429"/><path d="M349.58,258.12c-7.19-8.72-5.57-21.55-5.16-31.85C345.89,236.36,351.81,248.45,349.58,258.12Z" style="fill:#001429"/><path d="M572.48,336.68c-5.32-10.3-4.27-24.56-6.75-34.6C570.34,312.12,576.52,326.4,572.48,336.68Z" style="fill:#001429"/><path d="M566.59,332.42c-7.32-8.62-5.88-21.47-5.61-31.77C562.58,310.71,568.68,322.72,566.59,332.42Z" style="fill:#001429"/><path d="M538.29,320.37c-4.6-10.64-2.57-24.79-4.36-35C537.85,295.73,543,310.4,538.29,320.37Z" style="fill:#001429"/><path d="M531.61,317.94c-6.71-9.1-4.39-21.82-3.42-32.08C529.11,296,534.36,308.41,531.61,317.94Z" style="fill:#001429"/><path d="M388.3,268.11c-6.48-11.43.39-25.09-1.79-37.26C390.54,241.9,391.31,257.3,388.3,268.11Z" style="fill:#001429"/><path d="M409.12,272.89c-2.2-11.52,7.65-20.88,9.93-31.53C418.87,251.72,415.59,265.18,409.12,272.89Z" style="fill:#001429"/><path d="M398.63,270.41c-3.08-9.83,5.94-18,4.81-27.53C406.77,250.86,404.32,264.45,398.63,270.41Z" style="fill:#001429"/><path d="M518.86,312c-4.47-10.95-.14-23.15-3.45-34.16C520.48,287.08,523.87,302.75,518.86,312Z" style="fill:#001429"/><path d="M429.73,279c-6.75-9.35-5.15-21.94-10.89-31.58C425.87,254.8,432.6,269.11,429.73,279Z" style="fill:#001429"/><path d="M380.55,265.38c-4-9.24-1.14-19.21-4.37-28.68C380.8,242.72,386.16,258.23,380.55,265.38Z" style="fill:#001429"/><path d="M542.89,322.73c-4.82-13.16,4.57-26.37,3.65-40C549.56,294,547.4,311.69,542.89,322.73Z" style="fill:#001429"/><path d="M547.28,324.91c1.09-13.14,12.24-22.91,14.26-35.61C561.9,301.17,556.08,317.57,547.28,324.91Z" style="fill:#001429"/><path d="M558.09,329.51c-4.48-9-2.18-19.12-5.91-28.4C557.12,306.87,563.3,322.07,558.09,329.51Z" style="fill:#001429"/><path d="M447.67,284.75c-2-12.87,6.42-24.8,9.14-36.83C456.11,259.77,454.47,275.41,447.67,284.75Z" style="fill:#001429"/><path d="M521.34,314c-1.14,8.62-7.37,21.17-15,23.77C513.91,331.83,512.12,317.56,521.34,314Z" style="fill:#001429"/><path d="M525.56,315.48c-4.59-11.78,2.16-25.38,7.37-35.66C529.43,291.1,530.32,305.23,525.56,315.48Z" style="fill:#001429"/><path d="M460.69,289.31c-6-11-.07-24.47-2.7-36.21C462.46,263.76,464.18,278.66,460.69,289.31Z" style="fill:#001429"/><path d="M541.8,322.83c-5.31,10.45-14.92,22.32-24.8,26.65C526.76,342.49,530.39,325.79,541.8,322.83Z" style="fill:#001429"/><path d="M476.5,295c-5.19-7.21-3-17.75-.89-25.47C475.5,277.61,480.66,287.88,476.5,295Z" style="fill:#001429"/><path d="M348.37,259.15c-5,6.92-15.78,8-23.4,7.28C332.77,265,340.63,257.13,348.37,259.15Z" style="fill:#001429"/><path d="M607,355.64c-70.48-44.94-270.27-100.17-292.5-103.35C333,244.25,555.64,307.79,607,355.64Z" style="fill:#001429"/></svg>