<svg id="b59f54fc-11ef-4ae8-80ed-e2ebb56d5855" data-name="Mark" xmlns="http://www.w3.org/2000/svg" viewBox="0 0 1920 1080"><path d="M1495.1-22.4c10.45,4.47,13.24,17.37,22.5,23C1508.25-3.08,1499.24-14,1495.1-22.4Z" style="fill:#0a5877"/><path d="M1433.86,7.23c-2.13-8.57-.53-18.06-.63-26.65C1434.88-11.34,1438.89.17,1433.86,7.23Z" style="fill:#0a5877"/><path d="M1392.55,32.22c-6-8.7-7.35-21.22-5.76-31.26C1386.71,11.38,1393.82,22.35,1392.55,32.22Z" style="fill:#0a5877"/><path d="M1397.25,29.32c-6.37-8.06-10-20.15-9.64-30.08C1388.86,9.43,1398,19.32,1397.25,29.32Z" style="fill:#0a5877"/><path d="M1484.84-17.68c10.27,4,15,15.36,23.92,21C1499.75-.46,1489.09-9.31,1484.84-17.68Z" style="fill:#0a5877"/><path d="M1462.66-6.71c11,4.06,13.74,16.82,21.76,23.82C1476,11.86,1467.41,1.42,1462.66-6.71Z" style="fill:#0a5877"/><path d="M1443.1,3.11c9,5,11.59,16.11,19,22.39C1454.22,21.2,1445.53,11.35,1443.1,3.11Z" style="fill:#0a5877"/><path d="M1457-4.7c8.71,4.36,15.12,12.1,22.73,17.58C1471.54,9.55,1460,3.79,1457-4.7Z" style="fill:#0a5877"/><path d="M1419.44,15.7c.58-9.16,1.78-21.4,7.1-28.13C1422.32-3.78,1426.88,9.36,1419.44,15.7Z" style="fill:#0a5877"/><path d="M1474.57-12.41c12.1-3.37,19.09,12.7,30.24,15.17C1494.44,2.44,1484.16-8.7,1474.57-12.41Z" style="fill:#0a5877"/><path d="M1372.9,45.48c7.79,5.76,8.44,16.82,16,23.15C1380.76,63.82,1374.11,54.65,1372.9,45.48Z" style="fill:#0a5877"/><path d="M1451.49-1.47c8.77,5.85,10,18.2,18.76,23.91C1461.38,18.88,1453.37,7.26,1451.49-1.47Z" style="fill:#0a5877"/><path d="M1471.29-11.55c5.25,4.32,3.31,12,7.56,17C1474.45,3.6,1469.09-6.51,1471.29-11.55Z" style="fill:#0a5877"/><path d="M1443.44,2.44C1440.38-6,1438-16,1439.85-24.75,1439.59-15.88,1447.8-5.58,1443.44,2.44Z" style="fill:#0a5877"/><path d="M1447.64.66c6.28,4.17,6.72,12.79,9.72,19C1453.28,14.66,1447,7.11,1447.64.66Z" style="fill:#0a5877"/><path d="M1439.46,5c11.79,2,17.51,14,27.45,19.17C1458,21.53,1446.05,12.15,1439.46,5Z" style="fill:#0a5877"/><path d="M1428.08,11.1c10.09-.36,12.32,11.46,19.36,16.41C1440.81,25,1433.27,16.18,1428.08,11.1Z" style="fill:#0a5877"/><path d="M1424.89,13.33c8.5,2.13,9.24,12.76,14.16,18.48A49,49,0,0,1,1424.89,13.33Z" style="fill:#0a5877"/><path d="M1401.22,26.35c-2.39-8.5-1.06-18-1.42-26.62C1401.69,7.76,1406,19.16,1401.22,26.35Z" style="fill:#0a5877"/><path d="M1407.86,22.25c-4.64-8.95-6.11-18.89-10.82-27.83C1402.27.62,1410.89,13.46,1407.86,22.25Z" style="fill:#0a5877"/><path d="M1360,53.4c10.2-1.69,18.18,7.44,27.8,9C1378.58,62.49,1367.23,58.39,1360,53.4Z" style="fill:#0a5877"/><path d="M1411.69,19.87c-4.86-8.57,5.74-15.77,5.24-24.6C1419.35,2.37,1414.08,12.9,1411.69,19.87Z" style="fill:#0a5877"/><path d="M1410.35,22.38c5.38,3.47,6.62,11.17,7.89,16.82C1415.54,34.16,1409,28.24,1410.35,22.38Z" style="fill:#0a5877"/><path d="M1385.39,36.66c-.94-10.11-2.29-23.79,1.24-32.42C1384.62,14.48,1391.66,28.1,1385.39,36.66Z" style="fill:#0a5877"/><path d="M1453.18-2.39c8-1.2,15.46,4,23,5.83C1470,3.56,1457.87,2.91,1453.18-2.39Z" style="fill:#0a5877"/><path d="M1467.29-9.37c10.42,3.15,15.81,14.06,25,18.85C1483.17,6.56,1472-1.46,1467.29-9.37Z" style="fill:#0a5877"/><path d="M1421.29,15.61c7.57,2.93,11.47,11.28,18.8,14.4C1433,28.93,1422.72,22.74,1421.29,15.61Z" style="fill:#0a5877"/><path d="M1433.07,8.45c5.28,2.53,6.58,10.08,6.85,15.18C1438.05,18.73,1431.8,13.77,1433.07,8.45Z" style="fill:#0a5877"/><path d="M1416.64,17.58c6.64,5.13,11.26,12.43,19.28,15.74C1429.2,32.93,1416.11,25.82,1416.64,17.58Z" style="fill:#0a5877"/><path d="M1436.43,6.58c8.69,6.41,14.63,15.83,24,21.12C1451.05,24.44,1438.46,16.53,1436.43,6.58Z" style="fill:#0a5877"/><path d="M1491-20.41c10.9,3.73,16,15.77,26,20.59C1508.23-1.81,1495.75-12.31,1491-20.41Z" style="fill:#0a5877"/><path d="M1355.42,58.27c11-.71,20.1,7.56,30.54,8.84C1376.22,67.55,1362.81,64.05,1355.42,58.27Z" style="fill:#0a5877"/><path d="M1414,20c10.37,3.75,15.39,15,24.45,20.32C1429.34,36.77,1418.46,28.2,1414,20Z" style="fill:#0a5877"/><path d="M1398.1,29.45c12-3.67,19.4,12.22,30.62,14.39C1418.35,43.79,1407.78,32.92,1398.1,29.45Z" style="fill:#0a5877"/><path d="M1405,24.92c9.23-1.75,14,9.29,22.46,10.1C1419.73,36.14,1410.46,29.48,1405,24.92Z" style="fill:#0a5877"/><path d="M1388.44,35.48c12,0,19.54,11,30.18,14.51C1409.35,48.83,1396.1,41.49,1388.44,35.48Z" style="fill:#0a5877"/><path d="M1384.83,37.75c11.21,1.86,17,13.73,27.31,17C1402.2,53.39,1390.85,44.94,1384.83,37.75Z" style="fill:#0a5877"/><path d="M1374.82,43.76c11.48,1,19.26,11.52,30.19,13.81C1396,57.72,1381.37,50.5,1374.82,43.76Z" style="fill:#0a5877"/><path d="M1395,31.77c10.14,3.78,17.4,12.83,27.22,17C1412.59,46.45,1399.62,40.52,1395,31.77Z" style="fill:#0a5877"/><path d="M1440.12,4.4c-4.29-9.21-1.92-21.07,1.72-29.94C1439.57-16,1443.15-4.41,1440.12,4.4Z" style="fill:#0a5877"/><path d="M1368.6,47.21c-4.09-8.84-3.29-20.28-.88-29.31C1366.75,27.31,1371.83,38.57,1368.6,47.21Z" style="fill:#0a5877"/><path d="M1373.7,44.2c-2.39-8.51-1.06-18-1.42-26.63C1374.17,25.6,1378.52,37,1373.7,44.2Z" style="fill:#0a5877"/><path d="M1383.25,37.62c-4.4-8.24-4.75-19.87-1.7-28.39C1380,18.46,1386.18,29.1,1383.25,37.62Z" style="fill:#0a5877"/><path d="M1365.19,49.76c-4.48-9.8-9.29-22-8.37-32.09C1357.65,28.58,1368.23,39.48,1365.19,49.76Z" style="fill:#0a5877"/><path d="M1362,52.36c-8-6.51-15.08-17-16.41-27.19C1348.55,35.27,1360.46,42.31,1362,52.36Z" style="fill:#0a5877"/><path d="M1354.77,56.4c-4.28-6.78-2.21-18.17,1.08-24.08C1353.84,40.11,1357.8,49.45,1354.77,56.4Z" style="fill:#0a5877"/><path d="M1437.39,5.23C1431.13-3,1427.11-13.7,1425-23.61,1428.49-14.26,1438.31-4.74,1437.39,5.23Z" style="fill:#0a5877"/><path d="M1382.15,39.32c7.77,3.36,8.63,13.41,15.4,17.71C1390.67,54.8,1383.33,46,1382.15,39.32Z" style="fill:#0a5877"/><path d="M1378.28,41.38c-4.64-9-6.12-18.89-10.82-27.83C1372.69,19.75,1381.31,32.59,1378.28,41.38Z" style="fill:#0a5877"/><path d="M1427.41,10.67c-3.19-9.06-5.28-21.26-2.46-29.7C1423.7-9.24,1431.67,2,1427.41,10.67Z" style="fill:#0a5877"/><path d="M1366.63,49.35c10.06,2.82,15.15,13.75,23.91,18.73C1381.45,64.7,1371.53,57.34,1366.63,49.35Z" style="fill:#0a5877"/><path d="M1415.34,17.6c-3.33-6.35-1.58-14.16-2.52-20.91C1415.23,2.57,1419.24,12.07,1415.34,17.6Z" style="fill:#0a5877"/><path d="M1323.62,82.12c37.6-43.35,202.3-127.08,218.13-122.66C1523.21-34,1379.69,36.37,1323.62,82.12Z" style="fill:#0a5877"/></svg>