<svg id="e9c6fa21-7f6b-48d7-b1ba-7bff436fafa8" data-name="Mark" xmlns="http://www.w3.org/2000/svg"><path d="M324.4,43c7.51,10.11,18.3,23.39,28.75,28.2C342.78,63.55,337.32,45.19,324.4,43Z" transform="translate(-95.76 -0.77)" style="fill:#001429"/><path d="M334.61,38.57c4.22-10.8,1.7-24.86,3.13-35.1C334.19,13.93,329.52,28.77,334.61,38.57Z" transform="translate(-95.76 -0.77)" style="fill:#001429"/><path d="M373.58,28.23c6-3.9,7.64-11.2,11.94-16.58C381.29,13.28,370.08,22.39,373.58,28.23Z" transform="translate(-95.76 -0.77)" style="fill:#001429"/><path d="M354.91,33.45c-2.41,9.47,29.28,27.66,14.27,14.77C364.09,43.84,361.29,35.43,354.91,33.45Z" transform="translate(-95.76 -0.77)" style="fill:#001429"/><path d="M336.19,39.44c-1.31,9.59,12,17.67,19.39,16.46C346.41,53.7,343.19,43.58,336.19,39.44Z" transform="translate(-95.76 -0.77)" style="fill:#001429"/><path d="M328.48,40.81c4.12-13.26-5.16-26.71-5.3-40C321.33,13.61,323.32,29.48,328.48,40.81Z" transform="translate(-95.76 -0.77)" style="fill:#001429"/><path d="M261.61,65.65c2.33-14.13-9.42-26.33-11.18-40C250.15,39,255,54.7,261.61,65.65Z" transform="translate(-95.76 -0.77)" style="fill:#001429"/><path d="M319.71,44.1c5.34,10.61,14.43,25.64,25,29.36C333.91,66.52,332,48.18,319.71,44.1Z" transform="translate(-95.76 -0.77)" style="fill:#001429"/><path d="M243.73,73.28c6.14-9.49,3.06-22,1.48-32.23C244.9,51.24,240.4,63.93,243.73,73.28Z" transform="translate(-95.76 -0.77)" style="fill:#001429"/><path d="M191.43,99c1.21-12.51-4.4-26.54-4.42-38C184.94,72.83,183.8,89.7,191.43,99Z" transform="translate(-95.76 -0.77)" style="fill:#001429"/><path d="M197.37,95.9c.69-13-8-24.48-9-37.07C187.18,70.27,189.6,87.58,197.37,95.9Z" transform="translate(-95.76 -0.77)" style="fill:#001429"/><path d="M362.41,31.21C362.32,41,373.58,50,381,52.64,373.25,46.94,370.23,35.66,362.41,31.21Z" transform="translate(-95.76 -0.77)" style="fill:#001429"/><path d="M306.89,48.75c4.87,9.9,17.08,23.14,27,27.32C323.7,68.94,318.85,52.46,306.89,48.75Z" transform="translate(-95.76 -0.77)" style="fill:#001429"/><path d="M279.07,59.68c2.32,6.21,6.83,10.85,10.85,15.91,3.79,5,7.32,12.42,13.25,14.65C294.24,81.5,291.93,63.47,279.07,59.68Z" transform="translate(-95.76 -0.77)" style="fill:#001429"/><path d="M254.47,69.44c3.51,10.8,11.43,22.82,21,28.62C267.08,90.22,265.12,74.24,254.47,69.44Z" transform="translate(-95.76 -0.77)" style="fill:#001429"/><path d="M272.09,61.5C276.32,72.49,288,80,298,84.67,289.33,77.79,282.14,65.57,272.09,61.5Z" transform="translate(-95.76 -0.77)" style="fill:#001429"/><path d="M225.46,82.12c9.35-8.56,5.22-22.8,11-33.31C230.27,54.8,225,73.17,225.46,82.12Z" transform="translate(-95.76 -0.77)" style="fill:#001429"/><path d="M275,60c4.59-10.6-3.18-21.59-3.14-32.28C269.81,37.35,270.38,51.71,275,60Z" transform="translate(-95.76 -0.77)" style="fill:#001429"/><path d="M294.34,54.17C306.4,59.44,316.51,74,329.16,75.08,316.51,71.41,307.8,49.05,294.34,54.17Z" transform="translate(-95.76 -0.77)" style="fill:#001429"/><path d="M299.6,51.75c9.11-10.2-4.53-21.14-5.76-31.43C292.86,30.53,299.09,41.72,299.6,51.75Z" transform="translate(-95.76 -0.77)" style="fill:#001429"/><path d="M290.56,53.49c.48-13.22-8.77-11.14-12-31.06C276.68,32.57,282.16,46.77,290.56,53.49Z" transform="translate(-95.76 -0.77)" style="fill:#001429"/><path d="M165.65,113.26c1.61,11.59,7.9,23.72,17.41,29-2.79-5.1-8.06-9.1-9.28-14.91C173.32,122.25,170.58,114.47,165.65,113.26Z" transform="translate(-95.76 -0.77)" style="fill:#001429"/><path d="M265,64.77c2.7,11.43,9.77,25.39,20.54,30.44C275.47,87.91,275.52,70.58,265,64.77Z" transform="translate(-95.76 -0.77)" style="fill:#001429"/><path d="M323.56,41.84c-1.54-13.09-13-22.46-15.49-35.08C308.12,18.63,314.51,34.82,323.56,41.84Z" transform="translate(-95.76 -0.77)" style="fill:#001429"/><path d="M289.84,54.54c-2.1,7.41,2,17.1,7.78,21.44C293.19,69.69,296.57,58.78,289.84,54.54Z" transform="translate(-95.76 -0.77)" style="fill:#001429"/><path d="M281.44,57.71c4.41-10.66-3.54-21.49-3.68-32.17C275.87,35.16,276.68,49.5,281.44,57.71Z" transform="translate(-95.76 -0.77)" style="fill:#001429"/><path d="M255.75,68.47c5.16-10.7-2.75-22.16-2-33.15C251,45.25,251.58,59.49,255.75,68.47Z" transform="translate(-95.76 -0.77)" style="fill:#001429"/><path d="M260.15,66.89c-.16,8.6,5.27,17.27,10.22,23.62C267.16,83.1,268.05,70.72,260.15,66.89Z" transform="translate(-95.76 -0.77)" style="fill:#001429"/><path d="M250.15,71.5c8.39,9.39,20.35,21.63,31.19,25.46C270.32,90.32,263.21,72.54,250.15,71.5Z" transform="translate(-95.76 -0.77)" style="fill:#001429"/><path d="M235.76,77.67c7.07,6.83,13.61,17.92,21.8,21.32C249.93,92.73,247.38,76,235.76,77.67Z" transform="translate(-95.76 -0.77)" style="fill:#001429"/><path d="M231.59,80c3.62,7.9,8.91,18.94,15.49,23.06C241.46,96.24,241.72,81,231.59,80Z" transform="translate(-95.76 -0.77)" style="fill:#001429"/><path d="M202.47,93c5.87-9.67,2.43-22.13.54-32.26C203,70.88,198.88,83.7,202.47,93Z" transform="translate(-95.76 -0.77)" style="fill:#001429"/><path d="M210.9,88.63C214.37,77,206.35,62.3,200.27,54,205.28,64.93,205.08,78.92,210.9,88.63Z" transform="translate(-95.76 -0.77)" style="fill:#001429"/><path d="M149.6,121.64c9.16,6.15,22.29,13.54,32.5,13C170.71,132.55,161,118.46,149.6,121.64Z" transform="translate(-95.76 -0.77)" style="fill:#001429"/><path d="M215.74,86.09c3.2-9.12,10.95-20,8.39-29C224.07,67.21,209,77,215.74,86.09Z" transform="translate(-95.76 -0.77)" style="fill:#001429"/><path d="M213,89.21c-1.27,7.83,5.15,14,7.94,20.77C222.28,107.9,217.5,88.36,213,89.21Z" transform="translate(-95.76 -0.77)" style="fill:#001429"/><path d="M182.31,103.9c8-11.69,1.23-26.41,4.45-39.12C181.88,74.41,180.77,92.65,182.31,103.9Z" transform="translate(-95.76 -0.77)" style="fill:#001429"/><path d="M267.37,64c7,7,18.38,8.06,27.44,9.19C286.29,70.2,276.36,61.77,267.37,64Z" transform="translate(-95.76 -0.77)" style="fill:#001429"/><path d="M284.94,57c4,7.88,20.7,23.75,28.37,24.64C302.55,75.64,297,59.51,284.94,57Z" transform="translate(-95.76 -0.77)" style="fill:#001429"/><path d="M227,82.28c2.51,9.29,12.66,17,21.53,19C239.85,97.13,236,84.64,227,82.28Z" transform="translate(-95.76 -0.77)" style="fill:#001429"/><path d="M241.83,74.8c-1.13,5.64,2.86,9.33,4.85,14.07C251.72,102.64,248.62,73.8,241.83,74.8Z" transform="translate(-95.76 -0.77)" style="fill:#001429"/><path d="M221.11,84.07c0,10.77,13.56,19.5,22,20.75C233.61,100.36,229.08,89.22,221.11,84.07Z" transform="translate(-95.76 -0.77)" style="fill:#001429"/><path d="M246.08,72.9c2.75,12.48,16.47,23.88,27.1,27.37C261.89,93.75,256.27,79.25,246.08,72.9Z" transform="translate(-95.76 -0.77)" style="fill:#001429"/><path d="M314.58,46.1c6.42,10.62,18.71,24,29.55,27.13C332.61,66.87,327.22,49.53,314.58,46.1Z" transform="translate(-95.76 -0.77)" style="fill:#001429"/><path d="M300.32,51.32c6.81,5.78,17.13,16.16,25.58,14.46C316,64.32,310.8,48.17,300.32,51.32Z" transform="translate(-95.76 -0.77)" style="fill:#001429"/><path d="M143.5,127c8.79,7,25.06,13.65,36,13.31C167.28,138.19,155.9,125.31,143.5,127Z" transform="translate(-95.76 -0.77)" style="fill:#001429"/><path d="M134.94,130.35c6.84,5.75,17.21,16.08,25.65,14.34C150.72,143.27,145.41,127.15,134.94,130.35Z" transform="translate(-95.76 -0.77)" style="fill:#001429"/><path d="M217.78,86.79c5.12,9.77,17.66,22.69,27.68,26.62C235.1,106.55,229.84,90.19,217.78,86.79Z" transform="translate(-95.76 -0.77)" style="fill:#001429"/><path d="M198,96.73c12.19,5,22.67,19.28,35.34,20C220.63,113.39,211.34,91.27,198,96.73Z" transform="translate(-95.76 -0.77)" style="fill:#001429"/><path d="M206.64,92c7,5.61,17.53,15.72,25.94,13.81C222.68,104.56,217,88.55,206.64,92Z" transform="translate(-95.76 -0.77)" style="fill:#001429"/><path d="M330.73,40.71c3.13,12.74,13.91,22.81,24.32,30.11C346.87,63.08,340.65,46.93,330.73,40.71Z" transform="translate(-95.76 -0.77)" style="fill:#001429"/><path d="M122.34,136.78c11,6.09,26.33,13.72,37.84,13.78C147.58,147.91,135,133.46,122.34,136.78Z" transform="translate(-95.76 -0.77)" style="fill:#001429"/><path d="M185.69,103c9.79,7.91,23.56,18.07,34.88,20.11C208.62,118.32,198.74,101.91,185.69,103Z" transform="translate(-95.76 -0.77)" style="fill:#001429"/><path d="M180.9,105.28c7.71,9,20.11,21.48,31.26,22.57C200,123.68,193.83,106.32,180.9,105.28Z" transform="translate(-95.76 -0.77)" style="fill:#001429"/><path d="M168.27,111.5c8.76,8.79,23.88,18.86,35.15,19.34C190.71,127.4,181.36,111.83,168.27,111.5Z" transform="translate(-95.76 -0.77)" style="fill:#001429"/><path d="M193.74,99.08c6.22,11.55,19.18,18.61,31.08,23.07C215,116.7,204.91,102.62,193.74,99.08Z" transform="translate(-95.76 -0.77)" style="fill:#001429"/><path d="M340.85,37.23C343.6,49.7,357.32,61.1,368,64.6,356.66,58.07,351,43.57,340.85,37.23Z" transform="translate(-95.76 -0.77)" style="fill:#001429"/><path d="M368.59,29.74c5.81,8.24,17.81,13,27.33,13.31C386.28,40.63,378.43,29.43,368.59,29.74Z" transform="translate(-95.76 -0.77)" style="fill:#001429"/><path d="M373.25,28.69c5.49,5.77,15.84,4.69,22.43,2.32C388.34,31.33,379.87,25.22,373.25,28.69Z" transform="translate(-95.76 -0.77)" style="fill:#001429"/><path d="M363.14,29.68c6-5.84,4.93-14.58,9.23-21.39C367.5,11.42,359.47,23.22,363.14,29.68Z" transform="translate(-95.76 -0.77)" style="fill:#001429"/><path d="M352.56,33.14c4.5-8.69.93-18.52,4.46-27.49C352.18,11,347.45,26.34,352.56,33.14Z" transform="translate(-95.76 -0.77)" style="fill:#001429"/><path d="M251.55,70.42c3.75-11.57,1.5-24.31,4.66-35.87C251.25,44.5,245.8,60.53,251.55,70.42Z" transform="translate(-95.76 -0.77)" style="fill:#001429"/><path d="M343.48,35.77c6.39-9.34,3.63-22,2.3-32.18C345.22,13.76,340.4,26.34,343.48,35.77Z" transform="translate(-95.76 -0.77)" style="fill:#001429"/><path d="M128.5,133.92c4.37-10.74,2.05-24.84,3.63-35.06C128.43,109.27,123.55,124.05,128.5,133.92Z" transform="translate(-95.76 -0.77)" style="fill:#001429"/><path d="M134,129.16c6.52-9.25,3.94-21.91,2.75-32.15C136,107.17,131,119.68,134,129.16Z" transform="translate(-95.76 -0.77)" style="fill:#001429"/><path d="M161.09,114.63c3.63-11,.35-24.93,1.22-35.23C159.33,90,155.47,105.11,161.09,114.63Z" transform="translate(-95.76 -0.77)" style="fill:#001429"/><path d="M167.52,111.61c5.87-9.67,2.43-22.13.54-32.26C168.06,89.54,163.93,102.36,167.52,111.61Z" transform="translate(-95.76 -0.77)" style="fill:#001429"/><path d="M305.81,49.17c5.43-12-2.63-25-1.55-37.26C301.24,23.26,301.85,38.68,305.81,49.17Z" transform="translate(-95.76 -0.77)" style="fill:#001429"/><path d="M285.5,55.8c1.16-11.67-9.48-20.12-12.7-30.53C273.85,35.42,278.45,48.87,285.5,55.8Z" transform="translate(-95.76 -0.77)" style="fill:#001429"/><path d="M295.73,52.39c2.19-10.07-7.52-17.37-7.25-27C285.88,33.64,289.53,47,295.73,52.39Z" transform="translate(-95.76 -0.77)" style="fill:#001429"/><path d="M179.7,104.57c3.47-11.3-1.93-23.07.38-34.33C175.85,79.88,173.88,95.78,179.7,104.57Z" transform="translate(-95.76 -0.77)" style="fill:#001429"/><path d="M265.52,63.67c5.88-9.92,3.16-22.31,8-32.42C267.21,39.27,261.78,54.12,265.52,63.67Z" transform="translate(-95.76 -0.77)" style="fill:#001429"/><path d="M313.28,45.77c3.15-9.56-.57-19.24,1.8-29C311,23.22,307.07,39.14,313.28,45.77Z" transform="translate(-95.76 -0.77)" style="fill:#001429"/><path d="M156.72,117.38c3.62-13.53-6.91-25.86-7.21-39.5C147.51,89.31,151.24,106.79,156.72,117.38Z" transform="translate(-95.76 -0.77)" style="fill:#001429"/><path d="M152.54,119.94c-2.25-13-14.24-21.71-17.38-34.18C135.86,97.61,143.12,113.42,152.54,119.94Z" transform="translate(-95.76 -0.77)" style="fill:#001429"/><path d="M142.19,125.5c3.65-9.38.46-19.25,3.35-28.82C141.13,102.86,136.34,118.55,142.19,125.5Z" transform="translate(-95.76 -0.77)" style="fill:#001429"/><path d="M248.17,71.05c.86-13-8.62-24.13-12.39-35.87C237.53,46.92,240.56,62.35,248.17,71.05Z" transform="translate(-95.76 -0.77)" style="fill:#001429"/><path d="M177.41,106.79c1.91,8.49,9.22,20.43,17,22.34C186.39,123.86,186.91,109.49,177.41,106.79Z" transform="translate(-95.76 -0.77)" style="fill:#001429"/><path d="M173.33,108.62C176.81,97,168.79,82.29,162.71,74,167.71,84.92,167.51,98.91,173.33,108.62Z" transform="translate(-95.76 -0.77)" style="fill:#001429"/><path d="M235.61,76.76c4.94-11.54-2.12-24.39-.55-36.31C231.56,51.47,231.18,66.46,235.61,76.76Z" transform="translate(-95.76 -0.77)" style="fill:#001429"/><path d="M157.82,117.39c6.22,9.93,16.85,20.89,27.07,24.32C174.55,135.62,169.45,119.32,157.82,117.39Z" transform="translate(-95.76 -0.77)" style="fill:#001429"/><path d="M220.37,83.83c4.53-7.65,1.36-18-1.39-25.45C219.81,66.43,215.58,77.11,220.37,83.83Z" transform="translate(-95.76 -0.77)" style="fill:#001429"/><path d="M344.78,36.69c5.61,6.43,16.43,6.52,24,5.15C360.85,41.14,352.32,34,344.78,36.69Z" transform="translate(-95.76 -0.77)" style="fill:#001429"/><path d="M95.76,155.89C162,104.83,356,32,377.87,26.82,358.79,20.46,142.68,103.64,95.76,155.89Z" transform="translate(-95.76 -0.77)" style="fill:#001429"/></svg>