<svg id="a4dc84b8-f22e-4cd3-bdcf-43a23ff6682b" data-name="Mark" xmlns="http://www.w3.org/2000/svg" viewBox="0 0 1920 1080"><path d="M1095.64,119c-13.83,4.14-18.49,19.85-29.36,27.81C1076.45,142.24,1089.4,128.87,1095.64,119Z" style="fill:#061d3c"/><path d="M1086.17,114.74c4-11.08,1.28-24.88-2.91-35.31C1085.63,90.55,1080.78,105,1086.17,114.74Z" style="fill:#061d3c"/><path d="M1055.62,104.86c1.89-7.08-7.23-14.47-11.91-16.8C1047.94,93.23,1049.43,102.18,1055.62,104.86Z" style="fill:#061d3c"/><path d="M1068.81,110c-6.45,3.41-9.06,9.93-14.28,14.6C1039.2,137.27,1073.18,118.46,1068.81,110Z" style="fill:#061d3c"/><path d="M1083.69,115.39c-6.77,5.73-10.89,13.56-19.54,16.37C1072.36,132.3,1086.24,124.51,1083.69,115.39Z" style="fill:#061d3c"/><path d="M1092.23,117.11c4.31-12.18,8.29-27.89,5.7-39.65C1098.37,90.63,1086.8,105.32,1092.23,117.11Z" style="fill:#061d3c"/><path d="M1158.39,143.85c5.91-11.89,12.71-27.14,11.56-39.57C1168.76,117.88,1154.55,131,1158.39,143.85Z" style="fill:#061d3c"/><path d="M1100.13,120.36c-12.57,5.72-14.42,21.8-25.48,29C1084.78,146,1096.34,130.42,1100.13,120.36Z" style="fill:#061d3c"/><path d="M1178.66,152.89c2.5-10.6-1-21.27-.85-32C1175.67,129.2,1172,145.32,1178.66,152.89Z" style="fill:#061d3c"/><path d="M1227.61,179.16c7.09-10.88,7-25.53,5-38C1232.72,152.35,1225.31,167.8,1227.61,179.16Z" style="fill:#061d3c"/><path d="M1221.74,176c7.37-10,10.72-25.07,9.52-37C1230.43,151.37,1219.82,164,1221.74,176Z" style="fill:#061d3c"/><path d="M1064.24,108.19c-7.57,6.06-11.56,15.22-18.75,21.42C1053.27,125.91,1065.71,117.65,1064.24,108.19Z" style="fill:#061d3c"/><path d="M1112.82,125.35c-12.27,5.33-17.08,19.53-27.39,26.94C1095.3,147.92,1109.33,135.12,1112.82,125.35Z" style="fill:#061d3c"/><path d="M1140.33,137c-13.11,5.43-15.47,21.22-24.59,30.26,6-2.3,9.69-9.41,13.63-14.34C1133,148.12,1139.56,142.76,1140.33,137Z" style="fill:#061d3c"/><path d="M1164.6,147.54c-10.69,6.42-12.93,20.19-21.35,28.33C1152.44,170.26,1162.63,157.71,1164.6,147.54Z" style="fill:#061d3c"/><path d="M1147.24,139.08c-10.36,5.64-17.46,15.58-26.19,22.79C1130.76,157.4,1144.67,149.66,1147.24,139.08Z" style="fill:#061d3c"/><path d="M1194,161.08c-1-11-3.6-25.86-10.53-33.41C1189.14,137.8,1184.33,154.23,1194,161.08Z" style="fill:#061d3c"/><path d="M1145.16,137.81c3.73-9.56,6.13-23.12,3.35-32C1149.09,116.37,1139.35,128.57,1145.16,137.81Z" style="fill:#061d3c"/><path d="M1125.59,131c-14.87-3.55-22.18,16.58-35.42,20.38C1102.52,150.43,1114.5,136.41,1125.59,131Z" style="fill:#061d3c"/><path d="M1120.77,128.7c-.26-10.93,7.45-20.78,6.15-31.08C1125.68,107.4,1110.77,120.15,1120.77,128.7Z" style="fill:#061d3c"/><path d="M1129.77,131c8.23-8.11,14.11-20.21,12.44-30.85-2.35,5.2-2.26,11.77-6.15,16.13C1132.27,119.6,1127.73,126.39,1129.77,131Z" style="fill:#061d3c"/><path d="M1252.19,193.78c-10.39,7.26-5,15.62-17.84,28.75C1243.58,217.73,1251.8,204.65,1252.19,193.78Z" style="fill:#061d3c"/><path d="M1154.16,142.6c-10.38,7.47-10.86,22.58-21,30.15C1143.63,168,1152.9,153.3,1154.16,142.6Z" style="fill:#061d3c"/><path d="M1097.06,118.53c8.94-8.69,15.9-22.58,16-34.87C1110.84,96.14,1097.17,106.21,1097.06,118.53Z" style="fill:#061d3c"/><path d="M1129.59,131.82c-6.34,5.56-3.18,14.58-7.94,21.05C1126.87,150.47,1132.94,137.73,1129.59,131.82Z" style="fill:#061d3c"/><path d="M1138.78,135.33c3.89-9.48,6.52-23,3.88-31.84C1143.07,114,1133.13,126,1138.78,135.33Z" style="fill:#061d3c"/><path d="M1164.17,146.77c3.22-10,5.66-23.87,2.26-32.84C1167.69,124.73,1157.83,137.5,1164.17,146.77Z" style="fill:#061d3c"/><path d="M1159,144.89c-7.57,5.39-7.27,15.85-10.4,23.57C1153.19,162.2,1160.47,152.73,1159,144.89Z" style="fill:#061d3c"/><path d="M1169.13,149.54c-14.16,2.87-20.23,18.09-31.78,25C1147.9,171,1162,158.82,1169.13,149.54Z" style="fill:#061d3c"/><path d="M1183.27,156.13c-12.35,0-14.09,14.61-22.21,21.13C1168.91,173.92,1177.57,162.9,1183.27,156.13Z" style="fill:#061d3c"/><path d="M1187.28,158.6c-10.42,2.81-9.87,15.81-15.85,23C1176.7,179,1185.79,164.84,1187.28,158.6Z" style="fill:#061d3c"/><path d="M1216.75,172.68c2.81-10.52-.33-21.28.08-32C1214.45,148.91,1210.33,164.92,1216.75,172.68Z" style="fill:#061d3c"/><path d="M1208.45,168.19c5-11.11,6.67-23.47,11-34.59C1213.51,142.94,1203.75,157.41,1208.45,168.19Z" style="fill:#061d3c"/><path d="M1203.67,165.59c5.59-10.66-8-18.64-8-29.31C1193.1,144.86,1200,157.53,1203.67,165.59Z" style="fill:#061d3c"/><path d="M1205.43,168.52c-5.51,3-8.4,15.89-8.1,20.72C1200,182.79,1208,175.53,1205.43,168.52Z" style="fill:#061d3c"/><path d="M1236.55,184c.72-12.18,1.18-29-3.77-39C1235.85,157.14,1228.06,174.38,1236.55,184Z" style="fill:#061d3c"/><path d="M1152.08,141.6c-9.9-.95-18.83,5.63-27.53,8.91C1133.3,149.29,1146.64,149,1152.08,141.6Z" style="fill:#061d3c"/><path d="M1134.57,134.15c-12.48,4.26-18.17,18-28.86,24.48C1115.47,155.4,1130.76,143.26,1134.57,134.15Z" style="fill:#061d3c"/><path d="M1191.77,161.1c-9.27,3.71-12.58,14.33-21.56,18.39C1177.59,179.14,1191.16,169.55,1191.77,161.1Z" style="fill:#061d3c"/><path d="M1177.06,153.28c-6.45,3.32-7.31,12.61-7.19,18.81C1171.87,166,1179.28,159.76,1177.06,153.28Z" style="fill:#061d3c"/><path d="M1197.51,163.17c-8,6.52-12.68,15.67-22.16,20.3C1183.36,182.73,1199.12,173.14,1197.51,163.17Z" style="fill:#061d3c"/><path d="M1172.89,151.26c-10.32,7.85-16.09,20.13-27.47,26.84C1155.61,175.11,1171.75,163,1172.89,151.26Z" style="fill:#061d3c"/><path d="M1105.22,122.48c-13.06,5-18.19,20.07-30,26.63C1085.61,146.31,1100.43,132.7,1105.22,122.48Z" style="fill:#061d3c"/><path d="M1119.51,128c-11.37-1.47-16,12.52-26,14.43C1102.85,143.07,1113.69,134.27,1119.51,128Z" style="fill:#061d3c"/><path d="M1200.86,165.83c-12.41,5-17.58,19.07-28.07,26.22C1182.76,187.94,1197.12,175.5,1200.86,165.83Z" style="fill:#061d3c"/><path d="M1220.71,176.19c-14.77-3.93-22.6,16-35.93,19.47C1197.15,195,1209.49,181.33,1220.71,176.19Z" style="fill:#061d3c"/><path d="M1212.05,171.2c-11.33-1.76-16.28,12.1-26.41,13.76C1195,185.85,1206.07,177.33,1212.05,171.2Z" style="fill:#061d3c"/><path d="M1089.16,116.73c-10,7.81-16.43,21.65-24.76,29.67C1074.47,139.59,1087.57,128.74,1089.16,116.73Z" style="fill:#061d3c"/><path d="M1232.77,182.78c-14.44.56-22.88,14.6-35.39,19.59C1208.37,200.5,1224.24,190.79,1232.77,182.78Z" style="fill:#061d3c"/><path d="M1237.28,185.27c-13.57,2.58-19.18,17.75-31.63,22.08C1216.28,206.52,1231.21,194.14,1237.28,185.27Z" style="fill:#061d3c"/><path d="M1249.76,191.83c-13.87,1.75-22.44,15.18-35.45,18.75C1225.05,210.32,1242.68,200.61,1249.76,191.83Z" style="fill:#061d3c"/><path d="M1224.56,178.77c-11.65,5-21.33,16.85-31.4,22.53C1204.62,197.23,1220,190,1224.56,178.77Z" style="fill:#061d3c"/><path d="M1079.13,113c-10.31,7.85-16.08,20.14-27.46,26.84C1061.87,136.83,1078,124.75,1079.13,113Z" style="fill:#061d3c"/><path d="M1059.7,106.89c-10.54.94-17.25,10.41-27.27,12.73C1040.2,120.43,1055.91,114.87,1059.7,106.89Z" style="fill:#061d3c"/><path d="M1053.79,105.61c-7.86-1.63-14,4.25-21.76,4.61C1037,112.46,1051,112.17,1053.79,105.61Z" style="fill:#061d3c"/><path d="M1062.9,106.91c2.4-8-3.67-16.78-9-21.81C1057.77,91.71,1056.62,102.39,1062.9,106.91Z" style="fill:#061d3c"/><path d="M1070.36,109.68c4.22-8.63.82-20.5-4.07-27.87C1069.5,90.53,1065.2,102.22,1070.36,109.68Z" style="fill:#061d3c"/><path d="M1168.31,148.9c4.83-11.33.92-25.64-4.17-36C1167.49,124.25,1163.7,138.63,1168.31,148.9Z" style="fill:#061d3c"/><path d="M1079.31,112.56c2.23-10.65-1.49-21.23-1.66-32C1075.72,89,1072.48,105.17,1079.31,112.56Z" style="fill:#061d3c"/><path d="M1251.17,192.29c2.81-10.52-.33-21.28.08-32C1248.87,168.52,1244.76,184.54,1251.17,192.29Z" style="fill:#061d3c"/><path d="M1114.66,126.09c3-11.33,5.59-26.74,1.91-36.94C1118.16,101.24,1108.09,115.6,1114.66,126.09Z" style="fill:#061d3c"/><path d="M1134.76,133.44c6.48-8.24,12.76-20.69,12.82-30.16C1144.93,113.69,1132,122.71,1134.76,133.44Z" style="fill:#061d3c"/><path d="M1124.63,129.75c5.56-6.51,10.67-19.48,7.34-26.69C1132.77,112.55,1121,120.68,1124.63,129.75Z" style="fill:#061d3c"/><path d="M1239.19,185c5-10.23,4.42-24.35.07-34.37C1241.77,161.71,1234.71,175,1239.19,185Z" style="fill:#061d3c"/><path d="M1154.54,141.67c2.64-10.76-1.08-24.19-7.62-32.55C1151.93,119,1148,133.21,1154.54,141.67Z" style="fill:#061d3c"/><path d="M1107.28,122.59c5.43-8.15,2.66-22.08-1.44-29.08C1108.28,103,1103.22,114.22,1107.28,122.59Z" style="fill:#061d3c"/><path d="M1171.66,149.71c7.22-10.22,11.18-23.57,12.9-35.65C1181,125.51,1169.47,137.78,1171.66,149.71Z" style="fill:#061d3c"/><path d="M1240.61,187c-9.54,4.29-9,16.61-17.29,22.13C1230.71,207.59,1240.19,194.85,1240.61,187Z" style="fill:#061d3c"/><path d="M1245.45,189.21c5-11.11,6.66-23.47,11-34.59C1250.51,164,1240.75,178.43,1245.45,189.21Z" style="fill:#061d3c"/><path d="M1184.07,155.58c3.5-11.06,5-26.14.89-36C1187.1,131.28,1178,145.62,1184.07,155.58Z" style="fill:#061d3c"/><path d="M1199.11,163.1c4.08-8,.58-16.68,1.79-25.16C1197.89,143.54,1193.87,157.27,1199.11,163.1Z" style="fill:#061d3c"/><path d="M1075.45,112.14c-8.47-1.69-15.43,4.25-23.74,4.74C1057.4,118.94,1071.79,118.78,1075.45,112.14Z" style="fill:#061d3c"/><path d="M1256.17,191.4c-79.61-45.26-201.92-95-213.6-89.69,17,5.36,129.85,48.26,212.54,93.89C1281.38,210.09,1287.2,209.05,1256.17,191.4Z" style="fill:#061d3c"/></svg>