<svg id="b89c2398-a584-4fa0-a925-802504eec11b" data-name="Mark" xmlns="http://www.w3.org/2000/svg" viewBox="0 0 1920 1080"><path d="M859.84,190c8.2,9.54,19.91,22,30.68,26.07C879.63,209.2,872.87,191.28,859.84,190Z" style="fill:#001429"/><path d="M869.7,184.87c3.45-11.07-.07-24.92.62-35.24C867.53,160.32,863.93,175.45,869.7,184.87Z" style="fill:#001429"/><path d="M907.84,171.78c5.68-4.32,6.81-11.72,10.73-17.39C914.46,156.31,903.93,166.2,907.84,171.78Z" style="fill:#001429"/><path d="M889.59,178.32c-1.74,9.61,31.18,25.5,15.28,13.71C899.48,188,896.09,179.83,889.59,178.32Z" style="fill:#001429"/><path d="M871.34,185.62c-.62,9.66,13.22,16.77,20.52,15C882.55,199.12,878.61,189.25,871.34,185.62Z" style="fill:#001429"/><path d="M863.75,187.54c3.17-13.52-7.06-26.27-8.14-39.56C854.68,160.91,857.8,176.6,863.75,187.54Z" style="fill:#001429"/><path d="M798.82,217.08c1.32-14.26-11.27-25.59-14-39.12C785.49,191.35,791.44,206.63,798.82,217.08Z" style="fill:#001429"/><path d="M855.23,191.44c6.08,10.21,16.22,24.55,27,27.5C871,212.79,867.8,194.64,855.23,191.44Z" style="fill:#001429"/><path d="M781.52,226c5.46-9.91,1.49-22.21-.82-32.26C781.13,203.89,777.54,216.88,781.52,226Z" style="fill:#001429"/><path d="M731.19,255.3c.32-12.56-6.28-26.16-7.12-37.56C722.86,229.7,722.92,246.61,731.19,255.3Z" style="fill:#001429"/><path d="M736.9,251.83c-.24-13-9.69-23.85-11.57-36.34C724.9,227,728.56,244.08,736.9,251.83Z" style="fill:#001429"/><path d="M896.91,175.54c.61,9.76,12.48,17.94,20,20.06C908.84,190.47,905,179.43,896.91,175.54Z" style="fill:#001429"/><path d="M842.78,197c5.56,9.52,18.68,21.86,28.86,25.33C861,215.94,855,199.84,842.78,197Z" style="fill:#001429"/><path d="M815.81,209.88c2.75,6,7.58,10.33,12,15.09,4.13,4.69,8.18,11.87,14.26,13.68C832.49,230.57,828.91,212.74,815.81,209.88Z" style="fill:#001429"/><path d="M792,221.37c4.27,10.52,13,21.95,22.95,27C806,241.19,802.93,225.4,792,221.37Z" style="fill:#001429"/><path d="M809,212.19c5,10.66,17.16,17.36,27.51,21.27C827.33,227.21,819.29,215.54,809,212.19Z" style="fill:#001429"/><path d="M763.93,236.09c8.72-9.21,3.59-23.12,8.65-34C766.78,208.49,762.84,227.18,763.93,236.09Z" style="fill:#001429"/><path d="M811.78,210.51c3.81-10.9-4.72-21.31-5.44-32C805,188.26,806.57,202.55,811.78,210.51Z" style="fill:#001429"/><path d="M830.65,203.3c12.4,4.39,23.52,18.23,36.21,18.38C854,218.91,843.71,197.23,830.65,203.3Z" style="fill:#001429"/><path d="M835.72,200.51c8.36-10.83-6-20.76-8-30.94C827.49,179.83,834.5,190.54,835.72,200.51Z" style="fill:#001429"/><path d="M826.83,202.89c-.46-13.22-9.55-10.49-14.2-30.13C811.49,183,818,196.78,826.83,202.89Z" style="fill:#001429"/><path d="M706.49,271.41c2.44,11.44,9.58,23.09,19.43,27.65-3.14-4.89-8.69-8.5-10.32-14.2C714.79,279.83,711.5,272.26,706.49,271.41Z" style="fill:#001429"/><path d="M802.16,216c3.51,11.22,11.56,24.64,22.66,28.91C814.22,238.3,813,221,802.16,216Z" style="fill:#001429"/><path d="M858.92,188.92C856.44,176,844.31,167.44,841,155,841.86,166.87,849.39,182.56,858.92,188.92Z" style="fill:#001429"/><path d="M826.19,204c-1.57,7.54,3.21,16.91,9.28,20.83C830.6,218.86,833.2,207.74,826.19,204Z" style="fill:#001429"/><path d="M818,207.74c3.64-10.94-5.06-21.18-6-31.81C810.87,185.66,812.7,199.89,818,207.74Z" style="fill:#001429"/><path d="M793.17,220.31c4.39-11-4.32-21.9-4.37-32.93C786.81,197.49,788.37,211.65,793.17,220.31Z" style="fill:#001429"/><path d="M797.45,218.42c.45,8.59,6.49,16.85,11.88,22.83C805.6,234.09,805.6,221.68,797.45,218.42Z" style="fill:#001429"/><path d="M787.8,223.74c9,8.76,21.84,20.12,32.93,23.17C809.26,241.07,800.9,223.84,787.8,223.74Z" style="fill:#001429"/><path d="M773.89,230.91c7.54,6.31,14.86,16.91,23.26,19.71C789.1,244.92,785.37,228.44,773.89,230.91Z" style="fill:#001429"/><path d="M769.9,233.5c4.17,7.62,10.23,18.26,17.09,21.89C780.89,249,780.07,233.8,769.9,233.5Z" style="fill:#001429"/><path d="M741.78,248.52c5.16-10.06.84-22.24-1.76-32.21C740.74,226.47,737.53,239.55,741.78,248.52Z" style="fill:#001429"/><path d="M749.87,243.61c2.63-11.89-6.41-25.94-13.06-33.75C742.58,220.37,743.37,234.34,749.87,243.61Z" style="fill:#001429"/><path d="M691.08,280.91c9.58,5.48,23.2,11.91,33.34,10.6C712.91,290.29,702.25,276.92,691.08,280.91Z" style="fill:#001429"/><path d="M754.52,240.73c2.54-9.32,9.5-20.77,6.3-29.52C761.48,221.31,747.09,232.1,754.52,240.73Z" style="fill:#001429"/><path d="M752.05,244c-.71,7.9,6.13,13.58,9.4,20.15C762.59,262,756.44,242.88,752.05,244Z" style="fill:#001429"/><path d="M722.44,260.88c7.11-12.23-.65-26.42,1.66-39.34C719.92,231.49,720.11,249.77,722.44,260.88Z" style="fill:#001429"/><path d="M804.45,215c7.45,6.43,18.9,6.73,28,7.21C823.76,219.86,813.25,212.16,804.45,215Z" style="fill:#001429"/><path d="M821.47,206.76c4.59,7.58,22.34,22.21,30.06,22.55C840.37,224.13,833.71,208.43,821.47,206.76Z" style="fill:#001429"/><path d="M765.44,236.13c3.16,9.09,13.84,16.11,22.82,17.38C779.36,250,774.59,237.85,765.44,236.13Z" style="fill:#001429"/><path d="M779.74,227.62c-.73,5.7,3.51,9.09,5.84,13.68C791.59,254.68,786.44,226.14,779.74,227.62Z" style="fill:#001429"/><path d="M759.73,238.34c.8,10.74,14.91,18.48,23.42,19.13C773.36,253.69,768.05,242.91,759.73,238.34Z" style="fill:#001429"/><path d="M783.84,225.42c3.64,12.25,18.13,22.64,29,25.37C801.1,245.08,794.46,231,783.84,225.42Z" style="fill:#001429"/><path d="M850.26,193.81c7.16,10.13,20.38,22.59,31.41,24.95C869.72,213.24,863.11,196.32,850.26,193.81Z" style="fill:#001429"/><path d="M836.41,200c7.21,5.28,18.23,14.9,26.55,12.6C853,211.88,846.64,196.14,836.41,200Z" style="fill:#001429"/><path d="M685.38,286.71c9.27,6.34,26,11.83,36.88,10.71C709.89,296.16,697.63,284.12,685.38,286.71Z" style="fill:#001429"/><path d="M677.08,290.64c7.23,5.24,18.31,14.81,26.61,12.48C693.74,302.41,687.29,286.7,677.08,290.64Z" style="fill:#001429"/><path d="M756.61,241.29c5.8,9.37,19.23,21.37,29.5,24.58C775.29,259.76,768.87,243.82,756.61,241.29Z" style="fill:#001429"/><path d="M737.6,252.61c12.51,4.08,24,17.62,36.68,17.45C761.34,267.62,750.5,246.21,737.6,252.61Z" style="fill:#001429"/><path d="M745.86,247.24c7.34,5.1,18.61,14.43,26.86,11.92C762.76,258.66,756,243.1,745.86,247.24Z" style="fill:#001429"/><path d="M866,187.28c4,12.48,15.5,21.76,26.4,28.3C883.67,208.44,876.32,192.78,866,187.28Z" style="fill:#001429"/><path d="M665,298c11.42,5.29,27.24,11.81,38.72,11.05C690.94,307.26,677.38,293.73,665,298Z" style="fill:#001429"/><path d="M725.75,259.73c10.33,7.2,24.79,16.35,36.23,17.58C749.72,273.39,738.69,257.73,725.75,259.73Z" style="fill:#001429"/><path d="M721.13,262.36c8.34,8.46,21.59,20,32.8,20.29C741.52,279.35,734.11,262.47,721.13,262.36Z" style="fill:#001429"/><path d="M709,269.47c9.36,8.14,25.16,17.1,36.44,16.78C732.5,283.72,722.06,268.86,709,269.47Z" style="fill:#001429"/><path d="M733.5,255.26c7,11.08,20.45,17.19,32.65,20.8C755.92,271.32,744.89,258,733.5,255.26Z" style="fill:#001429"/><path d="M875.83,183.08c3.64,12.25,18.13,22.65,29,25.37C893.09,202.75,886.45,188.69,875.83,183.08Z" style="fill:#001429"/><path d="M903,173.64c6.38,7.81,18.69,11.72,28.2,11.33C921.39,183.24,912.76,172.63,903,173.64Z" style="fill:#001429"/><path d="M907.54,172.26c5.89,5.37,16.14,3.55,22.54.71C922.78,173.82,913.9,168.32,907.54,172.26Z" style="fill:#001429"/><path d="M897.53,174c5.52-6.24,3.87-14.88,7.68-22C900.57,155.45,893.41,167.79,897.53,174Z" style="fill:#001429"/><path d="M887.22,178.17c3.87-9-.39-18.53,2.49-27.73C885.26,156.09,881.64,171.75,887.22,178.17Z" style="fill:#001429"/><path d="M789.13,222.56c2.91-11.81-.24-24.36,2.09-36.11C787,196.72,782.68,213.1,789.13,222.56Z" style="fill:#001429"/><path d="M878.35,181.44c5.71-9.76,2-22.17,0-32.26C878.52,159.36,874.6,172.25,878.35,181.44Z" style="fill:#001429"/><path d="M670.91,294.66c3.6-11,.28-24.92,1.12-35.23C669.08,270.08,665.27,285.16,670.91,294.66Z" style="fill:#001429"/><path d="M676,289.52c5.84-9.69,2.36-22.14.45-32.26C676.52,267.44,672.42,280.28,676,289.52Z" style="fill:#001429"/><path d="M702,273.09c2.84-11.24-1.43-24.88-1.29-35.22C698.54,248.69,695.76,264,702,273.09Z" style="fill:#001429"/><path d="M708.25,269.62c5.16-10.06.84-22.24-1.76-32.21C707.21,247.57,704,260.65,708.25,269.62Z" style="fill:#001429"/><path d="M841.73,197.49c4.57-12.31-4.4-24.7-4.2-37.06C835.33,172,837,187.31,841.73,197.49Z" style="fill:#001429"/><path d="M822,205.55c.32-11.72-10.9-19.39-14.85-29.54C808.87,186.05,814.42,199.14,822,205.55Z" style="fill:#001429"/><path d="M831.9,201.42c1.47-10.19-8.74-16.79-9.15-26.41C820.75,183.43,825.33,196.45,831.9,201.42Z" style="fill:#001429"/><path d="M719.89,261.74c2.66-11.53-3.57-22.87-2.07-34.28C714.29,237.38,713.46,253.39,719.89,261.74Z" style="fill:#001429"/><path d="M802.57,214.83c5.17-10.31,1.57-22.48,5.7-32.92C802.52,190.37,798.17,205.57,802.57,214.83Z" style="fill:#001429"/><path d="M848.94,193.57c2.46-9.76-1.94-19.15-.27-29C845.07,171.24,842.27,187.4,848.94,193.57Z" style="fill:#001429"/><path d="M697.88,276.15c2.65-13.75-8.73-25.3-10-38.88C686.69,248.81,691.66,266,697.88,276.15Z" style="fill:#001429"/><path d="M693.89,279c-3.17-12.8-15.75-20.65-19.77-32.87C675.66,257.92,684,273.17,693.89,279Z" style="fill:#001429"/><path d="M684,285.28c3-9.61-.92-19.22,1.28-29C681.3,262.78,677.63,278.77,684,285.28Z" style="fill:#001429"/><path d="M785.79,223.43c-.07-13-10.31-23.46-14.91-34.9C773.46,200.11,777.59,215.29,785.79,223.43Z" style="fill:#001429"/><path d="M717.76,264.11c2.51,8.34,10.66,19.72,18.59,21.07C727.94,280.5,727.43,266.13,717.76,264.11Z" style="fill:#001429"/><path d="M713.83,266.23c2.63-11.89-6.41-25.94-13.07-33.76C706.53,243,707.33,257,713.83,266.23Z" style="fill:#001429"/><path d="M773.68,230c4.1-11.86-3.86-24.17-3.14-36.18C767.83,205.07,768.52,220.06,773.68,230Z" style="fill:#001429"/><path d="M699,276.08c6.92,9.47,18.3,19.64,28.74,22.33C717,293.08,710.71,277.18,699,276.08Z" style="fill:#001429"/><path d="M759,238.15c4-8,.07-18-3.2-25.29C757.18,220.83,753.73,231.79,759,238.15Z" style="fill:#001429"/><path d="M879.71,182.26c6.06,6,16.86,5.34,24.27,3.44C896.06,185.56,887,179,879.71,182.26Z" style="fill:#001429"/><path d="M639.82,318.91C702.2,263.26,890.57,176.77,912,170.07,892.53,165.08,682.9,263.45,639.82,318.91Z" style="fill:#001429"/></svg>