<svg id="b732bdf7-baff-4e49-b789-ae69443a76a3" data-name="Mark" xmlns="http://www.w3.org/2000/svg" viewBox="0 0 1920 1080"><path d="M98,704.16c1.87-43.54,12.14-820.73,12.14-820.73h-94S-3.21,654.27-17.19,713.74s-61.23,77-61.23,77l200.69-3.21S96.14,747.71,98,704.16Z" style="fill:#001429"/><path d="M128.07,720.63c-5.27-58.58,1.34-837.2,1.34-837.2H110.14S99.87,660.62,98,704.16s24.27,83.37,24.27,83.37l52.39-1.17S132.06,765.08,128.07,720.63Z" style="fill:#003956"/><path d="M148,119.15c-17.15,9.59-31,17.29-51.76,28.15L105,163.38s20.32-25,38.89-35.83C163,116.48,165.23,109.52,148,119.15Z" style="fill:#001429"/><path d="M1805.92,606.05c7-178.27,0-805.62,0-805.63h-28.1s-1.76,706.67-1.76,786.87-74.34,228.87-213.66,257l82.67,5.41h0S1798.89,784.32,1805.92,606.05Z" style="fill:#003956"/><path d="M1828.55,606.05c0-42.9.78-805.63.78-805.63h-23.41s7,627.36,0,805.63-160.85,243.62-160.85,243.62h0l45.77,3h0C1815.38,770.74,1828.55,649,1828.55,606.05Z" style="fill:#081028"/><path d="M1829.33-199.58s-.78,762.73-.78,805.63-13.17,164.69-137.71,246.62l229.2,15V-199.58Z" style="fill:#001429"/><path d="M1338.1,705.39C1332.24,663,1310.66-189,1310.66-189h-51s19.1,777.8,16.17,856.24-80.67,106.85-80.67,106.85l41.56-2.15c5.56-2.68,16.29-9.76,25.47-16.07a10.19,10.19,0,0,1,16,8.56l-.08,5.37,101.35-5C1367.54,757.18,1342.53,737.5,1338.1,705.39Z" style="fill:#061d3c"/><path d="M1364.71,708.23C1352.42,679.25,1330-189,1330-189h-19.32S1332.24,663,1338.1,705.39c4.43,32.11,29.44,51.79,41.35,59.46l54.75-2.26S1377,737.2,1364.71,708.23Z" style="fill:#0a5877"/><path d="M707,677.48c-4.39-5.27-11.42-3.81-11.71,7.61S678.94,748.31,674,732.21s-45.56-957.9-45.56-957.9H567.26s26.51,814.49,26.51,895.27-70.25,111.8-70.25,111.8l194.67,15.5,1.89-6.56a37.9,37.9,0,0,1,57.83-20.73l52.86,36.25,47.47,3.77h0C787.5,760,711.43,682.75,707,677.48Z" style="fill:#001429"/><path d="M680.6,596c-5.28-112.47-32.49-821.71-32.49-821.71H628.4S669,716.11,674,732.21,695,696.5,695.33,685.09s7.32-12.88,11.71-7.61S787.5,760,878.24,809.61h0l15.45,1.23S685.47,700,680.6,596Z" style="fill:#0a5877"/></svg>