<svg id="a40805b6-4b76-4ea9-9c66-62ee0b69a2ed" data-name="Mark" xmlns="http://www.w3.org/2000/svg" viewBox="0 0 1920 1080"><path d="M1567.28,53.92c-6.37,11.93-15.74,27.76-26.09,34.52C1551,78.7,1553.91,58.32,1567.28,53.92Z" style="fill:#001429"/><path d="M1555.74,50.86C1549.54,40,1550,24.69,1546.86,14,1552.29,24.59,1559.6,39.63,1555.74,50.86Z" style="fill:#001429"/><path d="M1512.68,46c-7-3.21-9.89-10.7-15.32-15.74C1502.11,31.35,1515.47,39.26,1512.68,46Z" style="fill:#001429"/><path d="M1533.35,48.63c4.06,9.68-26.76,34-12.83,17.95C1525.24,61.12,1526.88,51.73,1533.35,48.63Z" style="fill:#001429"/><path d="M1554.2,52c2.9,10-10,20.67-18,20.56C1545.58,68.8,1547.41,57.53,1554.2,52Z" style="fill:#001429"/><path d="M1562.61,52.26c-6.48-13.44,1.26-29.2-.7-43.39C1565.91,22.22,1566.3,39.4,1562.61,52.26Z" style="fill:#001429"/><path d="M1637.62,68.1c-4.71-14.65,5.85-29.49,5.55-44.32C1645.6,38,1642.92,55.41,1637.62,68.1Z" style="fill:#001429"/><path d="M1572.46,54.37c-4,12.13-11.29,29.54-21.94,35.16C1560.91,80.45,1560,60.66,1572.46,54.37Z" style="fill:#001429"/><path d="M1657.84,73.38c-8-9.12-6.75-22.95-6.67-34C1653.1,50.13,1659.89,62.91,1657.84,73.38Z" style="fill:#001429"/><path d="M1717.49,92.4c-3.27-13.1.48-28.91-1.31-41.07C1720.25,63.6,1724.13,81.35,1717.49,92.4Z" style="fill:#001429"/><path d="M1710.69,90.09c-2.79-13.72,4.59-27.28,3.66-40.82C1717.47,61.23,1717.63,80,1710.69,90.09Z" style="fill:#001429"/><path d="M1525,47.43c1.64,10.38-8.9,21.72-16.34,25.71C1516,65.87,1517.42,53.4,1525,47.43Z" style="fill:#001429"/><path d="M1586.81,57.29c-3.61,11.29-14.49,27.3-24.36,33.31C1572.14,81.41,1574.68,63.13,1586.81,57.29Z" style="fill:#001429"/><path d="M1618.12,64.5c-1.49,7-5.54,12.62-9,18.63-3.24,5.88-5.82,14.37-11.77,17.68C1605.44,90.11,1605,70.57,1618.12,64.5Z" style="fill:#001429"/><path d="M1645.81,71c-2,12-8.54,26.06-17.76,33.73C1635.69,95.07,1635.25,77.78,1645.81,71Z" style="fill:#001429"/><path d="M1625.83,65.34c-2.76,12.34-13.95,22.21-23.89,28.73C1610.07,85.38,1615.79,71.26,1625.83,65.34Z" style="fill:#001429"/><path d="M1678.66,79.89c-11.3-7.63-9.16-23.41-17-33.67C1669.22,51.6,1677.72,70.29,1678.66,79.89Z" style="fill:#001429"/><path d="M1622.49,64.23c-6.55-10.55,0-23.45-1.76-34.82C1624.43,39.3,1626.1,54.66,1622.49,64.23Z" style="fill:#001429"/><path d="M1601,61.07c-12,7.51-20.42,24.61-33.7,27.73C1580.17,82.9,1585.89,57.75,1601,61.07Z" style="fill:#001429"/><path d="M1595,59.33c-11.3-9.41,1.47-23.19,1.15-34.32C1598.84,35.71,1594,48.58,1595,59.33Z" style="fill:#001429"/><path d="M1604.92,59.75c-2.6-14,7.57-13.24,7.86-34.93C1616.37,35.31,1612.79,51.27,1604.92,59.75Z" style="fill:#001429"/><path d="M1747.16,103.53c.12,12.57-4.65,26.45-13.92,33.55,2.15-5.87,7.13-11,7.5-17.32C1740.42,114.3,1742.11,105.59,1747.16,103.53Z" style="fill:#001429"/><path d="M1633.85,67.69c-1.07,12.59-6.37,28.54-17,35.62C1626.41,94,1623.62,75.54,1633.85,67.69Z" style="fill:#001429"/><path d="M1568,52.58c-.43-14.15,10.3-25.93,10.92-39.74C1580.74,25.47,1576.51,43.68,1568,52.58Z" style="fill:#001429"/><path d="M1605.85,60.75c3.41,7.54.58,18.49-4.87,24C1604.69,77.38,1599.37,66.32,1605.85,60.75Z" style="fill:#001429"/><path d="M1615.28,62.79c-6.37-10.63.37-23.41-1.17-34.77C1617.64,37.94,1619,53.31,1615.28,62.79Z" style="fill:#001429"/><path d="M1644.29,70.16c-7.17-10.55-.57-24-3.09-35.56C1645.64,44.74,1647.31,60,1644.29,70.16Z" style="fill:#001429"/><path d="M1639.37,69.18c1.53,9.12-2.88,19.19-7.13,26.72C1634.48,87.52,1631.58,74.5,1639.37,69.18Z" style="fill:#001429"/><path d="M1650.73,72.5c-7.44,11.3-18.21,26.21-29.13,32C1632.27,95.7,1637,75.67,1650.73,72.5Z" style="fill:#001429"/><path d="M1667,76.79c-6.43,8.37-11.64,21.2-19.8,26.1C1654.32,95,1654.38,76.87,1667,76.79Z" style="fill:#001429"/><path d="M1671.79,78.57c-2.59,9-6.47,21.54-12.81,27C1663.88,97.42,1661.19,81.26,1671.79,78.57Z" style="fill:#001429"/><path d="M1704.8,87.76c-7.77-9.35-6.08-23.14-5.68-34.21C1700.74,64.38,1707.16,77.36,1704.8,87.76Z" style="fill:#001429"/><path d="M1695.16,84.5c-5.54-11.86.67-28.71,5.82-38.46C1697.39,58.41,1699.81,73.25,1695.16,84.5Z" style="fill:#001429"/><path d="M1765.55,109.9c-8.77,8-21.56,17.91-32.5,18.9C1744.83,124.83,1752.9,108.32,1765.55,109.9Z" style="fill:#001429"/><path d="M1689.61,82.56c-4.84-9.19-14.81-19.57-13.5-29.5C1677.78,63.82,1695.39,71.78,1689.61,82.56Z" style="fill:#001429"/><path d="M1693,85.46c2.6,8.12-3.26,15.68-5.15,23.33C1686.12,106.78,1688.1,85.26,1693,85.46Z" style="fill:#001429"/><path d="M1728,96.21C1717.66,85,1722.48,68.33,1717,55.33,1723.75,64.79,1727.82,84,1728,96.21Z" style="fill:#001429"/><path d="M1631.24,67.27c-6.32,8.49-18.26,11.47-27.72,14.11C1612.11,76.84,1621.33,66.3,1631.24,67.27Z" style="fill:#001429"/><path d="M1611.45,62.55c-3,9-18.25,28.53-26.27,30.68C1595.68,85.19,1599,67.17,1611.45,62.55Z" style="fill:#001429"/><path d="M1677.08,80.29c-1.19,10.27-10.76,20.12-19.88,23.55C1665.73,98.12,1667.89,84.23,1677.08,80.29Z" style="fill:#001429"/><path d="M1660.09,74.69c2.1,5.82-1.56,10.37-2.93,15.72C1654,105.85,1652.72,74.7,1660.09,74.69Z" style="fill:#001429"/><path d="M1683.59,81.27c1.67,11.45-11.33,22.87-20.11,25.53C1672.88,100.56,1675.93,88,1683.59,81.27Z" style="fill:#001429"/><path d="M1655.28,73.35c-1,13.7-13.74,28-24.48,33.37C1641.76,98,1645.45,81.7,1655.28,73.35Z" style="fill:#001429"/><path d="M1578.22,55.69c-5.14,12.3-16.1,28.46-27.12,33.52C1562.35,80.62,1565.33,61.33,1578.22,55.69Z" style="fill:#001429"/><path d="M1594.2,59c-6.32,7.23-15.64,19.89-24.9,19.42C1579.55,75.29,1582.57,57.29,1594.2,59Z" style="fill:#001429"/><path d="M1772.88,114.65c-8.24,8.81-24.48,18.47-36.18,19.85C1749.37,130.28,1759.42,114.79,1772.88,114.65Z" style="fill:#001429"/><path d="M1782.5,116.83c-6.36,7.2-15.74,19.82-25,19.3C1767.77,133.07,1770.87,115.09,1782.5,116.83Z" style="fill:#001429"/><path d="M1687.55,83.63c-3.9,11.19-15.18,26.92-25.21,32.68C1672.27,107.37,1675.28,89.15,1687.55,83.63Z" style="fill:#001429"/><path d="M1710.14,91.07c-12.18,7.2-21.05,24.09-34.41,26.87C1688.74,112.36,1695.11,87.37,1710.14,91.07Z" style="fill:#001429"/><path d="M1700.22,87.37c-6.51,7.06-16.16,19.48-25.4,18.78C1685.15,103.3,1688.63,85.38,1700.22,87.37Z" style="fill:#001429"/><path d="M1560.21,52.51c-1.32,14-11.18,26.45-21.09,35.86C1546.59,78.84,1550.64,60.7,1560.21,52.51Z" style="fill:#001429"/><path d="M1796.91,121.67c-10.74,8.23-25.82,18.76-38,20.64C1771.84,137.5,1782.92,120.15,1796.91,121.67Z" style="fill:#001429"/><path d="M1724.23,95.78c-9.15,10-22.18,22.93-33.9,26.89C1702.28,115.7,1710.18,96.7,1724.23,95.78Z" style="fill:#001429"/><path d="M1729.68,97.45c-6.76,10.83-18,26-29.66,28.94C1712.27,120,1716.1,100.6,1729.68,97.45Z" style="fill:#001429"/><path d="M1744.1,102.07c-7.93,10.73-22.4,23.82-34.31,26.12C1722.75,122.52,1730.23,104.49,1744.1,102.07Z" style="fill:#001429"/><path d="M1715.05,92.9c-4.78,13.26-17.44,22.81-29.38,29.44C1695.28,115,1703.75,98.43,1715.05,92.9Z" style="fill:#001429"/><path d="M1548.9,50.41c-1,13.7-13.74,28-24.48,33.38C1535.38,75.07,1539.07,58.77,1548.9,50.41Z" style="fill:#001429"/><path d="M1518.22,46.84c-4.87,9.68-16.87,16.66-26.94,18.47C1501.14,61.22,1507.71,48.06,1518.22,46.84Z" style="fill:#001429"/><path d="M1513.1,46.46c-4.92,7-16.1,7.49-23.47,6C1497.48,51.66,1505.51,43.82,1513.1,46.46Z" style="fill:#001429"/><path d="M1524,45.91c-7.25-5.26-7.54-14.71-13.19-21.28C1516.48,27.2,1526.88,38.47,1524,45.91Z" style="fill:#001429"/><path d="M1535.8,47.92c-6.16-8.52-3.92-19.54-9.09-28.51C1532.7,24.3,1540.16,39.88,1535.8,47.92Z" style="fill:#001429"/><path d="M1649.07,71.58c-5.81-11.71-5.45-25.61-10.63-37.4C1645.29,44,1653.62,60.15,1649.07,71.58Z" style="fill:#001429"/><path d="M1545.86,49.28c-8.26-8.91-7.32-22.78-7.53-33.85C1540.54,26.16,1547.65,38.76,1545.86,49.28Z" style="fill:#001429"/><path d="M1789.92,119.61c-6.35-10.72-6.11-26.08-9.4-36.69C1786.09,93.4,1793.62,108.33,1789.92,119.61Z" style="fill:#001429"/><path d="M1783.33,115.41c-8.39-8.79-7.65-22.66-8-33.73C1777.68,92.37,1785,104.88,1783.33,115.41Z" style="fill:#001429"/><path d="M1752.22,104.25c-5.6-11.13-4.31-26.43-6.86-37.25C1750.2,77.84,1756.68,93.25,1752.22,104.25Z" style="fill:#001429"/><path d="M1744.9,102.06c-7.76-9.34-6.07-23.13-5.67-34.2C1740.84,78.69,1747.26,91.66,1744.9,102.06Z" style="fill:#001429"/><path d="M1588,57.57c-7.67-11.85-1.15-26.95-4.25-39.86C1588.79,29.3,1590.58,45.79,1588,57.57Z" style="fill:#001429"/><path d="M1610.67,61.4c-3.08-12.22,6.9-22.89,8.67-34.46C1619.83,37.89,1617.06,52.91,1610.67,61.4Z" style="fill:#001429"/><path d="M1599.26,59.39c-3.92-10.35,5.25-19.65,3.43-29.84C1606.76,37.91,1605,52.64,1599.26,59.39Z" style="fill:#001429"/><path d="M1730.85,96.51c-5.48-11.47-1.6-24.83-5.84-36.44C1731,69.65,1735.65,86.25,1730.85,96.51Z" style="fill:#001429"/><path d="M1633.15,66.61c-7.82-9.61-6.89-23.22-13.65-33.2C1627.5,40.94,1635.62,55.87,1633.15,66.61Z" style="fill:#001429"/><path d="M1579.55,55.13c-4.86-9.66-2.44-20.54-6.49-30.5C1578.4,30.8,1585.11,47.1,1579.55,55.13Z" style="fill:#001429"/><path d="M1757.3,106.49c-6-13.81,3.25-28.58,1.42-43.12C1762.65,75.2,1761.45,94.36,1757.3,106.49Z" style="fill:#001429"/><path d="M1762.15,108.56c.34-14.16,11.7-25.34,13.07-39.09C1776.35,82.18,1771.13,100.13,1762.15,108.56Z" style="fill:#001429"/><path d="M1774,112.82c-5.37-9.39-3.53-20.38-8.12-30.1C1771.58,88.59,1779.15,104.51,1774,112.82Z" style="fill:#001429"/><path d="M1652.77,71.71c-3-13.68,5.34-27,7.49-40.09C1660.26,44.37,1659.48,61.26,1652.77,71.71Z" style="fill:#001429"/><path d="M1733.63,98.51c-.68,9.32-6.57,23.17-14.58,26.44C1726.78,118.07,1724,102.88,1733.63,98.51Z" style="fill:#001429"/><path d="M1738.26,99.81c-5.54-11.86.66-28.71,5.82-38.46C1740.48,73.72,1742.91,88.56,1738.26,99.81Z" style="fill:#001429"/><path d="M1667,75.79c-7.07-11.48-1.59-26.26-5.16-38.69C1667.32,48.26,1670.1,64.14,1667,75.79Z" style="fill:#001429"/><path d="M1756.14,106.67c-5.05,11.55-14.62,24.88-24.94,30.14C1741.24,128.7,1744.08,110.57,1756.14,106.67Z" style="fill:#001429"/><path d="M1684.33,80.89c-6-7.41-4.28-18.86-2.55-27.27C1682.17,62.31,1688.36,73,1684.33,80.89Z" style="fill:#001429"/><path d="M1544.63,50.46c-5,7.73-16.44,9.53-24.65,9.27C1528.25,57.73,1536.19,48.77,1544.63,50.46Z" style="fill:#001429"/><path d="M1828.19,137.79C1749.76,94,1532,47.23,1507.9,45.21,1527.18,35.43,1770.05,89.67,1828.19,137.79Z" style="fill:#001429"/></svg>