<svg id="b7f81799-f585-4cc9-96c3-c643df11c81a" data-name="Mark" xmlns="http://www.w3.org/2000/svg" viewBox="0 0 1920 1080"><path d="M1847.4,124.19c8.2,9.55,19.91,22,30.68,26.08C1867.19,143.41,1860.44,125.49,1847.4,124.19Z" style="fill:#061d3c"/><path d="M1857.26,119.08c3.45-11.07-.07-24.93.63-35.24C1855.09,94.53,1851.49,109.66,1857.26,119.08Z" style="fill:#061d3c"/><path d="M1895.4,106c5.69-4.32,6.82-11.72,10.73-17.4C1902,90.52,1891.49,100.41,1895.4,106Z" style="fill:#061d3c"/><path d="M1877.15,112.53c-1.73,9.61,31.18,25.49,15.28,13.71C1887,122.23,1883.65,114,1877.15,112.53Z" style="fill:#061d3c"/><path d="M1858.9,119.83c-.62,9.66,13.22,16.77,20.52,15C1870.12,133.33,1866.18,123.46,1858.9,119.83Z" style="fill:#061d3c"/><path d="M1851.31,121.74c3.17-13.52-7-26.27-8.13-39.55C1842.24,95.12,1845.36,110.81,1851.31,121.74Z" style="fill:#061d3c"/><path d="M1786.38,151.29c1.32-14.26-11.27-25.6-14-39.13C1773.05,125.56,1779,140.84,1786.38,151.29Z" style="fill:#061d3c"/><path d="M1842.79,125.65c6.09,10.21,16.23,24.55,27,27.5C1858.56,147,1855.37,128.85,1842.79,125.65Z" style="fill:#061d3c"/><path d="M1769.09,160.18c5.45-9.91,1.49-22.21-.82-32.26C1768.69,138.1,1765.11,151.09,1769.09,160.18Z" style="fill:#061d3c"/><path d="M1718.75,189.51c.32-12.56-6.28-26.16-7.11-37.56C1710.42,163.91,1710.49,180.82,1718.75,189.51Z" style="fill:#061d3c"/><path d="M1724.46,186c-.23-13-9.68-23.85-11.57-36.34C1712.47,161.2,1716.12,178.29,1724.46,186Z" style="fill:#061d3c"/><path d="M1884.47,109.75c.61,9.76,12.48,17.94,20,20.06C1896.41,124.68,1892.58,113.64,1884.47,109.75Z" style="fill:#061d3c"/><path d="M1830.35,131.21c5.56,9.52,18.67,21.86,28.86,25.33C1848.54,150.15,1842.54,134.05,1830.35,131.21Z" style="fill:#061d3c"/><path d="M1803.37,144.09c2.76,6,7.58,10.33,12,15.09,4.13,4.69,8.18,11.87,14.26,13.68C1820.06,164.78,1816.47,147,1803.37,144.09Z" style="fill:#061d3c"/><path d="M1779.53,155.58c4.27,10.52,13,21.95,23,27C1793.59,175.4,1790.49,159.61,1779.53,155.58Z" style="fill:#061d3c"/><path d="M1796.53,146.4c5,10.66,17.16,17.35,27.51,21.27C1814.9,161.42,1806.85,149.75,1796.53,146.4Z" style="fill:#061d3c"/><path d="M1751.49,170.29c8.72-9.21,3.59-23.11,8.65-34C1754.34,142.7,1750.4,161.39,1751.49,170.29Z" style="fill:#061d3c"/><path d="M1799.34,144.72c3.82-10.9-4.71-21.31-5.44-32C1792.54,122.47,1794.13,136.76,1799.34,144.72Z" style="fill:#061d3c"/><path d="M1818.21,137.51c12.4,4.39,23.53,18.22,36.22,18.37C1841.55,153.12,1831.27,131.44,1818.21,137.51Z" style="fill:#061d3c"/><path d="M1823.28,134.72c8.36-10.83-6-20.76-8-30.94C1815.05,114,1822.07,124.75,1823.28,134.72Z" style="fill:#061d3c"/><path d="M1814.39,137.1c-.46-13.23-9.54-10.49-14.2-30.13C1799.05,117.22,1805.54,131,1814.39,137.1Z" style="fill:#061d3c"/><path d="M1694.06,205.62c2.43,11.44,9.57,23.09,19.42,27.65-3.14-4.89-8.69-8.5-10.31-14.21C1702.35,214,1699.06,206.47,1694.06,205.62Z" style="fill:#061d3c"/><path d="M1789.73,150.16c3.51,11.22,11.55,24.64,22.65,28.91C1801.79,172.51,1800.6,155.22,1789.73,150.16Z" style="fill:#061d3c"/><path d="M1846.48,123.13c-2.47-12.95-14.6-21.48-18-33.89C1829.42,101.08,1837,116.76,1846.48,123.13Z" style="fill:#061d3c"/><path d="M1813.75,138.2c-1.57,7.54,3.21,16.91,9.28,20.83C1818.17,153.06,1820.76,142,1813.75,138.2Z" style="fill:#061d3c"/><path d="M1805.6,142c3.64-10.94-5.07-21.18-6-31.82C1798.43,119.86,1800.26,134.1,1805.6,142Z" style="fill:#061d3c"/><path d="M1780.74,154.51c4.38-11-4.33-21.9-4.38-32.92C1774.38,131.7,1775.94,145.86,1780.74,154.51Z" style="fill:#061d3c"/><path d="M1785,152.63c.44,8.59,6.48,16.85,11.87,22.83C1793.16,168.3,1793.16,155.89,1785,152.63Z" style="fill:#061d3c"/><path d="M1775.36,157.94c9,8.76,21.84,20.13,32.93,23.18C1796.83,175.28,1788.46,158.05,1775.36,157.94Z" style="fill:#061d3c"/><path d="M1761.46,165.12c7.53,6.31,14.85,16.91,23.25,19.71C1776.66,179.13,1772.93,162.65,1761.46,165.12Z" style="fill:#061d3c"/><path d="M1757.46,167.71c4.17,7.62,10.23,18.26,17.09,21.89C1768.46,183.24,1767.63,168,1757.46,167.71Z" style="fill:#061d3c"/><path d="M1729.34,182.73c5.16-10.06.84-22.24-1.76-32.21C1728.3,160.68,1725.1,173.76,1729.34,182.73Z" style="fill:#061d3c"/><path d="M1737.43,177.82c2.64-11.89-6.4-25.94-13.06-33.75C1730.14,154.58,1730.94,168.55,1737.43,177.82Z" style="fill:#061d3c"/><path d="M1678.64,215.12c9.58,5.48,23.2,11.91,33.34,10.6C1700.48,224.5,1689.81,211.13,1678.64,215.12Z" style="fill:#061d3c"/><path d="M1742.08,174.94c2.55-9.32,9.5-20.77,6.3-29.53C1749,155.52,1734.66,166.31,1742.08,174.94Z" style="fill:#061d3c"/><path d="M1739.62,178.25c-.72,7.9,6.13,13.58,9.4,20.15C1750.16,196.23,1744,177.09,1739.62,178.25Z" style="fill:#061d3c"/><path d="M1710,195.09c7.1-12.23-.66-26.43,1.65-39.34C1707.48,165.7,1707.67,184,1710,195.09Z" style="fill:#061d3c"/><path d="M1792,149.25c7.46,6.43,18.9,6.73,28,7.21C1811.32,154.07,1800.81,146.37,1792,149.25Z" style="fill:#061d3c"/><path d="M1809,141c4.59,7.58,22.34,22.21,30.06,22.55C1827.93,158.33,1821.27,142.64,1809,141Z" style="fill:#061d3c"/><path d="M1753,170.34c3.16,9.09,13.84,16.11,22.82,17.38C1766.92,184.24,1762.15,172.06,1753,170.34Z" style="fill:#061d3c"/><path d="M1767.31,161.82c-.73,5.71,3.51,9.1,5.84,13.69C1779.15,188.89,1774,160.35,1767.31,161.82Z" style="fill:#061d3c"/><path d="M1747.29,172.55c.8,10.74,14.92,18.48,23.43,19.12C1760.92,187.9,1755.61,177.12,1747.29,172.55Z" style="fill:#061d3c"/><path d="M1771.4,159.63c3.64,12.25,18.14,22.64,29,25.37C1788.66,179.29,1782,165.23,1771.4,159.63Z" style="fill:#061d3c"/><path d="M1837.82,128c7.16,10.14,20.38,22.59,31.41,25C1857.28,147.45,1850.67,130.53,1837.82,128Z" style="fill:#061d3c"/><path d="M1824,134.24c7.21,5.28,18.24,14.9,26.55,12.6C1840.58,146.09,1834.2,130.35,1824,134.24Z" style="fill:#061d3c"/><path d="M1672.94,220.92c9.27,6.33,26,11.83,36.88,10.71C1697.45,230.36,1685.19,218.33,1672.94,220.92Z" style="fill:#061d3c"/><path d="M1664.65,224.84c7.23,5.25,18.3,14.82,26.6,12.48C1681.31,236.62,1674.85,220.91,1664.65,224.84Z" style="fill:#061d3c"/><path d="M1744.17,175.5c5.8,9.37,19.23,21.37,29.5,24.58C1762.85,194,1756.44,178,1744.17,175.5Z" style="fill:#061d3c"/><path d="M1725.16,186.82c12.52,4.08,24,17.62,36.68,17.44C1748.9,201.83,1738.07,180.42,1725.16,186.82Z" style="fill:#061d3c"/><path d="M1733.42,181.45c7.34,5.1,18.61,14.43,26.86,11.92C1750.33,192.87,1743.55,177.3,1733.42,181.45Z" style="fill:#061d3c"/><path d="M1853.54,121.49c4,12.48,15.51,21.76,26.41,28.3C1871.24,142.65,1863.89,127,1853.54,121.49Z" style="fill:#061d3c"/><path d="M1652.53,232.16c11.42,5.29,27.25,11.81,38.72,11.05C1678.5,241.46,1664.94,227.94,1652.53,232.16Z" style="fill:#061d3c"/><path d="M1713.31,193.94c10.33,7.19,24.79,16.35,36.23,17.58C1737.28,207.6,1726.26,191.94,1713.31,193.94Z" style="fill:#061d3c"/><path d="M1708.7,196.56c8.33,8.47,21.59,20,32.79,20.3C1729.08,213.56,1721.67,196.68,1708.7,196.56Z" style="fill:#061d3c"/><path d="M1696.54,203.68c9.37,8.14,25.16,17.1,36.44,16.78C1720.06,217.93,1709.62,203.07,1696.54,203.68Z" style="fill:#061d3c"/><path d="M1721.07,189.47c7,11.08,20.45,17.19,32.64,20.8C1743.49,205.53,1732.45,192.21,1721.07,189.47Z" style="fill:#061d3c"/><path d="M1863.39,117.29c3.64,12.25,18.13,22.64,29,25.37C1880.65,137,1874,122.9,1863.39,117.29Z" style="fill:#061d3c"/><path d="M1890.53,107.85c6.38,7.81,18.69,11.72,28.21,11.32C1909,117.45,1900.32,106.83,1890.53,107.85Z" style="fill:#061d3c"/><path d="M1895.11,106.47c5.88,5.37,16.13,3.54,22.53.71C1910.35,108,1901.46,102.53,1895.11,106.47Z" style="fill:#061d3c"/><path d="M1885.09,108.17c5.53-6.24,3.88-14.89,7.68-22C1888.14,89.66,1881,102,1885.09,108.17Z" style="fill:#061d3c"/><path d="M1874.78,112.38c3.87-9-.39-18.54,2.49-27.73C1872.83,90.3,1869.2,106,1874.78,112.38Z" style="fill:#061d3c"/><path d="M1776.69,156.77c2.91-11.81-.24-24.37,2.09-36.12C1774.54,130.93,1770.24,147.31,1776.69,156.77Z" style="fill:#061d3c"/><path d="M1865.92,115.65c5.7-9.77,2-22.17,0-32.27C1866.08,93.57,1862.17,106.46,1865.92,115.65Z" style="fill:#061d3c"/><path d="M1658.47,228.87c3.6-11,.28-24.92,1.12-35.23C1656.65,204.29,1652.83,219.37,1658.47,228.87Z" style="fill:#061d3c"/><path d="M1663.6,223.73c5.85-9.69,2.37-22.14.46-32.27C1664.08,201.65,1660,214.49,1663.6,223.73Z" style="fill:#061d3c"/><path d="M1689.6,207.3c2.84-11.24-1.43-24.88-1.29-35.22C1686.1,182.9,1683.33,198.21,1689.6,207.3Z" style="fill:#061d3c"/><path d="M1695.81,203.83c5.16-10.06.84-22.24-1.76-32.21C1694.77,181.78,1691.57,194.86,1695.81,203.83Z" style="fill:#061d3c"/><path d="M1829.3,131.7c4.56-12.31-4.41-24.7-4.2-37.06C1822.89,106.19,1824.6,121.52,1829.3,131.7Z" style="fill:#061d3c"/><path d="M1809.51,139.76c.33-11.72-10.9-19.39-14.85-29.54C1796.43,120.26,1802,133.35,1809.51,139.76Z" style="fill:#061d3c"/><path d="M1819.47,135.63c1.46-10.2-8.74-16.79-9.15-26.41C1808.31,117.63,1812.89,130.65,1819.47,135.63Z" style="fill:#061d3c"/><path d="M1707.45,195.94c2.66-11.52-3.57-22.87-2.06-34.27C1701.86,171.59,1701,187.59,1707.45,195.94Z" style="fill:#061d3c"/><path d="M1790.14,149c5.16-10.31,1.56-22.48,5.69-32.91C1790.08,124.58,1785.73,139.78,1790.14,149Z" style="fill:#061d3c"/><path d="M1836.51,127.77c2.45-9.75-1.94-19.15-.28-29C1832.63,105.44,1829.83,121.61,1836.51,127.77Z" style="fill:#061d3c"/><path d="M1685.45,210.36c2.64-13.75-8.74-25.3-10-38.88C1674.26,183,1679.22,200.18,1685.45,210.36Z" style="fill:#061d3c"/><path d="M1681.46,213.22c-3.18-12.8-15.75-20.65-19.77-32.87C1663.23,192.13,1671.6,207.38,1681.46,213.22Z" style="fill:#061d3c"/><path d="M1671.53,219.49c3-9.61-.91-19.23,1.28-29C1668.86,197,1665.19,213,1671.53,219.49Z" style="fill:#061d3c"/><path d="M1773.36,157.63c-.07-13-10.32-23.45-14.92-34.89C1761,134.32,1765.15,149.5,1773.36,157.63Z" style="fill:#061d3c"/><path d="M1705.33,198.32c2.5,8.34,10.65,19.72,18.58,21.07C1715.5,214.71,1715,200.34,1705.33,198.32Z" style="fill:#061d3c"/><path d="M1701.39,200.44c2.63-11.89-6.41-25.94-13.06-33.76C1694.09,177.2,1694.89,191.16,1701.39,200.44Z" style="fill:#061d3c"/><path d="M1761.24,164.22c4.11-11.86-3.86-24.17-3.13-36.18C1755.39,139.28,1756.08,154.27,1761.24,164.22Z" style="fill:#061d3c"/><path d="M1686.54,210.29c6.91,9.46,18.3,19.64,28.74,22.33C1704.52,227.28,1698.28,211.39,1686.54,210.29Z" style="fill:#061d3c"/><path d="M1746.54,172.36c4-8,.08-18-3.2-25.29C1744.75,155,1741.29,166,1746.54,172.36Z" style="fill:#061d3c"/><path d="M1867.28,116.47c6,6,16.85,5.34,24.26,3.44C1883.62,119.77,1874.6,113.23,1867.28,116.47Z" style="fill:#061d3c"/><path d="M1627.38,253.12c62.38-55.65,250.76-142.14,272.19-148.84C1880.09,99.29,1670.46,197.66,1627.38,253.12Z" style="fill:#061d3c"/></svg>