<svg id="a774971e-451b-4e4b-b20c-f3cdb0344bbb" data-name="Mark" xmlns="http://www.w3.org/2000/svg" viewBox="0 0 1920 1080"><path d="M1408.66,106c-10.29,4.13-13.3,16.16-21.39,22.76C1392.67,126.82,1405.9,111.51,1408.66,106Z" style="fill:#0a5877"/><path d="M1401.14,103.14c2.24-8.79-.19-19.13-3.79-27.08C1399.74,84.55,1397,95.64,1401.14,103.14Z" style="fill:#0a5877"/><path d="M1377.14,96.9c2.52-4.64-13.93-16.84-8.71-10.82C1371.48,89.47,1372.93,95.17,1377.14,96.9Z" style="fill:#0a5877"/><path d="M1387.58,100.29c-4.52,3-6.52,8.21-10.31,12C1364.66,123.29,1390.82,106.78,1387.58,100.29Z" style="fill:#0a5877"/><path d="M1399.3,103.76c-4.7,4.94-7.77,11-14.35,13.48C1391.31,117.12,1401.17,110.64,1399.3,103.76Z" style="fill:#0a5877"/><path d="M1405.92,104.7c2.45-9.76,5-21.67,2.66-30.83C1409.55,84.05,1401.68,95.66,1405.92,104.7Z" style="fill:#0a5877"/><path d="M1458.13,122.36c3.67-9.47,8.48-21.48,7.18-31C1464.94,101.3,1454.66,115.05,1458.13,122.36Z" style="fill:#0a5877"/><path d="M1412.19,106.86c-9.17,5.24-10.11,17.51-18.35,23.48C1400.09,128.68,1410.4,113.18,1412.19,106.86Z" style="fill:#0a5877"/><path d="M1472.1,127.76c.94-8.18-1.47-16.78-2.25-24.77C1469.21,110.66,1466.84,121.68,1472.1,127.76Z" style="fill:#0a5877"/><path d="M1513.08,146.49c4.48-8.75,4.5-20.44,2-29.59C1516.29,126.55,1511,137.44,1513.08,146.49Z" style="fill:#0a5877"/><path d="M1508.41,144.3a47,47,0,0,0,5.71-28.9C1514.08,125,1506.87,135.1,1508.41,144.3Z" style="fill:#0a5877"/><path d="M1384,99.08c-5.25,5.17-8.18,12.33-13.5,17.33C1376.27,113.11,1385.07,106.22,1384,99.08Z" style="fill:#0a5877"/><path d="M1422.2,110.15c-9,4.93-12.23,15.86-19.92,22C1406.92,131,1422.05,114.56,1422.2,110.15Z" style="fill:#0a5877"/><path d="M1443.93,117.93c-9.62,5-10.89,17.08-17.61,24.4,4.49-2.13,6.94-7.73,9.72-11.72C1438.62,126.65,1443.31,122.33,1443.93,117.93Z" style="fill:#0a5877"/><path d="M1463.12,124.94c-7.7,5.65-9,16.18-15.21,22.78C1454.21,143.57,1462,132,1463.12,124.94Z" style="fill:#0a5877"/><path d="M1449.35,119.19c-7.51,5.06-12.68,12.86-19.18,18.73C1437,134.3,1447.85,126.77,1449.35,119.19Z" style="fill:#0a5877"/><path d="M1486.38,134.06c-1.65-8.42-4-19.56-9.58-25.31C1481.66,116.31,1478.94,128.87,1486.38,134.06Z" style="fill:#0a5877"/><path d="M1447.65,118.3c2.11-7.58,3.6-18,1.2-24.8C1449.82,101.59,1443.22,111.3,1447.65,118.3Z" style="fill:#0a5877"/><path d="M1432.28,113.93c-11.37-1.79-16.38,13.87-26.4,17.3C1415.51,129.74,1423.66,118.28,1432.28,113.93Z" style="fill:#0a5877"/><path d="M1428.44,112.37c-.85-8.51,4.28-15.87,3.57-24.13C1431.23,95,1421,106.26,1428.44,112.37Z" style="fill:#0a5877"/><path d="M1435.48,113.72c6-7.62,9.68-15.13,8.25-24.34C1442.32,103.62,1433.49,105.91,1435.48,113.72Z" style="fill:#0a5877"/><path d="M1532.72,156.68c-7.23,6.15-3.42,13-12.47,23C1527.22,175.29,1532.45,164.9,1532.72,156.68Z" style="fill:#0a5877"/><path d="M1454.85,121.59c-7.39,6.44-7.3,18-14.82,24.17C1447,142.64,1454.54,128.65,1454.85,121.59Z" style="fill:#0a5877"/><path d="M1409.71,105.57c6.22-7.34,11.13-18,10.8-27.58C1419.4,87.75,1409.71,96.11,1409.71,105.57Z" style="fill:#0a5877"/><path d="M1435.42,114.37c-4.31,4.71-1.74,11.47-5.19,16.61C1434,129,1437.91,118.44,1435.42,114.37Z" style="fill:#0a5877"/><path d="M1442.63,116.67c2.23-7.53,3.9-17.88,1.6-24.73C1445.07,100,1438.31,109.61,1442.63,116.67Z" style="fill:#0a5877"/><path d="M1462.71,124.35c1.7-7.87,3.2-18.52.32-25.42C1464.53,107.2,1457.87,117.33,1462.71,124.35Z" style="fill:#0a5877"/><path d="M1458.65,123.15c-5.27,4.62-4.82,12.57-7,18.61C1454.9,136.69,1459.73,129.07,1458.65,123.15Z" style="fill:#0a5877"/><path d="M1466.69,126.29c-10.63,3.18-14.73,14.88-23.38,20.71C1448.77,145.64,1463.51,131.43,1466.69,126.29Z" style="fill:#0a5877"/><path d="M1477.89,130.73c-9.32.87-10.16,12-16.18,17.28,3-.8,6.58-5.46,8.7-8.47S1476.64,133.78,1477.89,130.73Z" style="fill:#0a5877"/><path d="M1481.09,132.45c-7.55,3-7.16,12.84-11.15,18.64C1474.85,146.36,1479.15,138.67,1481.09,132.45Z" style="fill:#0a5877"/><path d="M1504.41,142c1.18-8.15-1-16.81-1.53-24.82C1502,124.81,1499.33,135.75,1504.41,142Z" style="fill:#0a5877"/><path d="M1497.81,138.89c3.21-8.83,3.64-18.18,7-26.95C1500.7,118.34,1494.24,131,1497.81,138.89Z" style="fill:#0a5877"/><path d="M1545.49,162.64c-9.66-.48-15.67,9-24.69,11.09C1525.38,174.77,1542.22,166.38,1545.49,162.64Z" style="fill:#0a5877"/><path d="M1494,137.09c3.44-8.46-7-14-7.5-22.23C1485.1,121.76,1491.18,130.8,1494,137.09Z" style="fill:#0a5877"/><path d="M1495.54,139.28c-4.33,3.73-5.31,11.67-5.36,16.34C1491.84,150.55,1497.4,144.45,1495.54,139.28Z" style="fill:#0a5877"/><path d="M1520.19,149.84c-.31-9.24-.51-22.54-4.61-29.93C1518.55,129.2,1513.61,142.48,1520.19,149.84Z" style="fill:#0a5877"/><path d="M1453.19,120.92c-7.55-.11-13.89,5.41-20.74,7.88C1438.3,128.17,1449.27,126.23,1453.19,120.92Z" style="fill:#0a5877"/><path d="M1439.36,116c-9.24,4.15-13.13,14.75-21.16,20.14C1422.74,135.55,1439,120.19,1439.36,116Z" style="fill:#0a5877"/><path d="M1484.67,134.18c-6.62,3.63-9.4,11.71-15.88,15.36C1474.05,148.78,1485,139.55,1484.67,134.18Z" style="fill:#0a5877"/><path d="M1473,128.81c-4.55,3.07-5,10-4.73,14.8C1469.44,138.8,1474.55,133.7,1473,128.81Z" style="fill:#0a5877"/><path d="M1489.19,135.51c-5.5,5.56-9.11,12.76-16.18,16.66C1478.82,151.36,1490.73,142.57,1489.19,135.51Z" style="fill:#0a5877"/><path d="M1469.67,127.43c-7.23,6.91-11.88,16.3-20,22.15C1458,145.5,1468.67,136.84,1469.67,127.43Z" style="fill:#0a5877"/><path d="M1416.21,108.27c-9.62,4.73-13.11,16.36-21.93,21.88C1400.25,129.08,1414.21,114.4,1416.21,108.27Z" style="fill:#0a5877"/><path d="M1427.46,111.88c-8.73-.4-11.44,10.48-19.29,12.1C1413,125.53,1424.32,115.76,1427.46,111.88Z" style="fill:#0a5877"/><path d="M1550.29,166.66c-10.24.65-17.8,9.18-27.35,11.46C1527.6,179.1,1548.28,170.6,1550.29,166.66Z" style="fill:#0a5877"/><path d="M1491.89,137.42c-9.13,4.69-12.63,15.54-20.48,21.45C1476.08,157.9,1491.63,141.83,1491.89,137.42Z" style="fill:#0a5877"/><path d="M1507.65,144.53c-11.32-2.08-16.74,13.45-26.84,16.62C1490.47,159.9,1498.92,148.66,1507.65,144.53Z" style="fill:#0a5877"/><path d="M1500.75,141.06c-8.73-.62-11.72,10.19-19.6,11.6C1486,154.33,1497.51,144.86,1500.75,141.06Z" style="fill:#0a5877"/><path d="M1403.57,104.55c-7.15,6.71-11.55,17.43-17.8,24C1392.5,123.68,1403.14,112.6,1403.57,104.55Z" style="fill:#0a5877"/><path d="M1517.24,149.07c-11,1.43-16.93,12.32-26.41,16.69C1496.44,165.29,1513.28,153.64,1517.24,149.07Z" style="fill:#0a5877"/><path d="M1520.84,150.79c-10.16,2.91-14,14.6-23.41,18.44C1503.91,169.11,1517.6,156.5,1520.84,150.79Z" style="fill:#0a5877"/><path d="M1530.75,155.29c-10.46,2.31-16.61,12.77-26.5,16C1510.31,171.71,1527.35,160.76,1530.75,155.29Z" style="fill:#0a5877"/><path d="M1510.74,146.34c-8.6,4.71-15.54,14-23.22,18.75C1495.24,162.09,1508.31,154,1510.74,146.34Z" style="fill:#0a5877"/><path d="M1395.67,102.11c-7.23,6.91-11.87,16.3-20,22.15C1384,120.18,1394.68,111.52,1395.67,102.11Z" style="fill:#0a5877"/><path d="M1380.41,98.29c-7.88,1.5-12.88,8.88-20.47,11C1365.4,109.75,1378.12,103.91,1380.41,98.29Z" style="fill:#0a5877"/><path d="M1375.79,97.57c-6.07-.56-10.66,4-16.58,4.53C1363.35,103.41,1373.55,102.46,1375.79,97.57Z" style="fill:#0a5877"/><path d="M1382.85,98.15c1.13-6.23-3.62-12.63-7.91-16.41C1378.32,86.63,1378.14,94.66,1382.85,98.15Z" style="fill:#0a5877"/><path d="M1388.72,100c2.51-6.86-.34-15.75-4.35-21.3C1387.29,85.19,1384.84,94.3,1388.72,100Z" style="fill:#0a5877"/><path d="M1466,125.81c2.86-9-.5-19.69-4.79-27.57C1464.36,106.86,1462.41,117.9,1466,125.81Z" style="fill:#0a5877"/><path d="M1395.75,101.78c.73-8.21-1.9-16.73-2.88-24.7C1392.43,84.76,1390.34,95.83,1395.75,101.78Z" style="fill:#0a5877"/><path d="M1553.33,163.86c.61-8.22-2.14-16.71-3.23-24.66C1549.77,146.89,1547.83,158,1553.33,163.86Z" style="fill:#0a5877"/><path d="M1536.88,157.81c2.71-8.66.85-19.11-2.31-27.25C1536.49,139.17,1533.12,150.09,1536.88,157.81Z" style="fill:#0a5877"/><path d="M1531.83,155.57c1.17-8.15-1-16.81-1.53-24.82C1529.44,138.4,1526.75,149.34,1531.83,155.57Z" style="fill:#0a5877"/><path d="M1423.61,110.62c1.46-9,3-20.67-.14-28.57C1425.29,91.32,1418.53,102.63,1423.61,110.62Z" style="fill:#0a5877"/><path d="M1439.44,115.38c4.31-6.77,8.78-16.43,8.58-23.82C1446.49,99.73,1437.33,107.24,1439.44,115.38Z" style="fill:#0a5877"/><path d="M1431.47,113c3.67-5.42,7.24-15.33,4.5-20.91C1437.07,99.34,1428.71,106.18,1431.47,113Z" style="fill:#0a5877"/><path d="M1522.27,150.5c3.07-8.15,2.24-18.9-1.45-26.49C1523.3,132.39,1518.81,142.87,1522.27,150.5Z" style="fill:#0a5877"/><path d="M1455.06,120.86c1.2-8.37-2-18.52-7.3-24.75C1452.11,103.44,1450,114.44,1455.06,120.86Z" style="fill:#0a5877"/><path d="M1417.77,108.25c3.47-6.61,1-17-2.37-22.36C1417.73,93,1414.71,101.9,1417.77,108.25Z" style="fill:#0a5877"/><path d="M1540.31,159.81c3-9.61,6.2-21.36,4.34-30.64C1545.06,139.38,1536.57,150.55,1540.31,159.81Z" style="fill:#0a5877"/><path d="M1546.17,161.84c3.11-6.78.08-17-3.57-22.2C1545.31,146.64,1542.77,155.66,1546.17,161.84Z" style="fill:#0a5877"/><path d="M1468.62,126.28c4.8-8.38,7.47-18.62,8.37-28C1474.81,107.29,1466.88,117.12,1468.62,126.28Z" style="fill:#0a5877"/><path d="M1523.49,152c-6.85,3.93-6.23,13.31-12.35,17.84C1516.26,168.71,1523.48,157.28,1523.49,152Z" style="fill:#0a5877"/><path d="M1527.28,153.44c3.21-8.82,3.64-18.18,7-26.95C1530.17,132.89,1523.71,145.56,1527.28,153.44Z" style="fill:#0a5877"/><path d="M1478.45,130.26c1.86-8.77,2.59-20.2-.88-27.8C1479.79,111.42,1473.75,122.64,1478.45,130.26Z" style="fill:#0a5877"/><path d="M1539,159.59c-9.07,3.69-12.14,14.36-20.14,19.7C1526.33,176.2,1535.26,167.11,1539,159.59Z" style="fill:#0a5877"/><path d="M1490.39,135.38c2.42-6.28-.36-12.95.25-19.48C1488.7,120.51,1486.48,130.93,1490.39,135.38Z" style="fill:#0a5877"/><path d="M1392.78,101.64c-6.55-.57-11.71,4-18.1,4.71C1379.34,107.5,1389.9,106.62,1392.78,101.64Z" style="fill:#0a5877"/><path d="M1582.06,185.16a1.94,1.94,0,0,0,1.25-3.56c-52.4-35.08-197.77-93.57-216-86.46.85,5.12,56.35,11.44,125.36,44A886.56,886.56,0,0,1,1582.06,185.16Z" style="fill:#0a5877"/></svg>