<svg id="b0a181bc-9470-4932-a854-74af051fc9db" data-name="Mark" xmlns="http://www.w3.org/2000/svg" viewBox="0 0 1920 1080"><path d="M1184.54,262.13c13.36,5.49,16.44,21.58,26.47,30.58C1201.34,287.16,1189.78,272.58,1184.54,262.13Z" style="fill:#137f9b"/><path d="M1194.39,258.84c-2.89-11.43,1.19-24.89,6.38-34.85C1197.31,234.82,1200.72,249.64,1194.39,258.84Z" style="fill:#137f9b"/><path d="M1225.77,252c-1.19-7.24,8.62-13.69,13.51-15.54C1234.56,241.21,1232.19,250,1225.77,252Z" style="fill:#137f9b"/><path d="M1212.13,255.86c6.08,4,8,10.78,12.76,15.94C1238.9,285.9,1207,263.83,1212.13,255.86Z" style="fill:#137f9b"/><path d="M1196.79,259.74c6.18,6.36,9.5,14.56,17.83,18.22C1206.4,277.67,1193.36,268.55,1196.79,259.74Z" style="fill:#137f9b"/><path d="M1188.12,260.6c-3.08-12.55-5.48-28.58-1.75-40C1184.64,233.64,1194.69,249.4,1188.12,260.6Z" style="fill:#137f9b"/><path d="M1119.65,280.66c-4.71-12.41-10-28.25-7.6-40.52C1111.9,253.8,1124.73,268.27,1119.65,280.66Z" style="fill:#137f9b"/><path d="M1179.94,263.05c11.94,6.94,12.19,23.12,22.49,31.34C1192.68,290.07,1182.72,273.43,1179.94,263.05Z" style="fill:#137f9b"/><path d="M1098.58,287.65c-1.44-10.79,3.05-21.06,4-31.75C1103.9,264.37,1105.93,280.78,1098.58,287.65Z" style="fill:#137f9b"/><path d="M1047.27,309c-6-11.53-4.41-26.1-1.26-38.27C1044.84,281.77,1050.68,297.88,1047.27,309Z" style="fill:#137f9b"/><path d="M1053.43,306.38c-6.35-10.68-8.19-26-5.82-37.72C1047.22,281,1056.52,294.64,1053.43,306.38Z" style="fill:#137f9b"/><path d="M1216.86,254.49c6.93,6.78,10,16.28,16.54,23.17C1226,273.21,1214.46,263.75,1216.86,254.49Z" style="fill:#137f9b"/><path d="M1166.82,266.76c11.69,6.52,15.07,21.12,24.59,29.51C1182,291,1169.33,276.83,1166.82,266.76Z" style="fill:#137f9b"/><path d="M1138.29,275.68c12.51,6.7,13.29,22.64,21.47,32.53-5.76-2.88-8.71-10.31-12.14-15.61C1144.45,287.42,1138.49,281.44,1138.29,275.68Z" style="fill:#137f9b"/><path d="M1113.1,283.72c10,7.45,10.87,21.37,18.44,30.31C1123,307.53,1114.06,294,1113.1,283.72Z" style="fill:#137f9b"/><path d="M1131.21,277c9.75,6.64,15.84,17.24,23.8,25.27C1145.8,296.88,1132.73,287.8,1131.21,277Z" style="fill:#137f9b"/><path d="M1082.47,294.29c2.13-10.84,6.15-25.38,13.79-32.21C1089.64,271.6,1092.81,288.43,1082.47,294.29Z" style="fill:#137f9b"/><path d="M1133.41,276c-2.77-9.88-3.82-23.61-.17-32.14C1131.62,254.24,1140.1,267.34,1133.41,276Z" style="fill:#137f9b"/><path d="M1153.56,271.11c15.14-2.07,20.43,18.69,33.23,23.79C1174.59,292.74,1164.05,277.6,1153.56,271.11Z" style="fill:#137f9b"/><path d="M1158.58,269.31c1.33-10.85-5.36-21.42-3-31.54C1155.8,247.63,1169.38,261.79,1158.58,269.31Z" style="fill:#137f9b"/><path d="M1149.4,270.7c-7.4-8.89-12-21.51-9.33-31.93,1.82,5.41,1.09,11.93,4.52,16.66C1148,259.12,1151.88,266.32,1149.4,270.7Z" style="fill:#137f9b"/><path d="M1021.36,321.07c9.63,8.26,3.4,16,14.91,30.38C1027.57,345.76,1020.68,331.93,1021.36,321.07Z" style="fill:#137f9b"/><path d="M1124,279.84c9.6,8.46,8.58,23.55,17.89,32.07C1132,306.12,1124.18,290.61,1124,279.84Z" style="fill:#137f9b"/><path d="M1183.18,261.54c-8-9.54-13.59-24.05-12.49-36.29C1171.68,237.89,1184.28,249.27,1183.18,261.54Z" style="fill:#137f9b"/><path d="M1149.49,271.54c5.76,6.16,1.72,14.83,5.82,21.74C1150.36,290.37,1145.58,277.09,1149.49,271.54Z" style="fill:#137f9b"/><path d="M1140,274.13c-2.93-9.82-4.22-23.51-.71-32.08C1137.84,252.48,1146.55,265.42,1140,274.13Z" style="fill:#137f9b"/><path d="M1113.61,283c-2.22-10.26-3.27-24.3,1-32.89C1112.28,260.72,1120.83,274.4,1113.61,283Z" style="fill:#137f9b"/><path d="M1119,281.65c7,6.1,5.66,16.49,8,24.48C1123,299.44,1116.69,289.29,1119,281.65Z" style="fill:#137f9b"/><path d="M1108.4,285.27c13.8,4.25,18.34,20,29.14,28C1127.41,308.67,1114.57,295.2,1108.4,285.27Z" style="fill:#137f9b"/><path d="M1093.67,290.42c12.29,1.22,12.58,15.94,20,23.22C1106.2,309.55,1098.68,297.72,1093.67,290.42Z" style="fill:#137f9b"/><path d="M1089.44,292.48c10.09,3.83,8.26,16.72,13.5,24.43C1097.94,313.83,1090.3,298.85,1089.44,292.48Z" style="fill:#137f9b"/><path d="M1058.72,303.58c-1.75-10.74,2.44-21.14,3.08-31.85C1063.36,280.16,1065.87,296.5,1058.72,303.58Z" style="fill:#137f9b"/><path d="M1067.42,299.94c-3.9-11.56-4.31-24-7.51-35.52C1064.88,274.31,1073.16,289.67,1067.42,299.94Z" style="fill:#137f9b"/><path d="M1072.44,297.82c-4.51-11.16,9.75-17.77,10.88-28.37C1085,278.24,1076.89,290.17,1072.44,297.82Z" style="fill:#137f9b"/><path d="M1070.4,300.56c5.19,3.52,6.78,16.64,6,21.43C1074.43,315.31,1067.18,307.28,1070.4,300.56Z" style="fill:#137f9b"/><path d="M1037.9,312.9c.48-12.19,1.69-29,7.6-38.45C1041.25,286.23,1047.29,304.16,1037.9,312.9Z" style="fill:#137f9b"/><path d="M1126.15,279.05c9.94,0,18.18,7.47,26.51,11.59C1144.07,288.55,1130.83,286.93,1126.15,279.05Z" style="fill:#137f9b"/><path d="M1144.31,273.37c12,5.47,16.29,19.72,26.3,27.21C1161.22,296.4,1147.2,282.81,1144.31,273.37Z" style="fill:#137f9b"/><path d="M1084.72,294.53c8.86,4.61,11.1,15.5,19.64,20.43C1097.05,313.89,1084.49,303,1084.72,294.53Z" style="fill:#137f9b"/><path d="M1100.13,288.2c6.09,3.95,6,13.27,5.3,19.43C1104,301.39,1097.29,294.43,1100.13,288.2Z" style="fill:#137f9b"/><path d="M1078.81,296c7.26,7.27,11.06,16.85,20,22.4C1091,316.89,1076.22,305.78,1078.81,296Z" style="fill:#137f9b"/><path d="M1104.49,286.6c9.48,8.84,14,21.63,24.68,29.43C1119.32,312,1104.45,298.43,1104.49,286.6Z" style="fill:#137f9b"/><path d="M1174.66,264.66c12.51,6.26,16.12,21.77,27.2,29.46C1191.83,290.31,1178.42,275.3,1174.66,264.66Z" style="fill:#137f9b"/><path d="M1159.9,268.72c11.46-.33,14.65,14,24.49,16.94C1175,285.38,1165.07,275.55,1159.9,268.72Z" style="fill:#137f9b"/><path d="M1075.21,298.33c11.85,6.21,15.61,20.73,25.34,28.87C1091,322.13,1078,308.33,1075.21,298.33Z" style="fill:#137f9b"/><path d="M1054.43,306.68c15.08-2.45,20.9,18.17,33.83,22.93C1076,327.77,1065.09,312.91,1054.43,306.68Z" style="fill:#137f9b"/><path d="M1063.55,302.57c11.45-.63,15,13.66,24.91,16.3C1079.05,318.84,1068.89,309.26,1063.55,302.57Z" style="fill:#137f9b"/><path d="M1191.22,260.52c9.19,8.76,14.21,23.18,21.71,32C1203.57,284.72,1191.61,272.63,1191.22,260.52Z" style="fill:#137f9b"/><path d="M1041.78,312.05c14.31,2,21.32,16.79,33.28,23C1064.31,332.09,1049.47,320.86,1041.78,312.05Z" style="fill:#137f9b"/><path d="M1037.05,314.08c13.24,3.91,17.33,19.56,29.28,25.1C1055.84,337.3,1042.21,323.51,1037.05,314.08Z" style="fill:#137f9b"/><path d="M1024,319.37c13.64,3.12,20.83,17.33,33.43,22.17C1046.74,340.22,1030.15,328.82,1024,319.37Z" style="fill:#137f9b"/><path d="M1050.35,308.87c11.09,6.18,19.55,18.88,29,25.53C1068.36,329.21,1053.76,320.5,1050.35,308.87Z" style="fill:#137f9b"/><path d="M1201.57,257.78c9.48,8.84,14,21.63,24.67,29.43C1216.39,283.23,1201.52,269.6,1201.57,257.78Z" style="fill:#137f9b"/><path d="M1221.51,253.65c10.4,2,16.13,12.06,25.87,15.36C1239.58,269.05,1224.49,262,1221.51,253.65Z" style="fill:#137f9b"/><path d="M1227.52,253c8-.84,13.55,5.62,21.19,6.74C1243.5,261.42,1229.67,259.76,1227.52,253Z" style="fill:#137f9b"/><path d="M1218.32,253.34c-1.6-8.15,5.31-16.32,11.14-20.8C1224.93,238.73,1225,249.47,1218.32,253.34Z" style="fill:#137f9b"/><path d="M1210.62,255.37c-3.34-9,1.21-20.48,6.81-27.33C1213.37,236.4,1216.49,248.46,1210.62,255.37Z" style="fill:#137f9b"/><path d="M1109.27,284.71c-3.68-11.75,1.62-25.61,7.71-35.42C1112.53,260.26,1114.88,274.94,1109.27,284.71Z" style="fill:#137f9b"/><path d="M1201.43,257.35c-1.17-10.82,3.58-21,4.81-31.64C1207.33,234.21,1209,250.67,1201.43,257.35Z" style="fill:#137f9b"/><path d="M1022.53,319.7c-1.76-10.75,2.43-21.15,3.08-31.86C1027.17,296.27,1029.68,312.61,1022.53,319.7Z" style="fill:#137f9b"/><path d="M1164.92,267.32c-1.85-11.57-2.92-27.17,1.75-37C1163.89,242.24,1172.49,257.53,1164.92,267.32Z" style="fill:#137f9b"/><path d="M1144.19,272.64c-5.63-8.84-10.65-21.85-9.78-31.28C1136,252,1148,262.23,1144.19,272.64Z" style="fill:#137f9b"/><path d="M1154.63,270c-4.89-7-8.69-20.44-4.66-27.29C1148.24,252.05,1159.16,261.3,1154.63,270Z" style="fill:#137f9b"/><path d="M1035.17,313.65c-4-10.68-2-24.66,3.33-34.2C1034.91,290.2,1040.62,304.1,1035.17,313.65Z" style="fill:#137f9b"/><path d="M1123.69,278.88c-1.56-11,3.47-24,10.81-31.64C1128.53,256.56,1131.09,271.11,1123.69,278.88Z" style="fill:#137f9b"/><path d="M1172.61,264.56c-4.6-8.65-.47-22.23,4.3-28.79C1173.56,244.94,1177.48,256.63,1172.61,264.56Z" style="fill:#137f9b"/><path d="M1105.86,285.18c-6.18-10.88-8.79-24.56-9.31-36.75C1099,260.18,1109.22,273.53,1105.86,285.18Z" style="fill:#137f9b"/><path d="M1033.56,315.46c9.07,5.22,7.36,17.42,15,23.73C1041.38,336.94,1033.21,323.33,1033.56,315.46Z" style="fill:#137f9b"/><path d="M1028.53,317.2c-3.91-11.56-4.32-24-7.52-35.52C1026,291.57,1034.27,306.93,1028.53,317.2Z" style="fill:#137f9b"/><path d="M1092.93,289.8c-2.39-11.35-2.36-26.51,2.67-35.91C1092.32,265.32,1100,280.49,1092.93,289.8Z" style="fill:#137f9b"/><path d="M1077.22,295.79c-3.28-8.32,1.08-16.65.71-25.21C1080.36,276.45,1083,290.51,1077.22,295.79Z" style="fill:#137f9b"/><path d="M1205.32,257.31c8.59-.84,14.93,5.76,23.15,7.06C1222.61,265.86,1208.3,264.28,1205.32,257.31Z" style="fill:#137f9b"/><path d="M1017.64,318.32c83.7-37.17,210.32-74.53,221.43-68.13-17.43,3.65-134,35.18-220.79,72.41C990.71,334.42,985,332.8,1017.64,318.32Z" style="fill:#137f9b"/></svg>