<svg id="b75ce056-22fd-4bdd-bdf9-f3f70668c022" data-name="Mark" xmlns="http://www.w3.org/2000/svg" viewBox="0 0 1920 1080"><path d="M466.26,708.29h0l61.86,2.36c-50.73-15.22-74.93-61.66-80.78-105.76s-10.89-806.64-10.89-806.64h-21.2s6.72,763.6,6.55,818.43-17.34,89.76-17.34,89.76l17.34.48h0l9.39-44.56a2,2,0,0,1,3.75-.33A135.84,135.84,0,0,0,466.26,708.29Z" style="fill:#137f9b"/><path d="M439.88,698.88l6.48,8.65,19.9.76h0A136,136,0,0,1,435,662.11a2,2,0,0,0-3.81.35l-9.36,44.46,3.63-6.89A8.58,8.58,0,0,1,439.88,698.88Z" style="fill:#003956"/><path d="M415.25-201.75l-37.89.41s12.94,746.74,3,814.65-69.22,89.85-69.22,89.85l47.79,1.27,21.51-19.08a3,3,0,0,1,4.43,3.87l-11,16.38,30.61.84s17.17-34.93,17.34-89.76S415.25-201.75,415.25-201.75Z" style="fill:#003956"/><path d="M1650.71,633.52c-14-73.76,0-868,0-868h-59.65s-6.42,821-14,860-44.49,75.41-74.93,87.93h0l30.14.75,31-18.78c2.86-1.74,5.88,2,3.71,4.54l-12.48,14.8,32.79.81,11.62-14.67a15.14,15.14,0,0,1,22.36-1.68L1640,716.91l95.14,2.37S1664.76,707.29,1650.71,633.52Z" style="fill:#061d3c"/><path d="M1577,625.54c7.61-39,14-860,14-860H1578.6s-4.67,797.32-17.94,859.81c-13.17,62-90.06,87.32-90.06,87.32l31.5.78h0C1532.54,701,1569.42,664.53,1577,625.54Z" style="fill:#0a5877"/><path d="M925.72,667.68c15.14-73.4,12.9-864.87,12.9-864.87H985s-5.78,818.79,1.25,857.8,43.36,75.91,73.61,88.87h0l-30.15.3-30.75-19.21c-2.83-1.77-5.9,1.88-3.77,4.48l12.26,15-32.8.33-11.4-14.82a15.15,15.15,0,0,0-22.33-2l-19,17.35-95.16,1S910.58,741.08,925.72,667.68Z" style="fill:#003956"/><path d="M986.23,661c-7-39-1.25-858.15-1.25-858.15h12.46s-6.57,794.65,1.27,857.92,92.64,88.77,92.64,88.77l-31.51.32h0C1029.59,736.87,993.25,700,986.23,661Z" style="fill:#137f9b"/></svg>