<svg id="a0a9ebc7-358f-4541-92a1-86fd5e273d63" data-name="Mark" xmlns="http://www.w3.org/2000/svg" viewBox="0 0 1920 1080"><path d="M604.05,86.44c11.88,1.27,18.29,13,28.51,17.55C623.47,101.88,611,93.21,604.05,86.44Z" style="fill:#137f9b"/><path d="M611,81.37c-4.91-8.41-5.19-19.87-3.65-29.09C607.3,61.73,613.42,72.47,611,81.37Z" style="fill:#137f9b"/><path d="M634.1,68.18c-2.48-5.79,3.22-12,6.73-15.83C638.53,57.34,638.36,64.68,634.1,68.18Z" style="fill:#137f9b"/><path d="M624.26,74.61C631.48,77.5,636.38,84,643.4,87,636.55,86,625.53,82,624.26,74.61Z" style="fill:#137f9b"/><path d="M613.12,81.49c6.32,3.68,11.13,9.2,18.62,9.93C625.14,93.14,612.92,89.2,613.12,81.49Z" style="fill:#137f9b"/><path d="M606.52,84.32c-5.39-9.33-11.34-21-11.38-31.15C597,64,608.57,73.8,606.52,84.32Z" style="fill:#137f9b"/><path d="M557.45,117.22c-6.69-8.89-14.76-19.69-16.11-30.1C544.6,98,558,106.18,557.45,117.22Z" style="fill:#137f9b"/><path d="M600.65,88.31c11,2.87,15.68,15.21,25.67,19.36C616.53,105.46,606,96,600.65,88.31Z" style="fill:#137f9b"/><path d="M544.5,126.71c-3.39-8.15-3.21-17.78-4.59-26.26C542.74,108.2,548.43,119,544.5,126.71Z" style="fill:#137f9b"/><path d="M507.36,157.57c-7.21-7.72-10.42-19.89-10.34-30.06C498.48,137.83,507.15,147.62,507.36,157.57Z" style="fill:#137f9b"/><path d="M511.58,154c-7.5-7-12.86-18.44-14-28.31C500.32,135.59,510.78,144,511.58,154Z" style="fill:#137f9b"/><path d="M627.66,72.35c7,3.76,12,10.44,18.83,14.16C639.56,84.77,628.34,80.11,627.66,72.35Z" style="fill:#137f9b"/><path d="M591.21,94.51C602,97,608.32,107.47,618,111.66,608.51,109.32,596.65,102.15,591.21,94.51Z" style="fill:#137f9b"/><path d="M570.91,108.65C582.34,111,587,123.25,596,129,586.89,125,576.81,116,570.91,108.65Z" style="fill:#137f9b"/><path d="M553,121.27c9.62,3.59,13.85,14.21,22.11,19.32C566.71,137.51,556.65,129.06,553,121.27Z" style="fill:#137f9b"/><path d="M565.65,111.47c9.25,3,16.75,9.72,25.09,14C582.1,123.41,569.8,119.43,565.65,111.47Z" style="fill:#137f9b"/><path d="M531.5,137.24c-.79-9.14-1.43-21.43,2.83-28.87C531.44,117.55,537.91,129.87,531.5,137.24Z" style="fill:#137f9b"/><path d="M567.15,110.08c-4.64-7.46-8.32-16.8-8.34-25.46C560.37,93.08,569.85,101.63,567.15,110.08Z" style="fill:#137f9b"/><path d="M581.83,101.24C593.3,96.11,602.6,111,614,111.75,603.69,113,591.87,103.49,581.83,101.24Z" style="fill:#137f9b"/><path d="M585.36,98.56c-1.64-9-8.88-15.2-10.45-24C577.66,81.32,591.56,90.21,585.36,98.56Z" style="fill:#137f9b"/><path d="M578.46,101.94c-7.83-5.29-14.8-14-15.34-22.88C567.59,91.76,578.77,94,578.46,101.94Z" style="fill:#137f9b"/><path d="M489.9,173.61c8.56,4.54,10.85,15.37,19.32,20.51C500.4,190.57,492.46,182.5,489.9,173.61Z" style="fill:#137f9b"/><path d="M560.64,115.5c9.54,4.48,12.6,16.5,22.1,20.85C573.44,134.15,563.8,123.85,560.64,115.5Z" style="fill:#137f9b"/><path d="M602.84,86.29c-8.58-5.73-16.62-15.55-18.9-25.52C587.84,70.55,600.36,76.43,602.84,86.29Z" style="fill:#137f9b"/><path d="M578.72,102.59c5.83,3.48,5.06,11.38,10,15.72C584.09,117.09,577.3,107.89,578.72,102.59Z" style="fill:#137f9b"/><path d="M571.89,107c-4.76-7.37-8.59-16.63-8.75-25.27C564.83,90.14,574.45,98.51,571.89,107Z" style="fill:#137f9b"/><path d="M553.26,120.56c-4.28-7.89-8.09-17.45-7.59-26.35C546.73,103,556.38,112,553.26,120.56Z" style="fill:#137f9b"/><path d="M557.14,118.17c6.84,3.19,8.55,11.66,12.44,17.31C564.8,131.17,557.5,124.64,557.14,118.17Z" style="fill:#137f9b"/><path d="M549.7,123.67c11.95.18,19.4,11.24,30,14.88C570.44,137.27,557.28,129.78,549.7,123.67Z" style="fill:#137f9b"/><path d="M539.36,131.4c9.92-1.85,13.88,9.51,21.58,13.35C554,143.29,545.24,135.65,539.36,131.4Z" style="fill:#137f9b"/><path d="M536.53,134.08c8.72.85,11,11.25,16.76,16.17A48.91,48.91,0,0,1,536.53,134.08Z" style="fill:#137f9b"/><path d="M515.06,150.48c-3.63-8-3.73-17.68-5.36-26.11C512.76,132,518.76,142.65,515.06,150.48Z" style="fill:#137f9b"/><path d="M521,145.44c-5.92-8.16-8.86-17.77-14.84-25.91C512.28,124.88,522.71,136.3,521,145.44Z" style="fill:#137f9b"/><path d="M478.35,183.35c9.84-3.19,19.09,4.66,28.83,4.74C498.05,189.58,486.21,187.22,478.35,183.35Z" style="fill:#137f9b"/><path d="M524.45,142.51c-6.08-7.75,3.33-16.45,1.53-25.1C529.42,124.07,525.78,135.26,524.45,142.51Z" style="fill:#137f9b"/><path d="M523.5,145.2c5.83,2.63,8.2,10.06,10.3,15.45C530.39,156.07,523,151.19,523.5,145.2Z" style="fill:#137f9b"/><path d="M500.94,163c-2.44-9.86-5.8-23.19-3.6-32.25C496.89,141.21,505.87,153.63,500.94,163Z" style="fill:#137f9b"/><path d="M562.17,114.34c7.76-2.38,15.88,1.68,23.65,2.33C579.66,117.72,567.6,118.88,562.17,114.34Z" style="fill:#137f9b"/><path d="M575.09,105.33c10.77,1.57,17.72,11.55,27.53,14.92C593.16,118.73,580.93,112.45,575.09,105.33Z" style="fill:#137f9b"/><path d="M533.31,136.87c7.92,1.77,13,9.45,20.74,11.45C546.86,148.31,535.79,143.71,533.31,136.87Z" style="fill:#137f9b"/><path d="M543.9,128c5.59,1.72,8,9,9,14C550.35,137.47,543.43,133.49,543.9,128Z" style="fill:#137f9b"/><path d="M529,139.52c7.32,4.08,13,10.61,21.41,12.7C543.71,152.83,529.71,147.74,529,139.52Z" style="fill:#137f9b"/><path d="M546.94,125.69c9.55,5.05,16.82,13.48,26.91,17.31C564.05,141.19,550.43,135.23,546.94,125.69Z" style="fill:#137f9b"/><path d="M596.88,90.89C608.22,93,615,104.11,625.7,107.38,616.7,106.72,602.79,98.2,596.88,90.89Z" style="fill:#137f9b"/><path d="M586.24,97.78c9-2.87,15,7.5,23.55,7.26C602.23,107.1,592.21,101.63,586.24,97.78Z" style="fill:#137f9b"/><path d="M474.52,188.85c10.78-2.33,21,4.49,31.51,4.2C496.46,194.94,482.69,193.47,474.52,188.85Z" style="fill:#137f9b"/><path d="M468.25,193.17c8.94-2.91,15.07,7.43,23.58,7.15C484.28,202.41,474.24,197,468.25,193.17Z" style="fill:#137f9b"/><path d="M526.75,142.24c10.81,2.18,17.44,12.52,27.19,16.47C544.42,156.6,532.39,149.74,526.75,142.24Z" style="fill:#137f9b"/><path d="M512.43,154c11.33-5.42,21,9.19,32.43,9.68C534.59,165.18,522.53,156,512.43,154Z" style="fill:#137f9b"/><path d="M518.6,148.5c8.88-3.1,15.23,7.11,23.72,6.65C534.83,157.4,524.67,152.2,518.6,148.5Z" style="fill:#137f9b"/><path d="M608.91,83.5c9.7,4.81,16,14.56,25.32,19.73C624.86,99.93,612.57,92.69,608.91,83.5Z" style="fill:#137f9b"/><path d="M461.71,199.74c11.34-3.76,22,4.24,33.22,4.19C485.78,205.77,470.88,203,461.71,199.74Z" style="fill:#137f9b"/><path d="M503.78,161.4c11.83-1.74,21,8,32,9.87C526.44,171.49,512.25,166.21,503.78,161.4Z" style="fill:#137f9b"/><path d="M500.54,164.19c11.37.17,18.85,11.05,29.54,12.7C520.05,177.08,507.57,170.41,500.54,164.19Z" style="fill:#137f9b"/><path d="M491.54,171.62c11.51-.69,20.77,8.53,31.91,9.17C514.56,182.28,499,177.31,491.54,171.62Z" style="fill:#137f9b"/><path d="M509.75,156.76c10.58,2.23,19.11,10.1,29.44,12.76C529.29,168.67,515.58,164.73,509.75,156.76Z" style="fill:#137f9b"/><path d="M616.4,78.76c9.55,5,16.82,13.48,26.91,17.32C633.51,94.26,619.89,88.3,616.4,78.76Z" style="fill:#137f9b"/><path d="M631.12,70.53c8.59-.8,15.81,5.56,24.26,5.69C649.12,78.09,635.73,76.12,631.12,70.53Z" style="fill:#137f9b"/><path d="M635.7,68.49c6-2.25,12.52.83,18.6.2C649.22,70.92,639.59,73.2,635.7,68.49Z" style="fill:#137f9b"/><path d="M628.55,71.08c-3.06-6,.18-14.17,3.59-19.2C630.06,57.84,632.58,66.32,628.55,71.08Z" style="fill:#137f9b"/><path d="M623,74.59c-4.65-6.32-4.09-16.43-1.46-23.26C620.36,58.89,625.59,67.7,623,74.59Z" style="fill:#137f9b"/><path d="M550.27,123c-5.62-8.47-5-20.55-2.75-29.87C546.7,102.93,552,113.83,550.27,123Z" style="fill:#137f9b"/><path d="M616.21,78.45c-3.18-8.24-2.76-17.86-3.93-26.37C614.92,59.89,620.33,70.83,616.21,78.45Z" style="fill:#137f9b"/><path d="M464.88,195.49c-5.22-8.28-5-20.06-3.22-29.16C461.53,175.73,468,186.76,464.88,195.49Z" style="fill:#137f9b"/><path d="M468.56,192c-3.06-8.28-2.5-17.89-3.55-26.42C467.54,173.38,472.79,184.39,468.56,192Z" style="fill:#137f9b"/><path d="M485.91,176c-5.36-8.13-6.28-19.56-5.24-28.85C481.12,156.55,487.82,166.93,485.91,176Z" style="fill:#137f9b"/><path d="M490.5,172.22c-3.63-8.06-3.73-17.68-5.36-26.12C488.2,153.76,494.2,164.38,490.5,172.22Z" style="fill:#137f9b"/><path d="M589.87,95.4c-4.14-8.8-9-20.6-7.85-29.6C582.76,75.89,593.08,85.74,589.87,95.4Z" style="fill:#137f9b"/><path d="M574.83,104.77c-6.75-5.9-13-13.92-15.74-22.33C563.19,90.19,574.8,95.76,574.83,104.77Z" style="fill:#137f9b"/><path d="M582.41,100.06c-5.62-4.73-11.34-13.12-10.66-20.52C572.87,87.27,583.42,92.21,582.41,100.06Z" style="fill:#137f9b"/><path d="M499,164.3c-5.58-7.5-7.65-19-5.91-27.82C492.86,145.84,500.6,155.44,499,164.3Z" style="fill:#137f9b"/><path d="M560.2,114.8c-3.73-8.28-3.18-19.74.63-27.66C558.41,96,563.8,106.8,560.2,114.8Z" style="fill:#137f9b"/><path d="M595.25,91.31c-5.56-5.77-5.83-17.35-3.79-23.8C591.06,75.54,596.82,83.9,595.25,91.31Z" style="fill:#137f9b"/><path d="M482.92,179c-5.89-9-12.47-20.41-13.06-30.49C472.31,159.16,484.39,168.37,482.92,179Z" style="fill:#137f9b"/><path d="M480.14,182c-8.88-5.25-17.44-14.62-20.27-24.45C464.31,167.13,477.12,172.33,480.14,182Z" style="fill:#137f9b"/><path d="M473.6,187.1c-5.25-6.06-4.89-17.64-2.52-24C470.25,171.13,475.56,179.78,473.6,187.1Z" style="fill:#137f9b"/><path d="M547.69,124.21c-7.42-7.22-13-17.18-16.51-26.68C536,106.26,547.12,114.22,547.69,124.21Z" style="fill:#137f9b"/><path d="M498.13,166.14c8.19,2.17,10.53,12,17.86,15.22C508.86,180.18,500.3,172.61,498.13,166.14Z" style="fill:#137f9b"/><path d="M494.61,168.75c-5.92-8.16-8.86-17.77-14.84-25.91C485.87,148.19,496.3,159.61,494.61,168.75Z" style="fill:#137f9b"/><path d="M538.63,131.08c-4.5-8.48-8.38-20.24-6.85-29C532,111.94,541.56,121.91,538.63,131.08Z" style="fill:#137f9b"/><path d="M484.27,178.37c10.37,1.29,17,11.34,26.44,15C501.21,191.35,490.31,185.53,484.27,178.37Z" style="fill:#137f9b"/><path d="M527.72,139.73c-4.23-5.79-3.66-13.77-5.6-20.3C525.38,124.88,530.76,133.68,527.72,139.73Z" style="fill:#137f9b"/><path d="M619.25,77.46c6.51-2.39,13.64.59,20.24,0C633.83,79.61,623.84,82.1,619.25,77.46Z" style="fill:#137f9b"/><path d="M441.38,221.82c27.43-51.3,186.39-160.4,202.7-158.38C626.72,72.65,485.77,167.69,441.38,221.82Z" style="fill:#137f9b"/></svg>