<svg id="acdf5e38-60a8-4822-9727-7cd9cd0e1ac7" data-name="Mark" xmlns="http://www.w3.org/2000/svg" viewBox="0 0 1920 1080"><path d="M742.34,85.26c-10.81,5.07-13.06,18.22-21.22,25.89C729,106.18,737.94,93.94,742.34,85.26Z" style="fill:#003956"/><path d="M734.1,82.74c1.9-9.55-1.57-20.48-6-28.69C731.22,63,728.93,75.11,734.1,82.74Z" style="fill:#003956"/><path d="M708,77.8c.45-6.28-6.94-10.25-11.53-12.77C700.27,69,702.82,75.88,708,77.8Z" style="fill:#003956"/><path d="M719.38,80.67c-5.87,5.09-8.41,12.78-14.06,17.91C711.47,95.4,720.59,88,719.38,80.67Z" style="fill:#003956"/><path d="M732.16,83.54c-4.77,5.53-7.52,12.33-14.36,15.46C724.6,98.47,734.87,90.76,732.16,83.54Z" style="fill:#003956"/><path d="M739.33,84.06c2-10.58,3.84-23.6.59-33.16C741.67,61.7,734,74.79,739.33,84.06Z" style="fill:#003956"/><path d="M796.44,99.15c3.42-10.57,7.52-23.42,5.41-33.7C802.31,76.78,792.28,88.91,796.44,99.15Z" style="fill:#003956"/><path d="M746.17,85.92c-9.46,6.3-9.86,19.49-17.95,26.67C736.75,107.31,743.64,95,746.17,85.92Z" style="fill:#003956"/><path d="M811.78,103.91c.54-8.82-2.77-17.86-4.23-26.32C807.4,85.83,805.55,97.89,811.78,103.91Z" style="fill:#003956"/><path d="M857,121c4.3-9.65,3.36-22.2,0-31.79C858.9,99.41,853.9,111.49,857,121Z" style="fill:#003956"/><path d="M851.8,119c4.8-9.09,6.14-21.63,4-31.33C856.43,97.89,849.29,109.26,851.8,119Z" style="fill:#003956"/><path d="M715.44,79.64c-5.35,5.82-7.9,13.77-13.19,19.52C708.23,95.26,717.32,87.2,715.44,79.64Z" style="fill:#003956"/><path d="M757.12,88.7c-9.37,5.82-12,17.83-19.71,25C745.59,108.34,754.46,97.69,757.12,88.7Z" style="fill:#003956"/><path d="M780.92,95.45c-10,6-10.44,19-17.06,27.38C771.15,116.14,777.73,104.3,780.92,95.45Z" style="fill:#003956"/><path d="M802,101.54c-7.93,6.53-8.46,17.95-14.61,25.47C794.3,121.36,801.06,110.09,802,101.54Z" style="fill:#003956"/><path d="M786.81,96.4c-7.76,5.87-12.66,14.65-19.15,21.42C775.15,113.05,785.49,105.28,786.81,96.4Z" style="fill:#003956"/><path d="M827.5,109.61c-2.23-8.89-5.64-20.71-12.1-26.36C821.13,91,819,104.74,827.5,109.61Z" style="fill:#003956"/><path d="M784.94,95.57c2-8.56,2.39-18.59-.42-26.79C785.81,77.29,779.64,88.46,784.94,95.57Z" style="fill:#003956"/><path d="M768.18,92c-12.51-1.11-16.46,16-27,20.43C751.34,110.22,759.42,97.4,768.18,92Z" style="fill:#003956"/><path d="M764,90.62c-1.39-9,3.43-17.27,2.06-26.05C765.63,71.81,755.38,84.75,764,90.62Z" style="fill:#003956"/><path d="M771.6,91.56c5.67-7.55,9.43-18,7-26.63C778.55,78.4,768.71,84.17,771.6,91.56Z" style="fill:#003956"/><path d="M878.68,130.43c-6.6,7.08-5.24,18.07-11.57,25.69C874.29,149.89,879.16,139.67,878.68,130.43Z" style="fill:#003956"/><path d="M792.86,98.57c-7.56,7.34-6.53,19.71-14.09,26.92C786.84,120.37,792.6,107.49,792.86,98.57Z" style="fill:#003956"/><path d="M743.44,84.72c6.24-8.22,10.64-20.12,9.55-30.29C752.48,65,742.57,74.59,743.44,84.72Z" style="fill:#003956"/><path d="M771.56,92.26c-4.37,5.2-1.07,12.42-4.33,18.13C771.21,107.73,774.64,96.82,771.56,92.26Z" style="fill:#003956"/><path d="M779.45,94.19c2.09-8.51,2.7-18.52,0-26.74C780.62,76,774.26,87,779.45,94.19Z" style="fill:#003956"/><path d="M801.49,101c1.47-8.86,2-19.14-1.42-27.39C801.94,82.23,795.74,93.86,801.49,101Z" style="fill:#003956"/><path d="M797,100c-5.42,5.25-4.28,13.81-6.11,20.42C794,114.75,798.81,106.19,797,100Z" style="fill:#003956"/><path d="M805.86,102.73c-11.23,4.06-14.66,17-23.49,23.84C790.69,122.35,800.69,111,805.86,102.73Z" style="fill:#003956"/><path d="M818.16,106.67c-10,1.48-10,13.51-16,19.65C808.19,122.68,814,112.6,818.16,106.67Z" style="fill:#003956"/><path d="M821.71,108.27c-8,3.65-6.76,14.24-10.56,20.76A49.09,49.09,0,0,0,821.71,108.27Z" style="fill:#003956"/><path d="M847.36,116.78c.8-8.8-2.24-17.93-3.45-26.44C843.51,98.58,841.31,110.58,847.36,116.78Z" style="fill:#003956"/><path d="M840.08,114c2.93-9.64,2.58-19.68,5.57-29.33C841.64,91.67,835.5,105.86,840.08,114Z" style="fill:#003956"/><path d="M892.78,135.87c-10.34.2-16.53,10.63-25.7,13.88C876.19,148.19,886.61,142.09,892.78,135.87Z" style="fill:#003956"/><path d="M835.88,112.31c3.22-9.32-8.51-14.47-9.63-23.24C825.17,96.49,832.26,105.88,835.88,112.31Z" style="fill:#003956"/><path d="M837.66,114.53c-4.66,4.39-4.48,12.19-4.7,18C834.69,127.06,840.07,120,837.66,114.53Z" style="fill:#003956"/><path d="M864.8,124c-.91-10.11-2.08-23.81-7.12-31.66C861.51,102.08,857.07,116.75,864.8,124Z" style="fill:#003956"/><path d="M791,98c-8.11.28-14.47,6.78-21.6,9.92C775.6,106.88,787.39,104,791,98Z" style="fill:#003956"/><path d="M775.89,93.67c-9.67,5-13,16.7-21.17,23.08C763.18,112.23,772.69,102.31,775.89,93.67Z" style="fill:#003956"/><path d="M825.67,109.86c-6.91,4.26-9.23,13.18-15.87,17.58C816.59,125.09,825.56,117.14,825.67,109.86Z" style="fill:#003956"/><path d="M812.78,105c-4.73,3.45-4.64,11.1-4,16.18C809.75,116,815,110,812.78,105Z" style="fill:#003956"/><path d="M830.59,111c-5.58,6.25-8.8,14.27-16.09,19C821,128.34,832.62,119,830.59,111Z" style="fill:#003956"/><path d="M809.14,103.74c-7.39,7.88-11.51,18.22-19.8,25.14C798,124,809,113.9,809.14,103.74Z" style="fill:#003956"/><path d="M750.58,87.13c-10.05,5.65-12.84,18.41-21.87,25C737,108.55,747.37,96,750.58,87.13Z" style="fill:#003956"/><path d="M762.88,90.17c-9.4.21-11.77,12-19.89,14.54C750.8,104.2,758.49,95.76,762.88,90.17Z" style="fill:#003956"/><path d="M898.2,139.83c-11,1.3-18.39,11.08-28.42,14.24C879.44,152.73,892,146.85,898.2,139.83Z" style="fill:#003956"/><path d="M905.53,141.86c-9.4.16-11.82,11.94-19.95,14.45C893.39,155.83,901.12,147.43,905.53,141.86Z" style="fill:#003956"/><path d="M833.62,112.8c-9.51,5.58-12.41,17.52-20.34,24.43C821.6,132.14,830.74,121.73,833.62,112.8Z" style="fill:#003956"/><path d="M851,119.26c-12.47-1.44-16.86,15.54-27.49,19.72C833.69,137,842.1,124.43,851,119.26Z" style="fill:#003956"/><path d="M843.36,116.05c-9.4,0-12.07,11.69-20.25,14C830.93,129.76,838.83,121.53,843.36,116.05Z" style="fill:#003956"/><path d="M736.79,84.07c-7.59,7.71-10.36,19-17.5,26.9C727.08,104.8,736.33,93.94,736.79,84.07Z" style="fill:#003956"/><path d="M913.85,145.94c-11.94.15-19.42,11.19-30,14.79C893.07,159.49,906.26,152,913.85,145.94Z" style="fill:#003956"/><path d="M861.58,123.42c-11.74,2.21-17.21,14.37-27,19.76C843.45,140.35,855.15,130.73,861.58,123.42Z" style="fill:#003956"/><path d="M865.55,125c-10.69,3.87-14.21,16.59-23.78,21.64C851.32,143.54,860.94,133.17,865.55,125Z" style="fill:#003956"/><path d="M876.48,129.08c-11.1,3.11-16.84,14.84-27.17,19.09C858.21,146.67,871.27,136.9,876.48,129.08Z" style="fill:#003956"/><path d="M854.43,121c-9.28,5.57-14.78,15.78-23.68,21.67C839.84,138.61,851.51,130.42,854.43,121Z" style="fill:#003956"/><path d="M728.16,82c-7.38,7.88-11.5,18.23-19.79,25.15C717,102.26,728,92.19,728.16,82Z" style="fill:#003956"/><path d="M711.57,79.05c-8.38,2-13.13,10.41-21.08,13.29C697,92.07,709,85.83,711.57,79.05Z" style="fill:#003956"/><path d="M706.58,78.61c-6.41-.16-11.57,4.87-17.53,6.26C694.58,85.32,704.43,84.34,706.58,78.61Z" style="fill:#003956"/><path d="M714.18,78.73c.93-6.69-4.8-13.34-9.66-17C708.43,66.7,708.81,75.54,714.18,78.73Z" style="fill:#003956"/><path d="M720.59,80.23c2.33-7.49-1.49-16.87-6.21-22.46C717.94,64.54,715.87,74.57,720.59,80.23Z" style="fill:#003956"/><path d="M805.11,102.27c2.55-9.84-1.94-21.07-7.14-29.13C801.94,82.14,800.53,94.16,805.11,102.27Z" style="fill:#003956"/><path d="M728.24,81.67c.32-8.83-3.21-17.78-4.88-26.21C723.41,63.71,721.86,75.81,728.24,81.67Z" style="fill:#003956"/><path d="M909.48,143c2.22-9.53-1.78-20.61-6.47-28.62C906.19,123.18,903.69,135.71,909.48,143Z" style="fill:#003956"/><path d="M904.84,140.81c.19-8.82-3.47-17.73-5.26-26.13C899.75,122.92,898.38,135,904.84,140.81Z" style="fill:#003956"/><path d="M883.22,131.34c2.42-9.43-.45-20.53-4.46-29C881.42,111.44,878.48,123.44,883.22,131.34Z" style="fill:#003956"/><path d="M877.67,129.31c.8-8.79-2.25-17.93-3.46-26.43C873.82,111.11,871.61,123.11,877.67,129.31Z" style="fill:#003956"/><path d="M758.68,89.11c1-9.67,1.76-22.41-2.24-30.55C759,68.35,752.49,81,758.68,89.11Z" style="fill:#003956"/><path d="M776,93.05c4.45-7.78,7.78-17.4,7.59-26.23C782.2,75.48,773,84.53,776,93.05Z" style="fill:#003956"/><path d="M767.25,91.07c3.77-6.3,6.44-16.1,3.38-22.86C772.09,75.87,763.73,84,767.25,91.07Z" style="fill:#003956"/><path d="M867.07,124.59c2.84-8.91,1.06-20.41-3.49-28.23C866.83,105.15,862.65,116.74,867.07,124.59Z" style="fill:#003956"/><path d="M793.05,97.77c.82-9-3.43-19.7-9.62-25.94C788.6,79.36,787,91.38,793.05,97.77Z" style="fill:#003956"/><path d="M752.25,87c3.38-7.27-.15-18.31-4.17-23.74C751.08,70.72,748.35,80.5,752.25,87Z" style="fill:#003956"/><path d="M887,133.23c2.62-10.45,5.13-23.35,2.4-33.08C890.6,111,882.18,123.68,887,133.23Z" style="fill:#003956"/><path d="M890.66,135.21c6.68-7.86,11.72-19.51,11.18-29.72C900.77,116,890.35,125.05,890.66,135.21Z" style="fill:#003956"/><path d="M898.5,137.87c3-7.45-1.13-18.27-5.44-23.48C896.45,121.68,894.25,131.59,898.5,137.87Z" style="fill:#003956"/><path d="M808,102.59c4.65-9.26,6.66-20.48,6.9-30.61C813.15,81.8,805.23,93,808,102.59Z" style="fill:#003956"/><path d="M868.47,126.05c-7,4.73-6.05,14.76-11.92,20.22C862.91,142.83,868.53,132.88,868.47,126.05Z" style="fill:#003956"/><path d="M872.65,127.37c2.93-9.64,2.58-19.68,5.57-29.33C874.21,105.09,868.07,119.28,872.65,127.37Z" style="fill:#003956"/><path d="M818.75,106.12c1.49-9.49,1.32-21.86-3-29.66C818.77,85.87,813,98.41,818.75,106.12Z" style="fill:#003956"/><path d="M885.56,133.09c-9.38,4.61-12.4,16.28-20.11,22.77C873.78,150.89,882.19,141.84,885.56,133.09Z" style="fill:#003956"/><path d="M831.88,110.74c2.12-6.85-1-14.22-1.33-21C829.25,95.93,827,106,831.88,110.74Z" style="fill:#003956"/><path d="M725.05,81.73c-6.93-.14-12.71,5-19.15,6.57C712,88.52,722.22,87.61,725.05,81.73Z" style="fill:#003956"/><path d="M940.28,160.18C897.61,120.64,711.76,69.34,697,76.57,716.42,79.62,880.66,123.48,940.28,160.18Z" style="fill:#003956"/></svg>