<svg id="b2bcd156-ba00-4467-8d55-02ebd3a1371c" data-name="Mark" xmlns="http://www.w3.org/2000/svg" viewBox="0 0 1920 1080"><path d="M1154.86,16.77c11.89,1.27,18.29,13,28.51,17.55C1174.28,32.21,1161.85,23.54,1154.86,16.77Z" style="fill:#137f9b"/><path d="M1161.84,11.7c-4.92-8.41-5.2-19.87-3.66-29.09C1158.11-7.93,1164.23,2.8,1161.84,11.7Z" style="fill:#137f9b"/><path d="M1175.07,4.94c7.22,2.9,12.12,9.34,19.14,12.35C1187.36,16.29,1176.34,12.3,1175.07,4.94Z" style="fill:#137f9b"/><path d="M1163.93,11.82c6.32,3.68,11.13,9.2,18.62,9.94C1176,23.47,1163.73,19.53,1163.93,11.82Z" style="fill:#137f9b"/><path d="M1157.33,14.65C1151.94,5.32,1146-6.4,1146-16.5,1147.81-5.72,1159.38,4.13,1157.33,14.65Z" style="fill:#137f9b"/><path d="M1108.26,47.55c-6.69-8.89-14.75-19.69-16.11-30.1C1095.41,28.31,1108.85,36.51,1108.26,47.55Z" style="fill:#137f9b"/><path d="M1151.46,18.64c11,2.87,15.68,15.21,25.67,19.36C1167.34,35.79,1156.8,26.35,1151.46,18.64Z" style="fill:#137f9b"/><path d="M1095.31,57.05c-3.39-8.16-3.21-17.79-4.59-26.27C1093.55,38.53,1099.24,49.32,1095.31,57.05Z" style="fill:#137f9b"/><path d="M1058.17,87.9c-7.21-7.71-10.42-19.89-10.34-30.05C1049.3,68.16,1058,78,1058.17,87.9Z" style="fill:#137f9b"/><path d="M1062.39,84.33c-7.5-7-12.86-18.43-14-28.31C1051.13,65.92,1061.59,74.34,1062.39,84.33Z" style="fill:#137f9b"/><path d="M1178.47,2.68c7,3.76,12,10.45,18.83,14.16C1190.38,15.1,1179.15,10.45,1178.47,2.68Z" style="fill:#137f9b"/><path d="M1142,24.84c10.75,2.45,17.12,13,26.76,17.16C1159.32,39.65,1147.46,32.48,1142,24.84Z" style="fill:#137f9b"/><path d="M1121.72,39c11.43,2.39,16.08,14.6,25,20.32C1137.7,55.36,1127.62,46.31,1121.72,39Z" style="fill:#137f9b"/><path d="M1103.83,51.6c9.63,3.59,13.85,14.21,22.11,19.32C1117.52,67.84,1107.46,59.39,1103.83,51.6Z" style="fill:#137f9b"/><path d="M1116.46,41.8c9.25,3,16.75,9.72,25.09,14C1132.91,53.74,1120.61,49.77,1116.46,41.8Z" style="fill:#137f9b"/><path d="M1082.31,67.57c-.79-9.14-1.42-21.43,2.83-28.87C1082.26,47.88,1088.72,60.2,1082.31,67.57Z" style="fill:#137f9b"/><path d="M1118,40.41c-4.64-7.46-8.32-16.8-8.34-25.46C1111.18,23.41,1120.66,32,1118,40.41Z" style="fill:#137f9b"/><path d="M1132.64,31.57c11.47-5.13,20.77,9.73,32.17,10.51C1154.51,43.3,1142.68,33.82,1132.64,31.57Z" style="fill:#137f9b"/><path d="M1136.17,28.89c-1.64-9-8.88-15.2-10.45-23.95C1128.47,11.65,1142.37,20.54,1136.17,28.89Z" style="fill:#137f9b"/><path d="M1129.27,32.27c-7.83-5.29-14.8-14-15.34-22.88C1118.4,22.09,1129.58,24.34,1129.27,32.27Z" style="fill:#137f9b"/><path d="M1040.71,103.94c8.56,4.54,10.85,15.37,19.32,20.51C1051.21,120.9,1043.27,112.83,1040.71,103.94Z" style="fill:#137f9b"/><path d="M1111.45,45.83c9.54,4.48,12.6,16.5,22.11,20.85C1124.25,64.48,1114.61,54.18,1111.45,45.83Z" style="fill:#137f9b"/><path d="M1153.65,16.62c-8.58-5.73-16.62-15.55-18.9-25.52C1138.66.88,1151.17,6.76,1153.65,16.62Z" style="fill:#137f9b"/><path d="M1129.53,32.92c5.83,3.48,5.06,11.38,10,15.72C1134.9,47.42,1128.11,38.23,1129.53,32.92Z" style="fill:#137f9b"/><path d="M1122.7,37.32C1118,30,1114.11,20.69,1114,12.05,1115.65,20.47,1125.27,28.84,1122.7,37.32Z" style="fill:#137f9b"/><path d="M1104.07,50.89c-4.28-7.89-8.09-17.45-7.59-26.35C1097.54,33.35,1107.19,42.31,1104.07,50.89Z" style="fill:#137f9b"/><path d="M1108,48.5c6.84,3.19,8.55,11.66,12.44,17.31C1115.61,61.5,1108.31,55,1108,48.5Z" style="fill:#137f9b"/><path d="M1100.51,54c12,.18,19.4,11.24,30,14.88C1121.26,67.6,1108.09,60.11,1100.51,54Z" style="fill:#137f9b"/><path d="M1090.17,61.73c9.92-1.85,13.88,9.51,21.58,13.35C1104.82,73.62,1096.06,66,1090.17,61.73Z" style="fill:#137f9b"/><path d="M1087.34,64.41c8.72.85,11,11.25,16.76,16.17A48.91,48.91,0,0,1,1087.34,64.41Z" style="fill:#137f9b"/><path d="M1065.87,80.81c-3.62-8-3.73-17.68-5.36-26.11C1063.57,62.36,1069.57,73,1065.87,80.81Z" style="fill:#137f9b"/><path d="M1071.83,75.77C1065.91,67.61,1063,58,1057,49.86,1063.09,55.21,1073.52,66.63,1071.83,75.77Z" style="fill:#137f9b"/><path d="M1029.17,113.68c9.83-3.19,19.08,4.66,28.82,4.74C1048.86,119.91,1037,117.55,1029.17,113.68Z" style="fill:#137f9b"/><path d="M1075.26,72.84c-6.08-7.75,3.33-16.45,1.53-25.1C1080.23,54.4,1076.59,65.59,1075.26,72.84Z" style="fill:#137f9b"/><path d="M1074.31,75.53c5.83,2.63,8.21,10.06,10.3,15.45C1081.2,86.4,1073.82,81.52,1074.31,75.53Z" style="fill:#137f9b"/><path d="M1051.75,93.36c-2.43-9.86-5.8-23.19-3.6-32.25C1047.7,71.54,1056.68,84,1051.75,93.36Z" style="fill:#137f9b"/><path d="M1113,44.67c7.76-2.38,15.89,1.68,23.66,2.33C1130.47,48.05,1118.41,49.21,1113,44.67Z" style="fill:#137f9b"/><path d="M1125.9,35.66c10.77,1.57,17.73,11.55,27.53,14.92C1144,49.06,1131.74,42.78,1125.9,35.66Z" style="fill:#137f9b"/><path d="M1084.12,67.2c7.92,1.78,13,9.45,20.74,11.45C1097.68,78.64,1086.6,74.05,1084.12,67.2Z" style="fill:#137f9b"/><path d="M1094.71,58.37c5.59,1.72,8,9,9,14C1101.16,67.8,1094.24,63.82,1094.71,58.37Z" style="fill:#137f9b"/><path d="M1079.82,69.85c7.32,4.08,13,10.61,21.41,12.7C1094.52,83.16,1080.52,78.07,1079.82,69.85Z" style="fill:#137f9b"/><path d="M1097.75,56c9.55,5,16.82,13.48,26.92,17.31C1114.87,71.52,1101.24,65.56,1097.75,56Z" style="fill:#137f9b"/><path d="M1147.69,21.22c11.34,2.07,18.14,13.22,28.82,16.49C1167.51,37.05,1153.6,28.53,1147.69,21.22Z" style="fill:#137f9b"/><path d="M1137.06,28.11c9-2.87,15,7.5,23.54,7.26C1153.05,37.43,1143,32,1137.06,28.11Z" style="fill:#137f9b"/><path d="M1025.33,119.18c10.78-2.33,21,4.49,31.51,4.2C1047.28,125.27,1033.5,123.8,1025.33,119.18Z" style="fill:#137f9b"/><path d="M1019.06,123.5c8.94-2.91,15.08,7.43,23.58,7.15C1035.09,132.75,1025.05,127.33,1019.06,123.5Z" style="fill:#137f9b"/><path d="M1077.56,72.57c10.81,2.18,17.44,12.52,27.2,16.47C1095.23,86.93,1083.2,80.07,1077.56,72.57Z" style="fill:#137f9b"/><path d="M1063.24,84.34c11.33-5.42,21,9.19,32.43,9.68C1085.4,95.51,1073.34,86.33,1063.24,84.34Z" style="fill:#137f9b"/><path d="M1069.41,78.83c8.88-3.1,15.23,7.11,23.73,6.65C1085.64,87.73,1075.48,82.53,1069.41,78.83Z" style="fill:#137f9b"/><path d="M1159.73,13.83c9.69,4.81,16,14.56,25.31,19.73C1175.67,30.26,1163.38,23,1159.73,13.83Z" style="fill:#137f9b"/><path d="M1012.52,130.07c11.35-3.76,22,4.24,33.22,4.19C1036.59,136.1,1021.69,133.35,1012.52,130.07Z" style="fill:#137f9b"/><path d="M1054.6,91.73c11.82-1.74,21,8,32,9.87C1077.26,101.83,1063.06,96.54,1054.6,91.73Z" style="fill:#137f9b"/><path d="M1051.36,94.52c11.36.17,18.84,11,29.53,12.7C1070.86,107.41,1058.38,100.74,1051.36,94.52Z" style="fill:#137f9b"/><path d="M1042.35,102c11.51-.69,20.77,8.53,31.92,9.17C1065.37,112.61,1049.83,107.64,1042.35,102Z" style="fill:#137f9b"/><path d="M1060.56,87.09c10.59,2.23,19.11,10.1,29.44,12.76C1080.1,99,1066.4,95.06,1060.56,87.09Z" style="fill:#137f9b"/><path d="M1167.22,9.09c9.54,5.05,16.81,13.48,26.9,17.32C1184.33,24.59,1170.7,18.64,1167.22,9.09Z" style="fill:#137f9b"/><path d="M1181.94.86c8.58-.8,15.8,5.56,24.25,5.69C1199.93,8.42,1186.54,6.45,1181.94.86Z" style="fill:#137f9b"/><path d="M1186.51-1.18c6-2.25,12.52.83,18.61.2C1200,1.25,1190.4,3.53,1186.51-1.18Z" style="fill:#137f9b"/><path d="M1179.36,1.41c-3.06-6,.18-14.17,3.59-19.2C1180.87-11.83,1183.4-3.35,1179.36,1.41Z" style="fill:#137f9b"/><path d="M1173.79,4.92c-4.65-6.32-4.09-16.43-1.45-23.26C1171.17-10.78,1176.4-2,1173.79,4.92Z" style="fill:#137f9b"/><path d="M1101.08,53.32c-5.62-8.47-5-20.55-2.75-29.87C1097.51,33.26,1102.77,44.16,1101.08,53.32Z" style="fill:#137f9b"/><path d="M1167,8.78c-3.18-8.24-2.75-17.86-3.92-26.37C1165.73-9.78,1171.14,1.16,1167,8.78Z" style="fill:#137f9b"/><path d="M1015.69,125.82c-5.21-8.28-5-20.06-3.22-29.16C1012.34,106.06,1018.79,117.09,1015.69,125.82Z" style="fill:#137f9b"/><path d="M1019.38,122.28c-3.07-8.28-2.51-17.89-3.56-26.42C1018.35,103.71,1023.6,114.72,1019.38,122.28Z" style="fill:#137f9b"/><path d="M1036.72,106.28c-5.36-8.13-6.27-19.56-5.24-28.85C1031.93,86.88,1038.63,97.26,1036.72,106.28Z" style="fill:#137f9b"/><path d="M1041.31,102.55c-3.62-8.06-3.73-17.68-5.36-26.12C1039,84.09,1045,94.71,1041.31,102.55Z" style="fill:#137f9b"/><path d="M1140.68,25.73c-4.14-8.8-9-20.6-7.85-29.6C1133.57,6.22,1143.89,16.07,1140.68,25.73Z" style="fill:#137f9b"/><path d="M1125.64,35.1c-6.75-5.9-13-13.92-15.74-22.33C1114,20.52,1125.62,26.09,1125.64,35.1Z" style="fill:#137f9b"/><path d="M1133.22,30.39c-5.62-4.73-11.34-13.12-10.65-20.51C1123.68,17.6,1134.23,22.54,1133.22,30.39Z" style="fill:#137f9b"/><path d="M1049.78,94.63c-5.58-7.5-7.65-18.95-5.9-27.82C1043.67,76.17,1051.41,85.77,1049.78,94.63Z" style="fill:#137f9b"/><path d="M1111,45.13c-3.72-8.28-3.18-19.74.63-27.66C1109.22,26.28,1114.61,37.13,1111,45.13Z" style="fill:#137f9b"/><path d="M1146.06,21.64c-5.56-5.77-5.83-17.35-3.79-23.79C1141.87,5.87,1147.64,14.23,1146.06,21.64Z" style="fill:#137f9b"/><path d="M1033.73,109.31c-5.89-9-12.47-20.4-13.06-30.49C1023.12,89.49,1035.21,98.7,1033.73,109.31Z" style="fill:#137f9b"/><path d="M1031,112.36c-8.88-5.25-17.44-14.62-20.26-24.45C1015.12,97.46,1027.94,102.66,1031,112.36Z" style="fill:#137f9b"/><path d="M1024.41,117.43c-5.25-6.06-4.89-17.64-2.52-24C1021.06,101.46,1026.38,110.11,1024.41,117.43Z" style="fill:#137f9b"/><path d="M1098.5,54.54c-7.41-7.22-13-17.18-16.51-26.68C1086.81,36.59,1097.93,44.55,1098.5,54.54Z" style="fill:#137f9b"/><path d="M1048.94,96.47c8.19,2.17,10.53,12,17.86,15.22C1059.67,110.51,1051.11,102.94,1048.94,96.47Z" style="fill:#137f9b"/><path d="M1045.42,99.08c-5.92-8.16-8.86-17.77-14.84-25.91C1036.68,78.52,1047.11,89.94,1045.42,99.08Z" style="fill:#137f9b"/><path d="M1089.44,61.41c-4.5-8.48-8.38-20.24-6.85-29C1082.82,42.28,1092.37,52.24,1089.44,61.41Z" style="fill:#137f9b"/><path d="M1035.09,108.7c10.36,1.29,17,11.34,26.43,15C1052,121.68,1041.12,115.86,1035.09,108.7Z" style="fill:#137f9b"/><path d="M1078.53,70.06c-4.23-5.79-3.66-13.77-5.59-20.3C1076.19,55.21,1081.57,64,1078.53,70.06Z" style="fill:#137f9b"/><path d="M1170.07,7.79c6.5-2.39,13.64.59,20.23,0C1184.65,10,1174.65,12.43,1170.07,7.79Z" style="fill:#137f9b"/><path d="M992.19,152.15c27.43-51.3,186.39-160.4,202.71-158.38C1177.53,3,1036.58,98,992.19,152.15Z" style="fill:#137f9b"/></svg>