<svg id="bc1103c2-d76d-4ace-8681-c718acb6c29d" data-name="Mark" xmlns="http://www.w3.org/2000/svg" viewBox="0 0 1920 1080"><path d="M1477.91,684.15s-19.51,3.66-16.78,8.73,11.13,8.69,15.91,8.69,44.29-3.86,49.36-8.71S1477.91,684.15,1477.91,684.15Z" style="fill:#112f5b"/><path d="M1526.85,661.79c.36.63.2,2.71.2,4.32s1.48,6.17,1,12.11-3,13.8-3,13.8c-14,3.34-30.51,2.26-32.25,1.88a49.38,49.38,0,0,1,1.55-15.44c.48-2.51,1.16-4,2.07-7.14a9.61,9.61,0,0,1,.85-2,69.9,69.9,0,0,1,7.59-2.65c2.26-.48,6.23-.68,7.88-1s6.65-1.35,7.9-1.73,4.2-3.92,4.2-3.92h0A20.31,20.31,0,0,1,1526.85,661.79Z" style="fill:#0d2d51"/><path d="M1520.65,664c-1.25.38-6.25,1.44-7.9,1.73s-5.62.49-7.88,1a69.9,69.9,0,0,0-7.59,2.65c1.21-2.24,3-4.14,3.13-5.84.2-2.17.72-5.62,1-7.55a36.28,36.28,0,0,1,2.64-8.75c1.67-3.86,10.93-7.08,10.93-7.08a124.27,124.27,0,0,0,5.44,14.57,17.27,17.27,0,0,0,4.39,5.38h0S1521.91,663.6,1520.65,664Z" style="fill:#164072"/><path d="M1486.4,663.15a95.9,95.9,0,0,0,5.56-14h0c2.68-1.87,10.74,1.67,10.74,1.67h0a34.26,34.26,0,0,0-1.25,5.1c-.32,1.93-.84,5.38-1,7.55s-3.06,4.68-4,7.82-1.59,4.63-2.07,7.14a49.38,49.38,0,0,0-1.55,15.44c-1.73-.39-8.49-.92-10.32-1.5a24.27,24.27,0,0,1-5-2.94C1478,672.86,1484.79,666,1486.4,663.15Z" style="fill:#314e7c"/><path d="M1492,649.18h0c.07-.25.13-.48.18-.68.67-3,5.5-6.27,9-7.81s12.77-4,13.86-.57c0,0-9.26,3.22-10.93,7.08-.58,1.33-1,2.54-1.39,3.65h0S1494.64,647.31,1492,649.18Z" style="fill:#5887cc"/><path d="M828.6,719.05s-8.71,2.41-9.4,4.76,5.07,7.69,36.69,7.33c28.68-.34,27.56-4.43,32.44-10.11C889.92,719.17,829.05,718.54,828.6,719.05Z" style="fill:#30578d"/><path d="M842.25,704.6c4.35,1.14,7.46,1.5,9,3.06s1.19,3.13,4.51,3.77,6.63-.61,10.41-.92,5.91-.47,10-2.38,7.26-1.72,7.67-3.68a20.43,20.43,0,0,0-9-6.9c-4.1-1.66-7.1-2.8-9.8-2.8s-6.89,1.82-9.28,3.27-3.31,0-9.43,1.09-8.19,1.24-9.07,2.33C837.17,701.44,837.9,703.46,842.25,704.6Z" style="fill:#95e6e8"/><path d="M860,715.54a8.47,8.47,0,0,1,1.38-4.32,16,16,0,0,1-5.68.21,4.28,4.28,0,0,1-3.13-1.8,19.82,19.82,0,0,0-.55,6.27c.1,3-1.84,9.39-2.42,10.55h0l1.17.23c2.75.41,9.49,1.42,11.28,1.42C862.58,720.75,860.08,717.77,860,715.54Z" style="fill:#2fa2a5"/><path d="M888.33,715.77c-.08-1.14-2.73-8.71-4.57-11.32-.41,2-3.62,1.76-7.67,3.68a22,22,0,0,1-5.45,1.86h0c.51,3.88,5,6.08,6.06,7.33s1.66,3.59,2.18,5,0,5.81,0,5.81c1.07.1,9-6.29,9.45-7.07S888.4,716.91,888.33,715.77Z" style="fill:#55bec6"/><path d="M852.05,715.9a19.82,19.82,0,0,1,.55-6.27,13,13,0,0,0-1.38-2c-1.51-1.56-4.62-1.92-9-3.06s-5.08-3.16-5.08-3.16c-.88,1.09-3.26,5.23-4.72,6.58s-4.35,7.05-3.78,13.17c0,0,15.93,4.17,21,5.26h0C850.21,725.29,852.15,718.85,852.05,715.9Z" style="fill:#288e8e"/><path d="M878.88,722.29c-.52-1.38-1.14-3.73-2.18-5s-5.55-3.45-6.06-7.33h0a40,40,0,0,1-4.5.52c-1.65.14-3.22.45-4.73.71a8.47,8.47,0,0,0-1.38,4.32c.05,2.23,2.55,5.21,2.05,12.56,1.8,0,15.72-.11,16.8,0C878.88,728.1,879.39,723.67,878.88,722.29Z" style="fill:#2fa2a5"/><path d="M214.19,676.7s-10.94.1-11.74,6.82c-1.46,12.36,68,16.15,78.59,1.73Z" style="fill:#0e2954"/><path d="M248.85,667.12c1.29.26,2.55.12,3.93.27-12.43-19.88,2.09-17.88,2.15-17.87-5.34-3-12.23-3.95-18.67,0C236.26,649.56,245.92,666.54,248.85,667.12Z" style="fill:#315477"/><path d="M263.77,659.07c-1.29-3.5-4.58-7.17-8.84-9.55-.06,0-14.58-2-2.15,17.87,1.74.2,3.65.86,6,3.39,3.91,4.19,11.67,11.5,10.66,16.51a4,4,0,0,1-.43,1.2c.51,0,11.75-1.48,12-3.24C281.48,682.34,266.7,667,263.77,659.07Z" style="fill:#71a3cc"/><path d="M245.6,670.68c-2.72,0-7.53-7.11-7.73-9.07s5.44-.69,5.44-.69c-3.46-5.06-7.05-11.36-7.05-11.36-11.56,7.17-23.56,28.68-23.56,30.73,0,0,3.66,6.15,12.73,8.35s33.22,1.75,37.17.73c-.14-2.78-4.73-9.32-7.67-13.42S248.31,670.68,245.6,670.68Z" style="fill:#133556"/><path d="M269.46,687.29c1-5-6.75-12.32-10.66-16.51-2.37-2.53-4.28-3.19-6-3.39-1.38-.15-2.64,0-3.93-.27s-3.32-3-5.54-6.2c0,0-5.63-1.27-5.44.69s5,9.07,7.73,9.07,6.4,1.17,9.33,5.27,7.53,10.64,7.67,13.42a58.62,58.62,0,0,1,6.43-.88A4,4,0,0,0,269.46,687.29Z" style="fill:#315477"/></svg>