<svg id="aa6a8525-2e36-409e-aa01-0e01b8debfbb" data-name="Mark" xmlns="http://www.w3.org/2000/svg" viewBox="0 0 1920 1080"><path d="M1394.28,723.27s41.56-16.39,53.85-72S1485.36-200,1485.36-200h44.48s-9.07,802.94-4.44,857.71c3.51,41.57,41,61.47,41,61.47Z" style="fill:#137f9b"/><path d="M303,705.72,391.18,708s-77.61-11.7-90.64-83.7,0-823.91,0-823.91H246s-4.89,754-13,815.71-87.11,85.47-87.11,85.47L203,703.1l28.77-18.34c2.65-1.69,5.45,1.93,3.44,4.44l-11.58,14.44h0l30.4.8,10.78-14.33a13.58,13.58,0,0,1,20.73-1.64Z" style="fill:#117a93"/></svg>