<svg id="ed2ef1fa-f8a0-4216-96a2-7dee6b469395" data-name="Mark" xmlns="http://www.w3.org/2000/svg" viewBox="0 0 1920 1080"><path d="M449.77,65.13C460.4,68.28,464.53,80,473.2,85.78,467.64,84.35,453,70.34,449.77,65.13Z" style="fill:#117a93"/><path d="M457,61.57c-3.06-8.54-1.61-19.06,1.23-27.32C456.63,42.93,460.43,53.71,457,61.57Z" style="fill:#117a93"/><path d="M480.29,53.1C477.35,48.72,492.59,35,488,41.52,485.23,45.18,484.33,51,480.29,53.1Z" style="fill:#117a93"/><path d="M470.21,57.46C475,60.07,477.48,65,481.6,68.4,495.2,78.2,467.6,64.23,470.21,57.46Z" style="fill:#117a93"/><path d="M458.88,62c5.14,4.47,8.77,10.25,15.55,12.07C468.08,74.56,457.65,69,458.88,62Z" style="fill:#117a93"/><path d="M452.37,63.57c-3.36-9.48-7-21.1-5.54-30.44C446.82,43.35,455.75,54.18,452.37,63.57Z" style="fill:#117a93"/><path d="M402.05,86.05C397.5,77,391.6,65.47,392,55.84,393.29,65.72,404.82,78.45,402.05,86.05Z" style="fill:#117a93"/><path d="M446.33,66.31C456,70.67,458,82.8,466.81,88,460.42,86.9,448.7,72.44,446.33,66.31Z" style="fill:#117a93"/><path d="M388.64,92.74c-1.69-8.06-.1-16.84-.07-24.87C389.92,75.45,393.31,86.19,388.64,92.74Z" style="fill:#117a93"/><path d="M349.61,115.23c-5.28-8.29-6.4-19.92-4.76-29.27C344.54,95.68,350.82,106,349.61,115.23Z" style="fill:#117a93"/><path d="M354.05,112.61a46.94,46.94,0,0,1-8.4-28.24C346.59,93.91,354.72,103.31,354.05,112.61Z" style="fill:#117a93"/><path d="M473.69,55.92c5.72,4.65,9.31,11.5,15.08,16C482.68,69.16,473.27,63.13,473.69,55.92Z" style="fill:#117a93"/><path d="M436.68,70.52c9.42,4.06,13.66,14.64,21.89,20C453.85,89.88,437.24,74.91,436.68,70.52Z" style="fill:#117a93"/><path d="M415.77,80.31c10.05,4.11,12.45,16,19.82,22.64-4.67-1.7-7.63-7-10.77-10.76C421.88,88.49,416.8,84.63,415.77,80.31Z" style="fill:#117a93"/><path d="M397.32,89.09c8.2,4.91,10.47,15.27,17.28,21.25C407.94,106.8,399.06,96.05,397.32,89.09Z" style="fill:#117a93"/><path d="M410.49,82.07c8,4.34,13.83,11.62,20.85,16.85C424.18,96,412.7,89.48,410.49,82.07Z" style="fill:#117a93"/><path d="M375,100.36c.85-8.54,2.1-19.85,7.17-26.1C378.05,82.24,381.94,94.48,375,100.36Z" style="fill:#117a93"/><path d="M412.1,81c-2.81-7.34-5.27-17.55-3.52-24.58C408.38,64.59,415.86,73.64,412.1,81Z" style="fill:#117a93"/><path d="M427,75.23C438.15,72.39,444.61,87.51,454.9,90,445.17,89.4,436,78.76,427,75.23Z" style="fill:#117a93"/><path d="M430.67,73.32c.05-8.55-5.75-15.4-5.82-23.68C426.26,56.31,437.53,66.53,430.67,73.32Z" style="fill:#117a93"/><path d="M423.79,75.33c-6.68-7-11.06-14.16-10.5-23.46C416,65.91,425,67.36,423.79,75.33Z" style="fill:#117a93"/><path d="M331,127.22c7.78,5.45,4.63,12.6,14.57,21.69C338.23,145.23,332.05,135.38,331,127.22Z" style="fill:#117a93"/><path d="M405.24,85c8,5.72,9,17.19,17,22.67C415.05,105.2,406.21,92,405.24,85Z" style="fill:#117a93"/><path d="M448.68,64.79c-6.88-6.72-12.78-16.91-13.35-26.44C437.36,48,447.79,55.37,448.68,64.79Z" style="fill:#117a93"/><path d="M423.91,76c4.74,4.28,2.8,11.25,6.72,16C426.75,90.43,421.81,80.25,423.91,76Z" style="fill:#117a93"/><path d="M417,78.93C414,71.65,411.39,61.5,413,54.46,413,62.6,420.59,71.5,417,78.93Z" style="fill:#117a93"/><path d="M397.67,88.47c-2.42-7.68-4.92-18.15-2.7-25.28C394.26,71.56,401.84,81,397.67,88.47Z" style="fill:#117a93"/><path d="M401.61,86.88c5.68,4.11,6,12.08,8.69,17.88C406.61,100,401.09,92.88,401.61,86.88Z" style="fill:#117a93"/><path d="M393.9,90.77c10.88,2.16,16.06,13.43,25.22,18.42C413.55,108.35,397.54,95.59,393.9,90.77Z" style="fill:#117a93"/><path d="M383.17,96.24c9.36,0,11.23,11,17.72,15.69-3.11-.51-7.06-4.82-9.46-7.62S384.69,99.16,383.17,96.24Z" style="fill:#117a93"/><path d="M380.14,98.26c7.79,2.25,8.34,12.1,12.85,17.51C387.66,111.52,382.66,104.26,380.14,98.26Z" style="fill:#117a93"/><path d="M357.81,109.93c-1.93-8-.59-16.82-.8-24.85C358.58,92.61,362.29,103.25,357.81,109.93Z" style="fill:#117a93"/><path d="M364.09,106.24c-4-8.49-5.32-17.77-9.54-26.18C359.29,86,366.91,98.05,364.09,106.24Z" style="fill:#117a93"/><path d="M318.85,134.35c9.58-1.38,16.45,7.47,25.63,8.72C340,144.55,322.46,137.77,318.85,134.35Z" style="fill:#117a93"/><path d="M367.71,104.09c-4.22-8.1,5.69-14.6,5.38-22.84C375.14,88,369.94,97.55,367.71,104.09Z" style="fill:#117a93"/><path d="M366.4,106.41c4.65,3.3,6.38,11.12,6.86,15.76C371.13,117.28,365,111.73,366.4,106.41Z" style="fill:#117a93"/><path d="M342.84,119.24c-.56-9.23-1.61-22.49,1.79-30.23C342.54,98.53,348.7,111.29,342.84,119.24Z" style="fill:#117a93"/><path d="M406.84,84.16c7.5-.82,14.33,4.08,21.38,5.89C422.33,90,411.24,89.07,406.84,84.16Z" style="fill:#117a93"/><path d="M420.14,77.92c9.59,3.26,14.45,13.45,23,18.07C438.52,95.87,420.86,82.1,420.14,77.92Z" style="fill:#117a93"/><path d="M376.74,100.31c6.93,3,10.45,10.78,17.25,13.8C388.68,113.86,376.87,105.69,376.74,100.31Z" style="fill:#117a93"/><path d="M387.87,93.87c4.82,2.63,5.86,9.47,6.1,14.29C392.33,103.48,386.76,98.88,387.87,93.87Z" style="fill:#117a93"/><path d="M372.36,102.06c6,5,10.27,11.85,17.68,15.07C384.17,116.87,371.49,109.24,372.36,102.06Z" style="fill:#117a93"/><path d="M391,92.19c7.84,6.19,13.35,15.11,22,20.17C404.31,109.08,392.91,101.46,391,92.19Z" style="fill:#117a93"/><path d="M442.46,68.09c10,3.81,14.58,15,23.89,19.73C460.3,87.31,445,74,442.46,68.09Z" style="fill:#117a93"/><path d="M431.6,72.75C440.26,71.53,444,82.11,451.94,83,447.24,85,435.09,76.31,431.6,72.75Z" style="fill:#117a93"/><path d="M314.46,138.8c10.25-.31,18.58,7.48,28.3,8.84C338.21,149.06,316.82,142.54,314.46,138.8Z" style="fill:#117a93"/><path d="M369.85,104.21c9.53,3.82,14,14.29,22.4,19.44C387.52,123.12,370.53,108.58,369.85,104.21Z" style="fill:#117a93"/><path d="M354.83,112.77c11.08-3.13,17.93,11.82,28.28,14C373.37,126.47,363.91,116.07,354.83,112.77Z" style="fill:#117a93"/><path d="M361.38,108.67c8.62-1.44,12.61,9,20.6,9.71C377.33,120.5,365,112.15,361.38,108.67Z" style="fill:#117a93"/><path d="M454.7,63.2c7.74,6,13.13,16.27,20,22.19C467.51,81.21,455.88,71.18,454.7,63.2Z" style="fill:#117a93"/><path d="M345.71,118.2c11.08.39,18,10.67,27.85,14.13C367.93,132.39,350.08,122.37,345.71,118.2Z" style="fill:#117a93"/><path d="M342.29,120.24c10.38,1.94,15.29,13.23,25,16.16C360.86,136.89,346,125.62,342.29,120.24Z" style="fill:#117a93"/><path d="M332.84,125.65c10.63,1.32,17.74,11.16,27.89,13.49C354.73,140.08,336.74,130.78,332.84,125.65Z" style="fill:#117a93"/><path d="M351.92,114.86c9,3.89,16.79,12.47,24.88,16.49C368.83,129.1,355.06,122.29,351.92,114.86Z" style="fill:#117a93"/><path d="M462.33,60c7.85,6.2,13.35,15.11,22,20.17C475.6,76.93,464.21,69.31,462.33,60Z" style="fill:#117a93"/><path d="M477.17,54.8c8,.75,13.65,7.63,21.41,9.06C493.18,64.79,480,60.18,477.17,54.8Z" style="fill:#117a93"/><path d="M481.7,53.64c6-1.12,11,3,16.93,3C494.63,58.29,484.39,58.3,481.7,53.64Z" style="fill:#117a93"/><path d="M474.72,54.88C473,48.79,477.15,42,481.06,37.8,478.15,43,479.09,51,474.72,54.88Z" style="fill:#117a93"/><path d="M469.05,57.23c-3.14-6.59-1.14-15.71,2.33-21.61C469.09,42.4,472.39,51.24,469.05,57.23Z" style="fill:#117a93"/><path d="M394.54,90.22c-3.7-8.71-1.36-19.65,2.18-27.89C394.39,71.21,397.37,82,394.54,90.22Z" style="fill:#117a93"/><path d="M462.22,59.71c-1.5-8.1.32-16.84.55-24.87C463.93,42.45,467.05,53.28,462.22,59.71Z" style="fill:#117a93"/><path d="M311.17,136.3c-1.38-8.12.55-16.83.9-24.85C313.12,119.07,316.09,129.94,311.17,136.3Z" style="fill:#117a93"/><path d="M327,128.74c-3.52-8.37-2.64-19-.26-27.35C325.61,110.14,330,120.7,327,128.74Z" style="fill:#117a93"/><path d="M331.79,126c-1.93-8-.6-16.83-.8-24.85C332.56,108.71,336.27,119.35,331.79,126Z" style="fill:#117a93"/><path d="M435.31,71.13c-2.29-8.8-4.95-20.3-2.54-28.47C431.83,52.07,439.62,62.69,435.31,71.13Z" style="fill:#117a93"/><path d="M420,77.35c-4.93-6.34-10.29-15.53-10.77-22.91C411.52,62.43,421.33,69,420,77.35Z" style="fill:#117a93"/><path d="M427.72,74.22c-4.17-5-8.66-14.58-6.45-20.39C420.85,61.15,429.82,67.18,427.72,74.22Z" style="fill:#117a93"/><path d="M340.83,120.09c-3.82-7.82-4-18.61-1-26.51C338.11,102.15,343.56,112.16,340.83,120.09Z" style="fill:#117a93"/><path d="M405,84.27c-2-8.22.22-18.62,4.94-25.33C406.27,66.65,409.39,77.41,405,84.27Z" style="fill:#117a93"/><path d="M440.91,68.22c-4.08-6.26-2.58-16.81.26-22.49C439.52,53.06,443.36,61.6,440.91,68.22Z" style="fill:#117a93"/><path d="M323.75,131.05c-3.87-9.29-8.19-20.68-7.2-30.1C317.1,111.16,326.6,121.48,323.75,131.05Z" style="fill:#117a93"/><path d="M318.1,133.62c-3.73-6.46-1.67-16.92,1.47-22.43C317.53,118.41,320.9,127.15,318.1,133.62Z" style="fill:#117a93"/><path d="M392,90.94c-5.56-7.89-9.18-17.84-11-27.14C384,72.62,392.85,81.66,392,90.94Z" style="fill:#117a93"/><path d="M339.76,121.65c7.18,3.27,7.45,12.67,14,16.6C348.52,137.65,340.26,127,339.76,121.65Z" style="fill:#117a93"/><path d="M336.12,123.49c-4-8.49-5.32-17.76-9.54-26.17C331.32,103.3,338.94,115.3,336.12,123.49Z" style="fill:#117a93"/><path d="M382.56,95.82c-2.68-8.55-4.47-19.87-1.73-27.76C379.46,77.19,386.53,87.79,382.56,95.82Z" style="fill:#117a93"/><path d="M325.08,130.7c9.37,2.83,13.43,13.16,21.89,17.72C339.2,146.06,329.46,137.84,325.08,130.7Z" style="fill:#117a93"/><path d="M371.16,102.05c-3-6-.86-12.93-2.08-19.38C371.44,87.08,374.63,97.25,371.16,102.05Z" style="fill:#117a93"/><path d="M465.16,59.29c6.47-1.19,12,2.92,18.47,3C479.1,63.86,468.5,64,465.16,59.29Z" style="fill:#117a93"/><path d="M279.15,163.74a2,2,0,0,1-1.59-3.44C326.44,120.46,471.1,45.06,489.89,50.43c-.36,5.17-55,16.67-120.67,55.53A1005.45,1005.45,0,0,0,279.15,163.74Z" style="fill:#117a93"/></svg>