<svg id="ac29a5e0-0422-4ac5-a3ef-d7bf237642ad" data-name="Mark" xmlns="http://www.w3.org/2000/svg" xmlns:xlink="http://www.w3.org/1999/xlink" viewBox="0 0 1920 1080"><defs><linearGradient id="ad44d3f2-17b4-4497-8dd2-32f67ad73393" x1="149.74" y1="722.72" x2="209.45" y2="527.21" gradientUnits="userSpaceOnUse"><stop offset="0" stop-color="#04e3ff"/><stop offset="0.29" stop-color="#19b3d5"/><stop offset="0.61" stop-color="#2d85ac"/><stop offset="0.86" stop-color="#396893"/><stop offset="1" stop-color="#3e5d89"/></linearGradient><radialGradient id="be5db6b3-8626-477d-a09e-4fc03232d49d" cx="1640.11" cy="723.32" r="316.2" gradientUnits="userSpaceOnUse"><stop offset="0" stop-color="#60ced7"/><stop offset="1" stop-color="#0082a5"/></radialGradient><radialGradient id="f2b45f6d-4536-43bb-b1ba-6ed0811b52e0" cx="1636.59" cy="761.08" r="249.13" gradientUnits="userSpaceOnUse"><stop offset="0" stop-color="#04e3ff"/><stop offset="1" stop-color="#305d89"/></radialGradient><linearGradient id="b76838a5-d78f-4337-9a87-4c5045f65e86" x1="960.08" y1="746.23" x2="955.4" y2="608.08" gradientUnits="userSpaceOnUse"><stop offset="0" stop-color="#60ced7"/><stop offset="0.49" stop-color="#2fa7bd"/><stop offset="1" stop-color="#0082a5"/></linearGradient></defs><path d="M-16.2,555.89s-19.31,2-21.77,10.1,17.17,12.14,17.17,12.14c-33.47-7.36-38.11,10.22-38.11,10.22a17.75,17.75,0,0,0,4.72,17.33c7.86,8.17,18.37,5.62,18.37,5.62s-10.72,8.74-4.06,18.06S-15,638.47-15,638.47,6.23,637.93,13,628c0,0-7.8,26.84,26.49,29.21,0,0-5.73,17.28,10.14,18.41S77,649.24,77,649.24s4.27,20.85,38.48,23.64c0,0-20.62,6.25-16.54,18.69s27.13,2.76,27.13,2.76,1,13.59,13.1,11.36,12.93-27.17,12.93-27.17,20.08,18.11,31.25,11.83S173.08,658,173.08,658s19.44,4.66,30.33-9.61c0,0,.57,13.85,19.75,12.46,0,0,7.05,12.62,24.77,9,0,0,9.25,22.74,43.59,13.1,0,0-10.64,12.69-2.81,21.89s42.29,6.6,46.7-21c0,0,20.8,26.06,32.53,15s-13.37-35-13.37-35,29.95,14,32.65-2.19c0,0,23.3,25.43,47.19,10.62,0,0,19-18.38-28.7-31.48,0,0,17.61-7.31,2-18.05-11.89-8.18-25.47-5.13-31.27-3.21-1.73.71-2.86,1.09-2.86,1.09a30.49,30.49,0,0,1,2.86-1.09c6.66-2.7,22.41-10.25,19.34-20.08-3.88-12.4-40.06,3.73-40.06,3.73s12.73-24.2-6.65-30.14S308,592.26,308,592.26s13.93-24.81,3-29-26.09,23.37-26.09,23.37,18.47-36.32.89-40.6-37.62,27.21-37.62,27.21,5.23-17-31.52-9.53c0,0,12.16-14.16,1.1-20.17s-27.91,4.82-27.91,4.82,14.59-35.91,1.5-43.2-32.24,16.09-32.24,16.09,10.21-35.53-6.14-40.92S120,499.84,120,499.84s.82-23.31-15.19-22-24.27,37.06-24.27,37.06-13.32-39.4-29-38.35-16,31.9-16,31.9-1.62-28.47-15-30.37-16.7,24.67-16.7,24.67-6.5-24.24-20.42-23.4-14.8,19-14.8,19-16.46-4.84-22.52,5.07,21.7,34.83,21.7,34.83C-36.54,553.19-16.2,555.89-16.2,555.89Z" style="fill:url(#ad44d3f2-17b4-4497-8dd2-32f67ad73393)"/><path d="M1312.25,706.35s-.08,10.7,6.76,13.3,14.07-5,14.07-5-5.11,12.35,6.59,17.25c10.32,4.33,35.24,1.87,41,1.23l1.21-.14s-35.53-6.64-35.51-17.89,16.08-15.54,16.08-15.54-8.4-15.46,2.69-23.16,28.69,9.08,28.69,9.08-10.62-23.68,1.39-28.83,27.68,17.58,27.68,17.58-15.23-25.7-2.79-34.47,43.31,17.13,43.31,17.13-11.19-33.78,1.42-42.89,23.67,10.58,23.67,10.58,1.19-29,17.43-32.75,25.69,30.77,25.69,30.77,4.07-29,18.57-29.56,20.53,36.5,20.53,36.5,8.48-17.44,20.66-18,9.26,17.24,9.26,17.24c26.66-24.65,30.88-8,30.88-8s.72-36.16,17.42-41.47,19.72,34,19.72,34-1.35-30.44,9.82-32.48,12.13,25.51,12.13,25.51,5.32-31.74,24.36-36.59,20.68,21.6,20.68,21.6,21.82-31.58,31.27-23.27c7.49,6.58-1.74,20.76-5.88,26.35,3.82-4.5,13.52-13.87,27.48-13.09,18.32,1,7.42,15.95,7.42,15.95,46.11-13.21,39.61,11.6,39.61,11.6s19.39-9.3,13.57-22.58c-4.21-9.59-20-4-28.48-.12-3.13,1.7-5.42,2.71-5.42,2.71s2.17-1.23,5.42-2.71c7.41-4,19.56-11.9,17.18-19.41-3.38-10.69-32.62-1.12-32.62-1.12s41.45-15.25,35.24-25.77c-7.11-12.06-53.67,16.56-53.67,16.56s39.13-30.94,31.69-41.8-27.43,5.57-27.43,5.57,21.26-18.62,15.78-26.39-28.73,6.14-28.73,6.14,14.91-24.46,0-33.41-37.52,30.69-37.52,30.69-1.27-35.66-15-33.57S1712,495.34,1712,495.34s-11-37.39-29.75-33.06-14.72,41.15-14.72,41.15-23.72-15.54-44.2-3.25c-19.21,11.51-8.82,29.77-7.45,32l.14.23-.14-.23c-1-1.49-7.15-10.52-15.6-6.91-8.62,3.68-6.23,16.37-5.9,17.94l0,.16,0-.16c-.31-1.36-2.71-11.35-7.88-11.72-5.55-.4-12,9.27-12,9.27s4-7.69-5.34-15c0,0,18.92-7,21.13-15.33s-12-8.06-12-8.06,17.32-15.69,4.8-22.9-30,21.31-30,21.31-5.26-23.21-17.79-22-8.56,22.08-8.56,22.08-4.24-21-25.31-10.32,10.83,41.23,10.83,41.23-20.41,7.06-10.45,30.11c0,0-4.67-7.63-16.33-1.52,0,0,12.21-10.63,6.54-16.83s-18.29,3.29-18.29,3.29,11.36-14.22,4.82-18.59-19.78,11.82-19.78,11.82,12.06-14.47,3-18.75-19,17.15-19,17.15-6.31-18.51-18.44-11.29,8,34.61,8,34.61-7.6-10-18.05-4.51c0,0-10-5.37-19.78,4.17-8.66,8.46-2.8,25.29-1.35,29,.2.48.31.76.31.76s-.12-.28-.31-.76c-2.3-5.58-17.09-39.4-27.53-11.8,0,0-12.24-33.69-29.89-27.39s-2.65,42.25-2.65,42.25-17.66-18.57-28.84-8.09,7.5,28.9,7.5,28.9-15.4-6.18-25.88,3.83,1.37,22,1.37,22-15.39-3.52-20.68,7.31c0,0,.4,8.8,12,16.2,0,0-13.94,2.95-14.18,7.94s18.43,8,18.43,8-20.9.82-21.91,6.08,14.8,9.14,14.8,9.14-17.7-1.9-18.15,4.89S1274.52,725.87,1312.25,706.35Z" style="fill:url(#be5db6b3-8626-477d-a09e-4fc03232d49d)"/><path d="M1404,739.55s-15,11.39-12.93,19.32,20.32,1.39,20.32,1.39c-31.4,10.78-26.38,27.66-26.38,27.66a17.18,17.18,0,0,0,12.63,12c10.62,2.81,18-4.6,18-4.6s-4.46,12.63,5.74,17,25.15-5,25.15-5,17.32-11.15,17.91-22.83c0,0,7.06,26.14,36.63,10.83,0,0,4,17.18,17.67,10.12s9.36-35.56,9.36-35.56,14,15.1,43.75.17c0,0-13.91,15.56-4.27,23.8s23.84-11.38,23.84-11.38,7.72,10.72,16.57,2.8-3-29-3-29,25.75,4.87,31.83-6-24.81-21.63-24.81-21.63,18.43-5.93,20.26-23.24c0,0,7.45,11.19,22.62.36,0,0,12.19,6.9,25-5,0,0,19.11,14.15,42.68-11.12,0,0-2.42,15.85,8.7,19.53s38.31-15.84,28.08-40.88c0,0,30.34,11.09,34.49-3.95s-28.68-22.2-28.68-22.2,31.83-3.5,25.92-18.26c0,0,32.08,9.31,44.39-15,0,0,6.5-24.81-39.61-11.6,0,0,10.9-14.92-7.42-15.95-14-.78-23.66,8.59-27.48,13.09-1.09,1.46-1.83,2.35-1.83,2.35a28.8,28.8,0,0,1,1.83-2.35c4.14-5.59,13.37-19.77,5.88-26.35-9.45-8.31-31.27,23.27-31.27,23.27S1734,564.9,1715,569.75s-24.36,36.59-24.36,36.59-1-27.55-12.13-25.51-9.82,32.48-9.82,32.48-3-39.36-19.72-34-17.42,41.47-17.42,41.47-4.22-16.66-30.88,8c0,0,2.93-17.84-9.26-17.24s-20.66,18-20.66,18-6-37.06-20.53-36.5-18.57,29.56-18.57,29.56-9.45-34.55-25.69-30.77-17.43,32.75-17.43,32.75-11.07-19.7-23.67-10.58-1.42,42.89-1.42,42.89-30.87-25.89-43.31-17.13,2.79,34.47,2.79,34.47-15.68-22.73-27.68-17.58-1.39,28.83-1.39,28.83-17.6-16.79-28.69-9.08-2.69,23.16-2.69,23.16-16.06,4.29-16.08,15.54S1381.87,733,1381.87,733C1385.85,747.55,1404,739.55,1404,739.55Z" style="fill:url(#f2b45f6d-4536-43bb-b1ba-6ed0811b52e0)"/><path d="M1116.59,610.33c-8.16-.39-27.35,10.19-27.35,10.19s20.25-23.21,12.93-28.52-20.94,7.77-20.94,7.77,14.17-19,4.93-24.21-31.88,20.4-31.88,20.4-19-30.64-37.66-25.59-6.07,36.12-6.07,36.12-19.12-10.59-28.35-2.11,11.4,33.34,11.4,33.34-13.2-15.4-22.19-17-20.92,4.15-20.92,4.15.37-16.93-4.71-20.93-15.28,1.35-15.28,1.35-6.36-8.45-15.29-6.72-13.53,14.73-13.53,14.73-.46-9.78-4.28-10.38-15.73,8.34-15.73,8.34S896,595,890.55,587.35,859,598.63,859,598.63s13.59-30.09,2.37-32.16S831,599.82,831,599.82s-1.9-29.32-12.71-29.11-11.67,31.15-11.67,31.15-4-32.92-14.84-33-16.65,33.6-16.65,33.6-5.4-18.41-17.52-15.69-7.61,46-7.61,46-9.55-11.83-15.54-8.12-.79,28-.79,28-12.78-19.67-21.94-14,6.86,30.47,6.86,30.47-13.88-3.56-16.12,3.21,12.38,14.19,12.38,14.19-11.91,1.5-12.25,8.05,16.1,11.83,16.1,11.83-6.07.87-7.47,4.25,1.55,7.51,1.55,7.51-11-11.19-17.83-4.86,1.74,28.11,1.74,28.11-19.35-9.43-25.33-.77,9.25,24.43,9.25,24.43-17.83-8.73-22.58-2,16.14,21.63,16.14,21.63-21.8-6.58-28.69,6.11S664,816.14,664,816.14c6.56-10.11,21.4-4.75,21.4-4.75s-10.3-13.34,1.32-22,26.15-.66,26.15-.66-16.31-20.55-3.94-29.59,27.64,11.52,27.64,11.52S726,733.15,744.29,729s26.34,30.82,26.34,30.82c13.72-26.14,24.3,9.23,25.9,15-1-3.89-4.76-21.3,4.86-28.65,10.87-8.29,20.14-1.74,20.14-1.74,11-4.16,17.36,6.67,17.36,6.67s-16.69-29.65-3.77-35.34,16.94,13.45,16.94,13.45,12.47-20.07,20.91-14.73-5.29,18.24-5.29,18.24,15.11-14.46,21.07-9.33-7,17.87-7,17.87,13.68-7.88,18.56-1.05-8.53,15.91-8.53,15.91c12.31-4.65,16,3.49,16,3.49-7.08-24.08,14-28.62,14-28.62s-27.95-34.21-5.74-42.24,23.87,13.32,23.87,13.32-1.43-21.19,11.17-20.89,15,24,15,24,20.83-26.19,32.39-17.52-7.54,22.16-7.54,22.16,14.1,1.42,10.89,9.44S979,732,979,732c8.35,8.35,3.49,15.5,3.49,15.5s7.62-8.82,13.08-7.75c5.09,1,6.26,11.21,6.4,12.59-.14-1.6-1-14.48,8-17.09,8.83-2.56,13.88,7.15,14.65,8.75-1.09-2.38-9.19-21.76,11.27-30.87,21.83-9.71,43.48,8.59,43.48,8.59s.43-37.05,19.6-39.06,25.53,36.42,25.53,36.42,3.41-29.36,17.3-29.78,10.83,35.14,10.83,35.14,27.26-36.61,41-25.91-4,33.16-4,33.16,24.76-11,29.26-2.62S1200,753.33,1200,753.33s21.82-13.89,27.9-2.21-36.52,37.65-36.52,37.65,49.68-22.76,55.28-9.93c4.89,11.2-38.11,21.31-38.11,21.31s11.79-2.33,21.14-1.38c0,0,40.65-11.34,35.35-26.85s-39.83-3.84-39.83-3.84,58.49-25.82,51.23-40.75c-6.53-13.43-40.31,2.46-47.06,5.8l-1.19.6,1.19-.6c6.36-3.25,36.28-19.2,31.81-29.65-5-11.68-42.76,2.94-42.76,2.94s44.61-26.88,38.09-39.19-40.76-.22-40.76-.22,24-18.75,17.85-30.12-31.77-2-31.77-2,8.65-8.91,4.1-14.28-17.54.6-17.54.6,6.92-21.81-3.95-23.74-24.15,26.31-24.15,26.31-9.09-12.57-18.26-7c-7.59,4.64-16.76,18.05-19.71,22.56-.58,1-1,1.51-1,1.51s.35-.56,1-1.51a33.3,33.3,0,0,0,4.33-19.93S1124.75,610.72,1116.59,610.33Z" style="fill:url(#b76838a5-d78f-4337-9a87-4c5045f65e86)"/></svg>