<svg id="bf4bd83f-bba3-48ce-8c7c-31cb89b50e4d" data-name="Mark" xmlns="http://www.w3.org/2000/svg" viewBox="0 0 1920 1080"><path d="M75.92,157.63c-10.29,4.13-13.3,16.16-21.39,22.76C59.94,178.44,73.16,163.12,75.92,157.63Z" style="fill:#117a93"/><path d="M68.4,154.76c2.24-8.79-.19-19.13-3.79-27.08C67,136.17,64.23,147.26,68.4,154.76Z" style="fill:#117a93"/><path d="M44.4,148.52c2.52-4.64-13.93-16.84-8.71-10.82C38.74,141.09,40.19,146.79,44.4,148.52Z" style="fill:#117a93"/><path d="M54.85,151.91c-4.53,3.05-6.53,8.21-10.32,12C31.92,174.91,58.08,158.4,54.85,151.91Z" style="fill:#117a93"/><path d="M66.56,155.38c-4.7,4.94-7.77,11-14.35,13.48C58.58,168.74,68.44,162.26,66.56,155.38Z" style="fill:#117a93"/><path d="M73.18,156.32c2.45-9.76,5-21.67,2.66-30.83C76.81,135.67,68.94,147.28,73.18,156.32Z" style="fill:#117a93"/><path d="M125.39,174c3.68-9.47,8.48-21.48,7.18-31C132.2,152.92,121.92,166.67,125.39,174Z" style="fill:#117a93"/><path d="M79.45,158.48C70.28,163.72,69.34,176,61.1,182,67.35,180.3,77.67,164.8,79.45,158.48Z" style="fill:#117a93"/><path d="M139.37,179.38c.93-8.19-1.48-16.78-2.26-24.77C136.48,162.28,134.1,173.3,139.37,179.38Z" style="fill:#117a93"/><path d="M180.34,198.11c4.48-8.75,4.5-20.44,2-29.59C183.55,178.17,178.27,189.06,180.34,198.11Z" style="fill:#117a93"/><path d="M175.67,195.92a47,47,0,0,0,5.72-28.9C181.34,176.6,174.13,186.72,175.67,195.92Z" style="fill:#117a93"/><path d="M51.24,150.7C46,155.87,43.05,163,37.73,168,43.53,164.73,52.33,157.84,51.24,150.7Z" style="fill:#117a93"/><path d="M89.46,161.77c-9,4.92-12.23,15.85-19.92,22C74.18,182.65,89.31,166.18,89.46,161.77Z" style="fill:#117a93"/><path d="M111.19,169.55c-9.62,5-10.89,17.08-17.61,24.4,4.5-2.13,6.94-7.73,9.72-11.72C105.88,178.27,110.57,173.94,111.19,169.55Z" style="fill:#117a93"/><path d="M130.38,176.56c-7.69,5.65-9,16.18-15.2,22.77C121.47,195.19,129.31,183.65,130.38,176.56Z" style="fill:#117a93"/><path d="M116.62,170.81c-7.52,5.06-12.68,12.86-19.18,18.72C104.28,185.92,115.11,178.39,116.62,170.81Z" style="fill:#117a93"/><path d="M153.64,185.68c-1.65-8.42-3.95-19.56-9.58-25.31C148.92,167.93,146.2,180.49,153.64,185.68Z" style="fill:#117a93"/><path d="M114.92,169.92c2.1-7.58,3.59-18,1.19-24.81C117.08,153.21,110.48,162.92,114.92,169.92Z" style="fill:#117a93"/><path d="M99.54,165.55c-11.37-1.79-16.38,13.87-26.4,17.3C82.77,181.36,90.93,169.9,99.54,165.55Z" style="fill:#117a93"/><path d="M95.7,164c-.85-8.51,4.28-15.88,3.57-24.13C98.49,146.64,88.24,157.88,95.7,164Z" style="fill:#117a93"/><path d="M102.74,165.34c6-7.62,9.68-15.14,8.25-24.34C109.59,155.23,100.75,157.53,102.74,165.34Z" style="fill:#117a93"/><path d="M200,208.29c-7.23,6.16-3.42,13-12.47,23C194.48,226.9,199.71,216.51,200,208.29Z" style="fill:#117a93"/><path d="M122.11,173.21c-7.39,6.44-7.3,18-14.82,24.17C114.25,194.26,121.8,180.27,122.11,173.21Z" style="fill:#117a93"/><path d="M77,157.19c6.22-7.34,11.14-18,10.81-27.58C86.67,139.37,77,147.73,77,157.19Z" style="fill:#117a93"/><path d="M102.68,166c-4.31,4.71-1.73,11.47-5.18,16.61C101.21,180.65,105.17,170.06,102.68,166Z" style="fill:#117a93"/><path d="M109.89,168.29c2.23-7.53,3.9-17.88,1.61-24.73C112.33,151.65,105.57,161.23,109.89,168.29Z" style="fill:#117a93"/><path d="M130,176c1.69-7.87,3.2-18.52.31-25.42C131.79,158.82,125.13,169,130,176Z" style="fill:#117a93"/><path d="M125.91,174.76c-5.27,4.63-4.82,12.58-7,18.62C122.16,188.3,127,180.69,125.91,174.76Z" style="fill:#117a93"/><path d="M134,177.91c-10.63,3.18-14.73,14.88-23.38,20.71C116,197.25,130.77,183.05,134,177.91Z" style="fill:#117a93"/><path d="M145.15,182.35c-9.32.87-10.16,12-16.17,17.28,3-.8,6.57-5.46,8.7-8.47S143.91,185.4,145.15,182.35Z" style="fill:#117a93"/><path d="M148.35,184.07c-7.55,3-7.16,12.84-11.15,18.64C142.11,198,146.41,190.29,148.35,184.07Z" style="fill:#117a93"/><path d="M171.68,193.6c1.17-8.15-1-16.81-1.54-24.82C169.28,176.43,166.59,187.37,171.68,193.6Z" style="fill:#117a93"/><path d="M165.08,190.51c3.2-8.83,3.63-18.18,7-26.95C168,170,161.5,182.62,165.08,190.51Z" style="fill:#117a93"/><path d="M212.75,214.26c-9.66-.48-15.67,9-24.69,11.09C192.65,226.39,209.49,218,212.75,214.26Z" style="fill:#117a93"/><path d="M161.27,188.71c3.45-8.46-7-14-7.49-22.23C152.36,173.38,158.44,182.41,161.27,188.71Z" style="fill:#117a93"/><path d="M162.8,190.9c-4.33,3.73-5.31,11.67-5.36,16.33C159.11,202.17,164.66,196.07,162.8,190.9Z" style="fill:#117a93"/><path d="M187.45,201.46c-.31-9.24-.51-22.54-4.61-29.93C185.81,180.81,180.87,194.1,187.45,201.46Z" style="fill:#117a93"/><path d="M120.45,172.54c-7.55-.11-13.89,5.41-20.74,7.87C105.57,179.79,116.53,177.85,120.45,172.54Z" style="fill:#117a93"/><path d="M106.62,167.58c-9.24,4.14-13.12,14.75-21.16,20.14C90,187.17,106.29,171.81,106.62,167.58Z" style="fill:#117a93"/><path d="M151.93,185.8c-6.62,3.63-9.4,11.71-15.88,15.35C141.31,200.4,152.3,191.17,151.93,185.8Z" style="fill:#117a93"/><path d="M140.25,180.43c-4.56,3.07-5,10-4.74,14.8C136.71,190.42,141.82,185.32,140.25,180.43Z" style="fill:#117a93"/><path d="M156.45,187.13c-5.5,5.56-9.11,12.76-16.18,16.66C146.08,203,158,194.19,156.45,187.13Z" style="fill:#117a93"/><path d="M136.93,179.05c-7.23,6.91-11.87,16.3-20,22.15C125.3,197.12,135.94,188.46,136.93,179.05Z" style="fill:#117a93"/><path d="M83.47,159.89c-9.62,4.73-13.1,16.35-21.93,21.88C67.51,180.7,81.47,166,83.47,159.89Z" style="fill:#117a93"/><path d="M94.73,163.5C86,163.1,83.28,174,75.43,175.6,80.3,177.15,91.58,167.38,94.73,163.5Z" style="fill:#117a93"/><path d="M217.55,218.28c-10.24.65-17.8,9.18-27.35,11.45C194.86,230.72,215.54,222.22,217.55,218.28Z" style="fill:#117a93"/><path d="M159.15,189c-9.12,4.69-12.63,15.54-20.47,21.45C143.34,209.52,158.89,193.45,159.15,189Z" style="fill:#117a93"/><path d="M174.91,196.15c-11.32-2.08-16.74,13.45-26.84,16.62C157.74,211.52,166.18,200.28,174.91,196.15Z" style="fill:#117a93"/><path d="M168,192.68c-8.73-.62-11.72,10.19-19.6,11.6C153.24,206,164.77,196.48,168,192.68Z" style="fill:#117a93"/><path d="M70.83,156.17c-7.15,6.71-11.55,17.43-17.79,24C59.76,175.3,70.4,164.22,70.83,156.17Z" style="fill:#117a93"/><path d="M184.5,200.69c-11,1.43-16.93,12.32-26.41,16.69C163.71,216.91,180.54,205.26,184.5,200.69Z" style="fill:#117a93"/><path d="M188.1,202.41c-10.16,2.91-14,14.6-23.4,18.44C171.17,220.72,184.87,208.12,188.1,202.41Z" style="fill:#117a93"/><path d="M198,206.9c-10.47,2.31-16.62,12.78-26.51,16C177.57,223.33,194.62,212.38,198,206.9Z" style="fill:#117a93"/><path d="M178,198c-8.6,4.71-15.54,14-23.22,18.75C162.5,213.71,175.57,205.65,178,198Z" style="fill:#117a93"/><path d="M62.93,153.73c-7.22,6.91-11.87,16.3-20,22.15C51.31,171.8,61.94,163.14,62.93,153.73Z" style="fill:#117a93"/><path d="M47.67,149.91c-7.88,1.5-12.88,8.88-20.46,11C32.67,161.37,45.39,155.53,47.67,149.91Z" style="fill:#117a93"/><path d="M43.05,149.19c-6.07-.56-10.66,4-16.57,4.52C30.61,155,40.81,154.08,43.05,149.19Z" style="fill:#117a93"/><path d="M50.11,149.77c1.13-6.23-3.62-12.63-7.91-16.41C45.58,138.25,45.4,146.28,50.11,149.77Z" style="fill:#117a93"/><path d="M56,151.57c2.51-6.86-.34-15.75-4.35-21.3C54.55,136.81,52.1,145.92,56,151.57Z" style="fill:#117a93"/><path d="M133.26,177.43c2.86-9-.49-19.69-4.79-27.57C131.62,158.48,129.67,169.52,133.26,177.43Z" style="fill:#117a93"/><path d="M63,153.4c.72-8.21-1.9-16.74-2.89-24.7C59.69,136.38,57.6,147.45,63,153.4Z" style="fill:#117a93"/><path d="M220.59,215.47c.61-8.21-2.13-16.7-3.23-24.65C217,198.51,215.09,209.6,220.59,215.47Z" style="fill:#117a93"/><path d="M204.14,209.43c2.71-8.66.85-19.11-2.31-27.25C203.75,190.79,200.38,201.71,204.14,209.43Z" style="fill:#117a93"/><path d="M199.09,207.19c1.18-8.15-1-16.81-1.53-24.82C196.7,190,194,201,199.09,207.19Z" style="fill:#117a93"/><path d="M90.88,162.24c1.46-9,3-20.67-.15-28.58C92.55,142.94,85.79,154.25,90.88,162.24Z" style="fill:#117a93"/><path d="M106.7,167c4.32-6.77,8.79-16.43,8.58-23.82C113.75,151.35,104.6,158.86,106.7,167Z" style="fill:#117a93"/><path d="M98.73,164.61c3.67-5.42,7.24-15.34,4.5-20.91C104.34,151,96,157.8,98.73,164.61Z" style="fill:#117a93"/><path d="M189.53,202.12c3.07-8.15,2.25-18.9-1.45-26.49C190.56,184,186.07,194.49,189.53,202.12Z" style="fill:#117a93"/><path d="M122.32,172.48c1.21-8.37-2-18.52-7.3-24.75C119.37,155.05,117.27,166.06,122.32,172.48Z" style="fill:#117a93"/><path d="M85,159.87c3.47-6.61,1-17-2.37-22.36C85,144.64,82,153.51,85,159.87Z" style="fill:#117a93"/><path d="M207.57,211.43c3-9.61,6.21-21.36,4.34-30.64C212.32,191,203.83,202.17,207.57,211.43Z" style="fill:#117a93"/><path d="M213.43,213.46c3.12-6.78.08-17-3.57-22.2C212.58,198.26,210,207.28,213.43,213.46Z" style="fill:#117a93"/><path d="M135.88,177.9c4.81-8.38,7.47-18.62,8.38-28.05C142.07,158.91,134.14,168.74,135.88,177.9Z" style="fill:#117a93"/><path d="M190.75,203.58c-6.84,3.92-6.23,13.31-12.35,17.83C183.53,220.33,190.75,208.9,190.75,203.58Z" style="fill:#117a93"/><path d="M194.54,205.06c3.21-8.83,3.64-18.18,7.05-26.95C197.43,184.51,191,197.18,194.54,205.06Z" style="fill:#117a93"/><path d="M145.71,181.88c1.86-8.77,2.59-20.2-.88-27.8C147.05,163,141,174.25,145.71,181.88Z" style="fill:#117a93"/><path d="M206.21,211.21c-9.06,3.69-12.13,14.36-20.13,19.69C193.59,227.82,202.52,218.73,206.21,211.21Z" style="fill:#117a93"/><path d="M157.65,187c2.42-6.29-.36-12.95.25-19.48C156,172.13,153.75,182.55,157.65,187Z" style="fill:#117a93"/><path d="M60.05,153.26c-6.56-.58-11.72,4-18.1,4.71C46.6,159.12,57.17,158.24,60.05,153.26Z" style="fill:#117a93"/><path d="M255,239.78c1.94.32,3.08-2.55,1.26-3.56-52.4-35.09-203.5-96.57-221.71-89.46.85,5.12,56.35,11.43,125.36,44A1006.45,1006.45,0,0,1,255,239.78Z" style="fill:#117a93"/></svg>