<svg id="a166c0e2-2a65-4c24-80f2-05cfb84070b0" data-name="Mark" xmlns="http://www.w3.org/2000/svg" xmlns:xlink="http://www.w3.org/1999/xlink" viewBox="0 0 28.59 34.69"><defs><radialGradient id="ace1c87c-4a5c-43f7-aa37-39ff98c062e3" cx="2227.84" cy="423.64" r="2.09" gradientTransform="matrix(0.9, 0.44, 0.44, -0.9, -911.49, -36.82)" gradientUnits="userSpaceOnUse"><stop offset="0" stop-color="#171c61"/><stop offset="1" stop-color="#683c5a"/></radialGradient><linearGradient id="f5afd032-20a6-4326-9ae5-bc304c2b7d9f" x1="2228.11" y1="459.55" x2="2228.11" y2="451.32" gradientTransform="matrix(0.9, 0.44, 0.44, -0.9, -911.49, -36.82)" gradientUnits="userSpaceOnUse"><stop offset="0" stop-color="#683c5a"/><stop offset="0.22" stop-color="#643a5a"/><stop offset="0.44" stop-color="#57355b"/><stop offset="0.67" stop-color="#432d5d"/><stop offset="0.9" stop-color="#262260"/><stop offset="1" stop-color="#171c61"/></linearGradient><linearGradient id="af669b89-3417-4547-832a-70a3937ee6c4" x1="2224.61" y1="457.83" x2="2223.22" y2="448.32" xlink:href="#f5afd032-20a6-4326-9ae5-bc304c2b7d9f"/><linearGradient id="be924d31-bd69-4822-9c01-1344b8ad920d" x1="2231.18" y1="457.59" x2="2233.04" y2="448.54" xlink:href="#f5afd032-20a6-4326-9ae5-bc304c2b7d9f"/><linearGradient id="e93cdbfa-436d-48d2-83b0-44c91511659f" x1="2235.41" y1="454.64" x2="2235.78" y2="443.79" xlink:href="#f5afd032-20a6-4326-9ae5-bc304c2b7d9f"/><linearGradient id="a7f980da-daea-4614-89c3-44efe4a62603" x1="2228.11" y1="454.4" x2="2228.11" y2="443.66" xlink:href="#f5afd032-20a6-4326-9ae5-bc304c2b7d9f"/><linearGradient id="e67d7bdb-4a75-45ad-a6ee-ae5d2f5ee338" x1="2233.06" y1="450.36" x2="2232.81" y2="439.01" xlink:href="#f5afd032-20a6-4326-9ae5-bc304c2b7d9f"/><linearGradient id="b365941f-c5b1-4bbe-b7b4-c425053079b2" x1="2239.73" y1="448.88" x2="2235.53" y2="435.19" xlink:href="#f5afd032-20a6-4326-9ae5-bc304c2b7d9f"/><linearGradient id="a6c228cd-feb4-4400-8ff7-5faef8bea52b" x1="2220.76" y1="454.58" x2="2220.43" y2="443.23" xlink:href="#f5afd032-20a6-4326-9ae5-bc304c2b7d9f"/><linearGradient id="a173b96c-0ffb-477a-8071-8cb8181def60" x1="2223.21" y1="450.39" x2="2223.37" y2="438.96" xlink:href="#f5afd032-20a6-4326-9ae5-bc304c2b7d9f"/><linearGradient id="bfc5a6d3-9fef-4b65-9d29-3ac3464b1306" x1="2228.11" y1="447.05" x2="2228.11" y2="433.64" gradientTransform="matrix(0.9, 0.44, 0.44, -0.9, -911.49, -36.82)" gradientUnits="userSpaceOnUse"><stop offset="0" stop-color="#997990"/><stop offset="0.06" stop-color="#86617b"/><stop offset="0.13" stop-color="#754d69"/><stop offset="0.19" stop-color="#6b405e"/><stop offset="0.26" stop-color="#683c5a"/><stop offset="0.42" stop-color="#643a5a"/><stop offset="0.59" stop-color="#57355b"/><stop offset="0.76" stop-color="#432d5d"/><stop offset="0.93" stop-color="#262260"/><stop offset="1" stop-color="#171c61"/></linearGradient><linearGradient id="a8362db4-30c0-451f-85e0-80a88792e8ca" x1="2216.32" y1="448.94" x2="2220.69" y2="435.45" xlink:href="#f5afd032-20a6-4326-9ae5-bc304c2b7d9f"/><linearGradient id="ae83c534-31a7-475b-909b-237870817b18" x1="2214.7" y1="441.37" x2="2221.97" y2="429.33" xlink:href="#f5afd032-20a6-4326-9ae5-bc304c2b7d9f"/><linearGradient id="b4762aee-b7fd-4253-8bc1-6106107dc8a9" x1="2241.42" y1="441.04" x2="2234.33" y2="429.77" xlink:href="#f5afd032-20a6-4326-9ae5-bc304c2b7d9f"/><linearGradient id="e161fc74-0d9f-4395-871b-ce3c92ac196d" x1="2222.56" y1="441.03" x2="2225.93" y2="429.54" xlink:href="#f5afd032-20a6-4326-9ae5-bc304c2b7d9f"/><linearGradient id="f2b480bc-d34e-486d-bb4e-5e50f077cb47" x1="2233.66" y1="441.58" x2="2228.6" y2="426.8" gradientTransform="matrix(0.9, 0.44, 0.44, -0.9, -911.49, -36.82)" gradientUnits="userSpaceOnUse"><stop offset="0" stop-color="#683c5a"/><stop offset="0.22" stop-color="#643a5a"/><stop offset="0.44" stop-color="#57355b"/><stop offset="0.67" stop-color="#432d5d"/><stop offset="0.89" stop-color="#262260"/><stop offset="0.99" stop-color="#171c61"/></linearGradient><linearGradient id="be32513d-b71d-4710-ba07-a6b079de17ab" x1="2215.56" y1="431.43" x2="2228.06" y2="426.27" xlink:href="#f5afd032-20a6-4326-9ae5-bc304c2b7d9f"/><linearGradient id="b520e77f-571c-4b5d-b2f2-3b9c52766656" x1="2219.56" y1="429.55" x2="2228.08" y2="429.55" xlink:href="#f5afd032-20a6-4326-9ae5-bc304c2b7d9f"/><linearGradient id="e8fab5d3-10c6-4234-a3e3-94179b7b1e4e" x1="2240.54" y1="432.09" x2="2228.06" y2="425.78" xlink:href="#f5afd032-20a6-4326-9ae5-bc304c2b7d9f"/><linearGradient id="a76817fc-9b31-4b5f-9712-b13d2d915f85" x1="2236.12" y1="433.51" x2="2227.96" y2="426.24" xlink:href="#f5afd032-20a6-4326-9ae5-bc304c2b7d9f"/><linearGradient id="fc9529f6-3786-492c-a521-a0b8578e3572" x1="-50.18" y1="-39.72" x2="-32.81" y2="-64.77" gradientTransform="matrix(-0.45, -0.89, -0.89, 0.45, 1215.68, 542.02)" gradientUnits="userSpaceOnUse"><stop offset="0" stop-color="#5e32f2"/><stop offset="0.16" stop-color="#6231f1"/><stop offset="0.33" stop-color="#6f2eed"/><stop offset="0.5" stop-color="#8329e7"/><stop offset="0.67" stop-color="#a021de"/><stop offset="0.84" stop-color="#c518d3"/><stop offset="1" stop-color="#ee0ec7"/></linearGradient><linearGradient id="a341e58a-6d80-4c61-af82-258b8bd1da21" x1="-49.9" y1="-39.54" x2="-32.54" y2="-64.58" xlink:href="#fc9529f6-3786-492c-a521-a0b8578e3572"/></defs><path d="M1275.29,566.33s-1.31,3-2.54,4" transform="translate(-1267.01 -536.14)" style="fill:none;stroke-linecap:round;stroke-linejoin:round;stroke:url(#ace1c87c-4a5c-43f7-aa37-39ff98c062e3)"/><path d="M1290.2,536.14c-1,2,2.74,4.4,0,9.61-1.76,3.4-7,4.58-7,4.58s-2.28-4.9-.65-8.37C1285,536.65,1289.23,538.11,1290.2,536.14Z" transform="translate(-1267.01 -536.14)" style="fill:url(#f5afd032-20a6-4326-9ae5-bc304c2b7d9f)"/><path d="M1279.34,546.48c-1.23-.76-2.66-4.55,1-7.32s5.93-2.65,5.93-2.65a5.09,5.09,0,0,0-.42,3.15,7.32,7.32,0,0,1-1.74,5.83C1283.39,546.08,1281.72,548,1279.34,546.48Z" transform="translate(-1267.01 -536.14)" style="fill:url(#af669b89-3417-4547-832a-70a3937ee6c4)"/><path d="M1288.61,551.05c1.36.52,5.23-.66,5.19-5.25s-1.5-6.32-1.5-6.32a5.09,5.09,0,0,1-2.24,2.26,7.31,7.31,0,0,0-3.56,4.93C1286.46,547.6,1286,550.06,1288.61,551.05Z" transform="translate(-1267.01 -536.14)" style="fill:url(#be924d31-bd69-4822-9c01-1344b8ad920d)"/><path d="M1287.7,556.92a7.74,7.74,0,0,0,5.65-3.33c2.42-3.29,1.31-9.7,1.37-9.67a6.89,6.89,0,0,1-2,2.37c-1.34,1-3.94,2.7-4.53,4.13S1286.84,555,1287.7,556.92Z" transform="translate(-1267.01 -536.14)" style="fill:url(#e93cdbfa-436d-48d2-83b0-44c91511659f)"/><path d="M1288,540.59c-1,2,2.74,4.41,0,9.61-1.77,3.41-7,4.58-7,4.58s-2.28-4.9-.65-8.37C1282.85,541.1,1287,542.57,1288,540.59Z" transform="translate(-1267.01 -536.14)" style="fill:url(#a7f980da-daea-4614-89c3-44efe4a62603)"/><path d="M1284.82,557.27c1.24.75,5.27.29,6-4.24s-.35-6.48-.35-6.48a5.15,5.15,0,0,1-2.61,1.82,7.38,7.38,0,0,0-4.39,4.21C1283.33,553.49,1282.43,555.83,1284.82,557.27Z" transform="translate(-1267.01 -536.14)" style="fill:url(#e67d7bdb-4a75-45ad-a6ee-ae5d2f5ee338)"/><path d="M1285.51,561.39a7.77,7.77,0,0,0,6.32-1.79c3.17-2.57,3.72-9.06,3.77-9a7.18,7.18,0,0,1-2.5,1.79c-1.54.62-4.5,1.62-5.43,2.85S1285.17,559.29,1285.51,561.39Z" transform="translate(-1267.01 -536.14)" style="fill:url(#b365941f-c5b1-4bbe-b7b4-c425053079b2)"/><path d="M1275.24,550.78a7.77,7.77,0,0,1-.8-6.52c1.13-3.91,6.9-6.94,6.84-7a7.08,7.08,0,0,0-.69,3c0,1.66.26,4.78-.51,6.11S1277.31,550.28,1275.24,550.78Z" transform="translate(-1267.01 -536.14)" style="fill:url(#a6c228cd-feb4-4400-8ff7-5faef8bea52b)"/><path d="M1276.72,553.28c-1.36-.53-3.44-4-.33-7.38s5.36-3.67,5.36-3.67a5.11,5.11,0,0,0,.14,3.17,7.28,7.28,0,0,1-.67,6.05C1280.62,552.16,1279.32,554.29,1276.72,553.28Z" transform="translate(-1267.01 -536.14)" style="fill:url(#a173b96c-0ffb-477a-8071-8cb8181def60)"/><path d="M1284.67,547.37c-1,2,2.73,4.4,0,9.6-1.77,3.41-7,4.58-7,4.58s-2.27-4.9-.65-8.37C1279.51,547.87,1283.69,549.34,1284.67,547.37Z" transform="translate(-1267.01 -536.14)" style="fill:url(#bfc5a6d3-9fef-4b65-9d29-3ac3464b1306)"/><path d="M1273,555.23a7.76,7.76,0,0,1-2.42-6.1c.11-4.07,4.92-8.46,4.85-8.47a7,7,0,0,0,.1,3.07c.45,1.6,1.46,4.56,1,6S1274.9,554.22,1273,555.23Z" transform="translate(-1267.01 -536.14)" style="fill:url(#a8362db4-30c0-451f-85e0-80a88792e8ca)"/><path d="M1271.74,560.74a8.41,8.41,0,0,1-4-6.94,10.43,10.43,0,0,1,2.64-7.1,2.84,2.84,0,0,0,.37,2.61C1271.67,550.43,1276.43,553.52,1271.74,560.74Z" transform="translate(-1267.01 -536.14)" style="fill:url(#ae83c534-31a7-475b-909b-237870817b18)"/><path d="M1281.89,565.74a8.4,8.4,0,0,0,7.94-1,10.49,10.49,0,0,0,4-6.42,2.85,2.85,0,0,1-2.3,1.3C1290.11,559.52,1284.76,557.63,1281.89,565.74Z" transform="translate(-1267.01 -536.14)" style="fill:url(#b4762aee-b7fd-4253-8bc1-6106107dc8a9)"/><path d="M1275.13,562.41c-1.38-.19-4.25-3.25-2.06-7.27s4.24-4.88,4.24-4.88a5,5,0,0,0,.82,3,7.33,7.33,0,0,1,.67,6C1278.39,560,1277.57,562.75,1275.13,562.41Z" transform="translate(-1267.01 -536.14)" style="fill:url(#e161fc74-0d9f-4395-871b-ce3c92ac196d)"/><path d="M1275.29,566.33s-1-2.91,2-7,8.69-2.51,9.47-4.17c0,0,.63,5.19-3,8.53A11,11,0,0,1,1275.29,566.33Z" transform="translate(-1267.01 -536.14)" style="fill:url(#f2b480bc-d34e-486d-bb4e-5e50f077cb47)"/><path d="M1275.29,566.33a12.63,12.63,0,0,1-6-4.55,13.28,13.28,0,0,1-2.28-6.47s.6,2,1.84,2.6a10.89,10.89,0,0,1,4.92,3.56A6.26,6.26,0,0,1,1275.29,566.33Z" transform="translate(-1267.01 -536.14)" style="fill:url(#be32513d-b71d-4710-ba07-a6b079de17ab)"/><path d="M1275.29,566.33a7.84,7.84,0,0,1-3-3.79c-1.17-2.8-.57-5.35-1.5-6.35a14.29,14.29,0,0,1,4.43,5A6.66,6.66,0,0,1,1275.29,566.33Z" transform="translate(-1267.01 -536.14)" style="fill:url(#b520e77f-571c-4b5d-b2f2-3b9c52766656)"/><path d="M1275.29,566.33a12.65,12.65,0,0,0,7.26,2,13.35,13.35,0,0,0,6.53-2.14s-2,.77-3.19.13a10.88,10.88,0,0,0-5.82-1.74A6.24,6.24,0,0,0,1275.29,566.33Z" transform="translate(-1267.01 -536.14)" style="fill:url(#e8fab5d3-10c6-4234-a3e3-94179b7b1e4e)"/><path d="M1275.29,566.33a7.84,7.84,0,0,0,4.83.07c2.94-.77,4.59-2.8,6-2.67a14.31,14.31,0,0,0-6.64-.5A6.67,6.67,0,0,0,1275.29,566.33Z" transform="translate(-1267.01 -536.14)" style="fill:url(#a76817fc-9b31-4b5f-9712-b13d2d915f85)"/><g style="opacity:0.32"><path d="M1275.29,566.33s-1.31,3-2.54,4Z" transform="translate(-1267.01 -536.14)" style="fill:url(#fc9529f6-3786-492c-a521-a0b8578e3572)"/><path d="M1275.45,540.66a5.48,5.48,0,0,0-.1,1.74c2-3,6-5.09,5.93-5.11a5.41,5.41,0,0,0-.53,1.59c3.42-2.45,5.52-2.37,5.52-2.37a4.18,4.18,0,0,0-.46,1.8c1.92-1,3.78-.94,4.39-2.17-.61,1.23.62,2.65,1,4.8a4.18,4.18,0,0,0,1.14-1.46s1.34,1.63,1.48,5.83a5.26,5.26,0,0,0,.94-1.39s.71,4.43-.44,7.81a5.66,5.66,0,0,0,1.32-1.14c0-.05-.6,6.37-3.73,9a3,3,0,0,0,2-1.27,10.49,10.49,0,0,1-4,6.42,7.9,7.9,0,0,1-4,1.56l.1,0c1.2.64,3.19-.13,3.19-.13a13.35,13.35,0,0,1-6.53,2.14,19.87,19.87,0,0,1-13.26-6.54,13.28,13.28,0,0,1-2.28-6.47s.6,2,1.84,2.6l.1.05a7.87,7.87,0,0,1-1.22-4.16,10.43,10.43,0,0,1,2.64-7.1,3,3,0,0,0,.24,2.41C1270.73,545,1275.52,540.67,1275.45,540.66Z" transform="translate(-1267.01 -536.14)" style="fill:url(#a341e58a-6d80-4c61-af82-258b8bd1da21)"/></g></svg>