<svg id="b354e41a-953f-4061-ad37-694618a04d1a" data-name="10-PlantsSoil" xmlns="http://www.w3.org/2000/svg" viewBox="0 0 1920 1080"><polygon points="1021.02 891.39 983.77 891.39 946.52 890.69 909.27 889.89 872.02 889.89 872.02 977 1021.02 977 1021.02 891.39" style="fill:#7f43ff;opacity:0.12"/><text transform="translate(842.02 877.2)" style="opacity:0.5;font-size:18px;fill:#fff;font-family:ArialMT, Arial">159.18</text><text transform="translate(975.98 879.15)" style="font-size:18px;fill:#fff;font-family:ArialMT, Arial">158.67 t/ha</text><line x1="946.52" y1="890.69" x2="946.52" y2="977" style="fill:none;stroke:#7f43ff;stroke-linecap:round;stroke-linejoin:round;stroke-width:0.5px;opacity:0.24"/><line x1="983.77" y1="891.39" x2="983.77" y2="977" style="fill:none;stroke:#7f43ff;stroke-linecap:round;stroke-linejoin:round;stroke-width:0.5px;opacity:0.24"/><polyline points="872.02 889.89 909.27 889.89 946.52 890.69 983.77 891.39 1021.02 891.39" style="fill:none;stroke:#7f43ff;stroke-linecap:round;stroke-linejoin:round;stroke-width:2px"/><circle cx="1021.02" cy="891.39" r="5" style="fill:#7f43ff"/><line x1="909.27" y1="889.89" x2="909.27" y2="977" style="fill:none;stroke:#7f43ff;stroke-linecap:round;stroke-linejoin:round;stroke-width:0.5px;opacity:0.24"/><polyline points="523 977 374 977 374 938.4 411.25 940.29 448.5 940.29 485.75 941.6 523 946.41 523 977" style="fill:#04e3ff;opacity:0.12"/><polyline points="374 938.4 411.25 940.29 448.5 940.29 485.75 941.6 523 946.41" style="fill:none;stroke:#04e3ff;stroke-linecap:round;stroke-linejoin:round;stroke-width:2px"/><circle cx="523" cy="946.41" r="5" style="fill:#04e3ff"/><text transform="translate(345.81 924.37)" style="opacity:0.5;font-size:18px;fill:#fff;font-family:ArialMT, Arial">126.23</text><text transform="translate(477.96 932.15)" style="font-size:18px;fill:#fff;font-family:ArialMT, Arial">120.79 t/ha</text><line x1="411.25" y1="940.29" x2="411.25" y2="977" style="fill:none;stroke:#02f8ff;stroke-miterlimit:10;stroke-width:0.5px;opacity:0.24"/><line x1="448.5" y1="940.29" x2="448.5" y2="977" style="fill:none;stroke:#02f8ff;stroke-miterlimit:10;stroke-width:0.5px;opacity:0.24"/><line x1="484.92" y1="941.57" x2="484.92" y2="977" style="fill:none;stroke:#02f8ff;stroke-miterlimit:10;stroke-width:0.5px;opacity:0.24"/><polygon points="1522 880.43 1484.5 882.42 1447 881.79 1409.5 882.67 1372 882.67 1372 977 1522 977 1522 880.43" style="fill:#d31fff;opacity:0.12"/><circle cx="1522" cy="880.43" r="5" style="fill:#d31fff"/><polyline points="1373.13 882.67 1410.34 882.67 1447.56 881.79 1484.78 882.42 1522 880.43" style="fill:none;stroke:#d31fff;stroke-linecap:round;stroke-linejoin:round;stroke-width:2px"/><text transform="translate(1347.33 869.03)" style="opacity:0.5;font-size:18px;fill:#fff;font-family:ArialMT, Arial">164.09</text><text transform="translate(1476.78 866.5)" style="font-size:18px;fill:#fff;font-family:ArialMT, Arial">165.61 t/ha</text><line x1="1409.5" y1="882.67" x2="1409.5" y2="977" style="fill:none;stroke:#d31fff;stroke-linecap:round;stroke-linejoin:round;stroke-width:0.5px;opacity:0.24"/><line x1="1447" y1="881.79" x2="1447" y2="977" style="fill:none;stroke:#d31fff;stroke-linecap:round;stroke-linejoin:round;stroke-width:0.5px;opacity:0.24"/><line x1="1484.5" y1="882.42" x2="1484.5" y2="977" style="fill:none;stroke:#d31fff;stroke-linecap:round;stroke-linejoin:round;stroke-width:0.5px;opacity:0.24"/></svg>