<svg xmlns="http://www.w3.org/2000/svg" viewBox="0 0 1920 1080"><g id="e83c5f19-4892-484b-9b64-36127cfc949e" data-name="08-Values"><polygon points="1597 878.16 1559.5 879.08 1522 880.43 1484.5 882.42 1447 881.79 1409.5 882.67 1372 882.67 1372 977 1672 977 1672 875.85 1634.5 875.85 1597 878.16" style="fill:#d31fff;opacity:0.12"/><circle cx="1672" cy="875.85" r="4" style="fill:#d31fff"/><polyline points="1373.13 882.67 1410.34 882.67 1447.56 881.79 1484.78 882.42 1522 880.43 1559.22 879.08 1596.44 878.16 1633.66 875.85 1672 875.85 1633.66 875.85" style="fill:none;stroke:#d31fff;stroke-linecap:round;stroke-linejoin:round;stroke-width:2px"/><text transform="translate(1347.33 869.03)" style="opacity:0.5;font-size:18px;fill:#fff;font-family:ArialMT, Arial">164.09</text><text transform="translate(1621.19 860.73)" style="font-size:18px;fill:#fff;font-family:ArialMT, Arial">169.24 t/ha</text><line x1="1409.5" y1="882.67" x2="1409.5" y2="977" style="fill:none;stroke:#d31fff;stroke-linecap:round;stroke-linejoin:round;stroke-width:0.5px;opacity:0.24"/><line x1="1447" y1="881.79" x2="1447" y2="977" style="fill:none;stroke:#d31fff;stroke-linecap:round;stroke-linejoin:round;stroke-width:0.5px;opacity:0.24"/><line x1="1484.5" y1="882.42" x2="1484.5" y2="977" style="fill:none;stroke:#d31fff;stroke-linecap:round;stroke-linejoin:round;stroke-width:0.5px;opacity:0.24"/><line x1="1522" y1="880.43" x2="1522" y2="977" style="fill:none;stroke:#d31fff;stroke-linecap:round;stroke-linejoin:round;stroke-width:0.5px;opacity:0.24"/><line x1="1558.71" y1="879.11" x2="1558.71" y2="977" style="fill:none;stroke:#d31fff;stroke-linecap:round;stroke-linejoin:round;stroke-width:0.5px;opacity:0.24"/><line x1="1597" y1="878.16" x2="1597" y2="977" style="fill:none;stroke:#d31fff;stroke-linecap:round;stroke-linejoin:round;stroke-width:0.5px;opacity:0.24"/><line x1="1634.5" y1="875.85" x2="1634.5" y2="977" style="fill:none;stroke:#d31fff;stroke-linecap:round;stroke-linejoin:round;stroke-width:0.5px;opacity:0.24"/><polygon points="1132.77 889.44 1095.52 890.44 1058.27 889.88 1021.02 891.39 983.77 891.39 946.52 890.69 909.27 889.89 872.02 889.89 872.02 977 1170.02 977 1170.02 889.44 1132.77 889.44" style="fill:#7f43ff;opacity:0.12"/><text transform="translate(842.02 877.19)" style="opacity:0.5;font-size:18px;fill:#fff;font-family:ArialMT, Arial">159.18</text><text transform="translate(1119.92 877.19)" style="font-size:18px;fill:#fff;font-family:ArialMT, Arial">160.28 t/ha</text><line x1="946.52" y1="890.69" x2="946.52" y2="977" style="fill:none;stroke:#7f43ff;stroke-linecap:round;stroke-linejoin:round;stroke-width:0.5px;opacity:0.24"/><line x1="1058.27" y1="889.88" x2="1058.27" y2="977" style="fill:none;stroke:#7f43ff;stroke-linecap:round;stroke-linejoin:round;stroke-width:0.5px;opacity:0.24"/><line x1="1095.52" y1="890.44" x2="1095.52" y2="977" style="fill:none;stroke:#7f43ff;stroke-linecap:round;stroke-linejoin:round;stroke-width:0.5px;opacity:0.24"/><line x1="1132.77" y1="889.44" x2="1132.77" y2="977" style="fill:none;stroke:#7f43ff;stroke-linecap:round;stroke-linejoin:round;stroke-width:0.5px;opacity:0.24"/><line x1="1021.02" y1="891.39" x2="1021.02" y2="977" style="fill:none;stroke:#7f43ff;stroke-linecap:round;stroke-linejoin:round;stroke-width:0.5px;opacity:0.24"/><line x1="983.77" y1="891.39" x2="983.77" y2="977" style="fill:none;stroke:#7f43ff;stroke-linecap:round;stroke-linejoin:round;stroke-width:0.5px;opacity:0.24"/><polyline points="872.02 889.89 909.27 889.89 946.52 890.69 983.77 891.39 1021.02 891.39 1058.27 889.88 1095.52 890.44 1132.77 889.44 1170.02 889.44 1132.77 889.44" style="fill:none;stroke:#7f43ff;stroke-linecap:round;stroke-linejoin:round;stroke-width:2px"/><circle cx="1170.02" cy="889.44" r="5" style="fill:#7f43ff"/><line x1="909.27" y1="889.89" x2="909.27" y2="977" style="fill:none;stroke:#7f43ff;stroke-linecap:round;stroke-linejoin:round;stroke-width:0.5px;opacity:0.24"/><polyline points="672 952.01 672 977 374 977 374 938.4 411.25 940.29 448.5 940.29 485.75 941.6 523 946.41 560.25 947.51 597.5 948.19 634.75 949.13 672 952.01 634.75 949.13" style="fill:#04e3ff;opacity:0.12"/><polyline points="374 938.4 411.25 940.29 448.5 940.29 485.75 941.6 523 946.41 560.25 947.51 597.5 948.19 634.75 949.13 672 952.01 634.75 949.13" style="fill:none;stroke:#04e3ff;stroke-linecap:round;stroke-linejoin:round;stroke-width:2px"/><circle cx="671.87" cy="952.01" r="5" style="fill:#04e3ff"/><text transform="translate(345.81 921.71)" style="opacity:0.5;font-size:18px;fill:#fff;font-family:ArialMT, Arial">126.23</text><text transform="translate(625.63 939.07)" style="font-size:18px;fill:#fff;font-family:ArialMT, Arial"><tspan style="letter-spacing:-0.07421875em">1</tspan><tspan x="8.67" y="0">16.98 t/ha</tspan></text><line x1="411.25" y1="940.29" x2="411.25" y2="977" style="fill:none;stroke:#02f8ff;stroke-miterlimit:10;stroke-width:0.5px;opacity:0.24"/><line x1="448.5" y1="940.29" x2="448.5" y2="977" style="fill:none;stroke:#02f8ff;stroke-miterlimit:10;stroke-width:0.5px;opacity:0.24"/><line x1="484.92" y1="941.57" x2="484.92" y2="977" style="fill:none;stroke:#02f8ff;stroke-miterlimit:10;stroke-width:0.5px;opacity:0.24"/><line x1="523" y1="946.41" x2="523" y2="977" style="fill:none;stroke:#02f8ff;stroke-miterlimit:10;stroke-width:0.5px;opacity:0.24"/><line x1="560.25" y1="947.51" x2="560.25" y2="977" style="fill:none;stroke:#02f8ff;stroke-miterlimit:10;stroke-width:0.5px;opacity:0.24"/><line x1="597.5" y1="948.19" x2="597.5" y2="977" style="fill:none;stroke:#02f8ff;stroke-miterlimit:10;stroke-width:0.5px;opacity:0.24"/><line x1="634.75" y1="949.13" x2="634.75" y2="977" style="fill:none;stroke:#02f8ff;stroke-miterlimit:10;stroke-width:0.5px;opacity:0.24"/></g></svg>