<svg id="a8b05346-c53e-4b07-8045-008c07a985bf" data-name="10-PlantsSoil" xmlns="http://www.w3.org/2000/svg" viewBox="0 0 1920 1080"><polygon points="946.52 890.69 909.27 889.89 872.02 889.89 872.02 977 946.52 977 946.52 890.69" style="fill:#7f43ff;opacity:0.12"/><text transform="translate(842.02 877.2)" style="opacity:0.5;font-size:18px;fill:#fff;font-family:ArialMT, Arial">159.18</text><text transform="translate(901.48 878.44)" style="font-size:18px;fill:#fff;font-family:ArialMT, Arial">158.64 t/ha</text><polyline points="872.02 889.89 909.27 889.89 946.52 890.69" style="fill:none;stroke:#7f43ff;stroke-linecap:round;stroke-linejoin:round;stroke-width:2px"/><circle cx="946.52" cy="890.69" r="5" style="fill:#7f43ff"/><line x1="909.27" y1="889.89" x2="909.27" y2="977" style="fill:none;stroke:#7f43ff;stroke-linecap:round;stroke-linejoin:round;stroke-width:0.5px;opacity:0.24"/><polyline points="448.5 977 374 977 374 938.4 411.25 940.29 448.5 940.29 448.5 977" style="fill:#04e3ff;opacity:0.12"/><polyline points="374 938.4 411.25 940.29 448.5 940.29" style="fill:none;stroke:#04e3ff;stroke-linecap:round;stroke-linejoin:round;stroke-width:2px"/><circle cx="448.5" cy="940.29" r="5" style="fill:#04e3ff"/><text transform="translate(345.81 924.37)" style="opacity:0.5;font-size:18px;fill:#fff;font-family:ArialMT, Arial">126.23</text><text transform="translate(403.46 925.69)" style="font-size:18px;fill:#fff;font-family:ArialMT, Arial">125.10 t/ha</text><line x1="411.25" y1="940.29" x2="411.25" y2="977" style="fill:none;stroke:#02f8ff;stroke-miterlimit:10;stroke-width:0.5px;opacity:0.24"/><polygon points="1447 881.79 1409.5 882.67 1372 882.67 1372 977 1447 977 1447 881.79" style="fill:#d31fff;opacity:0.12"/><circle cx="1447" cy="881.79" r="5" style="fill:#d31fff"/><polyline points="1373.13 882.67 1410.34 882.67 1447.56 881.79" style="fill:none;stroke:#d31fff;stroke-linecap:round;stroke-linejoin:round;stroke-width:2px"/><text transform="translate(1347.33 869.03)" style="opacity:0.5;font-size:18px;fill:#fff;font-family:ArialMT, Arial">164.09</text><text transform="translate(1401.78 867.85)" style="font-size:18px;fill:#fff;font-family:ArialMT, Arial">164.69 t/ha</text><line x1="1409.5" y1="882.67" x2="1409.5" y2="977" style="fill:none;stroke:#d31fff;stroke-linecap:round;stroke-linejoin:round;stroke-width:0.5px;opacity:0.24"/></svg>