<svg id="b1137319-92ff-4919-860e-63ff59db61e4" data-name="图层 1" xmlns="http://www.w3.org/2000/svg" xmlns:xlink="http://www.w3.org/1999/xlink" viewBox="0 0 1920 1080"><defs><linearGradient id="fb638541-27ce-467d-98d6-2fc2462787e0" x1="120.69" y1="-1563.43" x2="56.69" y2="-1627.43" gradientTransform="matrix(1, 0, 0, -1, 0, -1538.1)" gradientUnits="userSpaceOnUse"><stop offset="0" stop-color="#03ffda"/><stop offset="0.88" stop-color="#1d96e4"/><stop offset="1" stop-color="#382bee"/></linearGradient><linearGradient id="abd672ee-fbc9-43a9-95d0-7f4fc098592e" x1="99.63" y1="-1601.43" x2="119.73" y2="-1633.43" gradientTransform="matrix(1, 0, 0, -1, 0, -1538.1)" gradientUnits="userSpaceOnUse"><stop offset="0" stop-color="#ac43ff"/><stop offset="1" stop-color="#03ffda"/></linearGradient><linearGradient id="a8aa6b93-900c-4753-8d73-197f9457761d" x1="69.84" y1="-1587.45" x2="113.48" y2="-1631.09" gradientTransform="matrix(1, 0, 0, -1, 0, -1538.1)" gradientUnits="userSpaceOnUse"><stop offset="0" stop-color="#382bee"/><stop offset="1" stop-color="#ac43ff"/></linearGradient></defs><path d="M92,92.65a32,32,0,1,1,0-64h32A20.36,20.36,0,0,1,103.64,49H92a21.82,21.82,0,1,0,0,43.64Z" style="fill:url(#fb638541-27ce-467d-98d6-2fc2462787e0)"/><path d="M124,60.65a32,32,0,0,1-32,32,21.82,21.82,0,0,0,19.3-32Z" style="fill:url(#abd672ee-fbc9-43a9-95d0-7f4fc098592e)"/><path d="M92,92.65A21.82,21.82,0,1,1,92,49a11.64,11.64,0,1,0,11.64,11.64h7.66a21.82,21.82,0,0,1-19.3,32Z" style="fill:url(#a8aa6b93-900c-4753-8d73-197f9457761d)"/></svg>