<svg xmlns="http://www.w3.org/2000/svg" viewBox="0 0 1920 1080"><g id="Headset"><circle cx="1748" cy="60" r="24" style="fill:#04e3ff;opacity:0.16"/><path d="M1748,45.5a12.94,12.94,0,0,0-13,12.85V67a3.5,3.5,0,0,0,7,0V63a3.5,3.5,0,0,0-3.5-3.5H1737V58.35a11,11,0,0,1,22,0V59.5h-1.5A3.5,3.5,0,0,0,1754,63v4a3.5,3.5,0,0,0,7,0V58.35A12.94,12.94,0,0,0,1748,45.5Zm-9.5,16A1.5,1.5,0,0,1,1740,63v4a1.5,1.5,0,0,1-3,0V61.5ZM1759,67a1.5,1.5,0,0,1-3,0V63a1.5,1.5,0,0,1,1.5-1.5h1.5Z" style="fill:#fff"/></g><g id="Waves"><path d="M1748,67.5a1,1,0,0,1-1-1v-3a1,1,0,0,1,2,0v3A1,1,0,0,1,1748,67.5Z" style="fill:#04e3ff"/><path d="M1752,68.5a1,1,0,0,1-1-1v-5a1,1,0,0,1,2,0v5A1,1,0,0,1,1752,68.5Z" style="fill:#04e3ff"/><path d="M1744,66.5a1,1,0,0,1-1-1v-1a1,1,0,0,1,2,0v1A1,1,0,0,1,1744,66.5Z" style="fill:#04e3ff"/></g></svg>