<svg id="a82e1f0a-5e5f-4e3d-827e-73373b727e87" data-name="图层 1" xmlns="http://www.w3.org/2000/svg" viewBox="0 0 1920 1080"><circle cx="1853.7" cy="914.05" r="30" style="fill:#04e3ff;opacity:0.16"/><rect x="1840.7" y="901.55" width="26" height="25" style="fill:none"/><path d="M1841.7,915.55v-1.16a12,12,0,0,1,24,0v1.16" style="fill:none;stroke:#fff;stroke-miterlimit:10;stroke-width:2px"/><path d="M1853.7,919.55v3" style="fill:none;stroke:#56f2ff;stroke-linecap:round;stroke-linejoin:round;stroke-width:2px"/><path d="M1857.7,918.55v5" style="fill:none;stroke:#56f2ff;stroke-linecap:round;stroke-linejoin:round;stroke-width:2px"/><path d="M1849.7,920.55v1" style="fill:none;stroke:#56f2ff;stroke-linecap:round;stroke-linejoin:round;stroke-width:2px"/><path d="M1841.7,916.55h2.5a2.49,2.49,0,0,1,2.5,2.5v4a2.5,2.5,0,0,1-5,0Z" style="fill:none;stroke:#fff;stroke-width:2px"/><path d="M1865.7,916.55h-2.5a2.49,2.49,0,0,0-2.5,2.5v4a2.5,2.5,0,0,0,5,0Z" style="fill:none;stroke:#fff;stroke-width:2px"/></svg>