<svg><path d="M5198.27,2350.44c-.38,2.63,4.42,3.72,8.68,3.25s5,3.19,9.38,1.53,2.06-8.48-5.2-9.71S5198.58,2348.32,5198.27,2350.44Z" transform="translate(-5196.66 -2340.77)" style="fill:none;stroke:#02f8ff;stroke-miterlimit:10"/><circle cx="8.24" cy="8.92" r="1.1" style="fill:#02f8ff"/><circle cx="15.91" cy="9.7" r="1.1" style="fill:#02f8ff"/><line x1="4.03" y1="6.77" x2="1.34" y2="4.32" style="fill:none;stroke:#02f8ff;stroke-linecap:round;stroke-linejoin:round"/><line x1="5.43" y1="1.56" x2="6.64" y2="5.43" style="fill:none;stroke:#02f8ff;stroke-linecap:round;stroke-linejoin:round"/><line x1="14.73" y1="0.66" x2="13.65" y2="4.51" style="fill:none;stroke:#02f8ff;stroke-linecap:round;stroke-linejoin:round"/><line x1="10.16" y1="0.5" x2="10.26" y2="4.59" style="fill:none;stroke:#02f8ff;stroke-linecap:round;stroke-linejoin:round"/><line x1="19.9" y1="2.73" x2="17.68" y2="5.77" style="fill:none;stroke:#02f8ff;stroke-linecap:round;stroke-linejoin:round"/><line x1="24.04" y1="5.98" x2="20.77" y2="8.29" style="fill:none;stroke:#02f8ff;stroke-linecap:round;stroke-linejoin:round"/><line x1="0.5" y1="14.33" x2="3.13" y2="12.02" style="fill:none;stroke:#02f8ff;stroke-linecap:round;stroke-linejoin:round"/><line x1="4.58" y1="15.77" x2="6.27" y2="12.9" style="fill:none;stroke:#02f8ff;stroke-linecap:round;stroke-linejoin:round"/><line x1="8.6" y1="16.53" x2="9.71" y2="12.98" style="fill:none;stroke:#02f8ff;stroke-linecap:round;stroke-linejoin:round"/><line x1="14.3" y1="17.46" x2="14.22" y2="13.77" style="fill:none;stroke:#02f8ff;stroke-linecap:round;stroke-linejoin:round"/><line x1="19.39" y1="17.88" x2="18.67" y2="14.75" style="fill:none;stroke:#02f8ff;stroke-linecap:round;stroke-linejoin:round"/><line x1="21.8" y1="10.48" x2="31.93" y2="10.82" style="fill:none;stroke:#02f8ff;stroke-linecap:round;stroke-linejoin:round"/><line x1="21.38" y1="13.17" x2="30.52" y2="16.53" style="fill:none;stroke:#02f8ff;stroke-linecap:round;stroke-linejoin:round"/></svg>