<svg><path d="M4631.25,2454.25c0,2.65-4.85,3.14-9,2.15s-5.33,2.55-9.5.36-1-8.67,6.37-9S4631.2,2452.11,4631.25,2454.25Z" transform="translate(-4600.53 -2443.18)" style="fill:none;stroke:#02f8ff;stroke-miterlimit:10"/><circle cx="24.23" cy="9.51" r="1.1" style="fill:#02f8ff"/><circle cx="16.53" cy="9.33" r="1.1" style="fill:#02f8ff"/><line x1="28.69" y1="7.89" x2="31.65" y2="5.79" style="fill:none;stroke:#02f8ff;stroke-linecap:round;stroke-linejoin:round"/><line x1="27.93" y1="2.55" x2="26.26" y2="6.24" style="fill:none;stroke:#02f8ff;stroke-linecap:round;stroke-linejoin:round"/><line x1="18.81" y1="0.5" x2="19.41" y2="4.46" style="fill:none;stroke:#02f8ff;stroke-linecap:round;stroke-linejoin:round"/><line x1="23.36" y1="0.91" x2="22.77" y2="4.96" style="fill:none;stroke:#02f8ff;stroke-linecap:round;stroke-linejoin:round"/><line x1="13.43" y1="1.92" x2="15.25" y2="5.22" style="fill:none;stroke:#02f8ff;stroke-linecap:round;stroke-linejoin:round"/><line x1="8.92" y1="4.64" x2="11.88" y2="7.34" style="fill:none;stroke:#02f8ff;stroke-linecap:round;stroke-linejoin:round"/><line x1="31.26" y1="15.83" x2="28.93" y2="13.21" style="fill:none;stroke:#02f8ff;stroke-linecap:round;stroke-linejoin:round"/><line x1="27.03" y1="16.75" x2="25.7" y2="13.7" style="fill:none;stroke:#02f8ff;stroke-linecap:round;stroke-linejoin:round"/><line x1="22.95" y1="17.01" x2="22.28" y2="13.35" style="fill:none;stroke:#02f8ff;stroke-linecap:round;stroke-linejoin:round"/><line x1="17.17" y1="17.24" x2="17.71" y2="13.58" style="fill:none;stroke:#02f8ff;stroke-linecap:round;stroke-linejoin:round"/><line x1="12.07" y1="17.02" x2="13.17" y2="14.01" style="fill:none;stroke:#02f8ff;stroke-linecap:round;stroke-linejoin:round"/><line x1="10.59" y1="9.38" x2="0.5" y2="8.48" style="fill:none;stroke:#02f8ff;stroke-linecap:round;stroke-linejoin:round"/><line x1="10.68" y1="12.11" x2="1.19" y2="14.31" style="fill:none;stroke:#02f8ff;stroke-linecap:round;stroke-linejoin:round"/></svg>