<svg><path d="M5231.57,2458.43c.4,3-4.16,4.91-8.22,5s-4.7,4.37-8.91,3.14-2.07-9.37,4.83-11.86S5231.25,2456,5231.57,2458.43Z" transform="translate(-5207.89 -2449.15)" style="fill:none;stroke:#02f8ff;stroke-miterlimit:10"/><circle cx="17.85" cy="9.33" r="1.1" style="fill:#02f8ff"/><circle cx="9.86" cy="11.66" r="1.1" style="fill:#02f8ff"/><line x1="21.94" y1="6.76" x2="24.42" y2="4.11" style="fill:none;stroke:#02f8ff;stroke-linecap:round;stroke-linejoin:round"/><line x1="20.1" y1="1.36" x2="19.2" y2="5.3" style="fill:none;stroke:#02f8ff;stroke-linecap:round;stroke-linejoin:round"/><line x1="10.15" y1="1.54" x2="11.6" y2="5.51" style="fill:none;stroke:#02f8ff;stroke-linecap:round;stroke-linejoin:round"/><line x1="15.35" y1="0.5" x2="15.58" y2="4.77" style="fill:none;stroke:#02f8ff;stroke-linecap:round;stroke-linejoin:round"/><line x1="5.28" y1="4.63" x2="7.85" y2="7.64" style="fill:none;stroke:#02f8ff;stroke-linecap:round;stroke-linejoin:round"/><line x1="1.79" y1="8.91" x2="5.23" y2="10.97" style="fill:none;stroke:#02f8ff;stroke-linecap:round;stroke-linejoin:round"/><line x1="4.32" y1="14.09" x2="0.5" y2="13.46" style="fill:none;stroke:#02f8ff;stroke-linecap:round;stroke-linejoin:round"/><line x1="25.48" y1="13.94" x2="22.67" y2="11.83" style="fill:none;stroke:#02f8ff;stroke-linecap:round;stroke-linejoin:round"/><line x1="22.48" y1="16.37" x2="20.33" y2="13.3" style="fill:none;stroke:#02f8ff;stroke-linecap:round;stroke-linejoin:round"/><line x1="18.88" y1="17.55" x2="17.5" y2="14.1" style="fill:none;stroke:#02f8ff;stroke-linecap:round;stroke-linejoin:round"/><line x1="15" y1="18.88" x2="13.89" y2="14.58" style="fill:none;stroke:#02f8ff;stroke-linecap:round;stroke-linejoin:round"/><line x1="10.57" y1="20.57" x2="10.37" y2="16.88" style="fill:none;stroke:#02f8ff;stroke-linecap:round;stroke-linejoin:round"/><line x1="6.65" y1="21.01" x2="7.16" y2="17.59" style="fill:none;stroke:#02f8ff;stroke-linecap:round;stroke-linejoin:round"/></svg>