<svg><path d="M4610.15,2355.34c-.39,2.94,4.17,4.9,8.23,5s4.69,4.37,8.91,3.14,2.06-9.37-4.84-11.86S4610.47,2353,4610.15,2355.34Z" transform="translate(-4607.87 -2346.05)" style="fill:none;stroke:#02f8ff;stroke-miterlimit:10"/><circle cx="8.12" cy="9.33" r="1.1" style="fill:#02f8ff"/><circle cx="16.11" cy="11.66" r="1.1" style="fill:#02f8ff"/><line x1="4.04" y1="6.76" x2="1.55" y2="4.11" style="fill:none;stroke:#02f8ff;stroke-linecap:round;stroke-linejoin:round"/><line x1="5.87" y1="1.36" x2="6.77" y2="5.3" style="fill:none;stroke:#02f8ff;stroke-linecap:round;stroke-linejoin:round"/><line x1="15.82" y1="1.54" x2="14.37" y2="5.51" style="fill:none;stroke:#02f8ff;stroke-linecap:round;stroke-linejoin:round"/><line x1="10.63" y1="0.5" x2="10.4" y2="4.77" style="fill:none;stroke:#02f8ff;stroke-linecap:round;stroke-linejoin:round"/><line x1="20.69" y1="4.63" x2="18.12" y2="7.64" style="fill:none;stroke:#02f8ff;stroke-linecap:round;stroke-linejoin:round"/><line x1="24.18" y1="8.91" x2="20.74" y2="10.97" style="fill:none;stroke:#02f8ff;stroke-linecap:round;stroke-linejoin:round"/><line x1="21.66" y1="14.09" x2="25.47" y2="13.47" style="fill:none;stroke:#02f8ff;stroke-linecap:round;stroke-linejoin:round"/><line x1="0.5" y1="13.94" x2="3.3" y2="11.83" style="fill:none;stroke:#02f8ff;stroke-linecap:round;stroke-linejoin:round"/><line x1="3.49" y1="16.37" x2="5.65" y2="13.3" style="fill:none;stroke:#02f8ff;stroke-linecap:round;stroke-linejoin:round"/><line x1="7.09" y1="17.55" x2="8.47" y2="14.1" style="fill:none;stroke:#02f8ff;stroke-linecap:round;stroke-linejoin:round"/><line x1="10.97" y1="18.89" x2="12.08" y2="14.58" style="fill:none;stroke:#02f8ff;stroke-linecap:round;stroke-linejoin:round"/><line x1="15.4" y1="20.57" x2="15.61" y2="16.88" style="fill:none;stroke:#02f8ff;stroke-linecap:round;stroke-linejoin:round"/><line x1="19.33" y1="21.01" x2="18.82" y2="17.59" style="fill:none;stroke:#02f8ff;stroke-linecap:round;stroke-linejoin:round"/></svg>